<svg id="svg" version="1.1" xmlns="http://www.w3.org/2000/svg" xmlns:xlink="http://www.w3.org/1999/xlink" width="400" height="400" viewBox="0, 0, 400,400"><g id="svgg"><path id="path0" d="M144.000 135.180 C 139.902 135.519,137.740 136.720,136.400 139.400 L 135.400 141.400 135.281 199.200 C 135.194 241.628,135.284 257.426,135.619 258.600 C 136.559 261.894,137.182 262.732,139.541 263.876 L 141.800 264.971 155.200 265.283 C 169.322 265.611,253.727 265.335,256.785 264.950 C 261.299 264.382,263.313 262.870,264.420 259.218 C 265.198 256.652,265.212 255.454,265.107 199.200 L 265.000 141.800 263.966 139.600 C 263.107 137.772,262.600 137.231,260.966 136.400 L 259.000 135.400 243.000 135.138 C 223.049 134.812,148.060 134.843,144.000 135.180 M205.600 185.824 C 220.468 191.711,217.234 214.097,201.368 215.115 C 183.173 216.282,178.378 191.040,195.714 185.354 C 197.918 184.632,203.225 184.884,205.600 185.824 " stroke="none" fill="#fb8373" fill-rule="evenodd"></path><path id="path1" d="M53.400 1.285 C 10.512 1.676,4.299 1.919,2.960 3.258 C 1.362 4.856,1.112 15.782,1.336 74.200 C 1.571 135.350,0.969 130.124,7.931 131.458 C 13.936 132.609,122.175 132.610,124.490 131.459 C 126.679 130.371,129.323 127.901,130.854 125.516 L 132.200 123.419 132.326 68.209 L 132.452 13.000 131.551 8.635 C 130.505 3.571,129.815 2.510,127.188 1.929 C 124.339 1.299,87.315 0.975,53.400 1.285 M185.600 1.057 C 184.830 1.124,173.908 1.228,161.329 1.289 C 133.850 1.422,136.323 0.741,134.772 8.600 C 134.004 12.485,133.775 120.621,134.528 123.213 C 135.309 125.899,137.383 128.430,139.735 129.569 L 141.469 130.408 200.500 130.304 L 259.531 130.200 261.254 128.989 C 262.202 128.323,263.522 127.003,264.187 126.057 L 265.396 124.337 265.703 106.268 C 266.364 67.339,265.914 10.617,264.916 7.108 C 263.773 3.089,263.474 2.580,261.908 1.997 C 260.013 1.292,192.452 0.459,185.600 1.057 M281.329 1.557 C 269.055 1.879,268.781 2.101,267.978 12.400 C 267.120 23.401,267.812 121.340,268.770 124.468 C 269.385 126.475,272.277 129.584,274.861 131.015 L 277.000 132.200 332.400 132.140 C 401.652 132.065,397.541 132.418,398.269 126.494 C 398.899 121.368,398.602 5.130,397.955 3.781 C 396.799 1.369,399.157 1.470,342.400 1.388 C 313.910 1.347,286.428 1.423,281.329 1.557 M261.790 3.138 C 262.807 3.732,263.119 4.339,263.883 7.218 L 264.782 10.600 264.791 66.123 C 264.801 127.582,264.950 124.187,262.125 127.012 C 259.373 129.764,262.919 129.623,199.099 129.507 L 140.931 129.400 139.298 128.268 C 138.399 127.645,137.155 126.401,136.532 125.502 L 135.400 123.868 135.400 66.634 C 135.400 8.088,135.402 7.987,136.849 4.329 C 137.083 3.740,137.572 3.110,137.937 2.929 C 140.106 1.853,259.937 2.056,261.790 3.138 M196.959 49.407 C 190.137 50.656,184.758 55.814,182.961 62.832 C 179.714 75.503,192.812 87.686,205.222 83.539 C 222.717 77.691,221.032 52.863,202.904 49.394 C 201.197 49.067,199.800 48.820,199.800 48.843 C 199.800 48.867,198.521 49.121,196.959 49.407 M206.229 51.245 C 209.123 52.328,211.702 54.405,213.572 57.158 C 224.952 73.916,202.918 92.618,188.448 78.483 C 175.569 65.902,189.278 44.903,206.229 51.245 M25.600 134.400 C 1.820 134.737,2.167 134.618,1.449 142.697 C 0.888 149.011,0.903 251.235,1.465 257.766 C 2.187 266.135,-4.111 265.400,66.831 265.400 L 124.262 265.400 125.727 264.283 C 130.884 260.349,130.453 266.461,130.318 199.134 L 130.200 140.469 128.984 138.739 C 128.316 137.788,126.966 136.469,125.984 135.809 L 124.200 134.609 103.400 134.340 C 79.214 134.029,50.252 134.051,25.600 134.400 M283.170 134.759 C 274.871 135.028,273.533 135.461,271.684 138.473 C 270.031 141.166,270.000 142.321,270.000 201.595 L 270.000 258.643 271.133 260.430 C 272.532 262.636,274.310 264.165,276.290 264.865 C 277.521 265.301,288.057 265.399,333.400 265.400 C 393.786 265.400,394.306 265.382,397.229 263.178 L 398.200 262.447 398.452 242.323 C 399.051 194.486,398.714 139.634,397.807 137.489 C 397.399 136.525,396.528 136.111,393.324 135.357 C 390.442 134.678,300.691 134.191,283.170 134.759 M125.228 136.475 C 126.234 137.066,127.584 138.310,128.228 139.240 L 129.400 140.931 129.521 198.166 C 129.656 262.441,129.770 258.840,127.529 261.386 C 124.412 264.927,130.637 264.600,66.400 264.600 C 3.697 264.600,4.846 264.649,2.730 261.891 C 2.692 261.841,2.508 256.220,2.321 249.400 C 2.134 242.580,1.892 235.380,1.783 233.400 C 1.308 224.759,1.175 165.555,1.628 164.086 C 1.903 163.192,2.162 158.060,2.277 151.200 C 2.496 138.082,2.638 137.411,5.400 136.434 C 8.133 135.466,16.543 135.329,70.800 135.365 L 123.400 135.400 125.228 136.475 M63.200 182.686 C 56.904 183.801,50.628 190.305,49.556 196.825 C 45.927 218.904,77.750 226.064,83.641 204.494 C 86.959 192.347,75.810 180.453,63.200 182.686 M70.216 183.817 C 85.821 187.857,88.021 208.011,73.633 215.121 C 65.116 219.331,54.084 214.650,50.984 205.511 C 46.867 193.378,58.119 180.686,70.216 183.817 M63.800 268.045 C 7.718 268.302,4.622 268.400,3.061 269.961 C 1.762 271.260,1.590 278.966,1.489 340.200 C 1.395 397.402,1.364 396.292,3.084 397.418 C 5.167 398.783,121.897 399.396,127.939 398.074 C 132.287 397.122,132.143 399.350,132.174 332.400 L 132.200 277.000 131.218 275.078 C 130.020 272.732,126.972 269.808,124.659 268.785 C 122.308 267.745,124.252 267.768,63.800 268.045 M301.200 268.000 C 282.165 268.155,276.331 268.318,275.413 268.723 C 273.473 269.578,271.043 271.788,269.369 274.220 L 267.800 276.501 267.800 323.150 C 267.800 388.902,267.997 395.587,269.983 397.384 C 271.527 398.782,277.290 398.895,337.200 398.706 C 398.133 398.513,397.103 398.544,397.834 396.846 C 398.646 394.956,399.294 293.744,398.594 278.000 C 398.297 271.313,397.969 269.897,396.573 269.261 C 393.866 268.027,357.307 267.544,301.200 268.000 M164.200 269.956 C 132.297 270.291,135.025 267.929,134.595 295.600 C 134.260 317.227,134.269 365.532,134.611 379.800 C 134.954 394.059,135.539 397.082,138.132 397.987 C 141.602 399.197,248.957 399.602,259.380 398.444 C 264.485 397.877,264.781 397.143,265.214 384.000 C 265.815 365.796,265.671 277.745,265.039 276.231 C 264.230 274.296,261.815 271.775,259.875 270.841 C 257.937 269.908,210.522 269.470,164.200 269.956 " stroke="none" fill="#d3d3d3" fill-rule="evenodd"></path><path id="path2" d="M153.000 2.400 C 137.795 2.611,137.516 2.645,136.849 4.329 C 135.402 7.987,135.400 8.088,135.400 66.634 L 135.400 123.868 136.532 125.502 C 137.155 126.401,138.399 127.645,139.298 128.268 L 140.931 129.400 199.099 129.507 C 262.919 129.623,259.373 129.764,262.125 127.012 C 264.950 124.187,264.801 127.582,264.791 66.123 L 264.782 10.600 263.883 7.218 C 262.470 1.895,268.226 2.460,213.998 2.320 C 188.369 2.254,160.920 2.290,153.000 2.400 M202.904 49.394 C 221.032 52.863,222.717 77.691,205.222 83.539 C 192.812 87.686,179.714 75.503,182.961 62.832 C 184.758 55.814,190.137 50.656,196.959 49.407 C 198.521 49.121,199.800 48.867,199.800 48.843 C 199.800 48.820,201.197 49.067,202.904 49.394 M12.600 135.599 C 2.212 136.097,2.538 135.605,2.277 151.200 C 2.162 158.060,1.903 163.192,1.628 164.086 C 1.175 165.555,1.308 224.759,1.783 233.400 C 1.892 235.380,2.134 242.580,2.321 249.400 C 2.508 256.220,2.692 261.841,2.730 261.891 C 4.846 264.649,3.697 264.600,66.400 264.600 C 130.637 264.600,124.412 264.927,127.529 261.386 C 129.770 258.840,129.656 262.441,129.521 198.166 L 129.400 140.931 128.228 139.240 C 127.584 138.310,126.234 137.066,125.228 136.475 L 123.400 135.400 70.800 135.365 C 41.870 135.346,15.680 135.451,12.600 135.599 M71.224 183.150 C 80.504 185.804,86.113 195.444,83.641 204.494 C 79.299 220.391,57.759 222.297,50.788 207.400 C 44.577 194.129,57.207 179.141,71.224 183.150 " stroke="none" fill="#fcfca4" fill-rule="evenodd"></path><path id="path3" d="M0.000 200.000 L 0.000 400.000 200.000 400.000 L 400.000 400.000 400.000 200.000 L 400.000 0.000 200.000 0.000 L 0.000 0.000 0.000 200.000 M127.188 1.929 C 129.815 2.510,130.505 3.571,131.551 8.635 L 132.452 13.000 132.326 68.209 L 132.200 123.419 130.854 125.516 C 129.323 127.901,126.679 130.371,124.490 131.459 C 122.175 132.610,13.936 132.609,7.931 131.458 C 3.238 130.559,2.411 129.879,1.884 126.489 C 1.360 123.122,1.065 26.182,1.542 14.239 C 2.065 1.140,0.932 2.349,13.090 1.903 C 39.181 0.946,122.833 0.965,127.188 1.929 M237.200 1.183 C 261.511 1.523,262.754 1.620,263.627 3.250 C 265.891 7.480,266.699 47.599,265.703 106.268 L 265.396 124.337 264.187 126.057 C 263.522 127.003,262.202 128.323,261.254 128.989 L 259.531 130.200 200.500 130.304 L 141.469 130.408 139.735 129.569 C 137.383 128.430,135.309 125.899,134.528 123.213 C 133.775 120.621,134.004 12.485,134.772 8.600 C 136.323 0.741,133.850 1.422,161.329 1.289 C 173.908 1.228,184.830 1.124,185.600 1.057 C 188.496 0.804,214.628 0.868,237.200 1.183 M395.795 2.032 C 398.727 3.077,398.517 -1.650,398.561 64.381 C 398.582 97.061,398.451 125.012,398.269 126.494 C 397.541 132.418,401.652 132.065,332.400 132.140 L 277.000 132.200 274.861 131.015 C 272.277 129.584,269.385 126.475,268.770 124.468 C 267.812 121.340,267.120 23.401,267.978 12.400 C 268.781 2.101,269.055 1.879,281.329 1.557 C 301.244 1.034,394.076 1.419,395.795 2.032 M196.792 50.341 C 187.931 51.691,181.371 62.157,183.963 70.809 C 187.849 83.781,202.955 87.726,212.024 78.137 C 223.189 66.332,213.068 47.862,196.792 50.341 M203.018 54.547 C 217.338 58.360,214.378 79.995,199.657 79.115 C 185.063 78.243,183.270 57.786,197.494 54.435 C 199.675 53.921,200.751 53.943,203.018 54.547 M103.400 134.340 L 124.200 134.609 125.984 135.809 C 126.966 136.469,128.316 137.788,128.984 138.739 L 130.200 140.469 130.318 199.134 C 130.453 266.461,130.884 260.349,125.727 264.283 L 124.262 265.400 66.831 265.400 C -4.111 265.400,2.187 266.135,1.465 257.766 C 0.903 251.235,0.888 149.011,1.449 142.697 C 2.167 134.618,1.820 134.737,25.600 134.400 C 50.252 134.051,79.214 134.029,103.400 134.340 M393.324 135.357 C 396.528 136.111,397.399 136.525,397.807 137.489 C 398.714 139.634,399.051 194.486,398.452 242.323 L 398.200 262.447 397.229 263.178 C 394.306 265.382,393.786 265.400,333.400 265.400 C 288.057 265.399,277.521 265.301,276.290 264.865 C 274.310 264.165,272.532 262.636,271.133 260.430 L 270.000 258.643 270.000 201.595 C 270.000 142.321,270.031 141.166,271.684 138.473 C 273.533 135.461,274.871 135.028,283.170 134.759 C 300.691 134.191,390.442 134.678,393.324 135.357 M243.000 135.138 L 259.000 135.400 260.966 136.400 C 262.600 137.231,263.107 137.772,263.966 139.600 L 265.000 141.800 265.107 199.200 C 265.212 255.454,265.198 256.652,264.420 259.218 C 263.313 262.870,261.299 264.382,256.785 264.950 C 253.727 265.335,169.322 265.611,155.200 265.283 L 141.800 264.971 139.541 263.876 C 137.182 262.732,136.559 261.894,135.619 258.600 C 135.284 257.426,135.194 241.628,135.281 199.200 L 135.400 141.400 136.400 139.400 C 137.740 136.720,139.902 135.519,144.000 135.180 C 148.060 134.843,223.049 134.812,243.000 135.138 M63.618 183.637 C 51.939 185.926,46.373 199.675,53.112 209.588 C 59.899 219.571,75.523 218.728,81.325 208.066 C 87.874 196.033,76.989 181.016,63.618 183.637 M195.714 185.354 C 178.378 191.040,183.173 216.282,201.368 215.115 C 217.234 214.097,220.468 191.711,205.600 185.824 C 203.225 184.884,197.918 184.632,195.714 185.354 M204.200 187.492 C 211.456 189.761,215.216 197.681,212.445 204.859 C 207.167 218.531,187.035 214.844,187.007 200.200 C 186.988 190.504,194.968 184.605,204.200 187.492 M72.094 188.780 C 83.767 194.344,79.917 212.467,67.054 212.509 C 55.226 212.548,49.845 198.190,58.750 190.351 C 62.017 187.476,67.905 186.783,72.094 188.780 M124.659 268.785 C 126.972 269.808,130.020 272.732,131.218 275.078 L 132.200 277.000 132.174 332.400 C 132.143 399.350,132.287 397.122,127.939 398.074 C 121.897 399.396,5.167 398.783,3.084 397.418 C 1.364 396.292,1.395 397.402,1.489 340.200 C 1.590 278.966,1.762 271.260,3.061 269.961 C 4.622 268.400,7.718 268.302,63.800 268.045 C 124.252 267.768,122.308 267.745,124.659 268.785 M388.885 268.390 C 396.327 268.850,397.405 269.155,397.957 270.959 C 399.243 275.161,399.127 393.838,397.834 396.846 C 397.103 398.544,398.133 398.513,337.200 398.706 C 277.290 398.895,271.527 398.782,269.983 397.384 C 267.997 395.587,267.800 388.902,267.800 323.150 L 267.800 276.501 269.369 274.220 C 271.043 271.788,273.473 269.578,275.413 268.723 C 277.574 267.771,374.269 267.487,388.885 268.390 M259.875 270.841 C 261.815 271.775,264.230 274.296,265.039 276.231 C 265.671 277.745,265.815 365.796,265.214 384.000 C 264.781 397.143,264.485 397.877,259.380 398.444 C 248.957 399.602,141.602 399.197,138.132 397.987 C 135.539 397.082,134.954 394.059,134.611 379.800 C 133.990 353.930,134.455 279.445,135.257 276.277 C 135.693 274.558,137.926 271.885,139.770 270.874 C 142.514 269.370,256.755 269.339,259.875 270.841 " stroke="none" fill="#8d8d8d" fill-rule="evenodd"></path><path id="path4" d="M197.494 54.435 C 183.270 57.786,185.063 78.243,199.657 79.115 C 214.378 79.995,217.338 58.360,203.018 54.547 C 200.751 53.943,199.675 53.921,197.494 54.435 M197.653 186.832 C 183.574 189.590,183.193 209.443,197.150 213.019 C 209.012 216.058,218.118 201.692,210.587 191.819 C 207.853 188.235,202.005 185.980,197.653 186.832 M62.364 188.198 C 55.146 190.514,52.061 200.444,56.505 207.050 C 63.439 217.353,79.000 212.476,79.000 200.000 C 79.000 191.315,70.793 185.493,62.364 188.198 " stroke="none" fill="#2e2d2d" fill-rule="evenodd"></path></g></svg>