<svg id="svg" version="1.1" xmlns="http://www.w3.org/2000/svg" xmlns:xlink="http://www.w3.org/1999/xlink" width="400" height="400" viewBox="0, 0, 400,400"><g id="svgg"><path id="path0" d="M73.167 0.553 C 73.075 0.637,57.700 0.929,39.000 1.200 C 2.395 1.732,2.797 1.703,1.991 3.825 C 0.872 6.768,0.479 109.815,1.529 124.892 C 2.101 133.103,-1.370 132.710,70.000 132.647 L 123.000 132.600 124.770 131.656 C 127.040 130.445,130.445 127.040,131.656 124.770 L 132.600 123.000 132.707 67.838 C 132.777 31.562,132.675 12.013,132.407 10.738 C 132.183 9.672,131.807 7.855,131.571 6.700 C 130.547 1.690,130.721 1.749,114.795 1.017 C 102.957 0.473,73.610 0.146,73.167 0.553 M185.200 1.056 C 184.430 1.124,173.598 1.228,161.129 1.289 C 134.936 1.417,136.845 1.109,135.482 5.433 C 134.282 9.244,134.096 18.650,134.150 73.000 L 134.200 123.400 135.442 125.600 C 136.158 126.869,137.399 128.308,138.375 129.000 L 140.068 130.200 155.334 130.454 C 190.808 131.045,235.191 131.251,246.632 130.878 C 260.054 130.441,260.572 130.332,263.130 127.418 C 266.049 124.095,265.789 129.724,265.896 67.400 L 265.993 11.400 264.896 7.243 C 263.227 0.914,265.976 1.547,238.529 1.166 C 216.350 0.858,188.140 0.800,185.200 1.056 M299.600 1.211 C 267.744 1.512,270.018 1.103,268.291 6.842 L 267.400 9.800 267.432 65.214 C 267.470 129.245,267.178 124.322,271.179 128.411 C 272.402 129.661,274.212 131.114,275.201 131.641 L 277.000 132.600 310.200 132.612 C 385.588 132.638,395.945 132.314,397.761 129.871 L 398.600 128.742 398.730 69.871 C 398.893 -3.945,399.320 2.210,393.994 1.607 C 389.876 1.141,332.427 0.900,299.600 1.211 M119.200 1.965 C 127.698 2.485,129.504 2.958,130.033 4.800 C 131.643 10.413,131.602 8.793,131.601 66.913 C 131.600 129.739,131.945 123.776,128.082 127.745 C 123.949 131.992,130.456 131.582,67.200 131.587 C 15.033 131.591,11.588 131.549,8.162 130.858 C 2.047 129.624,2.388 130.726,2.389 112.202 C 2.390 101.223,2.251 96.937,1.829 94.903 C 1.124 91.511,1.016 44.152,1.706 41.200 C 1.944 40.181,2.229 31.808,2.363 21.914 C 2.629 2.289,2.439 3.393,5.661 2.771 C 6.617 2.586,18.110 2.413,31.200 2.385 C 49.375 2.347,55.425 2.213,56.800 1.817 C 59.130 1.146,107.695 1.262,119.200 1.965 M260.645 2.605 C 262.435 2.908,263.012 3.773,263.971 7.600 L 264.823 11.000 264.712 67.434 L 264.600 123.869 263.407 125.590 C 260.903 129.203,260.392 129.353,249.231 129.747 C 224.550 130.618,141.710 129.766,139.483 128.618 C 137.622 127.658,135.719 124.884,135.395 122.659 C 134.885 119.151,135.401 8.693,135.936 7.000 C 136.851 4.104,137.265 3.262,137.937 2.929 C 139.295 2.256,256.740 1.946,260.645 2.605 M396.641 3.334 L 397.727 4.268 397.757 65.834 C 397.789 131.789,397.849 129.755,395.849 130.198 C 389.609 131.581,388.861 131.597,332.626 131.599 C 269.446 131.600,276.057 132.028,271.894 127.664 C 268.363 123.963,268.600 128.467,268.600 65.000 C 268.600 11.264,268.626 9.308,269.373 6.650 C 270.705 1.909,263.179 2.403,334.078 2.401 L 395.555 2.400 396.641 3.334 M63.328 49.376 C 47.748 53.328,44.165 74.687,57.875 81.882 C 75.106 90.925,92.070 71.624,80.594 56.034 C 76.905 51.024,68.940 47.952,63.328 49.376 M196.959 49.407 C 176.236 53.201,179.121 84.400,200.195 84.400 C 218.325 84.400,223.988 59.098,207.704 50.847 C 206.452 50.213,199.800 48.526,199.800 48.843 C 199.800 48.867,198.521 49.121,196.959 49.407 M329.521 49.562 C 316.024 52.598,311.245 69.190,321.026 79.060 C 334.761 92.920,357.664 76.915,349.194 59.374 C 346.447 53.685,337.617 48.009,332.800 48.835 C 332.690 48.854,331.214 49.181,329.521 49.562 M72.417 51.169 C 86.566 56.546,87.089 75.363,73.271 81.925 C 66.363 85.206,57.536 82.785,53.216 76.424 C 44.107 63.010,57.437 45.478,72.417 51.169 M206.261 51.265 C 214.716 54.397,219.089 65.216,215.231 73.458 C 210.194 84.224,196.829 86.764,188.671 78.506 C 175.779 65.454,189.056 44.891,206.261 51.265 M336.178 50.394 C 346.541 52.091,353.061 64.389,348.506 73.645 C 342.214 86.429,324.948 86.713,318.631 74.136 C 312.460 61.850,322.573 48.166,336.178 50.394 M23.800 134.412 C -0.078 134.760,1.784 133.374,1.206 151.224 C 0.346 177.803,0.908 259.327,1.970 262.121 C 3.241 265.464,1.978 265.400,66.809 265.400 L 124.218 265.400 126.321 264.051 C 127.646 263.200,128.827 262.017,129.512 260.851 L 130.600 259.000 130.592 200.200 L 130.583 141.400 129.726 139.600 C 128.716 137.479,127.653 136.433,125.200 135.145 L 123.400 134.200 81.600 134.189 C 58.610 134.184,32.600 134.284,23.800 134.412 M276.555 134.914 C 274.559 135.693,272.674 137.165,271.392 138.945 L 270.200 140.600 270.200 199.000 C 270.200 262.231,270.109 259.668,272.456 262.215 C 275.639 265.667,270.554 265.406,333.501 265.354 C 393.746 265.305,394.441 265.281,397.260 263.155 L 398.200 262.446 398.522 229.123 C 398.881 192.106,398.607 141.036,398.039 138.670 C 397.567 136.707,396.891 136.244,393.215 135.366 C 389.366 134.446,278.850 134.018,276.555 134.914 M125.041 136.080 C 126.509 136.884,128.701 139.288,129.227 140.670 C 129.776 142.116,129.724 258.020,129.173 259.474 C 128.596 260.997,127.355 262.267,125.200 263.538 L 123.400 264.600 66.400 264.600 C 3.691 264.600,4.859 264.650,2.730 261.891 C 2.691 261.841,2.525 256.220,2.361 249.400 C 2.196 242.580,1.878 235.020,1.654 232.600 C 0.997 225.509,1.108 164.872,1.784 161.400 C 2.138 159.581,2.346 155.307,2.378 149.203 C 2.445 136.327,2.497 136.244,10.800 135.607 C 19.748 134.922,123.711 135.351,125.041 136.080 M62.647 182.819 C 47.905 186.522,44.436 206.243,57.053 214.618 C 70.851 223.776,88.633 210.393,83.243 194.907 C 80.120 185.934,71.167 180.680,62.647 182.819 M72.319 184.446 C 80.007 186.986,84.826 196.456,82.630 204.706 C 79.094 217.989,60.669 220.928,53.035 209.426 C 44.158 196.052,57.021 179.390,72.319 184.446 M64.000 268.007 C -4.569 268.355,2.327 267.365,1.975 276.910 C 1.383 292.968,1.160 393.677,1.712 395.693 C 2.305 397.856,3.535 398.109,15.400 398.499 C 29.155 398.952,125.581 398.587,127.939 398.072 C 132.099 397.165,131.944 399.610,132.084 332.540 L 132.200 277.000 131.272 275.260 C 128.961 270.931,124.997 268.198,120.588 267.896 C 119.274 267.805,93.810 267.855,64.000 268.007 M301.800 268.000 C 273.710 268.223,275.434 268.043,271.987 271.105 C 270.989 271.991,269.639 273.680,268.987 274.858 L 267.800 277.000 267.850 329.800 C 267.908 391.412,268.033 395.410,269.946 397.324 C 271.399 398.777,276.989 398.891,337.400 398.700 C 398.064 398.508,397.155 398.536,397.802 396.850 C 399.148 393.342,399.284 275.316,397.947 270.935 C 397.508 269.495,397.125 269.289,393.800 268.711 C 390.680 268.169,334.862 267.738,301.800 268.000 M165.800 269.962 C 145.566 270.156,140.816 270.304,140.000 270.762 C 137.807 271.996,136.507 273.267,135.576 275.089 L 134.600 277.000 134.611 333.200 C 134.624 398.203,134.550 396.919,138.342 398.002 C 142.499 399.189,248.013 399.579,259.157 398.449 C 262.848 398.075,263.417 397.682,264.403 394.830 C 265.773 390.871,266.184 278.697,264.840 275.800 C 263.875 273.720,261.808 271.656,259.800 270.769 C 257.909 269.933,210.881 269.529,165.800 269.962 " stroke="none" fill="#d3d3d3" fill-rule="evenodd"></path><path id="path1" d="M56.800 1.817 C 55.425 2.213,49.375 2.347,31.200 2.385 C 18.110 2.413,6.617 2.586,5.661 2.771 C 2.439 3.393,2.629 2.289,2.363 21.914 C 2.229 31.808,1.944 40.181,1.706 41.200 C 1.016 44.152,1.124 91.511,1.829 94.903 C 2.251 96.937,2.390 101.223,2.389 112.202 C 2.388 130.726,2.047 129.624,8.162 130.858 C 13.854 132.006,121.734 131.986,124.200 130.836 C 126.226 129.891,130.172 125.863,130.982 123.913 C 131.939 121.610,131.918 12.781,130.961 8.600 C 129.916 4.039,129.821 3.837,128.373 3.121 C 125.306 1.605,61.568 0.444,56.800 1.817 M153.000 2.400 C 136.001 2.636,137.437 2.249,135.936 7.000 C 135.401 8.693,134.885 119.151,135.395 122.659 C 135.719 124.884,137.622 127.658,139.483 128.618 C 141.710 129.766,224.550 130.618,249.231 129.747 C 260.392 129.353,260.903 129.203,263.407 125.590 L 264.600 123.869 264.712 67.434 L 264.823 11.000 263.971 7.600 C 263.012 3.773,262.435 2.908,260.645 2.605 C 258.949 2.319,170.918 2.151,153.000 2.400 M271.373 3.151 C 268.492 4.908,268.600 2.495,268.600 65.000 C 268.600 128.467,268.363 123.963,271.894 127.664 C 276.057 132.028,269.446 131.600,332.626 131.599 C 388.861 131.597,389.609 131.581,395.849 130.198 C 397.849 129.755,397.789 131.789,397.757 65.834 L 397.727 4.268 396.641 3.334 L 395.555 2.400 334.078 2.401 C 274.723 2.403,272.558 2.429,271.373 3.151 M71.838 50.041 C 84.738 54.025,88.548 70.243,78.739 79.418 C 67.311 90.107,49.600 82.574,49.600 67.025 C 49.600 54.521,60.181 46.440,71.838 50.041 M202.904 49.394 C 223.618 53.358,221.216 84.400,200.195 84.400 C 179.121 84.400,176.236 53.201,196.959 49.407 C 198.521 49.121,199.800 48.867,199.800 48.843 C 199.800 48.820,201.197 49.067,202.904 49.394 M335.902 49.354 C 354.934 52.984,356.201 78.241,337.627 83.755 C 324.856 87.547,312.231 73.898,316.714 61.147 C 319.144 54.236,324.293 50.295,332.800 48.835 C 332.910 48.816,334.306 49.050,335.902 49.354 M10.800 135.607 C 2.497 136.244,2.445 136.327,2.378 149.203 C 2.346 155.307,2.138 159.581,1.784 161.400 C 1.108 164.872,0.997 225.509,1.654 232.600 C 1.878 235.020,2.196 242.580,2.361 249.400 C 2.525 256.220,2.691 261.841,2.730 261.891 C 4.859 264.650,3.691 264.600,66.400 264.600 L 123.400 264.600 125.200 263.538 C 127.355 262.267,128.596 260.997,129.173 259.474 C 129.724 258.020,129.776 142.116,129.227 140.670 C 128.701 139.288,126.509 136.884,125.041 136.080 C 123.711 135.351,19.748 134.922,10.800 135.607 M72.363 183.399 C 80.860 186.486,85.993 196.073,83.658 204.494 C 77.675 226.068,45.943 218.931,49.559 196.825 C 51.234 186.581,62.639 179.866,72.363 183.399 " stroke="none" fill="#fcfca4" fill-rule="evenodd"></path><path id="path2" d="M62.728 55.007 C 56.244 57.088,52.706 65.609,55.671 72.003 C 61.210 83.946,79.007 79.818,78.971 66.600 C 78.949 58.338,70.697 52.449,62.728 55.007 M197.000 54.750 C 185.977 57.676,184.480 72.649,194.707 77.682 C 206.976 83.720,218.290 68.196,208.858 58.265 C 206.023 55.281,200.816 53.737,197.000 54.750 M329.689 54.964 C 316.368 59.311,319.430 79.117,333.400 78.971 C 343.935 78.860,349.378 66.846,342.626 58.605 C 339.840 55.205,333.992 53.559,329.689 54.964 M197.094 187.212 C 182.087 190.981,184.739 212.998,200.200 213.000 C 213.794 213.001,218.032 194.392,205.808 188.374 C 203.035 187.009,199.682 186.562,197.094 187.212 M64.137 188.005 C 52.901 190.306,51.070 205.756,61.400 211.105 C 65.844 213.405,72.361 212.154,75.809 208.337 C 83.781 199.513,75.804 185.616,64.137 188.005 " stroke="none" fill="#262626" fill-rule="evenodd"></path><path id="path3" d="M144.200 135.142 C 140.112 135.519,137.675 136.849,136.400 139.400 L 135.400 141.400 135.281 199.200 C 135.148 263.991,134.999 260.387,137.913 262.789 C 141.278 265.562,137.507 265.409,200.122 265.322 C 249.309 265.254,256.711 265.166,258.547 264.633 C 261.939 263.647,263.195 262.557,264.269 259.671 L 265.211 257.143 265.105 199.471 L 265.000 141.800 263.918 139.600 C 262.816 137.360,261.891 136.637,258.800 135.602 C 257.263 135.087,149.483 134.654,144.200 135.142 M202.980 185.024 C 209.362 186.038,216.469 194.851,215.396 200.422 C 215.324 200.794,215.161 201.796,215.033 202.649 C 212.243 221.219,183.680 217.853,184.845 199.092 C 185.328 191.316,194.078 183.297,200.641 184.617 C 201.103 184.709,202.156 184.893,202.980 185.024 " stroke="none" fill="#fb8474" fill-rule="evenodd"></path><path id="path4" d="M0.000 200.000 L 0.000 400.000 200.000 400.000 L 400.000 400.000 400.000 200.000 L 400.000 0.000 200.000 0.000 L 0.000 0.000 0.000 200.000 M114.795 1.017 C 130.721 1.749,130.547 1.690,131.571 6.700 C 131.807 7.855,132.183 9.672,132.407 10.738 C 132.675 12.013,132.777 31.562,132.707 67.838 L 132.600 123.000 131.656 124.770 C 130.445 127.040,127.040 130.445,124.770 131.656 L 123.000 132.600 70.000 132.647 C -1.370 132.710,2.101 133.103,1.529 124.892 C 0.479 109.815,0.872 6.768,1.991 3.825 C 2.797 1.703,2.395 1.732,39.000 1.200 C 57.700 0.929,73.075 0.637,73.167 0.553 C 73.610 0.146,102.957 0.473,114.795 1.017 M238.529 1.166 C 265.976 1.547,263.227 0.914,264.896 7.243 L 265.993 11.400 265.896 67.400 C 265.789 129.724,266.049 124.095,263.130 127.418 C 260.572 130.332,260.054 130.441,246.632 130.878 C 235.191 131.251,190.808 131.045,155.334 130.454 L 140.068 130.200 138.375 129.000 C 137.399 128.308,136.158 126.869,135.442 125.600 L 134.200 123.400 134.150 73.000 C 134.096 18.650,134.282 9.244,135.482 5.433 C 136.845 1.109,134.936 1.417,161.129 1.289 C 173.598 1.228,184.430 1.124,185.200 1.056 C 188.140 0.800,216.350 0.858,238.529 1.166 M393.994 1.607 C 399.320 2.210,398.893 -3.945,398.730 69.871 L 398.600 128.742 397.761 129.871 C 395.945 132.314,385.588 132.638,310.200 132.612 L 277.000 132.600 275.201 131.641 C 274.212 131.114,272.402 129.661,271.179 128.411 C 267.178 124.322,267.470 129.245,267.432 65.214 L 267.400 9.800 268.291 6.842 C 269.239 3.693,269.993 2.564,271.600 1.887 C 273.725 0.993,386.288 0.735,393.994 1.607 M63.299 50.399 C 49.387 53.340,45.511 72.814,57.318 80.445 C 67.643 87.118,80.206 81.910,83.016 69.792 C 85.576 58.757,74.640 48.001,63.299 50.399 M196.922 50.393 C 186.112 52.027,179.919 65.554,185.660 74.994 C 191.502 84.601,203.830 86.234,211.630 78.434 C 223.291 66.773,213.395 47.904,196.922 50.393 M329.925 50.410 C 321.806 51.780,315.191 61.431,316.971 69.312 C 320.702 85.835,341.125 88.641,348.506 73.645 C 354.309 61.854,343.346 48.147,329.925 50.410 M71.962 55.628 C 78.311 58.430,80.932 66.171,77.618 72.330 C 71.422 83.844,54.623 79.800,54.662 66.803 C 54.689 57.620,63.531 51.908,71.962 55.628 M205.461 55.739 C 216.912 61.597,213.005 78.914,200.216 78.984 C 189.422 79.044,183.798 66.424,191.045 58.403 C 194.609 54.458,200.742 53.325,205.461 55.739 M338.980 55.773 C 350.339 61.330,346.128 78.837,333.400 78.971 C 319.430 79.117,316.368 59.311,329.689 54.964 C 332.287 54.116,336.309 54.466,338.980 55.773 M125.200 135.145 C 127.653 136.433,128.716 137.479,129.726 139.600 L 130.583 141.400 130.592 200.200 L 130.600 259.000 129.512 260.851 C 128.827 262.017,127.646 263.200,126.321 264.051 L 124.218 265.400 66.809 265.400 C 1.978 265.400,3.241 265.464,1.970 262.121 C 0.131 257.283,0.472 141.222,2.337 137.629 C 4.078 134.274,6.462 134.171,81.600 134.189 L 123.400 134.200 125.200 135.145 M393.215 135.366 C 396.891 136.244,397.567 136.707,398.039 138.670 C 398.607 141.036,398.881 192.106,398.522 229.123 L 398.200 262.446 397.260 263.155 C 394.441 265.281,393.746 265.305,333.501 265.354 C 270.554 265.406,275.639 265.667,272.456 262.215 C 270.109 259.668,270.200 262.231,270.200 199.000 L 270.200 140.600 271.392 138.945 C 272.674 137.165,274.559 135.693,276.555 134.914 C 278.850 134.018,389.366 134.446,393.215 135.366 M258.800 135.602 C 261.891 136.637,262.816 137.360,263.918 139.600 L 265.000 141.800 265.105 199.471 L 265.211 257.143 264.269 259.671 C 263.195 262.557,261.939 263.647,258.547 264.633 C 256.711 265.166,249.309 265.254,200.122 265.322 C 137.507 265.409,141.278 265.562,137.913 262.789 C 134.999 260.387,135.148 263.991,135.281 199.200 L 135.400 141.400 136.400 139.400 C 137.675 136.849,140.112 135.519,144.200 135.142 C 149.483 134.654,257.263 135.087,258.800 135.602 M63.860 183.642 C 52.345 185.440,46.444 199.496,53.035 209.426 C 58.597 217.806,70.966 219.080,78.281 212.027 C 89.780 200.941,79.733 181.164,63.860 183.642 M197.355 184.987 C 178.791 189.087,181.974 215.566,201.000 215.308 C 207.471 215.220,214.033 209.300,215.033 202.649 C 215.161 201.796,215.324 200.794,215.396 200.422 C 216.469 194.851,209.362 186.038,202.980 185.024 C 202.156 184.893,201.103 184.709,200.641 184.617 C 200.178 184.524,198.700 184.690,197.355 184.987 M205.808 188.374 C 213.716 192.267,215.477 202.420,209.410 209.136 C 203.792 215.355,192.740 213.962,188.713 206.528 C 182.555 195.156,194.284 182.701,205.808 188.374 M71.818 188.976 C 83.961 194.421,79.984 212.191,66.632 212.150 C 59.583 212.128,54.639 207.119,54.639 200.000 C 54.639 190.836,63.413 185.206,71.818 188.976 M125.045 269.039 C 127.363 270.135,129.877 272.647,131.272 275.260 L 132.200 277.000 132.084 332.540 C 131.944 399.610,132.099 397.165,127.939 398.072 C 125.581 398.587,29.155 398.952,15.400 398.499 C 3.535 398.109,2.305 397.856,1.712 395.693 C 1.160 393.677,1.383 292.968,1.975 276.910 C 2.327 267.365,-4.569 268.355,64.000 268.007 C 124.106 267.701,122.149 267.668,125.045 269.039 M393.800 268.711 C 397.125 269.289,397.508 269.495,397.947 270.935 C 399.284 275.316,399.148 393.342,397.802 396.850 C 397.155 398.536,398.064 398.508,337.400 398.700 C 276.989 398.891,271.399 398.777,269.946 397.324 C 268.033 395.410,267.908 391.412,267.850 329.800 L 267.800 277.000 268.987 274.858 C 270.293 272.498,273.031 269.850,275.200 268.847 C 277.711 267.687,387.181 267.561,393.800 268.711 M259.800 270.769 C 261.808 271.656,263.875 273.720,264.840 275.800 C 266.184 278.697,265.773 390.871,264.403 394.830 C 263.417 397.682,262.848 398.075,259.157 398.449 C 248.013 399.579,142.499 399.189,138.342 398.002 C 134.550 396.919,134.624 398.203,134.611 333.200 L 134.600 277.000 135.576 275.089 C 136.507 273.267,137.807 271.996,140.000 270.762 C 142.347 269.443,256.814 269.449,259.800 270.769 " stroke="none" fill="#8c8c8c" fill-rule="evenodd"></path></g></svg>