<svg id="svg" version="1.1" xmlns="http://www.w3.org/2000/svg" xmlns:xlink="http://www.w3.org/1999/xlink" width="400" height="400" viewBox="0, 0, 400,400"><g id="svgg"><path id="path0" d="M164.800 0.290 C 164.470 0.415,164.054 0.765,163.875 1.067 C 163.697 1.369,163.354 1.495,163.114 1.347 C 162.851 1.185,162.791 1.261,162.962 1.538 C 163.119 1.792,163.098 2.000,162.915 2.000 C 162.732 2.000,162.245 2.625,161.834 3.389 C 161.423 4.152,160.975 4.708,160.838 4.623 C 160.701 4.539,160.622 5.129,160.661 5.935 C 160.701 6.741,160.494 7.670,160.201 8.000 C 159.884 8.359,159.704 9.382,159.755 10.543 C 159.811 11.829,159.665 12.554,159.323 12.685 C 158.997 12.810,158.895 13.238,159.046 13.842 C 159.192 14.421,159.111 14.800,158.843 14.800 C 158.600 14.800,158.400 15.239,158.400 15.776 C 158.400 16.313,158.220 16.864,158.000 17.000 C 157.780 17.136,157.600 17.580,157.600 17.986 C 157.600 18.672,156.091 21.949,155.568 22.400 C 155.440 22.510,155.087 23.172,154.783 23.871 C 154.479 24.570,154.108 25.067,153.959 24.975 C 153.810 24.882,153.390 25.435,153.025 26.204 C 152.661 26.972,152.101 27.600,151.781 27.600 C 151.461 27.600,151.200 27.970,151.200 28.424 C 151.200 28.877,151.047 29.153,150.860 29.037 C 150.673 28.922,150.286 29.265,150.000 29.800 C 149.714 30.335,149.314 30.671,149.113 30.546 C 148.911 30.421,148.645 30.708,148.521 31.182 C 148.380 31.719,148.080 31.963,147.727 31.827 C 147.412 31.707,147.268 31.786,147.403 32.005 C 147.537 32.222,147.367 32.400,147.024 32.400 C 146.681 32.400,146.400 32.674,146.400 33.010 C 146.400 33.345,145.967 33.784,145.439 33.985 C 144.910 34.186,144.358 34.545,144.211 34.782 C 144.065 35.019,143.749 35.092,143.511 34.945 C 143.272 34.797,143.188 34.857,143.325 35.078 C 143.461 35.299,143.084 35.708,142.486 35.986 C 141.889 36.265,141.087 36.652,140.705 36.847 C 140.323 37.041,139.738 37.200,139.405 37.200 C 139.072 37.200,138.800 37.336,138.800 37.502 C 138.800 37.669,138.215 38.040,137.500 38.329 C 136.785 38.617,135.887 39.021,135.505 39.226 C 135.123 39.432,134.078 39.600,133.182 39.600 C 132.198 39.600,131.651 39.758,131.800 40.000 C 132.010 40.340,129.499 40.616,129.061 40.300 C 128.985 40.245,128.625 40.447,128.261 40.749 C 127.723 41.196,127.600 41.200,127.600 40.769 C 127.600 40.358,127.493 40.347,127.120 40.720 C 126.541 41.299,122.149 41.365,121.800 40.800 C 121.664 40.580,120.584 40.400,119.400 40.400 C 118.216 40.400,117.136 40.220,117.000 40.000 C 116.864 39.780,116.043 39.600,115.176 39.600 C 114.309 39.600,113.600 39.420,113.600 39.200 C 113.600 38.980,112.891 38.800,112.024 38.800 C 111.157 38.800,110.336 38.620,110.200 38.400 C 110.064 38.180,109.344 38.000,108.600 38.000 C 107.856 38.000,107.136 37.820,107.000 37.600 C 106.864 37.380,106.133 37.200,105.376 37.200 C 104.619 37.200,104.000 37.020,104.000 36.800 C 104.000 36.580,103.381 36.400,102.624 36.400 C 101.867 36.400,101.136 36.220,101.000 36.000 C 100.864 35.780,99.953 35.600,98.976 35.600 C 97.999 35.600,97.200 35.449,97.200 35.265 C 97.200 35.080,96.525 34.887,95.700 34.836 C 94.875 34.784,93.975 34.725,93.700 34.704 C 93.425 34.684,93.200 34.546,93.200 34.398 C 93.200 34.250,92.538 34.105,91.729 34.074 C 90.921 34.044,90.152 33.846,90.021 33.634 C 89.890 33.422,88.662 33.208,87.291 33.159 C 85.921 33.109,84.800 32.928,84.800 32.756 C 84.800 32.584,82.362 32.435,79.383 32.426 C 76.205 32.417,73.622 32.226,73.135 31.965 C 72.538 31.645,72.380 31.644,72.575 31.960 C 72.809 32.338,59.639 32.720,56.700 32.421 C 56.315 32.382,56.000 32.563,56.000 32.824 C 56.000 33.159,55.806 33.137,55.335 32.749 C 54.816 32.321,54.633 32.310,54.502 32.700 C 54.387 33.039,53.389 33.200,51.393 33.200 C 49.775 33.200,48.019 33.365,47.490 33.566 C 46.960 33.767,45.644 33.977,44.564 34.033 C 43.484 34.089,42.340 34.329,42.023 34.567 C 41.567 34.910,41.517 34.875,41.782 34.400 C 42.055 33.912,42.017 33.893,41.579 34.300 C 41.282 34.575,40.457 34.800,39.744 34.800 C 39.031 34.800,38.358 34.944,38.249 35.120 C 38.140 35.296,37.291 35.485,36.362 35.540 C 35.433 35.595,34.353 35.811,33.963 36.020 C 33.572 36.229,32.611 36.400,31.826 36.400 C 31.042 36.400,30.400 36.560,30.400 36.756 C 30.400 36.952,29.815 37.214,29.100 37.337 C 26.168 37.844,24.990 38.123,24.800 38.355 C 24.323 38.938,22.732 39.600,21.805 39.600 C 21.252 39.600,20.800 39.780,20.800 40.000 C 20.800 40.220,20.440 40.400,20.000 40.400 C 19.560 40.400,19.200 40.580,19.200 40.800 C 19.200 41.020,18.840 41.200,18.400 41.200 C 17.960 41.200,17.600 41.337,17.600 41.504 C 17.600 41.671,17.221 42.044,16.758 42.333 C 16.198 42.683,16.013 42.702,16.206 42.390 C 16.427 42.032,16.292 42.030,15.637 42.380 C 15.158 42.637,14.900 43.038,15.054 43.288 C 15.238 43.586,15.093 43.644,14.621 43.463 C 14.093 43.261,13.971 43.346,14.143 43.795 C 14.353 44.343,14.009 44.561,13.346 44.300 C 13.001 44.164,12.313 45.942,12.172 47.338 C 12.109 47.964,11.953 48.746,11.826 49.077 C 11.498 49.931,11.524 115.154,11.853 115.685 C 12.015 115.948,11.939 116.010,11.662 115.838 C 11.018 115.440,11.084 115.941,11.765 116.623 C 12.076 116.934,12.282 117.631,12.223 118.173 C 12.161 118.738,12.357 119.251,12.683 119.376 C 12.995 119.496,13.151 119.755,13.030 119.952 C 12.777 120.361,13.517 121.071,14.401 121.267 C 14.731 121.340,15.297 121.722,15.660 122.115 C 16.023 122.509,16.699 122.904,17.162 122.993 C 17.624 123.082,18.214 123.285,18.473 123.445 C 18.731 123.605,20.126 123.776,21.571 123.826 C 23.017 123.875,24.830 124.080,25.600 124.280 C 26.370 124.481,28.134 124.621,29.519 124.591 C 30.905 124.562,32.130 124.687,32.243 124.869 C 32.355 125.051,33.146 125.200,34.000 125.200 C 34.854 125.200,35.664 125.380,35.800 125.600 C 35.936 125.820,36.667 126.000,37.424 126.000 C 38.181 126.000,38.800 126.180,38.800 126.400 C 38.800 126.620,39.351 126.800,40.024 126.800 C 40.737 126.800,41.144 126.967,41.000 127.200 C 40.864 127.420,41.028 127.600,41.364 127.600 C 41.701 127.600,42.611 127.960,43.388 128.400 C 44.165 128.840,45.475 129.581,46.300 130.047 C 48.459 131.266,49.989 132.395,51.209 133.672 C 51.796 134.287,52.395 134.672,52.538 134.528 C 52.682 134.384,52.800 134.477,52.800 134.734 C 52.800 134.992,53.525 135.857,54.411 136.657 C 55.296 137.457,55.945 138.188,55.853 138.281 C 55.760 138.374,56.115 138.915,56.642 139.483 C 57.169 140.052,57.600 140.761,57.600 141.058 C 57.600 141.356,57.766 141.600,57.968 141.600 C 58.171 141.600,58.458 142.152,58.606 142.827 C 58.754 143.502,59.115 144.146,59.409 144.259 C 59.702 144.371,59.874 144.818,59.790 145.252 C 59.706 145.687,59.898 146.140,60.219 146.263 C 60.539 146.385,60.800 146.826,60.800 147.243 C 60.800 147.659,60.983 148.000,61.206 148.000 C 61.430 148.000,61.573 148.522,61.524 149.160 C 61.476 149.798,61.698 150.636,62.018 151.022 C 62.338 151.407,62.555 151.785,62.500 151.861 C 62.445 151.938,62.414 152.045,62.431 152.100 C 62.447 152.155,62.527 152.470,62.607 152.800 C 62.688 153.130,62.869 153.850,63.011 154.400 C 63.153 154.950,63.416 156.030,63.597 156.800 C 63.778 157.570,64.095 158.740,64.301 159.400 C 64.508 160.060,64.593 160.846,64.490 161.146 C 64.387 161.447,64.511 161.821,64.766 161.979 C 65.021 162.137,65.257 163.241,65.292 164.433 C 65.326 165.625,65.482 166.690,65.638 166.800 C 65.795 166.910,66.020 167.900,66.139 169.000 C 66.258 170.100,66.527 171.798,66.737 172.773 C 66.947 173.748,67.021 174.801,66.901 175.113 C 66.781 175.425,66.896 175.812,67.156 175.973 C 67.442 176.150,67.637 177.356,67.649 179.032 C 67.661 180.555,67.825 181.987,68.015 182.217 C 68.204 182.446,68.398 184.246,68.445 186.217 C 68.491 188.187,68.672 189.988,68.846 190.218 C 69.020 190.448,69.202 192.563,69.251 194.918 C 69.301 197.273,69.478 199.200,69.646 199.200 C 69.813 199.200,69.941 199.515,69.929 199.900 C 69.825 203.412,70.149 210.355,70.410 210.194 C 70.592 210.082,70.760 213.720,70.784 218.280 C 70.808 222.839,70.974 226.667,71.153 226.785 C 71.552 227.048,71.513 225.827,71.589 240.300 C 71.624 246.955,71.804 252.400,71.991 252.400 C 72.377 252.400,72.320 253.172,71.882 253.872 C 71.720 254.132,71.770 254.458,71.993 254.596 C 72.553 254.941,72.559 352.255,72.000 352.600 C 71.780 352.736,71.603 353.062,71.606 353.324 C 71.610 353.610,71.767 353.561,72.000 353.200 C 72.316 352.711,72.389 352.760,72.394 353.467 C 72.397 353.943,72.175 354.416,71.900 354.517 C 71.500 354.663,71.500 354.806,71.900 355.230 C 72.442 355.804,72.589 356.563,72.100 356.263 C 71.935 356.162,71.786 356.692,71.770 357.440 C 71.753 358.188,71.858 358.800,72.003 358.800 C 72.402 358.800,72.341 360.136,71.918 360.674 C 71.682 360.974,71.717 361.471,72.012 362.023 C 72.269 362.503,72.308 362.791,72.099 362.661 C 71.860 362.513,71.700 368.244,71.670 377.996 C 71.640 387.708,71.768 393.657,72.011 393.807 C 72.225 393.939,72.400 394.425,72.400 394.886 C 72.400 395.347,72.842 396.304,73.383 397.013 C 73.923 397.721,74.283 398.413,74.183 398.551 C 74.082 398.688,74.120 398.710,74.268 398.599 C 74.415 398.489,74.884 398.714,75.310 399.099 C 76.043 399.763,81.912 399.805,186.042 399.903 L 296.000 400.006 296.000 345.003 L 296.000 290.000 293.900 289.999 C 286.920 289.998,274.159 286.088,267.800 282.003 C 266.920 281.438,265.705 280.726,265.100 280.420 C 264.495 280.115,264.000 279.715,264.000 279.532 C 264.000 279.350,263.774 279.200,263.498 279.200 C 263.222 279.200,262.231 278.480,261.297 277.600 C 260.363 276.720,259.434 276.000,259.234 276.000 C 257.921 276.000,248.631 265.217,246.038 260.682 C 244.015 257.145,242.800 254.698,242.800 254.159 C 242.800 253.852,242.620 253.600,242.400 253.600 C 242.180 253.600,242.000 253.251,242.000 252.824 C 242.000 252.397,241.820 251.936,241.600 251.800 C 241.380 251.664,241.200 251.113,241.200 250.576 C 241.200 250.039,241.020 249.600,240.800 249.600 C 240.580 249.600,240.400 249.060,240.400 248.400 C 240.400 247.740,240.220 247.200,240.000 247.200 C 239.780 247.200,239.600 246.581,239.600 245.824 C 239.600 245.067,239.420 244.336,239.200 244.200 C 238.980 244.064,238.800 243.369,238.800 242.656 C 238.800 241.943,238.640 241.189,238.443 240.980 C 237.147 239.598,237.157 217.368,238.454 216.566 C 238.645 216.449,238.800 215.744,238.800 215.000 C 238.800 214.256,238.980 213.536,239.200 213.400 C 239.420 213.264,239.600 212.634,239.600 212.000 C 239.600 211.366,239.780 210.736,240.000 210.600 C 240.220 210.464,240.400 210.001,240.400 209.571 C 240.400 209.141,240.559 208.477,240.753 208.095 C 240.948 207.713,241.285 206.950,241.503 206.400 C 245.428 196.486,253.259 185.886,260.413 180.800 C 261.496 180.030,262.386 179.265,262.391 179.100 C 262.396 178.935,262.648 178.800,262.951 178.800 C 263.254 178.800,263.729 178.527,264.006 178.193 C 264.283 177.859,265.115 177.298,265.855 176.947 C 266.595 176.596,267.200 176.149,267.200 175.954 C 267.200 175.759,267.378 175.600,267.595 175.600 C 267.813 175.600,268.308 175.340,268.695 175.022 C 269.083 174.705,270.570 173.581,272.000 172.525 C 275.441 169.985,279.939 165.659,282.735 162.200 C 283.980 160.660,285.102 159.310,285.229 159.200 C 285.779 158.724,288.800 154.005,288.800 153.622 C 288.800 153.390,288.980 153.200,289.200 153.200 C 289.420 153.200,289.600 152.930,289.600 152.600 C 289.600 152.270,289.780 152.000,290.000 152.000 C 290.220 152.000,290.400 151.810,290.400 151.578 C 290.400 149.874,299.180 139.974,302.466 137.974 C 304.138 136.956,305.200 135.418,305.200 134.014 C 305.200 133.561,305.362 132.877,305.561 132.495 C 305.760 132.113,306.140 130.990,306.407 130.000 C 306.673 129.010,307.075 127.750,307.299 127.200 C 307.523 126.650,307.841 125.840,308.005 125.400 C 308.794 123.276,310.948 119.231,311.849 118.178 C 315.158 114.311,319.197 110.550,321.086 109.576 C 321.699 109.260,322.290 108.903,322.400 108.782 C 322.510 108.661,323.590 108.095,324.800 107.524 C 330.484 104.842,331.847 104.462,338.800 103.624 C 352.029 102.029,352.516 101.912,354.200 99.938 C 356.303 97.473,356.185 99.307,356.400 65.500 L 356.600 34.000 354.924 34.000 C 354.002 34.000,353.158 33.856,353.049 33.680 C 352.941 33.504,351.270 33.315,349.338 33.261 C 347.405 33.206,345.726 33.003,345.606 32.810 C 345.486 32.616,345.121 32.473,344.794 32.492 C 341.023 32.709,327.203 32.318,327.400 32.000 C 327.536 31.780,327.472 31.600,327.257 31.600 C 327.042 31.600,326.807 31.779,326.733 31.998 C 326.654 32.236,324.303 32.408,320.900 32.425 C 317.655 32.441,315.200 32.614,315.200 32.826 C 315.200 33.032,314.120 33.200,312.800 33.200 C 311.480 33.200,310.400 33.342,310.400 33.515 C 310.400 33.808,309.020 34.050,306.900 34.127 C 306.405 34.145,306.000 34.304,306.000 34.480 C 306.000 34.656,305.368 34.800,304.595 34.800 C 303.822 34.800,302.877 34.959,302.495 35.153 C 301.455 35.681,298.154 36.400,296.771 36.400 C 296.061 36.400,295.656 36.567,295.800 36.800 C 295.941 37.028,295.595 37.200,294.997 37.200 C 294.420 37.200,293.619 37.376,293.218 37.590 C 292.817 37.805,291.915 38.024,291.214 38.078 C 290.513 38.131,289.852 38.315,289.746 38.487 C 289.640 38.659,288.843 38.800,287.976 38.800 C 287.109 38.800,286.400 38.980,286.400 39.200 C 286.400 39.420,285.590 39.600,284.600 39.600 C 283.610 39.600,282.800 39.780,282.800 40.000 C 282.800 40.222,281.733 40.400,280.400 40.400 C 279.067 40.400,278.000 40.578,278.000 40.800 C 278.000 41.349,273.315 41.309,272.974 40.757 C 272.783 40.449,272.596 40.479,272.356 40.857 C 272.167 41.156,272.009 41.205,272.006 40.966 C 272.003 40.727,271.297 40.504,270.437 40.470 C 269.578 40.436,268.396 40.227,267.811 40.004 C 267.227 39.782,266.310 39.600,265.774 39.600 C 265.238 39.600,264.800 39.420,264.800 39.200 C 264.800 38.980,264.350 38.800,263.800 38.800 C 263.250 38.800,262.800 38.620,262.800 38.400 C 262.800 38.180,262.350 38.000,261.800 38.000 C 261.250 38.000,260.800 37.820,260.800 37.600 C 260.800 37.380,260.545 37.200,260.233 37.200 C 259.922 37.200,259.607 37.036,259.533 36.837 C 259.460 36.637,259.040 36.412,258.600 36.337 C 258.160 36.261,257.260 35.706,256.600 35.102 C 255.940 34.498,255.175 34.003,254.900 34.002 C 254.625 34.001,254.400 33.820,254.400 33.600 C 254.400 33.380,254.158 33.200,253.861 33.200 C 253.565 33.200,253.127 32.795,252.888 32.300 C 252.649 31.805,252.442 31.632,252.427 31.915 C 252.390 32.616,248.800 28.879,248.800 28.140 C 248.800 27.817,248.620 27.664,248.400 27.800 C 248.180 27.936,248.000 27.756,248.000 27.400 C 248.000 27.044,247.855 26.842,247.678 26.952 C 247.332 27.165,244.800 23.533,244.800 22.824 C 244.800 22.591,244.665 22.399,244.500 22.397 C 244.141 22.393,243.200 20.456,243.200 19.720 C 243.200 19.434,243.020 19.200,242.800 19.200 C 242.580 19.200,242.400 18.840,242.400 18.400 C 242.400 17.960,242.190 17.600,241.933 17.600 C 241.677 17.600,241.573 17.494,241.703 17.363 C 241.833 17.233,241.704 16.343,241.415 15.385 C 241.127 14.426,240.991 13.543,241.112 13.421 C 241.234 13.300,241.123 13.200,240.867 13.200 C 240.610 13.200,240.421 13.065,240.447 12.900 C 240.473 12.735,240.456 12.510,240.408 12.400 C 240.360 12.290,240.255 11.435,240.175 10.501 C 240.095 9.566,239.873 8.486,239.682 8.101 C 239.491 7.715,239.396 6.778,239.470 6.017 C 239.559 5.092,239.404 4.522,239.002 4.297 C 238.671 4.112,238.400 3.699,238.400 3.380 C 238.400 3.061,238.232 2.800,238.027 2.800 C 237.822 2.800,237.539 2.437,237.398 1.994 C 237.257 1.551,236.975 1.292,236.771 1.418 C 236.567 1.544,236.400 1.427,236.400 1.157 C 236.400 0.887,236.289 0.778,236.152 0.914 C 236.016 1.050,235.643 0.900,235.324 0.581 C 234.734 -0.008,166.334 -0.290,164.800 0.290 M203.231 66.510 C 203.974 67.010,204.990 68.026,205.490 68.769 L 206.400 70.118 206.400 214.265 C 206.400 328.842,206.297 358.593,205.900 359.298 C 203.719 363.170,198.851 364.222,195.935 361.453 C 195.201 360.756,194.375 359.786,194.100 359.298 C 193.286 357.854,193.375 70.974,194.190 69.341 C 195.944 65.824,200.225 64.483,203.231 66.510 M140.144 83.563 C 140.835 83.774,142.210 84.159,143.200 84.418 C 145.824 85.108,147.740 85.848,150.400 87.203 C 151.390 87.707,152.604 88.317,153.097 88.560 C 153.590 88.802,153.995 89.135,153.997 89.300 C 153.999 89.465,154.225 89.603,154.500 89.607 C 156.016 89.629,163.334 96.908,165.289 100.336 C 168.729 106.371,169.400 108.830,169.400 115.400 C 169.400 121.246,169.019 123.027,166.751 127.800 C 166.228 128.900,165.665 129.860,165.500 129.933 C 165.335 130.007,165.197 130.277,165.193 130.533 C 165.163 132.408,154.411 142.400,152.422 142.400 C 152.190 142.400,151.999 142.535,151.997 142.700 C 151.993 143.059,150.056 144.000,149.320 144.000 C 149.034 144.000,148.800 144.180,148.800 144.400 C 148.800 144.620,148.350 144.800,147.800 144.800 C 147.250 144.800,146.800 144.980,146.800 145.200 C 146.800 145.420,146.457 145.600,146.038 145.600 C 145.213 145.600,142.130 147.088,141.271 147.900 C 140.981 148.175,140.614 148.400,140.455 148.400 C 139.862 148.400,136.862 151.486,135.206 153.800 C 133.032 156.836,131.192 158.800,130.522 158.800 C 130.235 158.800,130.000 158.952,130.000 159.137 C 130.000 159.439,127.516 160.779,125.400 161.619 C 122.620 162.722,114.400 162.670,114.400 161.549 C 114.400 161.357,113.950 161.200,113.400 161.200 C 112.850 161.200,112.400 161.020,112.400 160.800 C 112.400 160.580,112.080 160.400,111.688 160.400 C 111.297 160.400,110.717 160.040,110.400 159.600 C 110.083 159.160,109.638 158.800,109.412 158.800 C 108.005 158.798,104.882 154.490,103.249 150.300 C 102.668 148.807,102.000 144.678,102.000 142.574 C 102.000 139.614,98.941 132.163,97.166 130.800 C 96.753 130.483,95.200 127.105,95.200 126.525 C 95.200 126.236,95.064 126.000,94.897 126.000 C 94.504 126.000,93.600 123.096,93.600 121.830 C 93.600 121.289,93.420 120.736,93.200 120.600 C 92.968 120.457,92.800 118.270,92.800 115.400 C 92.800 112.530,92.968 110.343,93.200 110.200 C 93.420 110.064,93.600 109.344,93.600 108.600 C 93.600 107.856,93.780 107.136,94.000 107.000 C 94.220 106.864,94.400 106.482,94.400 106.151 C 94.400 103.480,99.906 95.593,104.020 92.372 C 104.984 91.617,106.127 90.685,106.562 90.300 C 106.996 89.915,107.587 89.600,107.875 89.600 C 108.164 89.600,108.400 89.439,108.400 89.242 C 108.400 88.810,114.866 85.600,115.737 85.600 C 116.076 85.600,116.464 85.420,116.600 85.200 C 116.736 84.980,117.276 84.800,117.800 84.800 C 118.324 84.800,118.852 84.639,118.974 84.442 C 119.095 84.245,119.961 83.969,120.897 83.828 C 121.834 83.687,123.680 83.412,125.000 83.218 C 127.902 82.790,138.393 83.029,140.144 83.563 M156.200 172.000 C 156.336 172.220,156.727 172.400,157.070 172.400 C 157.412 172.400,158.301 173.065,159.046 173.878 C 162.674 177.839,159.628 184.800,154.267 184.800 C 147.462 184.800,145.143 176.004,151.041 172.565 C 152.661 171.620,155.756 171.281,156.200 172.000 M137.940 184.913 C 142.271 187.128,142.776 194.304,138.726 196.097 C 138.107 196.371,137.600 196.731,137.600 196.898 C 137.600 198.481,131.349 196.666,129.797 194.631 C 125.699 189.259,131.920 181.833,137.940 184.913 M278.200 323.600 C 278.336 323.820,278.735 324.000,279.086 324.000 C 279.975 324.000,282.400 325.917,282.400 326.620 C 282.400 326.939,282.580 327.200,282.800 327.200 C 284.240 327.200,283.183 332.838,281.411 334.611 C 278.308 337.713,270.800 336.426,270.800 332.792 C 270.800 332.383,270.620 331.936,270.400 331.800 C 270.180 331.664,270.000 330.854,270.000 330.000 C 270.000 329.146,270.180 328.336,270.400 328.200 C 270.620 328.064,270.800 327.675,270.800 327.336 C 270.800 326.997,271.412 326.108,272.160 325.360 C 272.908 324.612,273.797 324.000,274.136 324.000 C 274.475 324.000,274.864 323.820,275.000 323.600 C 275.136 323.380,275.856 323.200,276.600 323.200 C 277.344 323.200,278.064 323.380,278.200 323.600 M327.600 354.553 C 327.600 354.883,327.780 355.264,328.000 355.400 C 328.220 355.536,328.400 355.377,328.400 355.047 C 328.400 354.717,328.220 354.336,328.000 354.200 C 327.780 354.064,327.600 354.223,327.600 354.553 " stroke="none" fill="#fccbc3" fill-rule="evenodd"></path><path id="path1" d="M125.600 84.388 C 125.270 84.608,124.156 84.791,123.124 84.794 C 122.092 84.797,121.136 84.980,121.000 85.200 C 120.864 85.420,120.234 85.600,119.600 85.600 C 118.966 85.600,118.336 85.780,118.200 86.000 C 118.064 86.220,117.601 86.400,117.171 86.400 C 116.741 86.400,116.077 86.569,115.695 86.776 C 115.313 86.983,113.830 87.719,112.400 88.412 C 109.255 89.936,106.402 91.690,106.401 92.100 C 106.400 92.265,106.182 92.400,105.916 92.400 C 105.293 92.400,100.336 97.508,99.367 99.148 C 98.960 99.837,98.520 100.400,98.388 100.400 C 98.257 100.400,97.902 101.030,97.600 101.800 C 97.298 102.570,96.904 103.200,96.725 103.200 C 96.546 103.200,96.400 103.560,96.400 104.000 C 96.400 104.440,96.220 104.800,96.000 104.800 C 95.780 104.800,95.600 105.239,95.600 105.776 C 95.600 106.313,95.420 106.864,95.200 107.000 C 94.980 107.136,94.800 107.777,94.800 108.424 C 94.800 109.071,94.620 109.600,94.400 109.600 C 94.152 109.600,94.000 111.725,94.000 115.176 C 94.000 118.463,94.164 120.854,94.400 121.000 C 94.620 121.136,94.800 121.867,94.800 122.624 C 94.800 123.381,94.980 124.000,95.200 124.000 C 95.420 124.000,95.600 124.355,95.600 124.789 C 95.600 125.223,96.058 126.348,96.618 127.289 C 97.177 128.230,97.738 129.315,97.864 129.700 C 97.990 130.085,98.252 130.400,98.447 130.400 C 98.641 130.400,98.800 130.670,98.800 131.000 C 98.800 131.330,98.980 131.600,99.200 131.600 C 99.420 131.600,99.600 131.855,99.600 132.167 C 99.600 132.478,99.735 132.793,99.900 132.867 C 100.189 132.995,101.789 136.156,102.397 137.800 C 103.096 139.690,103.600 142.573,103.605 144.706 C 103.615 149.901,107.965 158.400,110.612 158.400 C 110.899 158.400,111.193 158.543,111.267 158.719 C 112.196 160.942,123.317 162.224,125.380 160.346 C 125.589 160.156,126.084 160.000,126.480 160.000 C 126.876 160.000,127.200 159.820,127.200 159.600 C 127.200 159.380,127.468 159.200,127.795 159.200 C 128.944 159.200,131.793 156.474,133.898 153.361 C 136.175 149.993,139.098 147.489,142.726 145.798 C 144.417 145.010,146.113 144.193,146.495 143.982 C 146.877 143.772,147.552 143.600,147.995 143.600 C 148.438 143.600,148.800 143.420,148.800 143.200 C 148.800 142.980,149.160 142.800,149.600 142.800 C 150.040 142.800,150.400 142.641,150.400 142.447 C 150.400 142.252,150.715 141.993,151.100 141.871 C 151.823 141.642,154.047 140.368,154.400 139.981 C 154.510 139.860,155.230 139.322,156.000 138.785 C 158.039 137.362,162.017 133.266,163.373 131.194 C 165.163 128.457,166.800 125.203,166.800 124.383 C 166.800 123.978,166.961 123.548,167.158 123.426 C 168.054 122.872,168.699 113.023,167.997 110.600 C 167.743 109.720,167.340 108.280,167.104 107.400 C 165.963 103.159,161.276 96.029,158.014 93.572 C 157.016 92.820,156.110 92.105,156.000 91.983 C 154.461 90.277,147.327 86.885,142.400 85.516 C 138.067 84.313,126.844 83.560,125.600 84.388 M324.400 130.430 C 316.256 131.064,308.636 133.887,303.969 138.000 C 299.970 141.524,294.537 147.020,293.788 148.300 C 293.370 149.015,292.886 149.600,292.714 149.600 C 292.541 149.600,292.400 149.870,292.400 150.200 C 292.400 150.530,292.241 150.800,292.047 150.800 C 291.852 150.800,291.590 151.115,291.464 151.500 C 291.140 152.491,289.426 155.322,287.369 158.265 C 282.543 165.170,276.369 171.197,269.200 176.002 C 267.770 176.960,266.540 177.892,266.467 178.072 C 266.393 178.253,266.078 178.400,265.767 178.400 C 265.455 178.400,265.200 178.580,265.200 178.800 C 265.200 179.020,264.964 179.200,264.675 179.200 C 264.387 179.200,263.802 179.515,263.375 179.900 C 262.948 180.285,261.894 181.128,261.031 181.773 C 258.975 183.310,253.712 188.571,252.201 190.600 C 251.545 191.480,250.692 192.491,250.304 192.847 C 249.917 193.203,249.600 193.664,249.600 193.871 C 249.600 194.079,249.285 194.606,248.900 195.042 C 248.012 196.047,246.817 197.991,246.529 198.900 C 246.407 199.285,246.181 199.600,246.028 199.600 C 245.875 199.600,245.502 200.230,245.200 201.000 C 244.898 201.770,244.504 202.400,244.325 202.400 C 244.146 202.400,244.000 202.749,244.000 203.176 C 244.000 203.603,243.820 204.064,243.600 204.200 C 243.380 204.336,243.200 204.797,243.200 205.224 C 243.200 205.651,243.020 206.000,242.800 206.000 C 242.580 206.000,242.400 206.450,242.400 207.000 C 242.400 207.550,242.220 208.000,242.000 208.000 C 241.780 208.000,241.600 208.529,241.600 209.176 C 241.600 209.823,241.441 210.451,241.246 210.571 C 240.874 210.802,240.800 211.089,239.808 216.200 C 237.498 228.093,238.845 243.828,242.847 251.695 C 243.041 252.077,243.200 252.662,243.200 252.995 C 243.200 253.328,243.380 253.600,243.600 253.600 C 243.820 253.600,244.000 253.960,244.000 254.400 C 244.000 254.840,244.180 255.200,244.400 255.200 C 244.620 255.200,244.800 255.560,244.800 256.000 C 244.800 256.440,244.980 256.800,245.200 256.800 C 245.420 256.800,245.600 257.160,245.600 257.600 C 245.600 258.040,245.780 258.400,246.000 258.400 C 246.220 258.400,246.400 258.636,246.400 258.925 C 246.400 259.213,246.715 259.798,247.100 260.225 C 247.485 260.651,248.039 261.464,248.331 262.031 C 249.593 264.483,258.650 274.800,259.540 274.800 C 259.728 274.800,260.403 275.296,261.041 275.902 C 263.373 278.120,271.415 282.871,275.600 284.503 C 276.150 284.718,276.913 285.052,277.295 285.247 C 277.677 285.441,278.341 285.600,278.771 285.600 C 279.201 285.600,279.664 285.780,279.800 286.000 C 279.936 286.220,280.476 286.400,281.000 286.400 C 281.524 286.400,282.064 286.580,282.200 286.800 C 282.336 287.020,283.056 287.200,283.800 287.200 C 284.544 287.200,285.264 287.380,285.400 287.600 C 285.536 287.820,286.526 288.000,287.600 288.000 C 288.674 288.000,289.664 288.180,289.800 288.400 C 289.936 288.620,291.387 288.800,293.024 288.800 C 295.003 288.800,296.000 288.954,296.000 289.261 C 296.000 289.797,306.846 289.476,309.200 288.871 C 309.970 288.673,311.590 288.286,312.800 288.012 C 316.136 287.255,320.631 285.715,324.290 284.075 L 327.579 282.600 327.590 269.380 C 327.598 259.370,327.721 256.029,328.100 255.621 C 328.500 255.190,328.500 255.139,328.100 255.365 C 327.710 255.585,327.600 254.362,327.600 249.800 C 327.600 246.004,327.740 244.039,328.000 244.200 C 328.263 244.363,328.400 240.404,328.400 232.624 C 328.400 225.008,328.542 220.800,328.800 220.800 C 329.052 220.800,329.200 218.125,329.200 213.576 C 329.200 208.863,329.339 206.439,329.600 206.600 C 329.988 206.840,330.150 203.340,330.003 197.858 C 329.960 196.276,330.080 195.602,330.370 195.781 C 330.660 195.961,330.800 195.193,330.800 193.424 C 330.800 191.941,330.974 190.800,331.200 190.800 C 331.420 190.800,331.600 190.609,331.600 190.376 C 331.600 190.143,331.420 190.064,331.200 190.200 C 330.962 190.347,330.800 189.871,330.800 189.024 C 330.800 188.241,330.980 187.600,331.200 187.600 C 331.420 187.600,331.600 186.610,331.600 185.400 C 331.600 184.190,331.780 183.200,332.000 183.200 C 332.220 183.200,332.400 183.009,332.400 182.776 C 332.400 182.543,332.220 182.464,332.000 182.600 C 331.767 182.744,331.600 182.337,331.600 181.624 C 331.600 180.951,331.780 180.400,332.000 180.400 C 332.220 180.400,332.400 179.590,332.400 178.600 C 332.400 177.610,332.580 176.800,332.800 176.800 C 333.020 176.800,333.200 176.609,333.200 176.376 C 333.200 176.143,333.020 176.064,332.800 176.200 C 332.573 176.340,332.400 176.004,332.400 175.424 C 332.400 174.861,332.580 174.400,332.800 174.400 C 333.020 174.400,333.200 173.785,333.200 173.033 C 333.200 172.282,333.425 171.562,333.700 171.433 C 334.100 171.247,334.100 171.153,333.700 170.967 C 333.106 170.689,333.026 169.600,333.600 169.600 C 333.820 169.600,334.000 168.610,334.000 167.400 C 334.000 166.190,334.180 165.200,334.400 165.200 C 334.620 165.200,334.800 164.300,334.800 163.200 C 334.800 162.100,334.980 161.200,335.200 161.200 C 335.420 161.200,335.600 160.379,335.600 159.376 C 335.600 158.263,335.756 157.649,336.000 157.800 C 336.242 157.950,336.400 157.396,336.400 156.400 C 336.400 155.404,336.558 154.850,336.800 155.000 C 337.020 155.136,337.200 154.913,337.200 154.504 C 337.200 154.095,337.400 153.560,337.645 153.315 C 337.890 153.070,338.022 152.151,337.938 151.273 C 337.823 150.060,337.958 149.569,338.502 149.229 C 339.070 148.874,339.131 148.618,338.795 147.991 C 338.543 147.520,338.526 147.200,338.753 147.200 C 338.962 147.200,339.234 147.425,339.356 147.700 C 339.479 147.975,339.565 147.660,339.547 147.000 C 339.500 145.219,339.617 144.909,340.000 145.800 C 340.328 146.563,340.345 146.559,340.372 145.700 C 340.387 145.205,340.603 144.800,340.850 144.800 C 341.137 144.800,341.213 144.364,341.060 143.600 C 340.925 142.923,340.990 142.400,341.210 142.400 C 341.425 142.400,341.600 142.052,341.600 141.627 C 341.600 141.189,341.970 140.736,342.453 140.583 C 343.123 140.371,343.187 140.237,342.753 139.962 C 342.354 139.710,342.339 139.611,342.700 139.606 C 342.975 139.603,343.200 139.370,343.200 139.088 C 343.200 138.807,343.575 138.312,344.033 137.988 C 345.524 136.935,347.270 135.137,347.032 134.899 C 346.905 134.771,346.800 134.807,346.800 134.978 C 346.800 135.149,346.485 134.933,346.100 134.498 C 345.412 133.720,342.550 132.509,339.400 131.664 C 334.610 130.379,329.965 129.997,324.400 130.430 M150.589 174.589 C 148.024 177.155,148.098 179.853,150.800 182.295 C 153.012 184.294,159.200 182.803,159.200 180.271 C 159.200 179.928,159.380 179.536,159.600 179.400 C 159.820 179.264,160.000 178.724,160.000 178.200 C 160.000 177.676,159.820 177.136,159.600 177.000 C 159.380 176.864,159.200 176.485,159.200 176.158 C 159.200 174.709,156.242 172.800,153.995 172.800 C 152.614 172.800,152.118 173.061,150.589 174.589 M131.400 186.925 C 127.807 190.032,130.117 196.000,134.913 196.000 C 137.053 196.000,139.600 194.576,139.600 193.380 C 139.600 193.061,139.780 192.800,140.000 192.800 C 140.220 192.800,140.400 191.900,140.400 190.800 C 140.400 186.188,134.962 183.847,131.400 186.925 M281.461 203.040 C 283.963 205.542,283.890 210.494,281.329 212.109 C 281.060 212.279,280.602 212.655,280.313 212.944 C 277.570 215.687,271.727 213.398,270.464 209.085 C 268.606 202.740,276.707 198.286,281.461 203.040 M272.800 326.000 C 268.533 330.267,272.895 337.337,278.587 335.380 C 284.988 333.179,283.486 324.400,276.709 324.400 C 274.549 324.400,274.297 324.503,272.800 326.000 " stroke="none" fill="#fc8c7c" fill-rule="evenodd"></path><path id="path2" d="M357.467 35.067 C 357.320 35.213,357.200 48.885,357.200 65.448 C 357.200 86.817,357.069 95.887,356.750 96.681 C 354.512 102.248,353.519 102.721,341.400 103.987 C 335.550 104.598,333.651 104.954,330.200 106.087 C 319.862 109.481,311.126 117.628,308.417 126.400 C 308.111 127.390,307.712 128.371,307.530 128.580 C 307.349 128.789,307.200 129.363,307.200 129.856 C 307.200 130.349,307.020 130.864,306.800 131.000 C 306.580 131.136,306.397 131.642,306.394 132.124 C 306.385 133.426,305.461 135.842,304.577 136.873 C 304.150 137.373,304.482 137.200,305.315 136.490 C 311.160 131.507,324.530 128.680,334.600 130.297 C 340.066 131.175,345.041 132.682,346.459 133.888 C 346.821 134.197,347.181 134.278,347.259 134.070 C 347.452 133.553,351.110 130.800,351.603 130.800 C 351.822 130.800,352.000 130.620,352.000 130.400 C 352.000 130.180,352.270 130.000,352.600 130.000 C 352.930 130.000,353.200 129.820,353.200 129.600 C 353.200 129.380,353.560 129.200,354.000 129.200 C 354.440 129.200,354.800 129.020,354.800 128.800 C 354.800 128.580,355.070 128.400,355.400 128.400 C 355.730 128.400,356.000 128.220,356.000 128.000 C 356.000 127.780,356.360 127.600,356.800 127.600 C 357.240 127.600,357.600 127.420,357.600 127.200 C 357.600 126.980,358.050 126.800,358.600 126.800 C 359.150 126.800,359.600 126.620,359.600 126.400 C 359.600 126.180,360.140 126.000,360.800 126.000 C 361.460 126.000,362.000 125.820,362.000 125.600 C 362.000 125.380,362.821 125.200,363.824 125.200 C 365.061 125.200,365.559 125.057,365.372 124.755 C 365.175 124.436,365.956 124.371,368.124 124.525 C 370.453 124.690,371.108 124.624,370.960 124.239 C 370.822 123.881,371.399 123.713,372.984 123.649 C 374.367 123.593,375.200 123.722,375.200 123.994 C 375.200 124.294,375.431 124.305,375.947 124.028 C 376.358 123.808,376.810 123.744,376.952 123.885 C 377.093 124.026,377.443 123.820,377.730 123.428 C 378.157 122.844,378.662 122.748,380.493 122.903 C 382.042 123.034,382.682 122.955,382.567 122.646 C 382.378 122.141,384.329 121.109,384.856 121.435 C 385.045 121.552,385.200 121.449,385.200 121.207 C 385.200 120.965,385.567 120.373,386.015 119.891 C 386.464 119.410,386.934 118.607,387.059 118.108 C 387.184 117.609,387.402 117.200,387.543 117.200 C 387.685 117.200,387.750 101.779,387.689 82.930 C 387.600 55.469,387.680 48.595,388.089 48.330 C 388.459 48.091,388.352 47.932,387.700 47.753 C 387.186 47.612,386.800 47.194,386.800 46.777 C 386.800 46.376,386.605 45.927,386.368 45.780 C 386.130 45.633,386.033 45.037,386.152 44.456 C 386.271 43.875,386.270 43.625,386.151 43.900 C 385.834 44.629,385.071 44.514,385.353 43.779 C 385.492 43.415,385.423 43.262,385.186 43.409 C 384.728 43.691,382.400 42.767,382.400 42.302 C 382.400 42.136,382.029 42.000,381.576 42.000 C 381.123 42.000,380.864 41.820,381.000 41.600 C 381.140 41.373,380.804 41.200,380.224 41.200 C 379.661 41.200,379.200 41.020,379.200 40.800 C 379.200 40.580,378.750 40.400,378.200 40.400 C 377.650 40.400,377.200 40.232,377.200 40.027 C 377.200 39.821,376.705 39.596,376.100 39.527 C 375.495 39.457,375.036 39.202,375.080 38.959 C 375.127 38.702,374.772 38.593,374.227 38.697 C 373.714 38.795,373.172 38.678,373.023 38.438 C 372.875 38.197,372.223 38.000,371.576 38.000 C 370.929 38.000,370.400 37.820,370.400 37.600 C 370.400 37.380,369.770 37.200,369.000 37.200 C 368.230 37.200,367.600 37.020,367.600 36.800 C 367.600 36.580,366.991 36.400,366.246 36.400 C 365.501 36.400,364.390 36.140,363.778 35.822 C 363.083 35.462,362.425 35.373,362.028 35.585 C 361.281 35.985,359.200 35.667,359.200 35.153 C 359.200 34.742,357.859 34.675,357.467 35.067 M197.234 67.101 C 196.483 67.485,195.537 68.429,195.132 69.198 C 194.150 71.061,194.161 358.341,195.142 359.814 C 197.503 363.356,203.201 363.082,204.996 359.340 C 205.971 357.305,205.909 71.371,204.932 69.313 C 203.647 66.606,200.159 65.603,197.234 67.101 M129.491 83.489 C 130.201 83.577,131.461 83.579,132.291 83.492 C 133.121 83.405,132.540 83.333,131.000 83.331 C 129.460 83.329,128.781 83.400,129.491 83.489 M138.000 84.000 C 139.368 84.438,140.419 84.438,139.400 84.000 C 138.960 83.811,138.240 83.662,137.800 83.668 C 137.157 83.677,137.196 83.743,138.000 84.000 M107.493 90.214 C 106.672 90.772,106.000 91.315,106.000 91.420 C 106.000 91.525,106.720 91.135,107.600 90.553 C 108.997 89.628,109.470 89.200,109.093 89.200 C 109.034 89.200,108.314 89.656,107.493 90.214 M168.928 115.600 C 168.928 117.030,169.001 117.615,169.089 116.900 C 169.178 116.185,169.178 115.015,169.089 114.300 C 169.001 113.585,168.928 114.170,168.928 115.600 M297.600 142.600 C 296.628 143.590,295.923 144.400,296.033 144.400 C 296.143 144.400,297.028 143.590,298.000 142.600 C 298.972 141.610,299.677 140.800,299.567 140.800 C 299.457 140.800,298.572 141.610,297.600 142.600 M102.901 145.400 C 102.905 146.280,102.987 146.593,103.083 146.095 C 103.179 145.598,103.175 144.878,103.075 144.495 C 102.975 144.113,102.896 144.520,102.901 145.400 M137.200 150.200 C 136.228 151.190,135.523 152.000,135.633 152.000 C 135.743 152.000,136.628 151.190,137.600 150.200 C 138.572 149.210,139.277 148.400,139.167 148.400 C 139.057 148.400,138.172 149.210,137.200 150.200 M131.600 157.000 C 130.628 157.990,129.923 158.800,130.033 158.800 C 130.143 158.800,131.028 157.990,132.000 157.000 C 132.972 156.010,133.677 155.200,133.567 155.200 C 133.457 155.200,132.572 156.010,131.600 157.000 M118.311 161.893 C 119.251 161.978,120.691 161.977,121.511 161.891 C 122.330 161.805,121.560 161.736,119.800 161.737 C 118.040 161.739,117.370 161.809,118.311 161.893 M281.578 164.300 L 280.200 165.800 281.700 164.422 C 283.096 163.138,283.384 162.800,283.078 162.800 C 283.012 162.800,282.337 163.475,281.578 164.300 M276.575 169.300 L 275.400 170.600 276.700 169.425 C 277.415 168.779,278.000 168.194,278.000 168.125 C 278.000 167.816,277.670 168.088,276.575 169.300 M269.400 175.035 L 268.200 176.066 269.500 175.206 C 270.215 174.733,270.800 174.268,270.800 174.173 C 270.800 173.873,270.631 173.978,269.400 175.035 M160.101 178.200 C 160.105 179.080,160.187 179.393,160.283 178.895 C 160.379 178.398,160.375 177.678,160.275 177.295 C 160.175 176.913,160.096 177.320,160.101 178.200 M257.178 184.300 L 255.800 185.800 257.300 184.422 C 258.696 183.138,258.984 182.800,258.678 182.800 C 258.612 182.800,257.937 183.475,257.178 184.300 M153.505 184.283 C 154.002 184.379,154.722 184.375,155.105 184.275 C 155.487 184.175,155.080 184.096,154.200 184.101 C 153.320 184.105,153.007 184.187,153.505 184.283 M252.575 188.900 L 251.400 190.200 252.700 189.025 C 253.415 188.379,254.000 187.794,254.000 187.725 C 254.000 187.416,253.670 187.688,252.575 188.900 M128.901 190.600 C 128.905 191.480,128.987 191.793,129.083 191.295 C 129.179 190.798,129.175 190.078,129.075 189.695 C 128.975 189.313,128.896 189.720,128.901 190.600 M140.893 190.800 C 140.893 191.570,140.975 191.885,141.076 191.500 C 141.176 191.115,141.176 190.485,141.076 190.100 C 140.975 189.715,140.893 190.030,140.893 190.800 M275.312 202.095 C 271.577 202.864,269.873 207.585,272.221 210.663 C 274.587 213.765,278.443 214.091,280.931 211.400 C 284.906 207.101,281.156 200.892,275.312 202.095 M238.093 222.400 C 238.093 223.170,238.175 223.485,238.276 223.100 C 238.376 222.715,238.376 222.085,238.276 221.700 C 238.175 221.315,238.093 221.630,238.093 222.400 M237.753 228.600 C 237.753 231.240,237.818 232.268,237.897 230.884 C 237.975 229.501,237.974 227.341,237.895 226.084 C 237.816 224.828,237.752 225.960,237.753 228.600 M238.093 235.600 C 238.093 236.370,238.175 236.685,238.276 236.300 C 238.376 235.915,238.376 235.285,238.276 234.900 C 238.175 234.515,238.093 234.830,238.093 235.600 M246.015 259.800 C 246.017 260.020,246.386 260.650,246.836 261.200 C 247.379 261.864,247.515 261.931,247.240 261.400 C 246.566 260.095,246.012 259.372,246.015 259.800 M255.183 271.700 C 256.164 272.745,257.019 273.600,257.083 273.600 C 257.384 273.600,257.066 273.241,255.300 271.583 L 253.400 269.800 255.183 271.700 M324.400 284.477 C 320.301 286.485,318.440 287.131,313.000 288.437 C 309.402 289.300,306.339 289.680,301.458 289.868 L 296.316 290.065 296.613 333.733 C 296.776 357.750,296.953 378.210,297.006 379.200 C 297.059 380.190,297.124 385.275,297.151 390.500 L 297.200 400.000 309.026 400.000 C 316.657 400.000,321.136 399.848,321.652 399.572 C 322.234 399.261,322.607 399.274,323.026 399.621 C 323.485 400.002,323.600 399.968,323.600 399.449 C 323.600 399.092,323.900 398.800,324.267 398.800 C 324.633 398.800,324.820 398.686,324.681 398.547 C 324.542 398.408,324.962 397.796,325.614 397.187 C 326.266 396.578,326.800 395.791,326.800 395.440 C 326.800 395.088,326.980 394.800,327.200 394.800 C 327.784 394.800,327.749 324.709,327.165 324.125 C 326.852 323.812,326.852 323.615,327.165 323.422 C 327.404 323.274,327.597 322.758,327.594 322.276 C 327.589 321.564,327.515 321.512,327.200 322.000 C 326.916 322.439,326.821 322.171,326.846 321.000 C 326.876 319.573,326.918 319.508,327.230 320.400 C 327.506 321.189,327.530 321.104,327.339 320.000 C 326.863 317.233,326.735 307.913,327.178 308.186 C 327.433 308.344,327.600 308.033,327.600 307.400 C 327.600 306.804,327.428 306.459,327.200 306.600 C 326.937 306.762,326.800 303.337,326.800 296.624 C 326.800 290.075,326.944 286.400,327.200 286.400 C 327.420 286.400,327.600 286.040,327.600 285.600 C 327.600 285.160,327.433 284.800,327.228 284.800 C 327.023 284.800,326.798 284.485,326.728 284.100 C 326.612 283.468,326.387 283.504,324.400 284.477 M270.493 330.000 C 270.493 330.770,270.575 331.085,270.676 330.700 C 270.776 330.315,270.776 329.685,270.676 329.300 C 270.575 328.915,270.493 329.230,270.493 330.000 " stroke="none" fill="#fcb3a3" fill-rule="evenodd"></path><path id="path3" d="M356.892 64.800 C 356.835 81.410,356.689 95.450,356.567 96.000 C 356.384 96.823,356.421 96.881,356.775 96.331 C 357.074 95.865,357.173 86.394,357.100 65.131 L 356.995 34.600 356.892 64.800 M359.600 35.187 C 359.600 35.414,360.230 35.600,361.000 35.600 C 361.770 35.600,362.400 35.457,362.400 35.282 C 362.400 35.107,361.770 34.921,361.000 34.869 C 360.230 34.817,359.600 34.961,359.600 35.187 M364.616 36.027 C 364.743 36.232,365.317 36.400,365.890 36.400 C 367.168 36.400,366.786 35.909,365.393 35.760 C 364.839 35.701,364.489 35.821,364.616 36.027 M367.600 36.800 C 367.600 37.020,367.971 37.200,368.424 37.200 C 368.877 37.200,369.136 37.020,369.000 36.800 C 368.864 36.580,368.493 36.400,368.176 36.400 C 367.859 36.400,367.600 36.580,367.600 36.800 M370.400 37.600 C 370.400 38.108,371.614 38.108,372.400 37.600 C 372.855 37.306,372.686 37.211,371.700 37.206 C 370.985 37.203,370.400 37.380,370.400 37.600 M375.200 39.200 C 375.200 39.420,375.571 39.600,376.024 39.600 C 376.477 39.600,376.736 39.420,376.600 39.200 C 376.464 38.980,376.093 38.800,375.776 38.800 C 375.459 38.800,375.200 38.980,375.200 39.200 M379.200 40.800 C 379.200 41.020,379.605 41.197,380.100 41.194 C 380.828 41.189,380.885 41.114,380.400 40.800 C 379.624 40.299,379.200 40.299,379.200 40.800 M381.000 41.600 C 380.864 41.820,381.108 42.000,381.543 42.000 C 381.978 42.000,382.400 42.201,382.482 42.446 C 382.564 42.691,382.984 42.800,383.415 42.688 C 384.151 42.497,384.144 42.467,383.300 42.196 C 382.805 42.037,382.400 41.748,382.400 41.553 C 382.400 41.069,381.305 41.106,381.000 41.600 M384.200 43.200 C 384.064 43.420,384.156 43.600,384.405 43.600 C 384.914 43.600,385.593 44.267,386.229 45.393 C 386.464 45.811,386.892 46.231,387.179 46.326 C 387.466 46.422,387.093 45.675,386.350 44.666 C 384.945 42.756,384.614 42.531,384.200 43.200 M387.606 82.471 C 387.610 105.238,387.745 115.585,388.041 116.000 C 388.385 116.482,388.431 116.423,388.272 115.700 C 388.164 115.206,388.238 114.700,388.438 114.577 C 389.131 114.148,388.897 50.840,388.200 50.143 C 387.667 49.610,387.601 53.202,387.606 82.471 M199.100 66.282 C 199.595 66.378,200.405 66.378,200.900 66.282 C 201.395 66.187,200.990 66.109,200.000 66.109 C 199.010 66.109,198.605 66.187,199.100 66.282 M202.600 66.868 C 203.040 67.112,203.679 67.512,204.020 67.756 C 204.360 68.000,204.215 67.795,203.697 67.300 C 203.179 66.805,202.540 66.405,202.278 66.412 C 202.015 66.419,202.160 66.624,202.600 66.868 M194.205 70.500 C 193.502 74.446,194.203 359.174,194.917 359.886 C 195.607 360.572,195.611 360.552,195.015 359.354 C 194.459 358.235,194.406 343.411,194.498 213.654 C 194.554 134.204,194.563 69.200,194.518 69.200 C 194.473 69.200,194.332 69.785,194.205 70.500 M354.562 100.057 C 354.143 100.529,353.260 101.248,352.600 101.656 C 351.940 102.063,351.569 102.398,351.775 102.399 C 352.367 102.401,354.652 100.729,355.153 99.927 C 355.763 98.949,355.494 99.009,354.562 100.057 M348.800 102.800 C 347.416 103.091,347.414 103.095,348.600 103.141 C 349.260 103.167,350.070 103.013,350.400 102.800 C 351.066 102.370,350.845 102.370,348.800 102.800 M342.400 103.600 L 341.000 103.895 342.400 103.907 C 343.170 103.915,344.250 103.776,344.800 103.600 L 345.800 103.280 344.800 103.293 C 344.250 103.300,343.170 103.438,342.400 103.600 M335.600 104.400 L 334.600 104.720 335.600 104.720 C 336.150 104.720,337.050 104.576,337.600 104.400 L 338.600 104.080 337.600 104.080 C 337.050 104.080,336.150 104.224,335.600 104.400 M324.000 108.292 C 323.110 108.632,318.889 111.532,318.598 112.004 C 318.459 112.228,319.508 111.598,320.929 110.605 C 322.349 109.612,323.701 108.800,323.932 108.800 C 324.164 108.800,324.464 108.620,324.600 108.400 C 324.871 107.962,324.867 107.961,324.000 108.292 M92.893 113.600 C 92.893 114.370,92.975 114.685,93.076 114.300 C 93.176 113.915,93.176 113.285,93.076 112.900 C 92.975 112.515,92.893 112.830,92.893 113.600 M314.742 115.545 C 312.183 118.280,310.005 121.200,310.524 121.200 C 310.617 121.200,311.169 120.482,311.749 119.605 C 312.330 118.728,313.996 116.748,315.451 115.205 C 316.906 113.662,318.004 112.400,317.890 112.400 C 317.776 112.400,316.359 113.815,314.742 115.545 M385.700 120.288 C 385.425 120.386,385.200 120.741,385.200 121.076 C 385.200 121.454,384.972 121.598,384.600 121.455 C 384.270 121.329,384.000 121.399,384.000 121.613 C 384.000 121.826,383.659 122.000,383.243 122.000 C 382.826 122.000,382.386 122.261,382.263 122.580 C 382.026 123.198,382.934 123.036,383.900 122.289 C 384.175 122.076,384.400 122.057,384.400 122.247 C 384.400 122.437,384.868 122.087,385.440 121.470 C 386.506 120.320,386.583 119.973,385.700 120.288 M378.283 123.473 C 378.416 123.819,378.837 123.906,379.535 123.730 C 380.113 123.585,380.806 123.467,381.075 123.467 C 381.345 123.467,381.468 123.310,381.350 123.119 C 380.988 122.534,378.053 122.873,378.283 123.473 M371.467 123.867 C 371.085 124.248,371.136 124.887,371.529 124.644 C 371.710 124.532,372.610 124.396,373.529 124.342 C 374.448 124.288,375.200 124.099,375.200 123.922 C 375.200 123.536,371.847 123.486,371.467 123.867 M365.600 124.810 C 365.600 125.038,366.291 125.171,367.161 125.110 C 368.020 125.049,368.639 124.865,368.538 124.700 C 368.256 124.243,365.600 124.342,365.600 124.810 M362.000 125.600 C 362.000 125.820,362.349 126.000,362.776 126.000 C 363.203 126.000,363.664 125.820,363.800 125.600 C 363.940 125.373,363.604 125.200,363.024 125.200 C 362.461 125.200,362.000 125.380,362.000 125.600 M359.467 126.569 C 359.327 126.935,358.919 127.058,358.324 126.915 C 357.558 126.729,357.487 126.784,357.910 127.236 C 358.319 127.672,358.575 127.683,359.205 127.290 C 359.636 127.020,360.262 126.800,360.595 126.800 C 360.928 126.800,361.200 126.620,361.200 126.400 C 361.200 125.782,359.713 125.927,359.467 126.569 M352.000 130.400 C 352.000 130.620,351.749 130.800,351.443 130.800 C 351.136 130.800,350.782 131.070,350.655 131.400 C 350.348 132.202,350.804 132.137,351.900 131.223 C 352.869 130.415,353.038 130.000,352.400 130.000 C 352.180 130.000,352.000 130.180,352.000 130.400 M347.592 133.810 C 346.844 134.711,347.278 134.815,348.170 133.948 C 348.593 133.537,348.751 133.200,348.519 133.200 C 348.287 133.200,347.870 133.474,347.592 133.810 M326.800 283.753 C 326.800 284.083,326.980 284.464,327.200 284.600 C 327.420 284.736,327.600 284.577,327.600 284.247 C 327.600 283.917,327.420 283.536,327.200 283.400 C 326.980 283.264,326.800 283.423,326.800 283.753 M326.934 296.600 C 326.926 302.933,327.036 306.062,327.217 304.600 C 327.605 301.457,327.623 290.300,327.244 288.000 C 327.075 286.975,326.942 290.680,326.934 296.600 M296.186 310.000 C 296.186 321.110,296.237 325.655,296.300 320.100 C 296.362 314.545,296.362 305.455,296.300 299.900 C 296.237 294.345,296.186 298.890,296.186 310.000 M326.806 309.900 C 326.811 311.016,326.912 311.246,327.200 310.800 C 327.709 310.012,327.709 308.400,327.200 308.400 C 326.980 308.400,326.803 309.075,326.806 309.900 M326.832 314.980 C 326.808 316.140,326.918 316.442,327.245 316.115 C 327.561 315.799,327.570 315.340,327.277 314.535 C 326.868 313.413,326.863 313.418,326.832 314.980 M276.100 336.276 C 276.485 336.376,277.115 336.376,277.500 336.276 C 277.885 336.175,277.570 336.093,276.800 336.093 C 276.030 336.093,275.715 336.175,276.100 336.276 M296.585 358.000 C 296.585 368.670,296.637 373.035,296.700 367.700 C 296.763 362.365,296.763 353.635,296.700 348.300 C 296.637 342.965,296.585 347.330,296.585 358.000 M205.644 357.400 C 205.617 357.840,205.323 358.722,204.990 359.360 C 204.658 359.997,204.455 360.589,204.540 360.674 C 204.853 360.986,206.047 357.947,205.873 357.284 C 205.726 356.726,205.684 356.748,205.644 357.400 M327.743 373.124 C 327.766 374.009,327.923 374.648,328.092 374.543 C 328.503 374.289,328.473 372.735,328.044 372.058 C 327.822 371.708,327.715 372.086,327.743 373.124 M327.669 377.400 C 327.617 378.170,327.761 378.800,327.987 378.800 C 328.214 378.800,328.400 378.170,328.400 377.400 C 328.400 376.630,328.257 376.000,328.082 376.000 C 327.907 376.000,327.721 376.630,327.669 377.400 M327.600 382.200 C 327.600 382.530,327.780 382.800,328.000 382.800 C 328.220 382.800,328.400 382.530,328.400 382.200 C 328.400 381.870,328.220 381.600,328.000 381.600 C 327.780 381.600,327.600 381.870,327.600 382.200 M327.600 388.000 C 327.600 390.938,327.755 392.800,328.001 392.800 C 328.247 392.800,328.390 390.958,328.371 388.000 C 328.355 385.342,328.176 383.200,327.971 383.200 C 327.764 383.200,327.600 385.320,327.600 388.000 M326.800 395.400 C 326.800 395.730,326.980 396.000,327.200 396.000 C 327.420 396.000,327.600 395.730,327.600 395.400 C 327.600 395.070,327.420 394.800,327.200 394.800 C 326.980 394.800,326.800 395.070,326.800 395.400 M296.893 398.800 C 296.893 399.570,296.975 399.885,297.076 399.500 C 297.176 399.115,297.176 398.485,297.076 398.100 C 296.975 397.715,296.893 398.030,296.893 398.800 " stroke="none" fill="#fcbcac" fill-rule="evenodd"></path><path id="path4" d="M129.100 83.893 C 130.035 83.977,131.565 83.977,132.500 83.893 C 133.435 83.809,132.670 83.740,130.800 83.740 C 128.930 83.740,128.165 83.809,129.100 83.893 M123.600 84.400 L 122.200 84.695 123.600 84.741 C 124.370 84.767,125.270 84.613,125.600 84.400 C 126.327 83.930,125.833 83.930,123.600 84.400 M136.800 84.388 C 137.130 84.608,138.015 84.791,138.767 84.794 C 140.560 84.802,140.241 84.575,138.000 84.250 C 136.742 84.067,136.381 84.109,136.800 84.388 M141.200 85.182 C 141.530 85.405,142.145 85.591,142.567 85.594 C 143.590 85.602,143.271 85.373,141.800 85.044 C 140.924 84.848,140.762 84.885,141.200 85.182 M143.600 85.727 C 143.600 85.827,144.545 86.213,145.700 86.587 C 146.855 86.960,149.015 87.881,150.500 88.633 C 153.491 90.147,154.163 90.205,151.500 88.720 C 148.974 87.310,143.600 85.274,143.600 85.727 M115.200 86.684 C 113.608 87.269,109.567 89.330,109.363 89.661 C 109.236 89.866,110.383 89.397,111.912 88.617 C 113.442 87.838,114.887 87.200,115.123 87.200 C 115.359 87.200,115.664 87.020,115.800 86.800 C 116.070 86.363,116.071 86.364,115.200 86.684 M156.000 91.900 C 156.000 92.069,156.360 92.432,156.800 92.707 C 157.240 92.982,157.600 93.069,157.600 92.900 C 157.600 92.731,157.240 92.368,156.800 92.093 C 156.360 91.818,156.000 91.731,156.000 91.900 M101.945 95.500 C 99.504 98.081,97.772 100.400,98.287 100.400 C 98.474 100.400,98.949 99.855,99.343 99.189 C 99.736 98.523,100.450 97.565,100.929 97.060 C 103.762 94.074,104.534 93.200,104.339 93.200 C 104.220 93.200,103.142 94.235,101.945 95.500 M162.110 98.000 C 163.319 99.650,164.603 101.585,164.964 102.300 C 165.325 103.015,165.711 103.600,165.821 103.600 C 166.443 103.600,162.916 98.101,161.075 96.200 C 160.436 95.540,160.901 96.350,162.110 98.000 M167.646 109.200 C 167.627 109.750,167.787 110.470,168.000 110.800 C 168.494 111.564,168.494 110.742,168.000 109.200 L 167.680 108.200 167.646 109.200 M168.537 115.400 C 168.539 117.160,168.609 117.830,168.693 116.889 C 168.778 115.949,168.777 114.509,168.691 113.689 C 168.605 112.870,168.536 113.640,168.537 115.400 M93.734 115.600 C 93.734 117.250,93.805 117.925,93.891 117.100 C 93.978 116.275,93.978 114.925,93.891 114.100 C 93.805 113.275,93.734 113.950,93.734 115.600 M167.849 120.215 C 167.712 120.573,167.616 121.256,167.636 121.733 C 167.662 122.347,167.785 122.208,168.059 121.256 C 168.457 119.872,168.294 119.058,167.849 120.215 M165.745 127.100 C 165.365 127.925,164.577 129.320,163.995 130.200 C 162.589 132.325,162.320 132.800,162.523 132.800 C 162.891 132.800,165.951 127.816,166.515 126.300 C 166.993 125.012,166.446 125.582,165.745 127.100 M96.986 128.700 C 97.335 129.415,97.706 130.000,97.810 130.000 C 98.208 130.000,97.952 129.363,97.167 128.400 L 96.352 127.400 96.986 128.700 M325.100 130.282 C 325.595 130.378,326.405 130.378,326.900 130.282 C 327.395 130.187,326.990 130.109,326.000 130.109 C 325.010 130.109,324.605 130.187,325.100 130.282 M329.905 130.283 C 330.402 130.379,331.122 130.375,331.505 130.275 C 331.887 130.175,331.480 130.096,330.600 130.101 C 329.720 130.105,329.407 130.187,329.905 130.283 M319.400 130.800 C 318.381 131.238,319.432 131.238,320.800 130.800 C 321.604 130.543,321.643 130.477,321.000 130.468 C 320.560 130.462,319.840 130.611,319.400 130.800 M334.833 130.544 C 334.925 130.623,335.540 130.808,336.200 130.956 C 337.076 131.152,337.238 131.115,336.800 130.818 C 336.260 130.453,334.432 130.198,334.833 130.544 M100.256 133.988 C 100.642 134.641,101.011 135.123,101.075 135.059 C 101.288 134.845,100.206 132.806,99.877 132.803 C 99.700 132.801,99.870 133.334,100.256 133.988 M159.262 135.858 C 158.306 136.848,157.597 137.730,157.686 137.819 C 157.775 137.909,158.731 137.086,159.809 135.991 C 160.888 134.896,161.597 134.013,161.385 134.029 C 161.173 134.045,160.218 134.868,159.262 135.858 M303.000 138.660 C 301.795 139.736,301.705 139.885,302.636 139.263 C 303.741 138.524,305.132 137.176,304.749 137.215 C 304.667 137.223,303.880 137.873,303.000 138.660 M102.217 138.666 C 102.354 139.290,102.631 140.322,102.833 140.960 C 103.035 141.598,103.213 143.308,103.228 144.760 C 103.244 146.212,103.396 147.759,103.568 148.198 C 104.005 149.319,103.626 142.456,103.172 141.040 C 102.967 140.402,102.800 139.468,102.800 138.964 C 102.800 138.460,102.613 137.932,102.384 137.790 C 102.113 137.623,102.055 137.929,102.217 138.666 M155.705 138.925 C 154.993 139.406,154.408 139.947,154.405 140.127 C 154.399 140.488,156.635 138.990,157.012 138.381 C 157.334 137.860,157.196 137.917,155.705 138.925 M152.400 141.233 L 151.400 142.048 152.700 141.414 C 153.415 141.065,154.000 140.694,154.000 140.590 C 154.000 140.192,153.363 140.448,152.400 141.233 M297.481 143.481 C 296.022 144.955,294.891 146.224,294.968 146.301 C 295.045 146.378,296.296 145.229,297.748 143.748 C 299.200 142.267,300.332 140.998,300.262 140.928 C 300.192 140.859,298.941 142.008,297.481 143.481 M140.193 147.054 C 137.272 148.987,132.400 154.482,132.400 155.843 C 132.400 156.001,133.147 155.066,134.061 153.765 C 136.304 150.571,137.840 148.987,140.100 147.536 C 141.743 146.482,142.305 146.000,141.893 146.000 C 141.834 146.000,141.069 146.474,140.193 147.054 M293.944 147.500 C 292.652 149.060,292.319 149.600,292.651 149.595 C 292.843 149.592,293.407 148.962,293.904 148.195 C 294.872 146.701,294.892 146.356,293.944 147.500 M105.624 153.449 C 105.611 153.695,106.339 154.685,107.242 155.649 C 108.446 156.933,108.580 157.017,107.742 155.962 C 107.114 155.171,106.386 154.181,106.124 153.762 C 105.861 153.343,105.636 153.202,105.624 153.449 M286.868 158.256 C 285.915 159.693,285.196 160.929,285.271 161.004 C 285.345 161.078,286.262 159.893,287.308 158.370 C 288.355 156.846,289.073 155.610,288.905 155.622 C 288.737 155.634,287.820 156.819,286.868 158.256 M116.204 161.206 C 116.338 161.423,117.007 161.600,117.690 161.600 C 119.201 161.600,119.049 161.400,117.280 161.063 C 116.455 160.906,116.052 160.960,116.204 161.206 M122.200 161.200 C 121.093 161.482,121.077 161.509,122.000 161.547 C 122.550 161.569,123.270 161.413,123.600 161.200 C 124.281 160.760,123.929 160.760,122.200 161.200 M334.910 162.000 C 334.943 162.440,335.112 162.800,335.285 162.800 C 335.458 162.800,335.600 162.440,335.600 162.000 C 335.600 161.560,335.431 161.200,335.225 161.200 C 335.019 161.200,334.877 161.560,334.910 162.000 M280.650 165.832 C 278.477 168.136,276.006 170.511,275.158 171.110 C 274.311 171.710,273.613 172.352,273.609 172.537 C 273.588 173.366,281.169 166.260,283.677 163.100 C 285.550 160.740,284.895 161.331,280.650 165.832 M333.200 170.200 C 333.200 170.530,333.380 170.800,333.600 170.800 C 333.820 170.800,334.000 170.530,334.000 170.200 C 334.000 169.870,333.820 169.600,333.600 169.600 C 333.380 169.600,333.200 169.870,333.200 170.200 M150.738 173.702 C 150.153 174.196,149.462 175.050,149.202 175.600 C 148.754 176.546,148.779 176.540,149.666 175.476 C 150.181 174.858,151.052 174.007,151.601 173.585 C 152.151 173.163,152.420 172.815,152.200 172.811 C 151.980 172.807,151.322 173.208,150.738 173.702 M271.585 174.032 L 270.200 175.263 271.488 174.413 C 272.630 173.659,273.493 172.800,273.108 172.800 C 273.032 172.800,272.347 173.354,271.585 174.032 M332.400 175.200 C 332.400 175.640,332.580 176.000,332.800 176.000 C 333.020 176.000,333.200 175.640,333.200 175.200 C 333.200 174.760,333.020 174.400,332.800 174.400 C 332.580 174.400,332.400 174.760,332.400 175.200 M331.600 181.667 C 331.600 183.094,332.093 182.894,332.295 181.385 C 332.368 180.843,332.241 180.400,332.014 180.400 C 331.786 180.400,331.600 180.970,331.600 181.667 M149.799 181.998 C 149.934 182.217,150.440 182.599,150.922 182.847 L 151.800 183.299 150.917 182.449 C 149.995 181.563,149.375 181.313,149.799 181.998 M153.013 183.625 C 153.714 183.829,154.726 183.828,155.413 183.623 C 156.412 183.325,156.219 183.269,154.200 183.270 C 152.163 183.272,151.983 183.325,153.013 183.625 M255.583 186.280 C 254.602 187.314,254.156 187.899,254.590 187.580 C 255.862 186.646,258.056 184.400,257.697 184.400 C 257.515 184.400,256.564 185.246,255.583 186.280 M134.105 185.487 C 134.714 185.579,135.614 185.577,136.105 185.482 C 136.597 185.387,136.100 185.311,135.000 185.314 C 133.900 185.317,133.497 185.395,134.105 185.487 M131.287 186.700 C 130.330 187.635,130.314 187.681,131.181 187.006 C 132.888 185.676,132.969 185.600,132.686 185.600 C 132.536 185.600,131.906 186.095,131.287 186.700 M137.956 186.317 C 138.482 186.741,139.262 187.518,139.691 188.044 C 140.119 188.570,140.336 188.730,140.174 188.400 C 139.692 187.421,138.664 186.353,137.804 185.936 C 137.194 185.640,137.230 185.732,137.956 186.317 M330.800 188.800 C 330.800 189.460,330.983 190.000,331.206 190.000 C 331.430 190.000,331.572 189.460,331.521 188.800 C 331.471 188.140,331.288 187.600,331.115 187.600 C 330.942 187.600,330.800 188.140,330.800 188.800 M251.700 190.564 C 250.765 191.733,250.000 192.844,250.000 193.032 C 250.000 193.220,250.405 192.854,250.900 192.219 C 251.395 191.584,252.314 190.465,252.941 189.732 C 253.569 189.000,253.929 188.409,253.741 188.419 C 253.554 188.429,252.635 189.395,251.700 190.564 M129.443 189.433 C 129.107 190.307,129.149 191.701,129.529 192.299 C 129.709 192.583,129.846 191.936,129.846 190.799 C 129.846 188.621,129.806 188.485,129.443 189.433 M248.645 194.588 C 248.280 195.144,248.122 195.600,248.295 195.600 C 248.684 195.600,249.719 193.986,249.482 193.749 C 249.386 193.653,249.010 194.031,248.645 194.588 M330.000 196.800 C 330.000 197.530,330.166 197.945,330.400 197.800 C 330.620 197.664,330.800 197.214,330.800 196.800 C 330.800 196.386,330.620 195.936,330.400 195.800 C 330.166 195.655,330.000 196.070,330.000 196.800 M246.986 197.300 L 246.352 198.600 247.167 197.600 C 247.952 196.637,248.208 196.000,247.810 196.000 C 247.706 196.000,247.335 196.585,246.986 197.300 M275.600 201.219 C 270.268 202.107,268.402 208.312,272.294 212.211 C 274.343 214.265,278.603 214.654,280.313 212.944 C 280.602 212.655,281.060 212.279,281.329 212.109 C 286.479 208.862,281.904 200.168,275.600 201.219 M281.011 203.389 C 285.960 208.339,280.272 215.909,274.014 212.700 C 268.364 209.802,270.500 201.617,276.911 201.604 C 279.116 201.600,279.302 201.681,281.011 203.389 M329.200 207.576 C 329.200 208.249,329.380 208.800,329.600 208.800 C 329.820 208.800,330.000 208.361,330.000 207.824 C 330.000 207.287,329.820 206.736,329.600 206.600 C 329.367 206.456,329.200 206.863,329.200 207.576 M239.456 215.684 C 239.321 216.188,239.230 217.140,239.253 217.800 C 239.281 218.628,239.397 218.384,239.626 217.013 C 239.976 214.923,239.874 214.126,239.456 215.684 M238.656 220.084 C 238.521 220.588,238.438 222.350,238.470 224.000 L 238.529 227.000 238.794 223.200 C 239.075 219.167,239.050 218.614,238.656 220.084 M328.400 222.400 C 328.400 223.280,328.580 224.000,328.800 224.000 C 329.020 224.000,329.200 223.280,329.200 222.400 C 329.200 221.520,329.020 220.800,328.800 220.800 C 328.580 220.800,328.400 221.520,328.400 222.400 M238.468 234.154 C 238.430 235.668,238.573 237.558,238.784 238.354 C 238.995 239.149,239.276 240.493,239.410 241.341 C 239.543 242.188,239.726 242.807,239.817 242.716 C 239.908 242.625,239.780 241.482,239.532 240.175 C 239.284 238.869,238.958 236.360,238.808 234.600 L 238.535 231.400 238.468 234.154 M327.628 248.363 C 327.664 251.000,327.840 252.699,328.063 252.561 C 328.543 252.265,328.423 244.461,327.934 244.159 C 327.719 244.026,327.592 245.761,327.628 248.363 M251.351 266.600 C 252.346 267.920,253.930 269.720,254.869 270.600 C 256.454 272.085,256.434 272.041,254.589 269.997 C 253.495 268.785,251.912 266.985,251.070 265.997 C 249.891 264.612,249.955 264.751,251.351 266.600 M259.622 275.051 C 259.648 275.458,262.000 277.387,262.000 277.002 C 262.000 276.726,261.434 276.144,260.298 275.251 C 259.914 274.949,259.610 274.859,259.622 275.051 M264.800 278.901 C 264.800 279.155,267.896 281.200,268.280 281.200 C 268.444 281.200,268.223 280.958,267.789 280.661 C 265.881 279.359,264.800 278.722,264.800 278.901 M284.200 287.600 C 285.301 288.073,285.692 288.073,285.400 287.600 C 285.264 287.380,284.758 287.213,284.276 287.228 C 283.431 287.255,283.429 287.269,284.200 287.600 M288.200 288.400 C 289.311 288.878,290.095 288.878,289.800 288.400 C 289.664 288.180,289.068 288.013,288.476 288.028 C 287.515 288.053,287.486 288.093,288.200 288.400 M309.200 288.800 C 308.376 289.064,308.341 289.126,309.000 289.154 C 309.440 289.173,310.070 289.013,310.400 288.800 C 311.101 288.347,310.614 288.347,309.200 288.800 M294.100 289.076 C 294.485 289.176,295.115 289.176,295.500 289.076 C 295.885 288.975,295.570 288.893,294.800 288.893 C 294.030 288.893,293.715 288.975,294.100 289.076 M298.300 289.895 C 299.455 289.976,301.345 289.976,302.500 289.895 C 303.655 289.814,302.710 289.748,300.400 289.748 C 298.090 289.748,297.145 289.814,298.300 289.895 M276.100 324.276 C 276.485 324.376,277.115 324.376,277.500 324.276 C 277.885 324.175,277.570 324.093,276.800 324.093 C 276.030 324.093,275.715 324.175,276.100 324.276 M270.901 329.800 C 270.905 330.680,270.987 330.993,271.083 330.495 C 271.179 329.998,271.175 329.278,271.075 328.895 C 270.975 328.513,270.896 328.920,270.901 329.800 " stroke="none" fill="#fc9c8c" fill-rule="evenodd"></path><path id="path5" d="M125.700 83.876 C 126.085 83.976,126.715 83.976,127.100 83.876 C 127.485 83.775,127.170 83.693,126.400 83.693 C 125.630 83.693,125.315 83.775,125.700 83.876 M134.700 83.882 C 135.195 83.978,136.005 83.978,136.500 83.882 C 136.995 83.787,136.590 83.709,135.600 83.709 C 134.610 83.709,134.205 83.787,134.700 83.882 M120.400 84.818 C 119.962 85.115,120.124 85.152,121.000 84.956 C 122.471 84.627,122.790 84.398,121.767 84.406 C 121.345 84.409,120.730 84.595,120.400 84.818 M101.978 95.100 L 100.600 96.600 102.100 95.222 C 102.925 94.463,103.600 93.788,103.600 93.722 C 103.600 93.416,103.262 93.704,101.978 95.100 M93.693 111.600 C 93.693 112.370,93.775 112.685,93.876 112.300 C 93.976 111.915,93.976 111.285,93.876 110.900 C 93.775 110.515,93.693 110.830,93.693 111.600 M93.324 115.800 C 93.326 117.120,93.401 117.612,93.490 116.893 C 93.579 116.174,93.577 115.094,93.486 114.493 C 93.395 113.892,93.322 114.480,93.324 115.800 M93.693 119.600 C 93.693 120.370,93.775 120.685,93.876 120.300 C 93.976 119.915,93.976 119.285,93.876 118.900 C 93.775 118.515,93.693 118.830,93.693 119.600 M323.841 129.954 C 323.423 130.118,324.773 130.185,326.841 130.104 C 331.933 129.903,332.585 129.697,328.200 129.675 C 326.220 129.664,324.258 129.790,323.841 129.954 M344.623 133.237 C 344.746 133.437,345.047 133.600,345.292 133.600 C 345.537 133.600,346.111 133.915,346.569 134.300 C 347.393 134.994,347.394 134.992,346.674 134.140 C 345.967 133.302,344.176 132.514,344.623 133.237 M159.781 136.100 L 158.200 137.800 159.900 136.219 C 161.481 134.748,161.784 134.400,161.481 134.400 C 161.416 134.400,160.651 135.165,159.781 136.100 M102.673 142.000 C 102.804 142.990,102.976 143.875,103.056 143.967 C 103.357 144.314,103.128 141.764,102.790 141.000 C 102.553 140.466,102.514 140.798,102.673 142.000 M296.575 144.100 L 295.400 145.400 296.700 144.225 C 297.415 143.579,298.000 142.994,298.000 142.925 C 298.000 142.616,297.670 142.888,296.575 144.100 M136.981 150.100 L 135.400 151.800 137.100 150.219 C 138.681 148.748,138.984 148.400,138.681 148.400 C 138.616 148.400,137.851 149.165,136.981 150.100 M278.400 167.712 C 275.870 170.175,274.520 171.621,275.400 170.925 C 277.015 169.647,283.544 163.186,283.191 163.216 C 283.086 163.225,280.930 165.248,278.400 167.712 M153.505 172.683 C 154.002 172.779,154.722 172.775,155.105 172.675 C 155.487 172.575,155.080 172.496,154.200 172.501 C 153.320 172.505,153.007 172.587,153.505 172.683 M148.789 175.621 C 148.547 176.072,148.406 176.714,148.475 177.046 C 148.544 177.379,148.798 177.009,149.040 176.225 C 149.535 174.623,149.442 174.400,148.789 175.621 M140.520 190.800 C 140.520 192.010,140.595 192.505,140.687 191.900 C 140.778 191.295,140.778 190.305,140.687 189.700 C 140.595 189.095,140.520 189.590,140.520 190.800 M129.218 192.241 C 129.190 192.937,130.937 195.322,131.600 195.492 C 132.005 195.596,131.972 195.502,131.499 195.203 C 131.114 194.959,130.447 194.093,130.017 193.280 C 129.587 192.466,129.227 191.998,129.218 192.241 M133.988 196.559 C 134.470 196.775,135.312 196.766,136.096 196.536 C 137.314 196.178,137.260 196.155,135.292 196.177 C 133.704 196.194,133.383 196.289,133.988 196.559 M274.204 201.994 C 274.052 202.240,274.455 202.294,275.280 202.137 C 277.049 201.800,277.201 201.600,275.690 201.600 C 275.007 201.600,274.338 201.777,274.204 201.994 M277.233 201.744 C 277.705 202.150,279.643 202.393,279.410 202.016 C 279.268 201.787,278.683 201.600,278.110 201.600 C 277.536 201.600,277.142 201.665,277.233 201.744 M272.529 203.300 C 272.084 203.795,271.576 204.470,271.401 204.800 C 271.063 205.437,271.155 205.350,272.776 203.500 C 273.306 202.895,273.649 202.400,273.539 202.400 C 273.429 202.400,272.975 202.805,272.529 203.300 M282.028 205.076 C 282.118 206.115,282.744 206.996,282.772 206.124 C 282.787 205.642,282.620 205.136,282.400 205.000 C 282.180 204.864,282.013 204.898,282.028 205.076 M270.914 207.400 C 270.917 208.500,270.995 208.903,271.087 208.295 C 271.179 207.686,271.177 206.786,271.082 206.295 C 270.987 205.803,270.911 206.300,270.914 207.400 M281.861 209.970 C 281.466 210.867,280.975 211.600,280.771 211.600 C 280.567 211.600,280.400 211.802,280.400 212.049 C 280.400 212.738,281.554 211.649,282.251 210.302 C 282.580 209.666,282.788 208.965,282.714 208.743 C 282.641 208.522,282.257 209.074,281.861 209.970 M271.200 209.723 C 271.200 210.861,274.457 213.677,275.067 213.066 C 275.173 212.960,274.891 212.756,274.439 212.613 C 273.988 212.469,273.074 211.692,272.409 210.885 C 271.744 210.078,271.200 209.555,271.200 209.723 M276.100 213.476 C 276.485 213.576,277.115 213.576,277.500 213.476 C 277.885 213.375,277.570 213.293,276.800 213.293 C 276.030 213.293,275.715 213.375,276.100 213.476 M238.650 218.850 C 238.509 219.553,238.469 220.202,238.559 220.292 C 238.650 220.383,238.848 219.891,239.000 219.200 C 239.152 218.509,239.193 217.859,239.091 217.758 C 238.989 217.656,238.791 218.147,238.650 218.850 M238.124 225.800 C 238.126 227.120,238.201 227.612,238.290 226.893 C 238.379 226.174,238.377 225.094,238.286 224.493 C 238.195 223.892,238.122 224.480,238.124 225.800 M328.400 224.600 C 328.400 224.930,328.580 225.200,328.800 225.200 C 329.020 225.200,329.200 224.930,329.200 224.600 C 329.200 224.270,329.020 224.000,328.800 224.000 C 328.580 224.000,328.400 224.270,328.400 224.600 M238.131 231.800 C 238.133 233.340,238.205 233.921,238.292 233.091 C 238.379 232.261,238.377 231.001,238.289 230.291 C 238.200 229.581,238.129 230.260,238.131 231.800 M327.815 252.775 C 327.483 253.313,327.707 255.581,328.070 255.357 C 328.344 255.187,328.427 252.400,328.159 252.400 C 328.097 252.400,327.943 252.569,327.815 252.775 M247.877 262.431 C 248.275 263.108,248.856 263.873,249.168 264.131 C 249.480 264.389,249.232 263.835,248.615 262.900 C 247.320 260.937,246.809 260.612,247.877 262.431 M255.800 272.000 C 257.328 273.540,258.669 274.800,258.779 274.800 C 258.889 274.800,257.728 273.540,256.200 272.000 C 254.672 270.460,253.331 269.200,253.221 269.200 C 253.111 269.200,254.272 270.460,255.800 272.000 M322.800 285.000 C 322.250 285.314,321.980 285.572,322.200 285.572 C 322.420 285.572,323.050 285.314,323.600 285.000 C 324.150 284.686,324.420 284.428,324.200 284.428 C 323.980 284.428,323.350 284.686,322.800 285.000 M290.905 289.087 C 291.514 289.179,292.414 289.177,292.905 289.082 C 293.397 288.987,292.900 288.911,291.800 288.914 C 290.700 288.917,290.297 288.995,290.905 289.087 M305.200 289.600 C 304.396 289.857,304.357 289.923,305.000 289.932 C 305.440 289.938,306.160 289.789,306.600 289.600 C 307.619 289.162,306.568 289.162,305.200 289.600 " stroke="none" fill="#fc9c94" fill-rule="evenodd"></path><path id="path6" d="M356.603 34.475 C 356.497 34.764,356.364 48.950,356.306 66.000 C 356.192 99.304,356.306 97.469,354.200 99.938 C 352.972 101.378,351.669 101.892,347.985 102.392 C 346.123 102.644,343.625 103.019,342.433 103.225 C 341.242 103.431,339.442 103.613,338.433 103.628 C 337.425 103.644,336.240 103.809,335.800 103.996 C 334.928 104.366,337.315 104.222,342.400 103.596 C 344.050 103.393,346.300 103.119,347.400 102.988 C 350.746 102.587,352.345 102.024,353.826 100.724 C 356.785 98.126,356.587 100.502,356.712 66.016 C 356.790 44.429,356.954 34.952,357.255 34.766 C 357.560 34.578,357.555 34.420,357.240 34.225 C 356.995 34.073,356.708 34.186,356.603 34.475 M197.400 66.066 C 196.321 66.661,194.400 68.468,194.400 68.888 C 194.400 69.074,195.027 68.599,195.794 67.833 C 199.057 64.569,205.024 66.167,205.798 70.512 C 205.924 71.220,205.976 136.448,205.913 215.462 C 205.851 294.476,205.935 359.040,206.100 358.938 C 206.265 358.836,206.400 293.810,206.400 214.436 L 206.400 70.118 205.490 68.769 C 203.613 65.982,199.838 64.721,197.400 66.066 M193.867 69.867 C 193.496 70.237,193.529 358.709,193.900 358.938 C 194.065 359.040,194.200 293.981,194.200 214.362 C 194.200 134.743,194.185 69.600,194.167 69.600 C 194.148 69.600,194.013 69.720,193.867 69.867 M127.900 83.082 C 128.395 83.178,129.205 83.178,129.700 83.082 C 130.195 82.987,129.790 82.909,128.800 82.909 C 127.810 82.909,127.405 82.987,127.900 83.082 M132.700 83.082 C 133.195 83.178,134.005 83.178,134.500 83.082 C 134.995 82.987,134.590 82.909,133.600 82.909 C 132.610 82.909,132.205 82.987,132.700 83.082 M122.446 83.563 C 122.107 83.778,122.651 83.832,123.846 83.704 C 124.921 83.588,125.875 83.428,125.967 83.347 C 126.329 83.028,122.965 83.235,122.446 83.563 M136.433 83.347 C 136.525 83.428,137.479 83.588,138.554 83.704 C 139.749 83.832,140.293 83.778,139.954 83.563 C 139.435 83.235,136.071 83.028,136.433 83.347 M119.045 84.328 C 118.933 84.508,119.373 84.577,120.021 84.482 C 120.670 84.387,121.200 84.240,121.200 84.155 C 121.200 83.850,119.243 84.007,119.045 84.328 M141.233 84.144 C 141.325 84.223,141.940 84.408,142.600 84.556 C 143.476 84.752,143.638 84.715,143.200 84.418 C 142.660 84.053,140.832 83.798,141.233 84.144 M103.054 93.033 C 102.423 93.587,101.987 94.120,102.083 94.216 C 102.179 94.313,102.774 93.854,103.404 93.196 C 104.796 91.743,104.616 91.659,103.054 93.033 M158.800 92.862 C 158.800 93.185,162.489 96.845,162.650 96.683 C 162.723 96.611,161.886 95.669,160.791 94.591 C 159.696 93.512,158.800 92.735,158.800 92.862 M100.175 96.100 L 99.000 97.400 100.300 96.225 C 101.512 95.130,101.784 94.800,101.475 94.800 C 101.406 94.800,100.821 95.385,100.175 96.100 M98.093 98.700 C 97.057 100.196,96.721 100.800,96.923 100.800 C 97.017 100.800,97.570 100.080,98.153 99.200 C 99.336 97.412,99.284 96.979,98.093 98.700 M164.000 98.647 C 164.000 98.867,164.264 99.396,164.587 99.824 C 164.910 100.251,165.175 100.420,165.175 100.200 C 165.175 99.980,164.910 99.451,164.587 99.024 C 164.264 98.596,164.000 98.427,164.000 98.647 M331.000 104.902 C 327.978 105.952,323.478 108.011,323.706 108.239 C 323.807 108.340,324.769 107.983,325.845 107.445 C 327.827 106.454,332.174 104.977,334.000 104.675 C 334.702 104.558,334.582 104.505,333.600 104.497 C 332.830 104.490,331.660 104.673,331.000 104.902 M168.682 109.621 C 168.808 110.599,168.975 111.475,169.055 111.567 C 169.381 111.942,169.160 108.955,168.821 108.421 C 168.584 108.046,168.535 108.470,168.682 109.621 M320.200 110.103 C 317.776 111.877,314.675 114.875,311.849 118.178 C 310.745 119.467,308.173 124.306,308.446 124.579 C 308.539 124.673,309.302 123.417,310.140 121.789 C 311.848 118.471,315.568 114.224,319.073 111.590 C 322.118 109.303,322.238 109.197,321.780 109.213 C 321.571 109.220,320.860 109.620,320.200 110.103 M93.067 110.267 C 92.920 110.413,92.811 110.908,92.825 111.367 C 92.849 112.133,92.882 112.123,93.234 111.242 C 93.626 110.263,93.544 109.789,93.067 110.267 M92.828 119.476 C 92.813 119.958,92.980 120.464,93.200 120.600 C 93.673 120.892,93.673 120.501,93.200 119.400 C 92.869 118.629,92.855 118.631,92.828 119.476 M168.901 120.600 C 168.905 121.480,168.987 121.793,169.083 121.295 C 169.179 120.798,169.175 120.078,169.075 119.695 C 168.975 119.313,168.896 119.720,168.901 120.600 M307.780 125.843 C 307.649 126.259,307.375 126.913,307.171 127.295 C 306.967 127.677,306.810 128.307,306.822 128.695 C 306.834 129.083,307.200 128.521,307.636 127.447 C 308.072 126.373,308.336 125.403,308.223 125.290 C 308.111 125.178,307.911 125.426,307.780 125.843 M96.473 129.800 C 96.723 130.350,97.084 130.800,97.273 130.800 C 97.463 130.800,97.324 130.350,96.963 129.800 C 96.603 129.250,96.243 128.800,96.163 128.800 C 96.083 128.800,96.222 129.250,96.473 129.800 M306.249 130.215 C 306.112 130.573,306.015 131.166,306.034 131.533 C 306.053 131.900,306.227 131.669,306.421 131.020 C 306.798 129.758,306.665 129.133,306.249 130.215 M305.467 132.667 C 305.320 132.813,305.215 133.398,305.234 133.967 C 305.268 134.981,305.275 134.979,305.621 133.820 C 305.985 132.603,305.931 132.202,305.467 132.667 M160.800 135.800 C 159.828 136.790,159.123 137.600,159.233 137.600 C 159.343 137.600,160.228 136.790,161.200 135.800 C 162.172 134.810,162.877 134.000,162.767 134.000 C 162.657 134.000,161.772 134.810,160.800 135.800 M102.040 143.433 C 102.062 144.515,102.229 145.850,102.411 146.400 C 102.612 147.009,102.653 146.304,102.516 144.600 C 102.250 141.295,101.983 140.642,102.040 143.433 M139.903 148.500 C 139.385 148.995,139.240 149.200,139.580 148.956 C 139.921 148.712,140.560 148.312,141.000 148.068 C 141.440 147.824,141.585 147.619,141.322 147.612 C 141.060 147.605,140.421 148.005,139.903 148.500 M134.186 154.700 C 133.576 155.525,132.520 156.830,131.838 157.599 L 130.600 158.998 131.855 157.868 C 133.063 156.779,135.837 153.200,135.472 153.200 C 135.375 153.200,134.796 153.875,134.186 154.700 M106.451 156.298 C 107.196 157.247,107.661 157.696,108.602 158.381 C 109.041 158.701,108.688 158.206,107.819 157.281 C 106.213 155.574,105.451 155.027,106.451 156.298 M283.268 161.500 C 282.316 162.693,281.596 163.723,281.668 163.787 C 281.741 163.851,282.590 162.930,283.555 161.740 C 284.520 160.550,285.240 159.521,285.155 159.453 C 285.070 159.385,284.221 160.306,283.268 161.500 M118.729 162.551 C 119.494 162.771,120.506 162.771,121.271 162.551 C 122.368 162.237,122.193 162.187,120.000 162.187 C 117.807 162.187,117.632 162.237,118.729 162.551 M278.400 167.000 C 277.428 167.990,276.723 168.800,276.833 168.800 C 276.943 168.800,277.828 167.990,278.800 167.000 C 279.772 166.010,280.477 165.200,280.367 165.200 C 280.257 165.200,279.372 166.010,278.400 167.000 M148.854 174.324 C 148.413 174.943,147.950 175.978,147.824 176.624 L 147.595 177.800 148.055 176.600 C 148.307 175.940,148.861 174.905,149.284 174.300 C 149.708 173.695,149.964 173.200,149.854 173.200 C 149.744 173.200,149.294 173.706,148.854 174.324 M264.162 178.062 L 263.400 178.924 264.500 178.216 C 265.634 177.486,265.849 177.200,265.262 177.200 C 265.076 177.200,264.581 177.588,264.162 178.062 M147.772 179.800 C 147.929 180.460,148.229 181.176,148.439 181.391 C 148.650 181.606,148.610 181.156,148.351 180.391 C 147.746 178.600,147.405 178.252,147.772 179.800 M259.256 181.613 C 258.016 182.646,258.575 182.635,259.891 181.600 C 260.450 181.160,260.749 180.806,260.554 180.813 C 260.359 180.821,259.775 181.181,259.256 181.613 M149.688 183.013 C 150.286 183.643,150.847 184.077,150.935 183.979 C 151.023 183.880,150.533 183.365,149.847 182.834 L 148.600 181.869 149.688 183.013 M254.800 185.800 C 253.161 187.450,251.910 188.800,252.020 188.800 C 252.130 188.800,253.561 187.450,255.200 185.800 C 256.839 184.150,258.090 182.800,257.980 182.800 C 257.870 182.800,256.439 184.150,254.800 185.800 M133.221 184.379 C 132.846 184.616,133.270 184.665,134.421 184.518 C 135.399 184.392,136.275 184.225,136.367 184.145 C 136.742 183.819,133.755 184.040,133.221 184.379 M151.862 184.500 C 151.964 184.665,153.016 184.800,154.200 184.800 C 155.384 184.800,156.436 184.665,156.538 184.500 C 156.640 184.335,155.588 184.200,154.200 184.200 C 152.812 184.200,151.760 184.335,151.862 184.500 M129.273 187.400 C 129.022 187.950,128.883 188.400,128.963 188.400 C 129.043 188.400,129.403 187.950,129.763 187.400 C 130.124 186.850,130.263 186.400,130.073 186.400 C 129.884 186.400,129.523 186.850,129.273 187.400 M139.375 195.250 C 138.552 196.125,138.452 196.347,139.041 195.991 C 139.767 195.551,141.043 194.000,140.678 194.000 C 140.608 194.000,140.021 194.563,139.375 195.250 M238.267 216.667 C 238.120 216.813,238.015 217.398,238.034 217.967 C 238.068 218.981,238.075 218.979,238.421 217.820 C 238.785 216.603,238.731 216.202,238.267 216.667 M237.450 222.450 C 237.118 224.108,237.182 234.812,237.528 235.683 C 237.678 236.059,237.800 232.954,237.800 228.783 C 237.800 224.612,237.778 221.200,237.750 221.200 C 237.722 221.200,237.588 221.763,237.450 222.450 M238.028 239.876 C 238.013 240.358,238.180 240.864,238.400 241.000 C 238.873 241.292,238.873 240.901,238.400 239.800 C 238.069 239.029,238.055 239.031,238.028 239.876 M249.502 265.800 C 250.605 267.391,254.000 271.332,254.000 271.021 C 254.000 270.791,249.985 265.875,249.083 265.000 C 248.856 264.780,249.045 265.140,249.502 265.800 M256.822 273.870 C 256.834 274.051,257.374 274.619,258.022 275.130 C 258.670 275.642,259.190 275.912,259.178 275.730 C 259.166 275.549,258.626 274.981,257.978 274.470 C 257.330 273.958,256.810 273.688,256.822 273.870 M277.546 286.616 C 278.286 286.937,279.096 287.193,279.346 287.184 C 279.596 287.176,279.194 286.906,278.454 286.584 C 277.714 286.263,276.904 286.007,276.654 286.016 C 276.404 286.024,276.806 286.294,277.546 286.616 M285.200 288.800 C 286.568 289.238,287.619 289.238,286.600 288.800 C 286.160 288.611,285.440 288.462,285.000 288.468 C 284.357 288.477,284.396 288.543,285.200 288.800 M289.800 289.623 C 291.826 290.042,293.463 290.023,291.800 289.600 C 291.140 289.432,290.060 289.294,289.400 289.293 C 288.391 289.292,288.455 289.345,289.800 289.623 M275.056 323.510 C 274.951 323.680,275.642 323.815,276.592 323.810 C 277.543 323.804,278.238 323.665,278.136 323.500 C 277.894 323.104,275.302 323.112,275.056 323.510 M270.267 328.267 C 269.901 328.632,269.929 331.509,270.300 331.738 C 270.465 331.840,270.600 331.041,270.600 329.962 C 270.600 328.883,270.585 328.000,270.567 328.000 C 270.548 328.000,270.413 328.120,270.267 328.267 M296.000 365.133 C 296.000 387.368,296.140 400.000,296.388 400.000 C 296.748 400.000,296.507 330.850,296.145 330.433 C 296.065 330.342,296.000 345.957,296.000 365.133 M270.800 333.325 C 270.800 333.394,271.385 333.979,272.100 334.625 L 273.400 335.800 272.225 334.500 C 271.130 333.288,270.800 333.016,270.800 333.325 M196.624 362.187 C 197.051 362.510,197.850 362.772,198.400 362.770 C 199.194 362.766,199.071 362.646,197.800 362.188 C 195.787 361.463,195.666 361.463,196.624 362.187 M202.000 362.225 C 200.779 362.687,200.728 362.756,201.600 362.765 C 202.150 362.770,202.949 362.510,203.376 362.187 C 204.296 361.492,203.910 361.502,202.000 362.225 M327.867 364.267 C 327.497 364.637,327.532 365.600,327.915 365.600 C 328.088 365.600,328.257 365.240,328.290 364.800 C 328.355 363.940,328.283 363.850,327.867 364.267 M327.600 367.357 C 327.600 367.957,327.764 368.346,327.964 368.222 C 328.366 367.974,328.315 366.982,327.878 366.545 C 327.725 366.392,327.600 366.757,327.600 367.357 " stroke="none" fill="#fcc4b4" fill-rule="evenodd"></path><path id="path7" d="M205.798 214.400 C 205.798 292.830,205.844 324.915,205.900 285.700 C 205.956 246.485,205.956 182.315,205.900 143.100 C 205.844 103.885,205.798 135.970,205.798 214.400 M349.400 132.221 L 348.200 133.212 349.433 132.790 C 350.112 132.558,350.667 132.105,350.667 131.784 C 350.667 131.463,350.652 131.206,350.633 131.214 C 350.615 131.222,350.060 131.675,349.400 132.221 M278.975 166.900 L 277.800 168.200 279.100 167.025 C 279.815 166.379,280.400 165.794,280.400 165.725 C 280.400 165.416,280.070 165.688,278.975 166.900 M327.301 287.800 C 327.305 288.680,327.387 288.993,327.483 288.495 C 327.579 287.998,327.575 287.278,327.475 286.895 C 327.375 286.513,327.296 286.920,327.301 287.800 M327.314 304.600 C 327.317 305.700,327.395 306.103,327.487 305.495 C 327.579 304.886,327.577 303.986,327.482 303.495 C 327.387 303.003,327.311 303.500,327.314 304.600 M326.957 311.427 C 326.816 311.992,326.867 313.027,327.071 313.727 C 327.411 314.894,327.448 314.809,327.508 312.700 C 327.579 310.238,327.374 309.765,326.957 311.427 M326.806 317.276 C 326.809 317.784,326.990 318.470,327.208 318.800 C 327.504 319.249,327.581 319.066,327.515 318.070 C 327.413 316.556,326.797 315.866,326.806 317.276 M296.548 334.800 C 296.548 337.110,296.614 338.055,296.695 336.900 C 296.776 335.745,296.776 333.855,296.695 332.700 C 296.614 331.545,296.548 332.490,296.548 334.800 M296.967 388.400 C 296.967 392.690,297.026 394.445,297.098 392.300 C 297.170 390.155,297.170 386.645,297.098 384.500 C 297.026 382.355,296.967 384.110,296.967 388.400 " stroke="none" fill="#fcb4ac" fill-rule="evenodd"></path><path id="path8" d="M11.391 82.400 C 11.391 100.110,11.440 107.355,11.500 98.500 C 11.560 89.645,11.560 75.155,11.500 66.300 C 11.440 57.445,11.391 64.690,11.391 82.400 M119.300 162.276 C 119.685 162.376,120.315 162.376,120.700 162.276 C 121.085 162.175,120.770 162.093,120.000 162.093 C 119.230 162.093,118.915 162.175,119.300 162.276 M327.600 379.400 C 327.600 379.730,327.780 380.000,328.000 380.000 C 328.220 380.000,328.400 379.730,328.400 379.400 C 328.400 379.070,328.220 378.800,328.000 378.800 C 327.780 378.800,327.600 379.070,327.600 379.400 " stroke="none" fill="#fcbcb4" fill-rule="evenodd"></path></g></svg>