<svg id="svg" version="1.1" xmlns="http://www.w3.org/2000/svg" xmlns:xlink="http://www.w3.org/1999/xlink" width="400" height="400" viewBox="0, 0, 400,400"><g id="svgg"><path id="path0" d="M187.846 163.487 C 187.688 163.645,186.443 163.920,185.079 164.099 C 180.539 164.693,179.597 164.882,179.374 165.242 C 179.252 165.439,178.722 165.600,178.195 165.600 C 177.669 165.600,176.824 165.757,176.319 165.949 C 175.813 166.141,174.680 166.514,173.800 166.777 C 171.705 167.406,168.228 168.702,166.104 169.646 C 165.172 170.061,164.272 170.406,164.104 170.413 C 162.079 170.497,162.282 171.427,165.571 177.149 C 168.580 182.385,168.800 182.924,168.800 185.059 C 168.800 190.903,161.683 193.891,157.850 189.656 C 157.219 188.958,154.400 184.473,154.400 184.166 C 154.400 183.373,150.628 178.037,150.260 178.310 C 150.007 178.498,148.360 179.716,146.600 181.015 C 142.485 184.053,134.053 192.485,131.015 196.600 C 129.716 198.360,128.496 200.011,128.304 200.268 C 127.946 200.749,129.704 201.902,137.100 206.039 C 141.319 208.399,142.682 211.898,140.774 215.473 C 138.346 220.021,134.935 220.045,127.149 215.571 C 121.427 212.282,120.497 212.079,120.413 214.104 C 120.406 214.272,120.061 215.172,119.646 216.104 C 118.702 218.228,117.406 221.705,116.777 223.800 C 116.514 224.680,116.141 225.813,115.949 226.319 C 115.757 226.824,115.600 227.669,115.600 228.195 C 115.600 228.722,115.439 229.252,115.242 229.374 C 115.045 229.495,114.781 230.271,114.654 231.097 C 114.527 231.924,114.226 233.770,113.984 235.200 C 113.742 236.630,113.453 239.105,113.341 240.700 L 113.137 243.600 119.907 243.600 C 125.071 243.600,126.958 243.740,127.859 244.190 C 132.631 246.570,132.667 253.368,127.920 255.838 C 127.115 256.257,125.092 256.400,119.978 256.400 L 113.115 256.400 113.340 259.500 C 113.563 262.563,113.979 265.296,114.757 268.800 C 114.977 269.790,115.270 271.140,115.409 271.800 C 115.547 272.460,115.803 273.360,115.978 273.800 C 116.152 274.240,116.688 275.860,117.168 277.400 C 118.074 280.305,118.170 280.557,119.560 283.696 C 120.022 284.738,120.406 285.728,120.413 285.896 C 120.492 287.793,121.533 287.728,125.284 285.591 C 132.956 281.218,132.998 281.200,135.271 281.200 C 139.686 281.200,143.133 286.467,141.100 290.105 C 140.410 291.340,138.725 293.200,138.297 293.200 C 138.103 293.200,137.159 293.740,136.200 294.400 C 135.241 295.060,134.341 295.600,134.200 295.600 C 134.059 295.600,133.159 296.140,132.200 296.800 C 131.241 297.460,130.308 298.004,130.128 298.009 C 129.948 298.014,129.401 298.329,128.914 298.709 L 128.028 299.400 130.181 302.311 C 134.975 308.790,142.964 316.647,148.937 320.757 C 149.993 321.483,150.902 322.015,150.957 321.939 C 151.012 321.862,151.564 320.900,152.182 319.800 C 159.174 307.366,162.811 305.316,167.592 311.116 C 169.849 313.855,169.363 316.449,165.348 323.093 C 164.387 324.684,163.600 326.097,163.600 326.231 C 163.600 326.366,163.248 326.971,162.818 327.575 L 162.035 328.674 164.844 329.937 C 166.389 330.632,167.901 331.200,168.203 331.200 C 168.505 331.200,168.842 331.344,168.951 331.521 C 169.060 331.697,170.072 332.093,171.200 332.400 C 172.328 332.707,173.340 333.103,173.449 333.279 C 173.558 333.456,174.166 333.600,174.800 333.600 C 175.434 333.600,176.052 333.760,176.173 333.956 C 176.294 334.151,176.979 334.408,177.696 334.527 C 178.413 334.645,179.810 334.937,180.800 335.176 C 184.029 335.954,187.342 336.491,190.500 336.748 L 193.601 337.000 193.630 330.000 C 193.668 320.737,194.770 318.800,200.000 318.800 C 205.221 318.800,206.332 320.743,206.371 329.941 L 206.400 336.882 209.700 336.660 C 211.515 336.538,214.080 336.243,215.400 336.004 C 216.720 335.764,218.476 335.467,219.303 335.342 C 220.129 335.217,220.905 334.955,221.026 334.758 C 221.148 334.561,221.629 334.400,222.095 334.400 C 222.996 334.400,225.339 333.735,226.495 333.151 C 226.877 332.958,227.464 332.800,227.800 332.800 C 228.136 332.800,228.723 332.634,229.105 332.431 C 229.487 332.228,231.240 331.500,233.000 330.813 C 238.491 328.670,238.253 329.202,235.692 324.800 C 231.310 317.267,231.200 317.020,231.200 314.729 C 231.200 310.164,236.123 307.028,240.120 309.047 C 241.593 309.791,243.200 311.174,243.200 311.698 C 243.200 311.895,243.740 312.841,244.400 313.800 C 245.060 314.759,245.600 315.631,245.600 315.737 C 245.600 316.114,248.871 321.597,249.228 321.817 C 249.427 321.940,249.817 321.855,250.095 321.628 C 250.373 321.401,252.040 320.097,253.800 318.731 C 259.804 314.070,264.070 309.804,268.731 303.800 C 270.097 302.040,271.392 300.383,271.607 300.117 C 272.302 299.262,272.056 299.039,267.738 296.600 C 265.402 295.280,262.977 293.909,262.349 293.553 C 257.631 290.875,257.064 285.749,261.116 282.408 C 263.248 280.652,265.976 280.701,269.340 282.559 C 273.355 284.776,276.531 286.602,277.642 287.331 L 278.684 288.016 279.799 285.532 C 280.412 284.165,281.218 282.181,281.591 281.122 C 281.964 280.064,282.389 279.078,282.535 278.932 C 282.681 278.786,282.800 278.334,282.800 277.928 C 282.800 277.522,282.958 276.877,283.151 276.495 C 283.735 275.339,284.400 272.996,284.400 272.095 C 284.400 271.629,284.561 271.148,284.758 271.026 C 284.955 270.905,285.217 270.129,285.342 269.303 C 285.467 268.476,285.764 266.720,286.004 265.400 C 286.243 264.080,286.538 261.515,286.660 259.700 L 286.882 256.400 279.941 256.371 C 270.743 256.332,268.800 255.221,268.800 250.000 C 268.800 244.770,270.737 243.668,280.000 243.630 L 287.000 243.601 286.748 240.500 C 286.491 237.342,285.954 234.029,285.176 230.800 C 284.937 229.810,284.645 228.413,284.527 227.696 C 284.408 226.979,284.151 226.294,283.956 226.173 C 283.760 226.052,283.600 225.434,283.600 224.800 C 283.600 224.166,283.456 223.558,283.279 223.449 C 283.103 223.340,282.707 222.328,282.400 221.200 C 282.093 220.072,281.697 219.060,281.521 218.951 C 281.344 218.842,281.200 218.505,281.200 218.203 C 281.200 217.008,278.662 212.016,278.232 212.364 C 277.652 212.835,270.625 216.869,268.516 217.943 C 262.333 221.091,256.008 215.152,259.393 209.376 C 260.231 207.947,261.275 207.166,266.093 204.371 C 269.232 202.549,271.862 201.013,271.939 200.958 C 273.119 200.094,259.469 185.504,252.941 180.653 L 249.400 178.021 248.709 178.911 C 248.329 179.400,248.014 179.948,248.009 180.128 C 248.004 180.308,247.460 181.241,246.800 182.200 C 246.140 183.159,245.600 184.059,245.600 184.200 C 245.600 184.341,245.060 185.241,244.400 186.200 C 243.740 187.159,243.200 188.103,243.200 188.297 C 243.200 188.491,242.705 189.089,242.100 189.625 C 235.963 195.064,228.313 188.354,232.338 181.062 C 232.964 179.928,234.404 177.335,235.538 175.299 C 237.996 170.888,237.947 171.302,236.100 170.541 C 235.275 170.202,233.970 169.653,233.200 169.321 C 232.430 168.990,231.440 168.566,231.000 168.380 C 230.560 168.193,228.940 167.648,227.400 167.168 C 225.860 166.688,224.240 166.152,223.800 165.978 C 223.360 165.803,222.460 165.547,221.800 165.409 C 221.140 165.270,219.790 164.977,218.800 164.757 C 215.296 163.979,212.563 163.563,209.500 163.340 L 206.400 163.115 206.400 169.978 C 206.400 175.092,206.257 177.115,205.838 177.920 C 203.368 182.667,196.570 182.631,194.190 177.859 C 193.740 176.958,193.600 175.075,193.600 169.939 L 193.600 163.200 190.867 163.200 C 189.363 163.200,188.004 163.329,187.846 163.487 M203.146 194.419 C 203.945 194.869,205.005 195.856,205.500 196.613 L 206.400 197.989 206.400 216.804 L 206.400 235.620 207.306 235.964 C 208.709 236.498,212.214 239.821,213.469 241.809 L 214.600 243.599 229.862 243.599 C 244.520 243.600,245.186 243.633,246.673 244.426 C 252.330 247.446,250.739 255.768,244.358 256.534 C 243.171 256.676,235.971 256.795,228.358 256.797 L 214.516 256.800 212.899 259.105 C 207.042 267.454,195.173 268.066,188.226 260.376 C 181.815 253.280,183.640 241.361,191.877 236.534 L 193.600 235.524 193.600 216.916 C 193.600 198.731,193.619 198.275,194.443 196.808 C 196.123 193.819,200.127 192.720,203.146 194.419 " stroke="none" fill="#f1fafb" fill-rule="evenodd"></path><path id="path1" d="M188.800 138.043 C 171.186 140.378,156.898 144.935,144.600 152.140 C 143.500 152.784,141.970 153.666,141.200 154.098 C 132.719 158.862,120.495 169.582,113.031 178.800 C 109.662 182.960,104.000 190.807,104.000 191.314 C 104.000 191.427,103.315 192.662,102.478 194.059 C 100.975 196.568,97.913 202.690,96.606 205.800 C 96.236 206.680,95.656 208.030,95.317 208.800 C 82.893 237.046,85.950 278.574,102.466 305.941 C 103.310 307.338,104.000 308.573,104.000 308.686 C 104.000 308.798,105.196 310.624,106.658 312.745 C 122.253 335.369,143.748 351.008,169.200 358.251 C 175.104 359.931,178.028 360.531,186.000 361.695 C 190.432 362.342,209.888 362.338,214.200 361.688 C 215.960 361.423,218.030 361.110,218.800 360.992 C 224.577 360.108,235.204 357.263,240.400 355.208 C 246.360 352.851,255.825 348.106,258.862 345.953 C 259.446 345.539,260.032 345.200,260.164 345.200 C 260.399 345.200,264.727 342.266,266.905 340.630 C 276.391 333.503,286.224 323.442,292.000 314.951 C 292.330 314.466,293.185 313.235,293.900 312.215 C 294.615 311.194,295.200 310.262,295.200 310.142 C 295.200 310.022,295.539 309.446,295.953 308.862 C 297.493 306.689,301.452 299.110,303.801 293.838 C 304.937 291.286,307.182 284.819,308.047 281.600 C 310.222 273.517,310.672 271.369,311.698 264.200 C 312.316 259.880,312.307 239.899,311.685 235.800 C 310.817 230.080,310.428 227.830,310.010 226.100 C 309.785 225.165,309.437 223.725,309.239 222.900 C 299.016 180.468,262.463 146.340,219.600 139.208 C 210.526 137.699,195.647 137.136,188.800 138.043 M209.200 163.160 C 212.922 163.624,216.021 164.140,218.800 164.757 C 219.790 164.977,221.140 165.270,221.800 165.409 C 222.460 165.547,223.360 165.803,223.800 165.978 C 224.240 166.152,225.860 166.688,227.400 167.168 C 230.029 167.988,230.634 168.210,232.900 169.189 C 233.395 169.403,235.428 170.273,237.418 171.123 C 250.909 176.887,266.960 191.453,275.319 205.517 C 277.227 208.728,281.200 217.288,281.200 218.188 C 281.200 218.499,281.344 218.842,281.521 218.951 C 281.697 219.060,282.093 220.072,282.400 221.200 C 282.707 222.328,283.103 223.340,283.279 223.449 C 283.456 223.558,283.600 224.166,283.600 224.800 C 283.600 225.434,283.760 226.052,283.956 226.173 C 284.151 226.294,284.408 226.979,284.527 227.696 C 284.645 228.413,284.938 229.810,285.178 230.800 C 287.705 241.244,288.007 254.053,285.994 265.400 C 285.760 266.720,285.467 268.476,285.342 269.303 C 285.217 270.129,284.955 270.905,284.758 271.026 C 284.561 271.148,284.400 271.629,284.400 272.095 C 284.400 272.996,283.735 275.339,283.151 276.495 C 282.958 276.877,282.800 277.464,282.800 277.800 C 282.800 278.136,282.634 278.723,282.432 279.105 C 282.230 279.487,281.658 280.880,281.163 282.200 C 279.033 287.870,274.223 296.885,271.598 300.127 C 271.387 300.387,270.097 302.040,268.731 303.800 C 264.070 309.804,259.804 314.070,253.800 318.731 C 252.040 320.097,250.420 321.355,250.200 321.527 C 247.624 323.536,240.467 327.789,238.200 328.657 C 235.996 329.501,229.809 332.075,229.105 332.440 C 228.723 332.638,228.136 332.800,227.800 332.800 C 227.464 332.800,226.877 332.958,226.495 333.151 C 225.339 333.735,222.996 334.400,222.095 334.400 C 221.629 334.400,221.148 334.561,221.026 334.758 C 220.905 334.955,220.129 335.217,219.303 335.342 C 218.476 335.467,216.720 335.760,215.400 335.994 C 204.053 338.007,191.244 337.705,180.800 335.178 C 179.810 334.938,178.413 334.645,177.696 334.527 C 176.979 334.408,176.294 334.151,176.173 333.956 C 176.052 333.760,175.434 333.600,174.800 333.600 C 174.166 333.600,173.558 333.456,173.449 333.279 C 173.340 333.103,172.328 332.707,171.200 332.400 C 170.072 332.093,169.060 331.697,168.951 331.521 C 168.842 331.344,168.499 331.200,168.188 331.200 C 167.288 331.200,158.728 327.227,155.517 325.319 C 153.820 324.310,149.208 321.080,146.495 319.000 C 137.194 311.869,125.562 297.789,121.930 289.266 C 121.492 288.240,120.879 286.815,120.567 286.100 C 120.020 284.847,119.085 282.666,118.380 281.000 C 118.193 280.560,117.648 278.940,117.168 277.400 C 116.688 275.860,116.152 274.240,115.978 273.800 C 115.803 273.360,115.547 272.460,115.409 271.800 C 115.270 271.140,114.977 269.790,114.757 268.800 C 112.267 257.585,112.032 247.190,113.997 235.200 C 114.231 233.770,114.527 231.924,114.654 231.097 C 114.781 230.271,115.045 229.495,115.242 229.374 C 115.439 229.252,115.600 228.722,115.600 228.195 C 115.600 227.669,115.757 226.824,115.949 226.319 C 116.141 225.813,116.514 224.680,116.777 223.800 C 117.572 221.149,118.774 218.010,120.567 213.900 C 120.879 213.185,121.492 211.760,121.930 210.734 C 127.519 197.620,147.651 177.375,160.317 172.131 C 161.132 171.793,162.610 171.157,163.600 170.716 C 167.738 168.875,170.985 167.621,173.800 166.777 C 174.680 166.514,175.813 166.141,176.319 165.949 C 176.824 165.757,177.669 165.600,178.195 165.600 C 178.722 165.600,179.252 165.439,179.374 165.242 C 179.495 165.045,180.271 164.781,181.097 164.654 C 181.924 164.527,183.770 164.231,185.200 163.997 C 186.630 163.763,189.280 163.432,191.090 163.263 C 192.899 163.093,194.513 162.821,194.676 162.657 C 195.060 162.273,204.798 162.610,209.200 163.160 " stroke="none" fill="#fbc138" fill-rule="evenodd"></path><path id="path2" d="M196.100 162.695 L 194.000 162.842 194.000 169.559 C 194.000 176.711,194.223 177.767,196.090 179.473 C 198.402 181.585,201.600 181.576,203.938 179.452 C 205.814 177.748,206.000 176.867,206.000 169.679 L 206.000 162.917 202.940 162.659 C 201.256 162.516,199.501 162.433,199.040 162.474 C 198.578 162.515,197.255 162.614,196.100 162.695 M160.000 172.400 C 157.325 174.045,153.866 176.000,153.629 176.000 C 152.210 176.000,151.408 178.200,152.339 179.538 C 152.745 180.122,153.619 181.590,154.280 182.800 C 156.811 187.433,157.305 188.231,158.272 189.258 C 161.343 192.517,166.939 190.972,168.238 186.506 C 168.819 184.508,168.416 183.179,165.930 178.898 C 164.812 176.974,163.490 174.680,162.991 173.800 C 162.074 172.183,161.097 171.725,160.000 172.400 M237.446 172.986 C 237.091 173.528,236.800 174.060,236.800 174.168 C 236.800 174.276,236.232 175.318,235.538 176.482 C 231.279 183.633,230.866 185.185,232.466 188.033 C 234.955 192.461,240.778 191.857,243.468 186.892 C 244.867 184.310,246.074 182.215,246.400 181.800 C 248.527 179.097,248.724 177.612,247.097 176.565 C 240.066 172.039,238.458 171.442,237.446 172.986 M197.143 194.863 C 193.946 196.717,194.000 196.330,194.000 217.373 L 194.000 236.037 192.735 236.719 C 180.822 243.135,183.144 261.183,196.324 264.615 C 202.759 266.291,208.411 264.064,212.859 258.100 L 214.425 256.000 230.159 256.000 C 245.785 256.000,245.900 255.994,247.046 255.114 C 250.248 252.657,250.637 248.821,247.962 246.086 C 246.044 244.124,244.920 244.000,229.025 244.000 C 213.996 244.000,213.200 243.923,213.200 242.472 C 213.200 241.723,209.564 238.055,207.794 237.018 L 206.000 235.966 206.000 217.338 C 206.000 199.104,205.982 198.677,205.153 197.202 C 203.501 194.263,199.961 193.229,197.143 194.863 M126.870 202.526 C 126.391 203.035,126.000 203.588,126.000 203.754 C 126.000 203.920,125.498 204.808,124.884 205.728 C 121.646 210.582,121.480 211.754,123.850 213.043 C 124.702 213.507,127.020 214.852,129.000 216.032 C 134.741 219.453,138.393 219.060,140.440 214.800 C 141.915 211.733,140.528 208.502,136.892 206.532 C 136.072 206.087,134.725 205.335,133.900 204.862 C 133.075 204.388,131.725 203.623,130.900 203.162 C 130.075 202.702,129.229 202.162,129.020 201.962 C 128.407 201.378,127.798 201.538,126.870 202.526 M268.439 203.600 C 266.590 204.700,265.012 205.600,264.932 205.600 C 264.001 205.600,260.276 208.803,259.612 210.175 C 257.660 214.208,260.352 218.212,265.000 218.187 C 267.521 218.174,277.625 212.972,277.912 211.540 C 278.118 210.513,273.000 201.610,272.200 201.604 C 271.980 201.602,270.287 202.500,268.439 203.600 M112.677 247.133 C 112.544 248.856,112.543 251.556,112.676 253.133 L 112.916 256.000 119.678 256.000 C 126.867 256.000,127.748 255.814,129.452 253.938 C 131.576 251.600,131.585 248.402,129.473 246.090 C 127.769 244.225,126.708 244.000,119.598 244.000 L 112.919 244.000 112.677 247.133 M272.541 244.617 C 269.516 245.943,268.209 249.388,269.645 252.252 C 271.330 255.615,271.798 255.781,279.971 255.925 L 287.086 256.049 287.360 252.678 C 287.510 250.823,287.511 248.112,287.361 246.653 L 287.090 244.000 280.445 244.033 C 275.735 244.056,273.434 244.226,272.541 244.617 M127.700 284.825 C 121.410 288.424,121.539 288.242,123.129 291.265 C 125.362 295.509,127.286 298.394,127.888 298.397 C 128.350 298.400,130.938 297.079,131.800 296.400 C 132.215 296.074,134.310 294.867,136.892 293.468 C 143.033 290.141,142.042 282.182,135.428 281.709 C 133.512 281.571,133.085 281.743,127.700 284.825 M261.910 282.482 C 257.545 285.013,258.174 290.786,263.108 293.472 C 267.900 296.082,269.511 296.999,270.462 297.661 C 272.328 298.960,272.352 298.943,274.986 294.598 C 278.317 289.103,278.507 288.202,276.548 287.199 C 275.917 286.876,274.285 285.942,272.923 285.124 C 266.655 281.360,264.668 280.884,261.910 282.482 M160.135 309.574 C 158.764 310.196,155.600 313.945,155.600 314.946 C 155.600 315.018,154.700 316.590,153.600 318.439 C 151.110 322.624,151.055 322.257,154.503 324.400 C 160.803 328.313,161.765 328.562,162.806 326.550 C 163.133 325.919,164.478 323.602,165.796 321.401 C 169.449 315.300,169.174 311.658,164.904 309.612 C 162.827 308.617,162.252 308.612,160.135 309.574 M234.966 309.633 C 231.509 311.312,230.730 314.907,232.949 318.945 C 238.447 328.950,238.044 328.565,241.265 326.871 C 247.571 323.554,249.168 322.165,248.038 320.980 C 247.838 320.771,247.298 319.925,246.838 319.100 C 246.377 318.275,245.640 316.970,245.200 316.200 C 244.760 315.430,244.022 314.125,243.561 313.300 C 241.268 309.200,238.388 307.972,234.966 309.633 M198.012 319.433 C 194.488 320.962,194.000 322.319,194.000 330.590 L 194.000 337.083 197.000 337.336 C 198.650 337.476,201.361 337.475,203.025 337.334 L 206.049 337.078 205.925 329.967 C 205.782 321.856,205.606 321.342,202.392 319.700 C 200.339 318.651,199.880 318.623,198.012 319.433 " stroke="none" fill="#44545d" fill-rule="evenodd"></path><path id="path3" d="M137.200 6.800 C 137.200 7.240,137.380 7.600,137.600 7.600 C 137.820 7.600,138.000 7.782,138.000 8.004 C 138.000 8.226,138.540 8.972,139.200 9.663 C 139.860 10.354,140.400 11.162,140.400 11.459 C 140.400 11.757,140.549 12.000,140.730 12.000 C 140.912 12.000,141.587 13.080,142.230 14.399 C 142.874 15.719,143.535 16.799,143.700 16.799 C 143.865 16.800,144.000 17.160,144.000 17.600 C 144.000 18.040,144.159 18.400,144.353 18.400 C 144.548 18.400,144.810 18.715,144.936 19.100 C 145.062 19.485,145.721 20.700,146.400 21.800 C 147.079 22.900,147.738 24.115,147.864 24.500 C 147.990 24.885,148.252 25.200,148.447 25.200 C 148.641 25.200,148.800 25.560,148.800 26.000 C 148.800 26.440,148.941 26.800,149.113 26.800 C 149.285 26.800,149.466 27.295,149.516 27.900 C 149.566 28.505,149.785 29.060,150.003 29.133 C 150.222 29.207,150.400 29.612,150.400 30.033 C 150.400 30.455,150.580 30.800,150.800 30.800 C 151.020 30.800,151.200 31.160,151.200 31.600 C 151.200 32.040,151.380 32.400,151.600 32.400 C 151.820 32.400,152.000 32.940,152.000 33.600 C 152.000 34.260,152.180 34.800,152.400 34.800 C 152.620 34.800,152.800 35.239,152.800 35.776 C 152.800 36.313,152.980 36.864,153.200 37.000 C 153.420 37.136,153.600 37.687,153.600 38.224 C 153.600 38.761,153.780 39.200,154.000 39.200 C 154.220 39.200,154.400 39.740,154.400 40.400 C 154.400 41.060,154.580 41.600,154.800 41.600 C 155.020 41.600,155.200 42.140,155.200 42.800 C 155.200 43.460,155.380 44.000,155.600 44.000 C 155.820 44.000,156.000 44.720,156.000 45.600 C 156.000 46.480,156.180 47.200,156.400 47.200 C 156.620 47.200,156.800 47.920,156.800 48.800 C 156.800 49.680,156.980 50.400,157.200 50.400 C 157.420 50.400,157.600 51.300,157.600 52.400 C 157.600 53.500,157.754 54.400,157.942 54.400 C 158.265 54.400,158.478 56.189,159.061 63.800 C 159.369 67.812,159.397 76.877,159.109 79.000 C 158.990 79.880,158.756 82.805,158.590 85.500 C 158.423 88.195,158.132 90.400,157.943 90.400 C 157.755 90.400,157.600 91.311,157.600 92.424 C 157.600 93.671,157.447 94.352,157.200 94.200 C 156.962 94.053,156.800 94.521,156.800 95.353 C 156.800 96.123,156.620 96.864,156.400 97.000 C 156.180 97.136,156.000 97.766,156.000 98.400 C 156.000 99.034,155.820 99.664,155.600 99.800 C 155.380 99.936,155.200 100.476,155.200 101.000 C 155.200 101.524,155.020 102.064,154.800 102.200 C 154.580 102.336,154.400 102.966,154.400 103.600 C 154.400 104.234,154.220 104.864,154.000 105.000 C 153.780 105.136,153.600 105.597,153.600 106.024 C 153.600 106.451,153.420 106.800,153.200 106.800 C 152.980 106.800,152.800 107.340,152.800 108.000 C 152.800 108.660,152.620 109.200,152.400 109.200 C 152.180 109.200,152.000 109.524,152.000 109.920 C 152.000 110.814,151.106 112.793,150.700 112.797 C 150.535 112.799,150.400 113.160,150.400 113.600 C 150.400 114.040,150.220 114.400,150.000 114.400 C 149.780 114.400,149.600 114.835,149.600 115.367 C 149.600 115.898,149.465 116.393,149.300 116.467 C 149.135 116.540,148.558 117.500,148.017 118.600 C 147.476 119.700,146.995 120.662,146.947 120.737 C 146.762 121.027,141.600 115.588,141.600 115.103 C 141.600 114.822,141.195 114.144,140.700 113.596 C 140.205 113.048,139.545 112.105,139.232 111.500 C 138.920 110.895,138.515 110.400,138.332 110.400 C 138.150 110.400,138.000 110.170,138.000 109.888 C 138.000 109.607,137.640 109.117,137.200 108.800 C 136.760 108.483,136.400 107.903,136.400 107.512 C 136.400 107.120,136.220 106.800,136.000 106.800 C 135.780 106.800,135.600 106.440,135.600 106.000 C 135.600 105.560,135.420 105.200,135.200 105.200 C 134.980 105.200,134.800 104.840,134.800 104.400 C 134.800 103.960,134.620 103.600,134.400 103.600 C 134.180 103.600,134.000 103.240,134.000 102.800 C 134.000 102.360,133.820 102.000,133.600 102.000 C 133.380 102.000,133.200 101.640,133.200 101.200 C 133.200 100.760,133.020 100.400,132.800 100.400 C 132.580 100.400,132.400 99.860,132.400 99.200 C 132.400 98.540,132.220 98.000,132.000 98.000 C 131.780 98.000,131.600 97.651,131.600 97.224 C 131.600 96.797,131.420 96.336,131.200 96.200 C 130.980 96.064,130.800 95.423,130.800 94.776 C 130.800 94.129,130.620 93.600,130.400 93.600 C 130.180 93.600,130.000 92.880,130.000 92.000 C 130.000 91.120,129.820 90.400,129.600 90.400 C 129.371 90.400,129.200 89.200,129.200 87.600 C 129.200 86.000,129.029 84.800,128.800 84.800 C 128.580 84.800,128.400 84.440,128.400 84.000 C 128.400 82.234,127.464 82.858,121.491 88.600 C 120.118 89.920,118.186 91.628,117.197 92.396 C 115.068 94.051,110.053 99.058,109.200 100.381 C 108.870 100.893,107.295 102.651,105.700 104.287 C 104.105 105.923,102.800 107.441,102.800 107.660 C 102.800 107.878,102.530 108.327,102.200 108.657 C 101.870 108.987,101.600 109.130,101.600 108.974 C 101.600 108.607,99.215 111.310,99.206 111.687 C 99.203 111.844,98.570 112.603,97.800 113.373 C 97.030 114.143,96.400 114.933,96.400 115.127 C 96.400 115.322,95.905 116.006,95.300 116.648 C 94.695 117.289,93.945 118.306,93.632 118.907 C 93.320 119.508,92.905 120.000,92.709 120.000 C 92.513 120.000,92.464 120.180,92.600 120.400 C 92.736 120.620,92.678 120.800,92.472 120.800 C 92.266 120.800,91.873 121.340,91.600 122.000 C 91.327 122.660,90.945 123.200,90.751 123.200 C 90.558 123.200,90.400 123.472,90.400 123.804 C 90.400 124.136,89.897 124.934,89.281 125.578 C 88.666 126.221,87.902 127.255,87.584 127.874 C 87.266 128.493,86.689 129.291,86.303 129.647 C 85.916 130.003,85.600 130.522,85.600 130.800 C 85.600 131.078,85.285 131.597,84.900 131.953 C 84.515 132.309,84.141 132.870,84.070 133.200 C 83.998 133.530,83.773 133.860,83.570 133.933 C 83.366 134.007,83.200 134.372,83.200 134.745 C 83.200 135.118,82.840 135.683,82.400 136.000 C 81.960 136.317,81.600 136.897,81.600 137.288 C 81.600 137.680,81.420 138.000,81.200 138.000 C 80.980 138.000,80.800 138.360,80.800 138.800 C 80.800 139.240,80.620 139.600,80.400 139.600 C 80.180 139.600,80.000 139.960,80.000 140.400 C 80.000 140.840,79.851 141.200,79.668 141.200 C 79.281 141.200,76.396 146.760,76.398 147.500 C 76.399 147.775,76.220 148.000,76.000 148.000 C 75.780 148.000,75.600 148.360,75.600 148.800 C 75.600 149.240,75.420 149.600,75.200 149.600 C 74.980 149.600,74.800 150.170,74.800 150.867 C 74.800 151.563,74.683 152.016,74.539 151.873 C 74.203 151.536,73.200 153.463,73.200 154.446 C 73.200 154.861,73.020 155.200,72.800 155.200 C 72.580 155.200,72.400 155.560,72.400 156.000 C 72.400 156.440,72.220 156.800,72.000 156.800 C 71.780 156.800,71.600 157.160,71.600 157.600 C 71.600 158.040,71.420 158.400,71.200 158.400 C 70.980 158.400,70.800 158.850,70.800 159.400 C 70.800 159.950,70.620 160.400,70.400 160.400 C 70.180 160.400,70.000 160.760,70.000 161.200 C 70.000 161.640,69.820 162.000,69.600 162.000 C 69.380 162.000,69.200 162.439,69.200 162.976 C 69.200 163.513,69.020 164.064,68.800 164.200 C 68.580 164.336,68.400 164.797,68.400 165.224 C 68.400 165.651,68.220 166.000,68.000 166.000 C 67.780 166.000,67.600 166.540,67.600 167.200 C 67.600 167.860,67.420 168.400,67.200 168.400 C 66.980 168.400,66.800 168.940,66.800 169.600 C 66.800 170.260,66.620 170.800,66.400 170.800 C 66.180 170.800,66.000 171.239,66.000 171.776 C 66.000 172.313,65.820 172.864,65.600 173.000 C 65.380 173.136,65.200 173.676,65.200 174.200 C 65.200 174.724,65.020 175.264,64.800 175.400 C 64.580 175.536,64.400 176.076,64.400 176.600 C 64.400 177.124,64.220 177.664,64.000 177.800 C 63.780 177.936,63.600 178.476,63.600 179.000 C 63.600 179.524,63.420 180.064,63.200 180.200 C 62.980 180.336,62.800 181.056,62.800 181.800 C 62.800 182.544,62.620 183.264,62.400 183.400 C 62.180 183.536,62.000 184.076,62.000 184.600 C 62.000 185.124,61.820 185.664,61.600 185.800 C 61.380 185.936,61.200 186.847,61.200 187.824 C 61.200 188.801,61.044 189.600,60.853 189.600 C 60.662 189.600,60.392 190.275,60.254 191.100 C 60.116 191.925,59.814 193.500,59.583 194.600 C 58.774 198.452,58.458 200.616,58.429 202.500 C 58.413 203.545,58.220 204.400,58.000 204.400 C 57.775 204.400,57.600 205.525,57.600 206.976 C 57.600 208.393,57.420 209.664,57.200 209.800 C 56.980 209.936,56.800 211.477,56.800 213.224 C 56.800 215.075,56.633 216.400,56.400 216.400 C 56.154 216.400,56.000 218.408,56.000 221.624 C 56.000 225.004,55.859 226.760,55.600 226.600 C 55.337 226.438,55.200 229.855,55.200 236.553 C 55.200 242.921,55.350 246.846,55.600 247.000 C 55.844 247.151,56.000 250.271,56.000 255.024 C 56.000 259.941,56.147 262.800,56.400 262.800 C 56.637 262.800,56.800 264.259,56.800 266.376 C 56.800 268.343,56.980 270.064,57.200 270.200 C 57.420 270.336,57.600 271.517,57.600 272.824 C 57.600 274.141,57.778 275.200,58.000 275.200 C 58.220 275.200,58.400 276.089,58.400 277.176 C 58.400 278.263,58.587 279.269,58.816 279.410 C 59.045 279.552,59.122 280.015,58.987 280.440 C 58.852 280.865,58.969 281.885,59.247 282.706 C 59.525 283.528,59.763 284.590,59.776 285.067 C 59.789 285.543,59.935 286.068,60.100 286.233 C 60.265 286.398,60.400 287.033,60.400 287.643 C 60.400 288.253,60.580 288.864,60.800 289.000 C 61.020 289.136,61.200 289.777,61.200 290.424 C 61.200 291.071,61.380 291.600,61.600 291.600 C 61.820 291.600,62.000 292.129,62.000 292.776 C 62.000 293.423,62.180 294.064,62.400 294.200 C 62.620 294.336,62.800 294.876,62.800 295.400 C 62.800 295.924,62.980 296.464,63.200 296.600 C 63.420 296.736,63.600 297.287,63.600 297.824 C 63.600 298.361,63.780 298.800,64.000 298.800 C 64.220 298.800,64.400 299.340,64.400 300.000 C 64.400 300.660,64.547 301.200,64.728 301.200 C 64.908 301.200,65.300 302.100,65.600 303.200 C 65.900 304.300,66.292 305.200,66.472 305.200 C 66.653 305.200,66.800 305.650,66.800 306.200 C 66.800 306.750,66.935 307.201,67.100 307.203 C 67.459 307.207,68.400 309.144,68.400 309.880 C 68.400 310.166,68.580 310.400,68.800 310.400 C 69.020 310.400,69.200 310.760,69.200 311.200 C 69.200 311.640,69.380 312.000,69.600 312.000 C 69.820 312.000,70.000 312.360,70.000 312.800 C 70.000 313.240,70.180 313.600,70.400 313.600 C 70.620 313.600,70.800 313.960,70.800 314.400 C 70.800 314.840,70.980 315.200,71.200 315.200 C 71.420 315.200,71.600 315.560,71.600 316.000 C 71.600 316.440,71.780 316.800,72.000 316.800 C 72.220 316.800,72.400 317.160,72.400 317.600 C 72.400 318.040,72.580 318.400,72.800 318.400 C 73.020 318.400,73.200 318.760,73.200 319.200 C 73.200 319.640,73.380 320.000,73.600 320.000 C 73.820 320.000,74.000 320.360,74.000 320.800 C 74.000 321.240,74.147 321.600,74.326 321.600 C 74.619 321.600,75.726 323.584,76.000 324.600 C 76.059 324.820,76.443 325.235,76.854 325.523 C 77.264 325.810,77.600 326.395,77.600 326.823 C 77.600 327.250,77.780 327.600,78.000 327.600 C 78.220 327.600,78.400 327.836,78.400 328.125 C 78.400 328.413,78.760 329.036,79.200 329.508 C 79.640 329.980,80.000 330.572,80.000 330.823 C 80.000 331.074,80.540 331.783,81.200 332.400 C 81.860 333.017,82.400 333.769,82.400 334.072 C 82.400 334.375,82.760 334.883,83.200 335.200 C 83.640 335.517,84.000 336.021,84.000 336.320 C 84.000 336.618,84.720 337.554,85.600 338.400 C 86.480 339.246,87.200 340.056,87.200 340.200 C 87.200 340.344,87.920 341.154,88.800 342.000 C 89.680 342.846,90.400 343.821,90.400 344.169 C 90.400 344.516,90.700 344.800,91.067 344.800 C 91.433 344.800,91.631 344.903,91.505 345.028 C 90.976 345.558,104.886 359.600,105.939 359.600 C 106.243 359.600,107.137 360.377,111.707 364.605 C 112.535 365.372,113.392 366.000,113.610 366.000 C 113.829 366.000,114.572 366.540,115.263 367.200 C 115.954 367.860,116.722 368.400,116.971 368.400 C 117.220 368.400,117.683 368.760,118.000 369.200 C 118.317 369.640,118.857 370.000,119.200 370.000 C 119.543 370.000,120.083 370.360,120.400 370.800 C 120.717 371.240,121.297 371.600,121.688 371.600 C 122.080 371.600,122.400 371.758,122.400 371.951 C 122.400 372.145,122.940 372.527,123.600 372.800 C 124.260 373.073,124.800 373.455,124.800 373.649 C 124.800 373.842,125.160 374.000,125.600 374.000 C 126.040 374.000,126.400 374.153,126.400 374.340 C 126.400 374.527,127.210 375.013,128.200 375.422 C 129.190 375.830,130.000 376.307,130.000 376.482 C 130.000 376.657,130.360 376.800,130.800 376.800 C 131.240 376.800,131.600 376.980,131.600 377.200 C 131.600 377.420,131.960 377.600,132.400 377.600 C 132.840 377.600,133.200 377.780,133.200 378.000 C 133.200 378.220,133.425 378.404,133.700 378.409 C 133.975 378.414,134.650 378.770,135.200 379.200 C 135.750 379.630,136.605 379.986,137.100 379.991 C 137.595 379.996,138.000 380.180,138.000 380.400 C 138.000 380.620,138.360 380.800,138.800 380.800 C 139.240 380.800,139.600 380.980,139.600 381.200 C 139.600 381.420,139.960 381.600,140.400 381.600 C 140.840 381.600,141.200 381.780,141.200 382.000 C 141.200 382.220,141.560 382.400,142.000 382.400 C 142.440 382.400,142.800 382.580,142.800 382.800 C 142.800 383.020,143.250 383.200,143.800 383.200 C 144.350 383.200,144.800 383.380,144.800 383.600 C 144.800 383.820,145.160 384.000,145.600 384.000 C 146.040 384.000,146.400 384.180,146.400 384.400 C 146.400 384.620,146.940 384.800,147.600 384.800 C 148.260 384.800,148.800 384.980,148.800 385.200 C 148.800 385.420,149.149 385.600,149.576 385.600 C 150.003 385.600,150.464 385.780,150.600 386.000 C 150.736 386.220,151.276 386.400,151.800 386.400 C 152.324 386.400,152.864 386.580,153.000 386.800 C 153.136 387.020,153.687 387.200,154.224 387.200 C 154.761 387.200,155.200 387.380,155.200 387.600 C 155.200 387.820,155.729 388.000,156.376 388.000 C 157.023 388.000,157.664 388.180,157.800 388.400 C 157.936 388.620,158.418 388.800,158.871 388.800 C 159.324 388.800,160.799 389.144,162.147 389.564 C 165.828 390.711,168.308 391.232,171.300 391.487 C 172.785 391.613,174.000 391.870,174.000 392.058 C 174.000 392.246,174.979 392.400,176.176 392.400 C 177.373 392.400,178.464 392.580,178.600 392.800 C 178.736 393.020,180.187 393.200,181.824 393.200 C 183.541 393.200,184.800 393.369,184.800 393.600 C 184.800 393.860,190.133 394.000,200.000 394.000 C 209.867 394.000,215.200 393.860,215.200 393.600 C 215.200 393.369,216.459 393.200,218.176 393.200 C 219.813 393.200,221.264 393.020,221.400 392.800 C 221.536 392.580,222.627 392.400,223.824 392.400 C 225.021 392.400,226.000 392.247,226.000 392.060 C 226.000 391.873,227.657 391.602,229.681 391.458 C 231.706 391.315,233.542 391.018,233.761 390.799 C 233.981 390.579,234.743 390.400,235.456 390.400 C 236.169 390.400,236.864 390.220,237.000 390.000 C 237.136 389.780,237.766 389.600,238.400 389.600 C 239.034 389.600,239.664 389.420,239.800 389.200 C 239.936 388.980,240.577 388.800,241.224 388.800 C 241.871 388.800,242.400 388.620,242.400 388.400 C 242.400 388.180,242.940 388.000,243.600 388.000 C 244.260 388.000,244.800 387.820,244.800 387.600 C 244.800 387.380,245.340 387.200,246.000 387.200 C 246.660 387.200,247.200 387.020,247.200 386.800 C 247.200 386.580,247.740 386.400,248.400 386.400 C 249.060 386.400,249.600 386.220,249.600 386.000 C 249.600 385.780,250.140 385.600,250.800 385.600 C 251.460 385.600,252.000 385.420,252.000 385.200 C 252.000 384.980,252.360 384.800,252.800 384.800 C 253.240 384.800,253.600 384.620,253.600 384.400 C 253.600 384.180,254.140 384.000,254.800 384.000 C 255.460 384.000,256.000 383.820,256.000 383.600 C 256.000 383.380,256.360 383.200,256.800 383.200 C 257.240 383.200,257.600 383.020,257.600 382.800 C 257.600 382.580,258.050 382.400,258.600 382.400 C 259.150 382.400,259.600 382.220,259.600 382.000 C 259.600 381.780,259.960 381.600,260.400 381.600 C 260.840 381.600,261.200 381.420,261.200 381.200 C 261.200 380.980,261.560 380.800,262.000 380.800 C 262.440 380.800,262.800 380.620,262.800 380.400 C 262.800 380.180,263.160 380.000,263.600 380.000 C 264.040 380.000,264.400 379.820,264.400 379.600 C 264.400 379.380,264.760 379.200,265.200 379.200 C 265.640 379.200,266.000 379.020,266.000 378.800 C 266.000 378.580,266.360 378.400,266.800 378.400 C 267.240 378.400,267.600 378.220,267.600 378.000 C 267.600 377.780,267.960 377.600,268.400 377.600 C 268.840 377.600,269.200 377.420,269.200 377.200 C 269.200 376.980,269.494 376.800,269.853 376.800 C 270.212 376.800,270.797 376.469,271.153 376.064 C 271.509 375.659,272.313 375.201,272.940 375.046 C 273.892 374.811,276.042 373.559,276.800 372.799 C 276.910 372.689,277.495 372.344,278.100 372.032 C 278.705 371.720,279.200 371.315,279.200 371.132 C 279.200 370.950,279.520 370.800,279.912 370.800 C 280.303 370.800,280.883 370.440,281.200 370.000 C 281.517 369.560,282.057 369.200,282.400 369.200 C 282.743 369.200,283.283 368.840,283.600 368.400 C 283.917 367.960,284.380 367.600,284.629 367.600 C 284.878 367.600,285.646 367.060,286.337 366.400 C 287.028 365.740,287.774 365.200,287.996 365.200 C 288.218 365.200,288.400 365.020,288.400 364.800 C 288.400 364.580,288.598 364.400,288.840 364.400 C 289.081 364.400,289.783 363.860,290.400 363.200 C 291.017 362.540,291.633 362.000,291.771 362.000 C 291.909 362.000,292.799 361.235,293.751 360.300 C 294.702 359.365,295.881 358.330,296.371 358.000 C 299.684 355.769,305.769 349.684,308.000 346.371 C 308.330 345.881,309.365 344.702,310.300 343.751 C 311.235 342.799,312.000 341.927,312.000 341.811 C 312.000 341.695,312.720 340.859,313.600 339.952 C 314.480 339.045,315.200 338.144,315.200 337.948 C 315.200 337.753,315.740 337.028,316.400 336.337 C 317.060 335.646,317.600 334.878,317.600 334.629 C 317.600 334.380,317.960 333.917,318.400 333.600 C 318.840 333.283,319.200 332.743,319.200 332.400 C 319.200 332.057,319.560 331.517,320.000 331.200 C 320.440 330.883,320.800 330.343,320.800 330.000 C 320.800 329.657,321.160 329.117,321.600 328.800 C 322.040 328.483,322.400 327.918,322.400 327.545 C 322.400 327.172,322.535 326.807,322.700 326.733 C 323.253 326.488,324.762 324.091,325.026 323.040 C 325.169 322.468,325.447 322.000,325.643 322.000 C 325.840 322.000,326.000 321.730,326.000 321.400 C 326.000 321.070,326.180 320.800,326.400 320.800 C 326.620 320.800,326.800 320.440,326.800 320.000 C 326.800 319.560,326.980 319.200,327.200 319.200 C 327.420 319.200,327.600 318.840,327.600 318.400 C 327.600 317.960,327.780 317.600,328.000 317.600 C 328.220 317.600,328.400 317.240,328.400 316.800 C 328.400 316.360,328.580 316.000,328.800 316.000 C 329.020 316.000,329.200 315.640,329.200 315.200 C 329.200 314.760,329.380 314.400,329.600 314.400 C 329.820 314.400,330.000 314.040,330.000 313.600 C 330.000 313.160,330.180 312.800,330.400 312.800 C 330.620 312.800,330.800 312.440,330.800 312.000 C 330.800 311.560,330.980 311.200,331.200 311.200 C 331.420 311.200,331.600 310.840,331.600 310.400 C 331.600 309.960,331.780 309.600,332.000 309.600 C 332.220 309.600,332.400 309.240,332.400 308.800 C 332.400 308.360,332.580 308.000,332.800 308.000 C 333.020 308.000,333.200 307.550,333.200 307.000 C 333.200 306.450,333.380 306.000,333.600 306.000 C 333.820 306.000,334.000 305.640,334.000 305.200 C 334.000 304.760,334.180 304.400,334.400 304.400 C 334.620 304.400,334.800 303.860,334.800 303.200 C 334.800 302.540,334.980 302.000,335.200 302.000 C 335.420 302.000,335.600 301.550,335.600 301.000 C 335.600 300.450,335.780 300.000,336.000 300.000 C 336.220 300.000,336.400 299.550,336.400 299.000 C 336.400 298.450,336.580 298.000,336.800 298.000 C 337.020 298.000,337.200 297.460,337.200 296.800 C 337.200 296.140,337.380 295.600,337.600 295.600 C 337.820 295.600,338.000 295.060,338.000 294.400 C 338.000 293.740,338.180 293.200,338.400 293.200 C 338.620 293.200,338.800 292.658,338.800 291.995 C 338.800 291.332,338.962 290.477,339.161 290.095 C 339.360 289.713,339.732 288.590,339.988 287.600 C 340.244 286.610,340.612 285.260,340.804 284.600 C 340.997 283.940,341.278 282.091,341.430 280.491 C 341.581 278.891,341.861 277.486,342.053 277.368 C 342.244 277.249,342.400 276.274,342.400 275.200 C 342.400 274.126,342.580 273.136,342.800 273.000 C 343.020 272.864,343.200 271.413,343.200 269.776 C 343.200 268.059,343.369 266.800,343.600 266.800 C 343.844 266.800,344.000 264.933,344.000 262.000 C 344.000 259.067,344.156 257.200,344.400 257.200 C 344.655 257.200,344.800 253.941,344.800 248.224 C 344.800 242.671,344.647 239.153,344.400 239.000 C 344.161 238.852,344.000 236.263,344.000 232.576 C 344.000 228.725,343.849 226.400,343.600 226.400 C 343.360 226.400,343.200 224.800,343.200 222.400 C 343.200 220.000,343.040 218.400,342.800 218.400 C 342.571 218.400,342.400 217.200,342.400 215.600 C 342.400 214.060,342.246 212.800,342.057 212.800 C 341.868 212.800,341.586 210.786,341.431 208.325 C 341.275 205.863,340.979 203.535,340.774 203.151 C 340.568 202.767,340.400 201.731,340.400 200.850 C 340.400 199.968,340.220 199.136,340.000 199.000 C 339.780 198.864,339.600 198.043,339.600 197.176 C 339.600 196.309,339.420 195.600,339.200 195.600 C 338.980 195.600,338.800 194.790,338.800 193.800 C 338.800 192.810,338.620 192.000,338.400 192.000 C 338.180 192.000,338.000 191.280,338.000 190.400 C 338.000 189.520,337.820 188.800,337.600 188.800 C 337.380 188.800,337.200 188.080,337.200 187.200 C 337.200 186.320,337.020 185.600,336.800 185.600 C 336.580 185.600,336.400 184.880,336.400 184.000 C 336.400 183.120,336.220 182.400,336.000 182.400 C 335.780 182.400,335.600 181.860,335.600 181.200 C 335.600 180.540,335.420 180.000,335.200 180.000 C 334.980 180.000,334.800 179.370,334.800 178.600 C 334.800 177.830,334.620 177.200,334.400 177.200 C 334.180 177.200,334.000 176.660,334.000 176.000 C 334.000 175.340,333.820 174.800,333.600 174.800 C 333.380 174.800,333.200 174.260,333.200 173.600 C 333.200 172.940,333.020 172.400,332.800 172.400 C 332.580 172.400,332.400 171.871,332.400 171.224 C 332.400 170.577,332.220 169.936,332.000 169.800 C 331.780 169.664,331.600 169.113,331.600 168.576 C 331.600 168.039,331.420 167.600,331.200 167.600 C 330.980 167.600,330.800 167.060,330.800 166.400 C 330.800 165.740,330.620 165.200,330.400 165.200 C 330.180 165.200,330.000 164.660,330.000 164.000 C 330.000 163.340,329.820 162.800,329.600 162.800 C 329.380 162.800,329.200 162.361,329.200 161.824 C 329.200 161.287,329.020 160.736,328.800 160.600 C 328.580 160.464,328.400 159.993,328.400 159.553 C 328.400 159.113,328.220 158.864,328.000 159.000 C 327.767 159.144,327.600 158.737,327.600 158.024 C 327.600 157.351,327.420 156.800,327.200 156.800 C 326.980 156.800,326.800 156.440,326.800 156.000 C 326.800 155.560,326.620 155.200,326.400 155.200 C 326.180 155.200,326.000 154.660,326.000 154.000 C 326.000 153.340,325.840 152.800,325.645 152.800 C 325.449 152.800,325.167 152.148,325.017 151.351 C 324.868 150.554,324.600 149.609,324.423 149.251 C 322.807 145.992,322.400 145.048,322.400 144.562 C 322.400 144.253,322.264 144.000,322.098 144.000 C 321.931 144.000,321.546 143.415,321.240 142.700 C 319.960 139.700,318.289 136.378,317.957 136.173 C 317.761 136.052,317.600 135.637,317.600 135.252 C 317.600 134.866,317.240 134.164,316.800 133.692 C 316.360 133.220,316.000 132.556,316.000 132.217 C 316.000 131.878,315.820 131.600,315.600 131.600 C 315.380 131.600,315.200 131.240,315.200 130.800 C 315.200 130.360,315.020 130.000,314.800 130.000 C 314.580 130.000,314.400 129.640,314.400 129.200 C 314.400 128.760,314.220 128.400,314.000 128.400 C 313.780 128.400,313.600 128.029,313.600 127.576 C 313.600 127.123,313.420 126.864,313.200 127.000 C 312.980 127.136,312.800 126.916,312.800 126.512 C 312.800 126.107,312.440 125.517,312.000 125.200 C 311.560 124.883,311.200 124.303,311.200 123.912 C 311.200 123.520,311.020 123.200,310.800 123.200 C 310.580 123.200,310.400 122.880,310.400 122.488 C 310.400 122.097,310.040 121.517,309.600 121.200 C 309.160 120.883,308.800 120.399,308.800 120.125 C 308.800 119.381,307.501 116.800,307.126 116.800 C 306.947 116.800,306.800 116.564,306.800 116.275 C 306.800 115.987,306.440 115.364,306.000 114.892 C 305.560 114.420,305.200 113.756,305.200 113.417 C 305.200 113.078,305.050 112.800,304.868 112.800 C 304.685 112.800,304.280 112.308,303.968 111.706 C 303.330 110.476,302.619 109.533,301.300 108.168 C 300.805 107.656,300.400 106.998,300.400 106.706 C 300.400 106.415,300.040 105.917,299.600 105.600 C 299.160 105.283,298.800 104.743,298.800 104.400 C 298.800 104.057,298.440 103.517,298.000 103.200 C 297.560 102.883,297.200 102.420,297.200 102.171 C 297.200 101.922,296.660 101.154,296.000 100.463 C 295.340 99.772,294.800 99.063,294.800 98.888 C 294.800 98.712,294.080 97.772,293.200 96.800 C 292.320 95.828,291.600 94.835,291.600 94.594 C 291.600 94.354,290.970 93.546,290.200 92.800 C 289.430 92.054,288.800 91.299,288.800 91.124 C 288.800 90.948,287.900 89.885,286.800 88.761 C 285.700 87.638,284.800 86.554,284.800 86.353 C 284.800 86.152,283.495 84.667,281.900 83.053 C 280.305 81.439,278.423 79.417,277.719 78.559 C 275.466 75.818,268.891 69.200,268.420 69.200 C 268.170 69.200,266.578 67.801,264.883 66.092 C 263.187 64.383,261.172 62.540,260.404 61.996 C 259.636 61.453,258.526 60.460,257.937 59.790 C 257.349 59.120,256.357 58.308,255.734 57.986 C 255.110 57.664,253.939 56.725,253.131 55.900 C 252.324 55.075,251.506 54.400,251.315 54.400 C 251.124 54.400,250.172 53.680,249.200 52.800 C 248.228 51.920,247.266 51.200,247.063 51.200 C 246.860 51.200,246.369 50.826,245.973 50.369 C 245.007 49.255,243.446 49.472,243.266 50.746 C 243.193 51.267,243.328 51.888,243.566 52.126 C 243.805 52.365,244.000 53.053,244.000 53.656 C 244.000 54.259,244.180 54.864,244.400 55.000 C 244.620 55.136,244.800 55.676,244.800 56.200 C 244.800 56.724,244.980 57.264,245.200 57.400 C 245.420 57.536,245.600 58.267,245.600 59.024 C 245.600 59.781,245.780 60.400,246.000 60.400 C 246.220 60.400,246.400 61.199,246.400 62.176 C 246.400 63.153,246.580 64.064,246.800 64.200 C 247.020 64.336,247.200 65.337,247.200 66.424 C 247.200 67.511,247.380 68.400,247.600 68.400 C 247.831 68.400,248.000 69.659,248.000 71.376 C 248.000 73.013,248.180 74.464,248.400 74.600 C 248.634 74.745,248.800 77.063,248.800 80.200 C 248.800 83.337,248.634 85.655,248.400 85.800 C 248.180 85.936,248.000 87.207,248.000 88.624 C 248.000 90.075,247.825 91.200,247.600 91.200 C 247.380 91.200,247.200 91.729,247.200 92.376 C 247.200 93.023,247.020 93.664,246.800 93.800 C 246.580 93.936,246.400 94.476,246.400 95.000 C 246.400 95.524,246.220 96.064,246.000 96.200 C 245.780 96.336,245.600 96.797,245.600 97.224 C 245.600 97.651,245.420 98.000,245.200 98.000 C 244.980 98.000,244.800 98.360,244.800 98.800 C 244.800 99.240,244.620 99.600,244.400 99.600 C 244.180 99.600,244.000 99.932,244.000 100.338 C 244.000 100.744,243.640 101.402,243.200 101.800 C 242.760 102.198,242.400 102.756,242.400 103.039 C 242.400 103.766,237.771 108.400,237.046 108.400 C 236.717 108.400,236.346 108.564,236.221 108.765 C 236.097 108.966,235.069 109.592,233.937 110.156 C 231.651 111.296,232.077 111.436,229.900 108.829 C 229.515 108.368,229.200 107.763,229.200 107.484 C 229.200 107.205,228.840 106.717,228.400 106.400 C 227.960 106.083,227.600 105.503,227.600 105.112 C 227.600 104.720,227.420 104.400,227.200 104.400 C 226.980 104.400,226.800 104.040,226.800 103.600 C 226.800 103.160,226.620 102.800,226.400 102.800 C 226.180 102.800,226.000 102.440,226.000 102.000 C 226.000 101.560,225.836 101.200,225.635 101.200 C 225.434 101.200,225.149 100.480,225.000 99.600 C 224.851 98.720,224.566 98.000,224.365 98.000 C 224.164 98.000,224.000 97.561,224.000 97.024 C 224.000 96.487,223.820 95.936,223.600 95.800 C 223.380 95.664,223.200 95.203,223.200 94.776 C 223.200 94.349,223.020 94.000,222.800 94.000 C 222.580 94.000,222.400 93.550,222.400 93.000 C 222.400 92.450,222.220 92.000,222.000 92.000 C 221.780 92.000,221.600 91.460,221.600 90.800 C 221.600 90.140,221.420 89.600,221.200 89.600 C 220.980 89.600,220.800 89.060,220.800 88.400 C 220.800 87.740,220.620 87.200,220.400 87.200 C 220.180 87.200,220.000 86.660,220.000 86.000 C 220.000 85.340,219.820 84.800,219.600 84.800 C 219.380 84.800,219.200 84.181,219.200 83.424 C 219.200 82.667,219.020 81.936,218.800 81.800 C 218.580 81.664,218.400 81.023,218.400 80.376 C 218.400 79.729,218.220 79.200,218.000 79.200 C 217.780 79.200,217.600 78.671,217.600 78.024 C 217.600 77.377,217.420 76.736,217.200 76.600 C 216.980 76.464,216.800 75.823,216.800 75.176 C 216.800 74.529,216.620 74.000,216.400 74.000 C 216.180 74.000,216.000 73.381,216.000 72.624 C 216.000 71.867,215.820 71.136,215.600 71.000 C 215.380 70.864,215.200 70.223,215.200 69.576 C 215.200 68.929,215.020 68.400,214.800 68.400 C 214.580 68.400,214.400 67.781,214.400 67.024 C 214.400 66.267,214.220 65.536,214.000 65.400 C 213.780 65.264,213.600 64.623,213.600 63.976 C 213.600 63.329,213.420 62.800,213.200 62.800 C 212.980 62.800,212.800 62.260,212.800 61.600 C 212.800 60.940,212.620 60.400,212.400 60.400 C 212.180 60.400,212.000 59.950,212.000 59.400 C 212.000 58.850,211.820 58.400,211.600 58.400 C 211.380 58.400,211.200 57.860,211.200 57.200 C 211.200 56.540,211.020 56.000,210.800 56.000 C 210.580 56.000,210.400 55.471,210.400 54.824 C 210.400 54.177,210.220 53.536,210.000 53.400 C 209.780 53.264,209.600 52.713,209.600 52.176 C 209.600 51.639,209.420 51.200,209.200 51.200 C 208.980 51.200,208.799 50.705,208.798 50.100 C 208.796 49.495,208.526 48.484,208.198 47.854 C 207.869 47.224,207.600 46.547,207.600 46.350 C 207.600 45.775,205.869 42.213,205.519 42.067 C 205.343 41.993,205.200 41.588,205.200 41.167 C 205.200 40.745,205.020 40.400,204.800 40.400 C 204.580 40.400,204.400 40.040,204.400 39.600 C 204.400 39.160,204.220 38.800,204.000 38.800 C 203.780 38.800,203.600 38.440,203.600 38.000 C 203.600 37.560,203.442 37.200,203.249 37.200 C 203.055 37.200,202.673 36.660,202.400 36.000 C 202.127 35.340,201.745 34.800,201.551 34.800 C 201.358 34.800,201.200 34.480,201.200 34.088 C 201.200 33.697,200.840 33.117,200.400 32.800 C 199.960 32.483,199.600 31.975,199.600 31.672 C 199.600 31.369,199.060 30.617,198.400 30.000 C 197.740 29.383,197.200 28.691,197.200 28.462 C 197.200 28.233,196.465 27.360,195.566 26.523 C 193.162 24.281,191.526 22.609,190.400 21.240 C 189.850 20.571,189.157 20.019,188.860 20.012 C 188.564 20.005,187.817 19.460,187.200 18.800 C 186.583 18.140,185.831 17.600,185.528 17.600 C 185.225 17.600,184.717 17.240,184.400 16.800 C 184.083 16.360,183.503 16.000,183.112 16.000 C 182.720 16.000,182.400 15.842,182.400 15.649 C 182.400 15.455,181.860 15.073,181.200 14.800 C 180.540 14.527,180.000 14.134,180.000 13.928 C 180.000 13.722,179.835 13.655,179.632 13.780 C 179.430 13.905,178.993 13.736,178.661 13.404 C 178.329 13.072,177.862 12.800,177.623 12.800 C 177.384 12.800,176.877 12.641,176.495 12.447 C 175.715 12.050,173.212 11.017,170.700 10.055 C 168.438 9.189,166.771 8.785,164.477 8.545 C 163.115 8.403,162.000 8.132,162.000 7.943 C 162.000 7.754,161.100 7.600,160.000 7.600 C 158.900 7.600,158.000 7.420,158.000 7.200 C 158.000 6.975,156.875 6.800,155.424 6.800 C 154.007 6.800,152.736 6.620,152.600 6.400 C 152.052 5.514,137.200 5.899,137.200 6.800 M86.400 13.200 C 86.400 13.420,86.040 13.600,85.600 13.600 C 85.160 13.600,84.800 13.780,84.800 14.000 C 84.800 14.220,84.517 14.400,84.171 14.400 C 83.826 14.400,83.271 14.672,82.939 15.004 C 82.607 15.336,82.142 15.488,81.906 15.342 C 81.651 15.185,81.593 15.264,81.762 15.538 C 81.923 15.799,81.815 16.000,81.512 16.000 C 81.217 16.000,80.717 16.360,80.400 16.800 C 80.083 17.240,79.593 17.600,79.312 17.600 C 79.030 17.600,78.800 17.780,78.800 18.000 C 78.800 18.220,78.599 18.400,78.353 18.400 C 77.815 18.400,75.834 20.605,75.118 22.000 C 74.836 22.550,74.333 23.270,74.000 23.600 C 73.667 23.930,73.140 24.695,72.830 25.300 C 72.519 25.905,72.115 26.400,71.932 26.400 C 71.750 26.400,71.600 26.760,71.600 27.200 C 71.600 27.640,71.420 28.000,71.200 28.000 C 70.980 28.000,70.800 28.450,70.800 29.000 C 70.800 29.550,70.620 30.000,70.400 30.000 C 70.180 30.000,70.000 30.349,70.000 30.776 C 70.000 31.203,69.839 31.652,69.642 31.774 C 68.733 32.336,67.900 51.200,68.784 51.200 C 69.013 51.200,69.200 51.920,69.200 52.800 C 69.200 53.680,69.380 54.400,69.600 54.400 C 69.820 54.400,70.000 55.030,70.000 55.800 C 70.000 56.570,70.180 57.200,70.400 57.200 C 70.620 57.200,70.800 57.560,70.800 58.000 C 70.800 58.440,70.980 58.800,71.200 58.800 C 71.420 58.800,71.600 59.160,71.600 59.600 C 71.600 60.040,71.780 60.400,72.000 60.400 C 72.220 60.400,72.400 60.760,72.400 61.200 C 72.400 61.640,72.580 62.000,72.800 62.000 C 73.020 62.000,73.200 62.320,73.200 62.712 C 73.200 63.103,73.560 63.683,74.000 64.000 C 74.440 64.317,74.800 64.857,74.800 65.201 C 74.800 66.575,80.170 71.477,83.634 73.265 L 86.995 75.000 94.364 75.000 C 99.904 75.000,101.775 74.876,101.900 74.500 C 101.992 74.225,102.286 74.000,102.554 74.000 C 103.263 74.000,105.193 73.051,105.197 72.700 C 105.199 72.535,105.391 72.400,105.623 72.400 C 106.656 72.400,111.200 68.321,111.200 67.395 C 111.200 67.042,111.380 66.864,111.600 67.000 C 111.820 67.136,112.000 67.039,112.000 66.784 C 112.000 66.529,112.540 65.817,113.200 65.200 C 113.860 64.583,114.400 63.791,114.400 63.440 C 114.400 63.088,114.580 62.800,114.800 62.800 C 115.020 62.800,115.200 62.455,115.200 62.033 C 115.200 61.612,115.335 61.207,115.500 61.133 C 115.999 60.912,117.600 57.578,117.600 56.762 C 117.600 56.343,117.780 56.000,118.000 56.000 C 118.220 56.000,118.400 55.381,118.400 54.624 C 118.400 53.867,118.580 53.136,118.800 53.000 C 119.642 52.479,119.284 48.000,118.400 48.000 C 117.960 48.000,117.600 48.180,117.600 48.400 C 117.600 48.644,115.733 48.800,112.800 48.800 C 109.867 48.800,108.000 48.644,108.000 48.400 C 108.000 48.180,107.638 48.000,107.195 48.000 C 106.752 48.000,106.032 47.820,105.595 47.600 C 105.158 47.380,104.440 47.020,104.000 46.800 C 101.554 45.577,100.145 44.447,96.345 40.665 C 95.055 39.381,94.000 38.076,94.000 37.765 C 94.000 37.454,93.820 37.200,93.600 37.200 C 93.380 37.200,93.200 36.840,93.200 36.400 C 93.200 35.960,93.020 35.600,92.800 35.600 C 92.580 35.600,92.400 35.240,92.400 34.800 C 92.400 34.360,92.220 34.000,92.000 34.000 C 91.780 34.000,91.599 33.685,91.598 33.300 C 91.596 32.915,91.326 32.084,90.998 31.454 C 90.669 30.824,90.400 29.890,90.400 29.378 C 90.400 28.866,90.220 28.336,90.000 28.200 C 89.780 28.064,89.600 27.243,89.600 26.376 C 89.600 25.509,89.420 24.800,89.200 24.800 C 88.951 24.800,88.800 22.533,88.800 18.800 L 88.800 12.800 87.600 12.800 C 86.940 12.800,86.400 12.980,86.400 13.200 M212.000 138.196 C 259.550 143.712,298.291 177.459,309.239 222.900 C 309.437 223.725,309.785 225.165,310.010 226.100 C 310.428 227.830,310.817 230.080,311.685 235.800 C 312.307 239.899,312.316 259.880,311.698 264.200 C 310.398 273.288,308.575 280.867,305.869 288.438 C 303.518 295.012,298.623 305.095,295.953 308.862 C 295.539 309.446,295.200 310.022,295.200 310.142 C 295.200 310.262,294.615 311.194,293.900 312.215 C 293.185 313.235,292.330 314.466,292.000 314.951 C 286.224 323.442,276.391 333.503,266.905 340.630 C 264.727 342.266,260.399 345.200,260.164 345.200 C 260.032 345.200,259.446 345.539,258.862 345.953 C 255.825 348.106,246.360 352.851,240.400 355.208 C 235.204 357.263,224.577 360.108,218.800 360.992 C 218.030 361.110,215.960 361.423,214.200 361.688 C 209.888 362.338,190.432 362.342,186.000 361.695 C 178.028 360.531,175.104 359.931,169.200 358.251 C 143.748 351.008,122.253 335.369,106.658 312.745 C 105.196 310.624,104.000 308.798,104.000 308.686 C 104.000 308.573,103.310 307.338,102.466 305.941 C 85.950 278.574,82.893 237.046,95.317 208.800 C 95.656 208.030,96.236 206.680,96.606 205.800 C 97.913 202.690,100.975 196.568,102.478 194.059 C 103.315 192.662,104.000 191.427,104.000 191.314 C 104.000 190.807,109.662 182.960,113.031 178.800 C 120.495 169.582,132.719 158.862,141.200 154.098 C 141.970 153.666,143.500 152.784,144.600 152.140 C 156.898 144.935,171.186 140.378,188.800 138.043 C 193.079 137.476,206.562 137.565,212.000 138.196 " stroke="none" fill="#fc5d59" fill-rule="evenodd"></path><path id="path4" d="M195.500 162.682 C 195.995 162.778,196.805 162.778,197.300 162.682 C 197.795 162.587,197.390 162.509,196.400 162.509 C 195.410 162.509,195.005 162.587,195.500 162.682 M202.905 162.687 C 203.514 162.779,204.414 162.777,204.905 162.682 C 205.397 162.587,204.900 162.511,203.800 162.514 C 202.700 162.517,202.297 162.595,202.905 162.687 M193.690 169.639 C 193.619 175.178,193.726 176.929,194.190 177.859 C 196.570 182.631,203.368 182.667,205.838 177.920 C 206.269 177.091,206.381 175.184,206.318 169.720 L 206.235 162.600 206.018 169.800 C 205.794 177.209,205.645 177.898,203.937 179.452 C 201.595 181.582,198.401 181.585,196.074 179.458 C 194.284 177.822,194.020 176.601,193.896 169.400 L 193.779 162.600 193.690 169.639 M161.679 171.495 C 161.268 171.641,161.283 171.778,161.747 172.140 C 162.072 172.393,162.688 173.230,163.117 174.000 C 163.546 174.770,164.818 176.985,165.943 178.921 C 167.068 180.858,168.155 183.018,168.358 183.721 L 168.728 185.000 168.764 183.884 C 168.787 183.173,167.619 180.705,165.547 177.084 C 161.744 170.441,162.317 171.268,161.679 171.495 M236.047 174.351 C 235.138 176.028,233.682 178.660,232.811 180.200 C 229.514 186.029,231.887 191.600,237.667 191.600 C 239.651 191.600,243.200 189.481,243.200 188.297 C 243.200 188.103,243.740 187.159,244.400 186.200 C 245.060 185.241,245.600 184.336,245.600 184.190 C 245.600 184.043,245.939 183.446,246.354 182.862 C 248.174 180.298,249.274 177.914,248.837 177.477 C 248.521 177.161,248.400 177.225,248.400 177.708 C 248.400 178.313,247.181 180.807,246.400 181.800 C 246.074 182.215,244.867 184.310,243.468 186.892 C 240.778 191.857,234.955 192.461,232.466 188.033 C 230.873 185.197,231.228 183.831,235.443 176.600 C 236.084 175.500,236.873 174.084,237.197 173.453 C 237.521 172.822,238.136 172.176,238.563 172.018 C 239.320 171.738,239.319 171.724,238.521 171.516 C 237.833 171.336,237.432 171.796,236.047 174.351 M154.600 175.200 C 153.940 175.637,153.580 175.992,153.800 175.988 C 154.201 175.982,156.376 174.423,156.000 174.412 C 155.890 174.408,155.260 174.763,154.600 175.200 M151.639 177.157 L 150.677 177.896 152.539 180.962 C 153.562 182.649,154.400 184.090,154.400 184.166 C 154.400 184.473,157.219 188.958,157.850 189.656 C 161.208 193.366,168.893 190.916,168.769 186.175 C 168.740 185.044,168.721 185.056,168.269 186.506 C 166.871 190.992,161.341 192.515,158.272 189.258 C 157.305 188.231,156.811 187.433,154.280 182.800 C 153.619 181.590,152.745 180.122,152.339 179.538 C 151.434 178.238,151.428 178.053,152.262 177.131 C 153.103 176.202,152.868 176.212,151.639 177.157 M196.743 194.463 C 193.547 196.317,193.600 195.937,193.600 216.916 L 193.600 235.524 191.877 236.534 C 183.640 241.361,181.815 253.280,188.226 260.376 C 195.173 268.066,207.042 267.454,212.899 259.105 L 214.516 256.800 228.358 256.797 C 245.760 256.792,246.005 256.765,248.258 254.606 C 249.568 253.351,249.992 252.647,249.970 251.769 L 249.939 250.600 249.470 251.800 C 247.775 256.129,248.371 256.000,230.159 256.000 L 214.425 256.000 212.859 258.100 C 208.411 264.064,202.759 266.291,196.324 264.615 C 183.144 261.183,180.822 243.135,192.735 236.719 L 194.000 236.037 194.000 217.373 C 194.000 196.285,193.944 196.678,197.202 194.847 C 200.054 193.244,203.502 194.265,205.153 197.202 C 205.982 198.677,206.000 199.104,206.000 217.338 L 206.000 235.966 207.794 237.018 C 209.564 238.055,213.200 241.723,213.200 242.472 C 213.200 243.923,213.996 244.000,229.025 244.000 C 246.850 244.000,247.921 244.236,249.467 248.499 C 249.888 249.659,249.942 249.694,249.970 248.825 C 250.013 247.435,248.481 245.392,246.673 244.426 C 245.186 243.633,244.520 243.600,229.862 243.599 L 214.600 243.599 213.469 241.809 C 212.214 239.821,208.709 236.498,207.306 235.964 L 206.400 235.620 206.400 216.804 L 206.400 197.989 205.500 196.613 C 203.612 193.726,199.679 192.761,196.743 194.463 M126.984 201.900 L 126.276 203.000 127.160 202.218 C 127.919 201.546,128.163 201.509,128.877 201.955 C 129.335 202.241,130.315 202.818,131.055 203.238 C 131.795 203.657,133.075 204.388,133.900 204.862 C 134.725 205.335,136.072 206.087,136.892 206.532 C 140.528 208.502,141.915 211.733,140.440 214.800 C 138.393 219.060,134.741 219.453,129.000 216.032 C 127.020 214.852,124.703 213.507,123.850 213.043 C 122.998 212.579,122.172 211.853,122.016 211.429 C 121.736 210.676,121.726 210.676,121.523 211.449 C 121.152 212.869,132.081 218.800,135.068 218.800 C 142.598 218.800,144.014 209.906,137.100 206.039 C 134.914 204.817,133.310 203.892,130.533 202.255 C 127.585 200.517,127.857 200.544,126.984 201.900 M266.261 204.252 C 261.290 207.147,260.240 207.930,259.396 209.370 C 255.937 215.273,262.344 221.094,268.713 217.834 C 274.631 214.806,278.202 212.461,278.296 211.542 C 278.384 210.679,278.363 210.667,278.041 211.400 C 277.267 213.165,267.650 218.168,265.000 218.185 C 260.353 218.214,257.659 214.209,259.612 210.175 C 260.312 208.728,264.019 205.600,265.032 205.600 C 265.167 205.600,265.754 205.261,266.338 204.847 C 266.922 204.433,268.613 203.452,270.095 202.668 C 271.577 201.883,272.641 201.149,272.460 201.037 C 272.279 200.925,269.489 202.372,266.261 204.252 M273.960 203.800 C 274.634 205.105,275.188 205.828,275.185 205.400 C 275.183 205.180,274.814 204.550,274.364 204.000 C 273.821 203.336,273.685 203.269,273.960 203.800 M125.053 204.900 L 124.333 206.200 125.158 205.200 C 125.889 204.313,126.214 203.600,125.886 203.600 C 125.824 203.600,125.449 204.185,125.053 204.900 M119.400 243.896 C 126.601 244.020,127.822 244.284,129.458 246.074 C 131.585 248.401,131.582 251.595,129.452 253.937 C 127.898 255.645,127.209 255.794,119.800 256.018 L 112.600 256.235 119.720 256.318 C 125.184 256.381,127.091 256.269,127.920 255.838 C 132.667 253.368,132.631 246.570,127.859 244.190 C 126.929 243.726,125.178 243.619,119.639 243.690 L 112.600 243.779 119.400 243.896 M271.800 244.359 C 270.355 245.203,268.794 247.399,268.816 248.559 C 268.827 249.186,268.985 249.046,269.433 248.012 C 270.912 244.603,271.855 244.257,280.400 243.986 L 287.400 243.764 280.200 243.711 C 274.001 243.666,272.833 243.756,271.800 244.359 M287.301 245.800 C 287.305 246.680,287.387 246.993,287.483 246.495 C 287.579 245.998,287.575 245.278,287.475 244.895 C 287.375 244.513,287.296 244.920,287.301 245.800 M112.514 246.600 C 112.517 247.700,112.595 248.103,112.687 247.495 C 112.779 246.886,112.777 245.986,112.682 245.495 C 112.587 245.003,112.511 245.500,112.514 246.600 M268.800 251.456 C 268.800 255.146,271.640 256.351,280.200 256.292 L 287.400 256.243 280.128 256.021 C 271.849 255.769,271.334 255.590,269.700 252.392 C 269.093 251.204,268.800 250.899,268.800 251.456 M112.514 253.800 C 112.517 254.900,112.595 255.303,112.687 254.695 C 112.779 254.086,112.777 253.186,112.682 252.695 C 112.587 252.203,112.511 252.700,112.514 253.800 M287.314 253.800 C 287.317 254.900,287.395 255.303,287.487 254.695 C 287.579 254.086,287.577 253.186,287.482 252.695 C 287.387 252.203,287.311 252.700,287.314 253.800 M131.000 282.353 C 120.996 287.997,121.313 287.786,121.635 288.610 C 121.876 289.226,121.950 289.255,121.972 288.741 C 122.031 287.352,133.346 281.474,135.554 281.686 C 142.072 282.312,142.965 290.178,136.892 293.468 C 134.310 294.867,132.215 296.074,131.800 296.400 C 130.807 297.181,128.313 298.400,127.708 298.400 C 127.225 298.400,127.161 298.521,127.477 298.837 C 127.914 299.274,130.298 298.174,132.862 296.354 C 133.446 295.939,134.043 295.600,134.190 295.600 C 134.336 295.600,135.241 295.060,136.200 294.400 C 137.159 293.740,138.103 293.200,138.297 293.200 C 138.491 293.200,139.089 292.705,139.625 292.100 C 145.075 285.951,138.265 278.255,131.000 282.353 M261.116 282.408 C 257.051 285.760,257.634 290.834,262.400 293.575 C 270.299 298.119,272.209 299.117,272.572 298.888 C 272.820 298.732,272.664 298.553,272.200 298.463 C 271.760 298.377,270.950 297.995,270.400 297.614 C 269.504 296.994,267.844 296.051,263.108 293.472 C 258.142 290.768,257.539 284.955,261.967 282.466 C 264.759 280.897,266.647 281.355,272.923 285.124 C 274.285 285.942,275.916 286.876,276.547 287.199 C 277.178 287.522,277.842 288.149,278.022 288.593 C 278.349 289.399,278.349 289.399,278.375 288.596 C 278.401 287.753,278.087 287.504,274.200 285.286 C 267.331 281.367,266.943 281.200,264.731 281.200 C 262.930 281.200,262.345 281.396,261.116 282.408 M159.339 309.403 C 157.248 310.656,150.230 322.000,151.182 322.589 C 151.412 322.731,151.600 322.612,151.600 322.324 C 151.600 322.036,152.500 320.287,153.600 318.439 C 154.700 316.590,155.610 314.970,155.622 314.839 C 155.894 311.833,161.192 308.273,164.009 309.203 C 169.107 310.885,169.656 314.779,165.736 321.437 C 164.451 323.618,163.133 325.918,162.807 326.549 C 162.481 327.179,161.851 327.851,161.407 328.043 C 160.658 328.367,160.667 328.385,161.529 328.296 C 162.081 328.239,162.729 327.717,163.129 327.008 C 163.498 326.353,164.542 324.553,165.448 323.008 C 168.363 318.042,168.800 316.960,168.800 314.707 C 168.800 309.830,163.543 306.883,159.339 309.403 M234.718 309.055 C 231.149 310.939,230.169 315.019,232.345 318.938 C 237.872 328.892,238.210 329.274,240.176 327.787 C 240.604 327.464,240.749 327.200,240.500 327.200 C 240.251 327.200,239.936 327.380,239.800 327.600 C 238.858 329.124,237.827 327.821,232.949 318.945 C 230.700 314.852,231.508 311.283,235.062 309.613 C 238.491 308.001,241.272 309.207,243.561 313.300 C 244.022 314.125,244.760 315.430,245.200 316.200 C 245.640 316.970,246.377 318.275,246.838 319.100 C 247.298 319.925,247.838 320.771,248.038 320.980 C 248.237 321.189,248.400 321.720,248.400 322.160 C 248.400 322.716,248.528 322.832,248.817 322.543 C 249.107 322.253,248.680 321.186,247.417 319.051 C 246.418 317.360,245.600 315.880,245.600 315.761 C 245.600 315.642,245.060 314.759,244.400 313.800 C 243.740 312.841,243.200 311.895,243.200 311.698 C 243.200 309.528,237.304 307.692,234.718 309.055 M196.389 319.700 C 193.842 321.424,193.652 322.169,193.711 330.200 L 193.764 337.400 193.986 330.400 C 194.257 321.855,194.603 320.912,198.012 319.433 C 199.046 318.985,199.186 318.827,198.559 318.816 C 198.097 318.807,197.120 319.205,196.389 319.700 M202.392 319.700 C 205.590 321.334,205.769 321.849,206.021 330.128 L 206.243 337.400 206.292 330.200 C 206.351 321.640,205.146 318.800,201.456 318.800 C 200.899 318.800,201.204 319.093,202.392 319.700 M154.000 324.364 C 154.550 324.814,155.180 325.183,155.400 325.185 C 155.828 325.188,155.105 324.634,153.800 323.960 C 153.269 323.685,153.336 323.821,154.000 324.364 M195.305 337.487 C 195.914 337.579,196.814 337.577,197.305 337.482 C 197.797 337.387,197.300 337.311,196.200 337.314 C 195.100 337.317,194.697 337.395,195.305 337.487 M202.905 337.487 C 203.514 337.579,204.414 337.577,204.905 337.482 C 205.397 337.387,204.900 337.311,203.800 337.314 C 202.700 337.317,202.297 337.395,202.905 337.487 " stroke="none" fill="#9ca4af" fill-rule="evenodd"></path></g></svg>