<svg id="svg" version="1.1" xmlns="http://www.w3.org/2000/svg" xmlns:xlink="http://www.w3.org/1999/xlink" width="400" height="400" viewBox="0, 0, 400,400"><g id="svgg"><path id="path0" d="M24.400 30.399 C 24.070 30.613,22.945 30.791,21.900 30.794 C 20.855 30.797,20.000 30.980,20.000 31.200 C 20.000 31.420,19.460 31.600,18.800 31.600 C 18.140 31.600,17.600 31.780,17.600 32.000 C 17.600 32.220,17.060 32.400,16.400 32.400 C 15.740 32.400,15.200 32.580,15.200 32.800 C 15.200 33.020,14.840 33.200,14.400 33.200 C 13.960 33.200,13.600 33.380,13.600 33.600 C 13.600 33.820,13.330 34.000,13.000 34.000 C 12.670 34.000,12.400 34.180,12.400 34.400 C 12.400 34.620,12.130 34.800,11.800 34.800 C 11.470 34.800,11.200 34.980,11.200 35.200 C 11.200 35.420,11.017 35.600,10.793 35.600 C 9.092 35.600,1.200 45.785,1.200 47.979 C 1.200 48.394,0.975 48.808,0.700 48.900 C -0.036 49.145,-0.036 350.855,0.700 351.100 C 0.975 351.192,1.200 351.606,1.200 352.021 C 1.200 353.112,4.039 357.974,4.886 358.333 C 5.058 358.407,5.200 358.635,5.200 358.841 C 5.200 359.349,10.281 364.400,10.793 364.400 C 11.017 364.400,11.200 364.580,11.200 364.800 C 11.200 365.020,11.470 365.200,11.800 365.200 C 12.130 365.200,12.400 365.380,12.400 365.600 C 12.400 365.820,12.670 366.000,13.000 366.000 C 13.330 366.000,13.600 366.180,13.600 366.400 C 13.600 366.620,13.960 366.800,14.400 366.800 C 14.840 366.800,15.200 366.980,15.200 367.200 C 15.200 367.420,15.740 367.600,16.400 367.600 C 17.060 367.600,17.600 367.780,17.600 368.000 C 17.600 368.220,18.140 368.400,18.800 368.400 C 19.460 368.400,20.000 368.580,20.000 368.800 C 20.000 369.020,20.979 369.200,22.176 369.200 C 23.373 369.200,24.464 369.380,24.600 369.600 C 24.943 370.155,375.200 370.155,375.200 369.600 C 375.200 369.378,376.267 369.200,377.600 369.200 C 378.933 369.200,380.000 369.022,380.000 368.800 C 380.000 368.580,380.540 368.400,381.200 368.400 C 381.860 368.400,382.400 368.220,382.400 368.000 C 382.400 367.780,382.940 367.600,383.600 367.600 C 384.260 367.600,384.800 367.420,384.800 367.200 C 384.800 366.980,385.160 366.800,385.600 366.800 C 386.040 366.800,386.400 366.620,386.400 366.400 C 386.400 366.180,386.670 366.000,387.000 366.000 C 387.330 366.000,387.600 365.820,387.600 365.600 C 387.600 365.380,387.870 365.200,388.200 365.200 C 388.530 365.200,388.800 365.020,388.800 364.800 C 388.800 364.580,388.999 364.400,389.241 364.400 C 389.736 364.400,394.800 359.382,394.800 358.891 C 394.800 358.718,395.160 358.317,395.600 358.000 C 396.040 357.683,396.400 357.103,396.400 356.712 C 396.400 356.320,396.547 356.000,396.726 356.000 C 397.183 356.000,398.800 352.878,398.800 351.996 C 398.800 351.595,399.025 351.192,399.300 351.100 C 399.699 350.967,399.800 320.391,399.800 200.000 C 399.800 79.609,399.699 49.033,399.300 48.900 C 399.025 48.808,398.800 48.394,398.800 47.979 C 398.800 45.944,390.965 35.600,389.424 35.600 C 389.283 35.600,388.780 35.240,388.308 34.800 C 387.836 34.360,387.213 34.000,386.925 34.000 C 386.636 34.000,386.400 33.820,386.400 33.600 C 386.400 33.380,386.040 33.200,385.600 33.200 C 385.160 33.200,384.800 33.020,384.800 32.800 C 384.800 32.580,384.260 32.400,383.600 32.400 C 382.940 32.400,382.400 32.220,382.400 32.000 C 382.400 31.780,381.860 31.600,381.200 31.600 C 380.540 31.600,380.000 31.437,380.000 31.237 C 380.000 30.252,25.917 29.418,24.400 30.399 M379.289 44.506 C 384.029 46.849,386.878 50.472,387.950 55.520 C 388.425 57.757,388.596 76.400,388.141 76.400 C 387.999 76.400,386.911 75.755,385.724 74.967 C 383.034 73.181,379.390 71.530,376.000 70.560 C 372.291 69.499,300.275 69.180,295.321 70.204 C 284.786 72.380,277.566 77.832,272.244 87.633 C 269.323 93.011,266.057 96.091,260.800 98.424 L 258.600 99.400 142.600 99.624 C 38.023 99.826,26.403 99.911,24.600 100.485 C 19.114 102.232,16.875 103.278,13.503 105.672 C 12.899 106.100,12.224 106.339,12.003 106.202 C 11.428 105.847,11.458 58.921,12.035 55.773 C 13.161 49.624,18.208 44.397,24.163 43.211 C 25.063 43.031,104.649 42.910,201.021 42.942 L 376.242 43.000 379.289 44.506 M371.923 81.633 C 379.778 83.447,386.009 89.517,387.828 97.126 C 388.638 100.515,388.657 342.399,387.847 345.440 C 386.791 349.408,383.572 353.573,380.247 355.275 C 376.263 357.315,387.896 357.191,199.715 357.196 L 24.430 357.200 22.115 356.349 C 17.223 354.552,13.491 350.465,12.153 345.440 C 11.343 342.398,11.363 130.512,12.173 127.121 C 13.778 120.410,18.908 114.772,25.630 112.332 L 28.200 111.400 144.000 111.190 C 270.014 110.961,260.191 111.147,265.804 108.892 C 272.792 106.086,279.081 100.108,282.735 92.800 C 285.465 87.341,290.230 83.470,296.235 81.835 C 298.811 81.133,368.947 80.946,371.923 81.633 M190.800 136.447 C 181.032 137.745,177.365 138.478,170.800 140.442 C 161.802 143.135,146.261 151.188,141.265 155.747 C 137.372 159.299,139.801 165.594,145.066 165.599 C 146.482 165.600,147.472 165.112,151.653 162.349 C 158.842 157.599,167.692 153.307,174.200 151.416 C 175.520 151.032,177.050 150.576,177.600 150.402 C 178.150 150.228,179.680 149.871,181.000 149.609 C 182.320 149.347,183.760 149.050,184.200 148.950 C 193.137 146.916,209.105 147.218,218.800 149.604 C 228.703 152.041,235.112 154.525,242.667 158.854 C 252.600 164.545,259.447 170.425,267.870 180.496 C 275.410 189.513,281.994 203.905,284.753 217.400 C 286.659 226.721,286.677 241.774,284.793 250.200 C 282.769 259.251,280.943 264.805,277.898 271.172 C 276.336 274.437,271.945 281.879,270.256 284.123 C 266.081 289.668,268.825 295.732,274.986 294.576 C 279.315 293.764,288.870 277.398,293.229 263.330 C 295.331 256.548,295.749 254.632,297.197 245.167 C 297.732 241.672,297.713 225.979,297.170 222.307 C 294.773 206.110,289.603 191.731,282.390 181.200 C 282.164 180.870,281.669 180.124,281.290 179.542 C 268.440 159.826,246.502 144.509,222.890 138.769 C 213.160 136.403,198.898 135.371,190.800 136.447 M122.970 174.625 C 119.382 176.396,110.397 192.656,106.959 203.600 C 105.868 207.074,105.664 207.829,104.854 211.400 C 102.459 221.949,101.556 236.672,102.807 244.767 C 103.030 246.215,103.403 248.660,103.635 250.200 C 104.057 253.008,104.182 253.582,105.413 258.400 C 114.529 294.056,144.487 322.551,180.200 329.535 C 188.985 331.254,190.157 331.360,200.200 331.360 C 209.662 331.359,211.330 331.228,218.000 329.955 C 237.387 326.255,259.992 314.586,259.999 308.274 C 260.001 305.957,259.209 304.725,256.758 303.231 C 254.523 301.869,253.297 302.131,249.144 304.860 C 223.963 321.409,196.229 324.664,168.800 314.290 C 162.598 311.944,152.977 306.679,148.809 303.350 C 144.171 299.646,142.340 298.012,138.595 294.239 C 128.077 283.642,120.636 270.839,116.833 256.800 C 116.565 255.810,116.198 254.460,116.017 253.800 C 115.837 253.140,115.497 251.520,115.264 250.200 C 115.030 248.880,114.630 246.630,114.375 245.200 C 113.761 241.754,113.753 226.215,114.363 222.400 C 116.545 208.769,120.831 197.166,127.258 187.492 C 130.795 182.169,131.200 181.356,131.200 179.582 C 131.200 175.316,126.864 172.704,122.970 174.625 M181.730 181.768 C 178.361 182.837,175.982 184.850,174.360 188.000 C 173.435 189.797,173.433 189.836,173.289 209.194 C 173.182 223.527,173.021 228.666,172.672 228.887 C 172.412 229.053,166.700 229.191,159.979 229.194 C 146.427 229.201,145.473 229.372,142.715 232.297 C 137.744 237.570,138.425 244.787,144.379 249.939 C 145.817 251.183,149.242 254.180,151.991 256.600 C 154.740 259.020,157.525 261.450,158.180 262.000 C 158.835 262.550,160.277 263.818,161.385 264.817 C 162.493 265.817,166.370 269.232,170.000 272.406 C 173.630 275.581,176.690 278.273,176.800 278.389 C 176.910 278.506,178.350 279.770,180.000 281.200 C 181.650 282.630,183.090 283.889,183.200 284.000 C 183.310 284.110,184.840 285.458,186.600 286.996 C 188.360 288.535,189.890 289.887,190.000 290.002 C 194.514 294.720,199.871 296.061,205.042 293.768 C 206.285 293.217,210.856 289.424,217.582 283.362 C 218.582 282.461,223.990 277.716,229.600 272.818 C 235.210 267.920,240.340 263.433,241.000 262.846 C 241.660 262.258,245.833 258.586,250.273 254.685 C 257.226 248.575,258.500 247.275,259.460 245.313 C 262.031 240.059,260.132 233.772,255.019 230.609 L 253.065 229.400 240.033 229.181 C 232.865 229.061,226.965 228.926,226.921 228.881 C 226.878 228.837,226.788 220.115,226.721 209.500 L 226.600 190.200 225.513 187.953 C 224.284 185.410,222.289 183.477,219.620 182.242 C 217.314 181.175,184.874 180.769,181.730 181.768 M214.682 193.118 C 215.044 193.349,215.193 198.238,215.282 212.812 C 215.415 234.621,215.282 233.655,218.613 236.987 C 221.768 240.141,221.943 240.176,235.668 240.400 C 249.252 240.621,249.003 240.580,246.900 242.275 C 246.075 242.940,244.140 244.615,242.600 245.997 C 241.060 247.379,239.260 248.984,238.600 249.563 C 237.421 250.597,226.389 260.285,209.050 275.511 C 204.220 279.753,200.129 283.173,199.958 283.111 C 199.704 283.020,183.691 269.176,182.233 267.788 C 181.995 267.561,178.920 264.867,175.400 261.802 C 171.880 258.737,168.910 256.129,168.800 256.007 C 168.368 255.525,155.767 244.496,153.748 242.832 C 152.568 241.860,151.706 240.960,151.834 240.832 C 151.961 240.704,157.585 240.510,164.332 240.400 C 178.057 240.176,178.232 240.141,181.387 236.987 C 184.718 233.655,184.585 234.621,184.718 212.812 C 184.807 198.238,184.956 193.349,185.318 193.118 C 185.583 192.950,192.190 192.812,200.000 192.812 C 207.810 192.812,214.417 192.950,214.682 193.118 " stroke="none" fill="#060605" fill-rule="evenodd"></path><path id="path1" d="M298.000 82.199 C 290.749 83.651,285.899 87.353,282.799 93.800 C 279.862 99.908,273.879 105.717,267.400 108.751 C 266.300 109.266,265.087 109.848,264.705 110.044 C 264.323 110.240,263.594 110.400,263.085 110.400 C 262.576 110.400,261.989 110.562,261.780 110.759 C 260.851 111.637,251.593 111.731,142.800 111.963 C 79.550 112.098,27.350 112.357,26.800 112.539 C 23.596 113.600,20.398 115.581,18.000 117.991 C 14.724 121.282,13.729 123.234,12.435 128.906 C 11.803 131.675,11.822 341.640,12.454 344.294 C 13.945 350.551,17.775 354.487,24.200 356.363 C 26.059 356.906,374.120 356.796,376.200 356.252 C 379.625 355.356,385.600 350.751,385.600 349.007 C 385.600 348.673,385.780 348.400,386.000 348.400 C 386.220 348.400,386.400 348.051,386.400 347.624 C 386.400 347.197,386.561 346.748,386.758 346.626 C 386.955 346.505,387.252 345.639,387.418 344.703 C 387.824 342.415,387.863 100.690,387.457 98.400 C 387.126 96.526,387.022 96.223,385.640 93.105 C 383.999 89.402,380.511 85.907,376.600 84.049 C 373.599 82.623,373.155 82.469,371.200 82.173 C 367.516 81.615,300.797 81.640,298.000 82.199 M213.600 136.346 C 217.778 137.009,222.859 138.067,225.400 138.803 C 226.280 139.057,227.497 139.362,228.105 139.479 C 228.713 139.596,229.308 139.851,229.429 140.046 C 229.549 140.241,230.076 140.400,230.600 140.400 C 231.124 140.400,231.664 140.580,231.800 140.800 C 231.936 141.020,232.399 141.200,232.829 141.200 C 233.259 141.200,233.923 141.359,234.305 141.553 C 234.687 141.748,235.540 142.129,236.200 142.400 C 236.860 142.671,237.713 143.052,238.095 143.247 C 238.477 143.441,239.062 143.600,239.395 143.600 C 239.728 143.600,240.000 143.780,240.000 144.000 C 240.000 144.220,240.360 144.400,240.800 144.400 C 241.240 144.400,241.600 144.580,241.600 144.800 C 241.600 145.020,241.855 145.200,242.167 145.200 C 242.715 145.200,246.736 147.208,249.600 148.913 C 251.546 150.071,259.356 155.260,259.600 155.557 C 259.710 155.691,260.609 156.429,261.598 157.198 C 266.219 160.790,273.015 167.579,276.416 172.000 C 277.177 172.990,277.899 173.890,278.019 174.000 C 278.140 174.110,278.675 174.830,279.208 175.600 C 279.742 176.370,280.453 177.301,280.789 177.669 C 282.570 179.621,289.278 192.087,291.298 197.200 C 291.516 197.750,291.852 198.513,292.047 198.895 C 292.241 199.277,292.400 199.941,292.400 200.371 C 292.400 200.801,292.580 201.264,292.800 201.400 C 293.020 201.536,293.200 202.076,293.200 202.600 C 293.200 203.124,293.380 203.664,293.600 203.800 C 293.820 203.936,294.000 204.476,294.000 205.000 C 294.000 205.524,294.180 206.064,294.400 206.200 C 294.620 206.336,294.800 206.966,294.800 207.600 C 294.800 208.234,294.961 208.852,295.158 208.974 C 295.355 209.095,295.613 209.871,295.732 210.697 C 295.851 211.524,296.152 213.100,296.400 214.200 C 298.824 224.925,298.825 241.343,296.402 253.600 C 296.162 254.810,295.864 256.387,295.739 257.104 C 295.614 257.821,295.351 258.506,295.156 258.627 C 294.960 258.748,294.800 259.456,294.800 260.200 C 294.800 260.944,294.620 261.664,294.400 261.800 C 294.180 261.936,294.000 262.476,294.000 263.000 C 294.000 263.524,293.820 264.064,293.600 264.200 C 293.380 264.336,293.200 264.799,293.200 265.229 C 293.200 265.984,293.056 266.374,292.062 268.295 C 291.808 268.787,291.600 269.374,291.600 269.599 C 291.600 273.412,278.476 294.800,276.136 294.800 C 275.835 294.800,275.247 295.014,274.828 295.275 C 274.039 295.768,270.906 295.072,270.355 294.282 C 270.220 294.088,268.150 295.899,265.755 298.306 C 263.360 300.713,260.883 303.067,260.251 303.537 C 259.144 304.361,259.126 304.428,259.751 305.382 C 261.054 307.371,260.516 310.587,258.534 312.662 C 256.187 315.119,243.256 322.541,237.300 324.851 C 235.475 325.559,234.182 326.102,233.505 326.447 C 233.123 326.641,232.459 326.800,232.029 326.800 C 231.599 326.800,231.136 326.980,231.000 327.200 C 230.864 327.420,230.324 327.600,229.800 327.600 C 229.276 327.600,228.736 327.780,228.600 328.000 C 228.464 328.220,227.834 328.400,227.200 328.400 C 226.566 328.400,225.936 328.580,225.800 328.800 C 225.664 329.020,224.944 329.200,224.200 329.200 C 223.456 329.200,222.748 329.361,222.626 329.558 C 222.505 329.755,221.729 330.019,220.903 330.146 C 220.076 330.273,218.230 330.560,216.800 330.785 C 201.283 333.221,187.278 332.472,173.200 328.454 C 172.430 328.234,171.350 327.937,170.800 327.794 C 169.742 327.518,168.258 326.939,167.105 326.353 C 166.723 326.159,166.048 326.000,165.605 326.000 C 165.162 326.000,164.800 325.820,164.800 325.600 C 164.800 325.380,164.361 325.200,163.824 325.200 C 163.287 325.200,162.736 325.020,162.600 324.800 C 162.464 324.580,162.003 324.400,161.576 324.400 C 161.149 324.400,160.800 324.220,160.800 324.000 C 160.800 323.780,160.440 323.600,160.000 323.600 C 159.560 323.600,159.200 323.420,159.200 323.200 C 159.200 322.980,158.917 322.800,158.571 322.800 C 157.126 322.800,145.216 315.889,141.665 312.989 C 141.299 312.691,139.560 311.286,137.800 309.867 C 133.315 306.251,127.289 300.264,123.814 295.971 C 120.028 291.295,114.023 282.318,113.991 281.288 C 113.986 281.129,113.630 280.550,113.200 280.000 C 112.770 279.450,112.414 278.685,112.409 278.300 C 112.404 277.915,112.220 277.600,112.000 277.600 C 111.780 277.600,111.600 277.240,111.600 276.800 C 111.600 276.360,111.420 276.000,111.200 276.000 C 110.980 276.000,110.800 275.747,110.800 275.438 C 110.800 275.129,110.414 274.094,109.943 273.138 C 109.472 272.182,108.911 270.950,108.697 270.400 C 108.482 269.850,108.148 269.087,107.953 268.705 C 107.759 268.323,107.600 267.684,107.600 267.285 C 107.600 266.886,107.451 266.389,107.270 266.180 C 107.088 265.971,106.710 264.990,106.431 264.000 C 106.151 263.010,105.760 261.887,105.561 261.505 C 105.362 261.123,105.200 260.369,105.200 259.829 C 105.200 259.289,105.039 258.748,104.842 258.626 C 104.645 258.505,104.387 257.729,104.268 256.903 C 104.149 256.076,103.858 254.500,103.622 253.400 C 101.660 244.266,101.106 229.053,102.436 220.800 C 103.516 214.094,104.749 208.404,105.600 206.200 C 105.770 205.760,106.130 204.590,106.400 203.600 C 106.670 202.610,107.051 201.395,107.246 200.900 C 108.044 198.872,108.512 197.763,108.847 197.105 C 109.041 196.723,109.200 196.138,109.200 195.805 C 109.200 195.472,109.380 195.200,109.600 195.200 C 109.820 195.200,110.000 194.919,110.000 194.575 C 110.000 192.820,117.465 179.476,119.903 176.874 C 120.179 176.579,120.568 176.034,120.767 175.662 C 121.649 174.015,126.688 172.448,127.400 173.600 C 127.536 173.820,127.932 174.000,128.280 174.000 C 128.627 174.000,129.170 174.315,129.486 174.700 C 129.801 175.085,129.936 175.160,129.785 174.866 C 129.604 174.514,131.354 172.500,134.910 168.966 C 137.880 166.015,140.196 163.599,140.055 163.597 C 138.834 163.582,138.474 158.856,139.554 157.015 C 140.179 155.948,144.603 152.088,145.272 152.025 C 145.421 152.011,146.608 151.293,147.910 150.428 C 150.824 148.492,158.642 144.400,159.425 144.400 C 159.741 144.400,160.000 144.220,160.000 144.000 C 160.000 143.780,160.272 143.600,160.605 143.600 C 160.938 143.600,161.523 143.441,161.905 143.247 C 162.287 143.052,163.140 142.671,163.800 142.400 C 164.460 142.129,165.313 141.748,165.695 141.553 C 166.077 141.359,166.752 141.200,167.195 141.200 C 167.638 141.200,168.000 141.020,168.000 140.800 C 168.000 140.580,168.439 140.400,168.976 140.400 C 169.513 140.400,170.064 140.220,170.200 140.000 C 170.336 139.780,170.966 139.600,171.600 139.600 C 172.234 139.600,172.852 139.440,172.973 139.244 C 173.094 139.049,173.779 138.792,174.496 138.673 C 175.213 138.555,176.610 138.262,177.600 138.022 C 180.380 137.350,183.517 136.796,186.738 136.410 C 188.354 136.216,189.789 135.944,189.928 135.805 C 190.318 135.415,210.668 135.880,213.600 136.346 " stroke="none" fill="#fbd161" fill-rule="evenodd"></path><path id="path2" d="M190.800 148.454 C 179.641 149.596,167.420 153.475,158.200 158.801 C 157.320 159.309,156.240 159.925,155.800 160.169 C 155.360 160.413,153.941 161.330,152.647 162.206 C 151.353 163.083,149.562 164.295,148.667 164.900 C 146.502 166.363,144.127 166.385,141.703 164.964 L 139.936 163.929 134.732 169.132 L 129.529 174.336 130.564 176.103 C 132.324 179.105,132.057 180.817,129.139 185.256 C 113.209 209.492,109.670 240.487,120.021 265.100 C 120.230 265.595,120.561 266.405,120.758 266.900 C 124.081 275.266,130.198 284.715,136.991 291.975 C 141.227 296.503,143.739 298.833,147.402 301.632 C 154.917 307.373,162.992 311.856,170.400 314.400 C 171.170 314.664,172.160 315.024,172.600 315.200 C 174.837 316.093,176.807 316.619,184.483 318.373 C 195.884 320.978,217.157 319.188,229.200 314.610 C 233.738 312.885,239.944 310.119,240.400 309.618 C 240.510 309.497,241.140 309.130,241.800 308.801 C 242.460 308.473,245.130 306.808,247.734 305.102 C 253.559 301.285,255.354 301.040,258.246 303.669 C 259.258 304.589,259.705 304.293,264.929 299.232 C 269.787 294.526,269.811 294.478,268.548 292.218 C 266.892 289.256,267.259 287.471,270.487 282.798 C 273.612 278.275,274.577 276.622,277.030 271.600 C 278.802 267.972,279.274 266.925,280.054 264.900 C 280.244 264.405,280.567 263.595,280.770 263.100 C 280.974 262.605,281.496 261.030,281.929 259.600 C 287.482 241.292,286.756 219.810,280.010 202.800 C 278.488 198.961,275.658 192.832,275.208 192.400 C 275.008 192.208,274.347 191.098,273.422 189.400 C 272.082 186.941,267.616 180.882,264.439 177.214 C 246.535 156.538,218.563 145.613,190.800 148.454 M220.168 182.027 C 222.328 183.042,224.670 185.296,226.000 187.638 L 227.000 189.400 227.200 208.800 L 227.400 228.200 240.000 228.439 C 254.948 228.722,257.397 229.524,259.722 234.894 C 261.041 237.939,261.200 238.533,261.200 240.400 C 261.200 242.258,261.042 242.850,259.746 245.855 C 258.953 247.694,255.204 251.322,246.799 258.383 C 245.369 259.584,243.293 261.384,242.185 262.383 C 241.077 263.382,239.546 264.740,238.782 265.400 C 236.308 267.537,231.006 272.194,230.800 272.410 C 230.690 272.526,229.430 273.606,228.001 274.810 C 226.571 276.015,225.131 277.276,224.801 277.613 C 224.470 277.950,221.320 280.739,217.800 283.811 C 214.280 286.882,210.727 290.008,209.905 290.758 C 205.496 294.774,200.598 296.481,197.319 295.144 C 194.162 293.857,193.315 293.351,190.862 291.286 C 189.398 290.055,188.110 288.944,188.000 288.819 C 187.890 288.694,184.920 286.082,181.400 283.013 C 177.880 279.944,174.910 277.330,174.800 277.204 C 174.640 277.021,159.166 263.478,154.237 259.207 C 153.598 258.653,152.158 257.368,151.037 256.351 C 149.917 255.334,148.370 253.987,147.600 253.358 C 138.685 246.073,136.713 240.335,140.947 234.000 C 144.312 228.966,145.217 228.704,160.200 228.428 L 172.600 228.200 172.800 208.800 L 173.000 189.400 174.000 187.638 C 175.300 185.349,177.646 183.061,179.735 182.048 C 182.355 180.776,217.470 180.759,220.168 182.027 " stroke="none" fill="#f5f8fb" fill-rule="evenodd"></path><path id="path3" d="M24.163 43.211 C 18.208 44.397,13.161 49.624,12.035 55.773 C 11.458 58.921,11.428 105.847,12.003 106.202 C 12.224 106.339,12.899 106.100,13.503 105.672 C 16.875 103.278,19.114 102.232,24.600 100.485 C 26.403 99.911,38.023 99.826,142.600 99.624 L 258.600 99.400 260.800 98.424 C 266.057 96.091,269.323 93.011,272.244 87.633 C 277.566 77.832,284.786 72.380,295.321 70.204 C 300.275 69.180,372.291 69.499,376.000 70.560 C 379.390 71.530,383.034 73.181,385.724 74.967 C 386.911 75.755,387.999 76.400,388.141 76.400 C 388.596 76.400,388.425 57.757,387.950 55.520 C 386.878 50.472,384.029 46.849,379.289 44.506 L 376.242 43.000 201.021 42.942 C 104.649 42.910,25.063 43.031,24.163 43.211 M297.600 81.640 C 289.454 83.780,286.150 86.439,281.992 94.200 C 278.058 101.542,271.896 106.886,264.200 109.629 C 262.925 110.083,262.528 110.352,263.105 110.371 C 263.603 110.387,264.323 110.240,264.705 110.044 C 265.087 109.848,266.300 109.266,267.400 108.751 C 273.879 105.717,279.862 99.908,282.799 93.800 C 286.069 86.999,291.476 83.130,299.268 82.016 C 302.862 81.502,367.698 81.644,371.200 82.173 C 373.155 82.469,373.598 82.623,376.600 84.049 C 380.511 85.907,383.999 89.402,385.640 93.105 C 387.022 96.223,387.126 96.526,387.457 98.400 C 387.863 100.690,387.824 342.415,387.418 344.703 C 387.252 345.639,386.955 346.505,386.758 346.626 C 386.561 346.748,386.400 347.197,386.400 347.624 C 386.400 348.051,386.220 348.400,386.000 348.400 C 385.780 348.400,385.600 348.673,385.600 349.007 C 385.600 350.751,379.625 355.356,376.200 356.252 C 374.120 356.796,26.059 356.906,24.200 356.363 C 17.775 354.487,13.945 350.551,12.454 344.294 C 11.822 341.640,11.803 131.675,12.435 128.906 C 13.729 123.234,14.724 121.282,18.000 117.991 C 20.398 115.581,23.596 113.600,26.800 112.539 C 27.350 112.357,79.550 112.098,142.800 111.963 C 252.709 111.728,260.877 111.643,261.800 110.717 C 262.067 110.449,261.802 110.397,261.000 110.562 C 256.497 111.486,245.968 111.577,141.200 111.605 C 53.987 111.629,28.194 111.745,26.800 112.123 C 19.523 114.094,13.767 120.234,12.155 127.746 C 11.443 131.063,11.341 341.143,12.050 344.480 C 13.295 350.341,17.745 355.153,23.285 356.628 C 26.574 357.503,374.078 357.471,376.966 356.595 C 382.378 354.953,386.416 350.777,387.826 345.365 C 388.663 342.151,388.665 100.628,387.828 97.126 C 386.009 89.517,379.778 83.447,371.923 81.633 C 369.563 81.089,299.675 81.095,297.600 81.640 M189.928 135.805 C 189.789 135.944,188.354 136.216,186.738 136.410 C 183.517 136.796,180.380 137.350,177.600 138.022 C 176.610 138.262,175.213 138.555,174.496 138.673 C 173.779 138.792,173.094 139.049,172.973 139.244 C 172.852 139.440,172.234 139.600,171.600 139.600 C 170.966 139.600,170.336 139.780,170.200 140.000 C 170.064 140.220,169.513 140.400,168.976 140.400 C 168.439 140.400,168.000 140.580,168.000 140.800 C 168.000 141.020,167.638 141.200,167.195 141.200 C 166.752 141.200,166.077 141.359,165.695 141.553 C 165.313 141.748,164.460 142.129,163.800 142.400 C 163.140 142.671,162.287 143.052,161.905 143.247 C 161.523 143.441,160.938 143.600,160.605 143.600 C 160.272 143.600,160.000 143.780,160.000 144.000 C 160.000 144.536,159.984 144.540,162.530 143.414 C 168.139 140.933,178.078 138.153,184.600 137.239 C 186.360 136.992,189.094 136.613,190.677 136.395 C 194.429 135.880,205.515 135.888,209.484 136.409 C 221.101 137.936,230.117 140.200,237.550 143.458 C 240.012 144.537,240.000 144.534,240.000 144.000 C 240.000 143.780,239.728 143.600,239.395 143.600 C 239.062 143.600,238.477 143.441,238.095 143.247 C 237.713 143.052,236.860 142.671,236.200 142.400 C 235.540 142.129,234.687 141.748,234.305 141.553 C 233.923 141.359,233.259 141.200,232.829 141.200 C 232.399 141.200,231.936 141.020,231.800 140.800 C 231.664 140.580,231.124 140.400,230.600 140.400 C 230.076 140.400,229.549 140.241,229.429 140.046 C 229.308 139.851,228.713 139.596,228.105 139.479 C 227.497 139.362,226.280 139.057,225.400 138.803 C 222.859 138.067,217.778 137.009,213.600 136.346 C 210.668 135.880,190.318 135.415,189.928 135.805 M154.444 146.654 C 152.158 147.861,149.221 149.558,147.916 150.424 C 146.611 151.291,145.421 152.011,145.272 152.025 C 144.603 152.088,140.179 155.948,139.554 157.015 C 138.445 158.905,138.841 163.584,140.110 163.597 C 140.281 163.599,140.146 163.069,139.810 162.420 C 137.554 158.058,142.034 153.580,155.600 146.633 C 159.849 144.458,159.962 144.388,159.167 144.429 C 158.855 144.446,156.730 145.447,154.444 146.654 M245.574 147.242 C 266.514 158.513,282.722 176.598,291.020 197.951 C 291.650 199.574,292.240 200.681,292.330 200.411 C 292.419 200.142,292.292 199.489,292.046 198.961 C 291.801 198.432,291.443 197.595,291.251 197.100 C 289.396 192.309,282.556 179.606,280.789 177.669 C 280.453 177.301,279.742 176.370,279.208 175.600 C 278.675 174.830,278.140 174.110,278.019 174.000 C 277.899 173.890,277.177 172.990,276.416 172.000 C 273.015 167.579,266.219 160.790,261.598 157.198 C 260.609 156.429,259.710 155.691,259.600 155.557 C 258.387 154.083,243.498 145.191,242.267 145.206 C 242.010 145.209,243.498 146.125,245.574 147.242 M122.708 174.128 C 121.887 174.607,120.907 175.450,120.531 176.000 C 120.154 176.550,119.746 177.090,119.623 177.200 C 118.516 178.192,113.436 186.761,111.278 191.275 C 109.066 195.903,109.896 195.215,112.333 190.400 C 119.378 176.481,123.033 172.589,127.558 174.185 C 128.464 174.505,129.200 174.593,129.200 174.382 C 129.200 174.172,128.851 174.000,128.424 174.000 C 127.997 174.000,127.536 173.820,127.400 173.600 C 126.975 172.912,124.267 173.216,122.708 174.128 M109.200 195.805 C 109.200 196.138,109.041 196.723,108.847 197.105 C 108.466 197.855,107.677 199.711,107.192 201.000 C 107.027 201.440,106.670 202.610,106.400 203.600 C 106.130 204.590,105.770 205.760,105.600 206.200 C 104.749 208.404,103.516 214.094,102.436 220.800 C 101.106 229.053,101.660 244.266,103.622 253.400 C 103.858 254.500,104.149 256.076,104.268 256.903 C 104.387 257.729,104.645 258.505,104.842 258.626 C 105.039 258.748,105.200 259.289,105.200 259.829 C 105.200 260.369,105.362 261.123,105.561 261.505 C 105.760 261.887,106.151 263.010,106.431 264.000 C 106.710 264.990,107.088 265.971,107.270 266.180 C 107.451 266.389,107.600 266.886,107.600 267.285 C 107.600 267.684,107.759 268.323,107.953 268.705 C 108.148 269.087,108.482 269.850,108.697 270.400 C 108.911 270.950,109.472 272.182,109.943 273.138 C 110.414 274.094,110.800 275.129,110.800 275.438 C 110.800 275.747,110.999 276.000,111.243 276.000 C 111.486 276.000,111.589 275.775,111.471 275.500 C 106.894 264.829,104.954 258.616,103.636 250.400 C 103.406 248.970,103.028 246.692,102.796 245.337 C 102.246 242.128,102.251 225.859,102.804 222.000 C 104.202 212.226,106.444 203.851,109.791 195.900 C 109.969 195.477,109.910 195.200,109.643 195.200 C 109.399 195.200,109.200 195.472,109.200 195.805 M292.428 201.476 C 292.518 202.515,293.144 203.396,293.172 202.524 C 293.187 202.042,293.020 201.536,292.800 201.400 C 292.580 201.264,292.413 201.298,292.428 201.476 M293.331 204.250 C 294.742 209.127,295.240 211.049,295.755 213.600 C 299.247 230.900,298.321 247.753,292.965 264.376 C 292.225 266.673,291.701 268.634,291.800 268.734 C 291.900 268.833,292.089 268.574,292.220 268.157 C 292.351 267.741,292.625 267.087,292.829 266.705 C 293.033 266.323,293.200 265.659,293.200 265.229 C 293.200 264.799,293.380 264.336,293.600 264.200 C 293.820 264.064,294.000 263.524,294.000 263.000 C 294.000 262.476,294.180 261.936,294.400 261.800 C 294.620 261.664,294.800 260.944,294.800 260.200 C 294.800 259.456,294.960 258.748,295.156 258.627 C 295.351 258.506,295.614 257.821,295.739 257.104 C 295.864 256.387,296.162 254.810,296.402 253.600 C 298.825 241.343,298.824 224.925,296.400 214.200 C 296.152 213.100,295.851 211.524,295.732 210.697 C 295.613 209.871,295.355 209.095,295.158 208.974 C 294.961 208.852,294.800 208.234,294.800 207.600 C 294.800 206.966,294.620 206.336,294.400 206.200 C 294.180 206.064,294.000 205.524,294.000 205.000 C 294.000 204.476,293.801 203.924,293.557 203.774 C 293.271 203.596,293.191 203.765,293.331 204.250 M290.240 271.886 C 286.991 279.548,279.292 292.261,276.986 293.773 C 275.404 294.809,273.234 294.992,271.437 294.241 C 269.582 293.466,269.386 293.448,270.071 294.112 C 271.080 295.090,273.987 295.800,274.828 295.275 C 275.247 295.014,275.835 294.800,276.136 294.800 C 278.537 294.800,292.365 272.095,291.516 269.547 C 291.447 269.340,290.873 270.393,290.240 271.886 M112.409 278.500 C 112.414 278.775,112.770 279.450,113.200 280.000 C 113.630 280.550,113.986 281.129,113.991 281.288 C 114.023 282.318,120.028 291.295,123.814 295.971 C 127.289 300.264,133.315 306.251,137.800 309.867 C 139.560 311.286,141.299 312.691,141.665 312.989 C 145.092 315.787,157.131 322.810,158.471 322.793 C 158.762 322.790,156.966 321.712,154.480 320.398 C 137.323 311.332,122.150 296.228,113.599 279.700 C 112.688 277.940,112.394 277.643,112.409 278.500 M259.417 305.400 C 260.969 309.222,259.762 311.524,254.258 315.240 C 250.339 317.885,249.334 318.476,244.289 321.101 C 242.798 321.876,241.663 322.597,241.768 322.701 C 242.344 323.278,256.536 314.762,258.587 312.609 C 260.506 310.595,261.067 307.065,259.733 305.400 L 259.092 304.600 259.417 305.400 M238.548 323.779 C 231.900 326.802,223.287 329.229,213.400 330.865 C 209.141 331.570,190.925 331.566,186.800 330.860 C 177.766 329.314,171.973 327.816,165.300 325.303 C 165.025 325.199,164.800 325.314,164.800 325.557 C 164.800 325.801,165.162 326.000,165.605 326.000 C 166.048 326.000,166.723 326.159,167.105 326.353 C 168.258 326.939,169.742 327.518,170.800 327.794 C 171.350 327.937,172.430 328.234,173.200 328.454 C 187.278 332.472,201.283 333.221,216.800 330.785 C 218.230 330.560,220.076 330.273,220.903 330.146 C 221.729 330.019,222.505 329.755,222.626 329.558 C 222.748 329.361,223.456 329.200,224.200 329.200 C 224.944 329.200,225.664 329.020,225.800 328.800 C 225.936 328.580,226.566 328.400,227.200 328.400 C 227.834 328.400,228.464 328.220,228.600 328.000 C 228.736 327.780,229.276 327.600,229.800 327.600 C 230.324 327.600,230.864 327.420,231.000 327.200 C 231.136 326.980,231.599 326.800,232.029 326.800 C 232.459 326.800,233.123 326.641,233.505 326.447 C 234.232 326.077,236.035 325.309,237.400 324.787 C 239.218 324.092,241.200 323.151,241.200 322.981 C 241.200 322.659,240.640 322.828,238.548 323.779 M160.800 324.000 C 160.800 324.220,161.149 324.400,161.576 324.400 C 162.003 324.400,162.464 324.580,162.600 324.800 C 162.736 325.020,163.242 325.187,163.724 325.170 C 164.391 325.148,164.218 324.964,163.000 324.400 C 161.107 323.524,160.800 323.468,160.800 324.000 " stroke="none" fill="#e39344" fill-rule="evenodd"></path><path id="path4" d="M87.732 111.500 C 118.495 111.557,168.715 111.557,199.332 111.500 C 229.950 111.443,204.780 111.397,143.400 111.397 C 82.020 111.397,56.970 111.443,87.732 111.500 M188.800 148.217 C 183.947 148.934,180.724 149.542,180.479 149.788 C 180.120 150.147,181.384 150.026,184.457 149.409 C 212.943 143.683,245.078 154.854,264.439 177.214 C 267.616 180.882,272.082 186.941,273.422 189.400 C 274.347 191.098,275.008 192.208,275.208 192.400 C 275.658 192.832,278.488 198.961,280.010 202.800 C 284.110 213.138,285.400 220.559,285.400 233.800 C 285.400 245.689,284.724 250.683,281.916 259.524 C 281.476 260.912,281.213 262.146,281.332 262.265 C 281.653 262.586,283.414 256.466,284.775 250.300 C 289.746 227.784,282.543 198.043,267.870 180.496 C 259.447 170.425,252.600 164.545,242.667 158.854 C 235.112 154.525,228.703 152.041,218.800 149.604 C 210.813 147.639,197.026 147.001,188.800 148.217 M177.600 150.400 C 176.813 150.909,178.216 150.909,179.400 150.400 C 180.133 150.085,180.116 150.054,179.200 150.034 C 178.650 150.022,177.930 150.187,177.600 150.400 M171.800 152.156 C 167.814 153.580,162.303 156.036,162.546 156.279 C 162.632 156.365,163.891 155.891,165.344 155.226 C 166.797 154.560,169.924 153.363,172.293 152.565 C 174.662 151.767,176.675 151.043,176.767 150.957 C 177.286 150.468,174.936 151.035,171.800 152.156 M159.040 157.848 C 157.522 158.642,154.132 160.711,151.506 162.446 C 146.013 166.075,144.509 166.413,141.856 164.612 C 141.055 164.069,140.400 163.766,140.400 163.938 C 140.400 165.846,146.259 166.527,148.667 164.900 C 149.562 164.295,151.353 163.083,152.647 162.206 C 153.941 161.330,155.360 160.413,155.800 160.169 C 156.240 159.925,157.320 159.308,158.200 158.797 C 159.080 158.287,160.295 157.616,160.900 157.305 C 161.505 156.995,162.000 156.665,162.000 156.571 C 162.000 156.304,161.961 156.321,159.040 157.848 M129.200 174.922 C 129.200 175.044,129.425 175.388,129.700 175.687 C 132.313 178.530,131.927 180.441,127.337 187.400 C 123.815 192.740,118.545 203.436,118.905 204.514 C 118.976 204.727,119.541 203.608,120.161 202.028 C 122.132 197.004,125.269 191.144,129.139 185.256 C 131.811 181.191,132.253 179.223,131.026 176.851 C 130.484 175.803,129.200 174.447,129.200 174.922 M179.735 182.048 C 177.646 183.061,175.300 185.349,174.000 187.638 L 173.000 189.400 172.800 208.800 L 172.600 228.200 160.200 228.428 C 145.217 228.704,144.312 228.966,140.947 234.000 C 136.713 240.335,138.685 246.073,147.600 253.358 C 148.370 253.987,149.917 255.334,151.037 256.351 C 152.158 257.368,153.598 258.653,154.237 259.207 C 159.166 263.478,174.640 277.021,174.800 277.204 C 174.910 277.330,177.880 279.944,181.400 283.013 C 184.920 286.082,187.890 288.694,188.000 288.819 C 190.990 292.215,196.943 295.600,199.924 295.600 C 202.810 295.600,206.616 293.754,209.905 290.758 C 210.727 290.008,214.280 286.882,217.800 283.811 C 221.320 280.739,224.470 277.950,224.801 277.613 C 225.131 277.276,226.571 276.015,228.001 274.810 C 229.430 273.606,230.690 272.526,230.800 272.410 C 231.006 272.194,236.308 267.537,238.782 265.400 C 239.546 264.740,241.077 263.382,242.185 262.383 C 243.293 261.384,245.369 259.584,246.799 258.383 C 251.149 254.728,256.255 250.150,258.094 248.255 C 259.124 247.194,259.524 246.472,260.744 243.481 C 261.330 242.043,261.330 238.757,260.744 237.319 C 257.463 229.272,256.235 228.747,240.000 228.439 L 227.400 228.200 227.200 208.800 L 227.000 189.400 226.000 187.638 C 224.094 184.280,219.952 181.154,217.504 181.227 C 216.922 181.244,217.209 181.444,218.311 181.788 C 221.675 182.838,223.996 184.835,225.532 188.000 L 226.600 190.200 226.721 209.500 C 226.788 220.115,226.878 228.837,226.921 228.881 C 226.965 228.926,232.865 229.061,240.033 229.181 L 253.065 229.400 255.019 230.609 C 260.132 233.772,262.031 240.059,259.460 245.313 C 258.500 247.275,257.226 248.575,250.273 254.685 C 245.833 258.586,241.660 262.258,241.000 262.846 C 240.340 263.433,235.210 267.920,229.600 272.818 C 223.990 277.716,218.582 282.461,217.582 283.362 C 210.856 289.424,206.285 293.217,205.042 293.768 C 199.871 296.061,194.514 294.720,190.000 290.002 C 189.890 289.887,188.360 288.535,186.600 286.996 C 184.840 285.458,183.310 284.110,183.200 284.000 C 183.090 283.889,181.650 282.630,180.000 281.200 C 178.350 279.770,176.910 278.506,176.800 278.389 C 176.690 278.273,173.630 275.581,170.000 272.406 C 166.370 269.232,162.493 265.817,161.385 264.817 C 160.277 263.818,158.835 262.550,158.180 262.000 C 157.525 261.450,154.740 259.020,151.991 256.600 C 149.242 254.180,145.817 251.183,144.379 249.939 C 138.425 244.787,137.744 237.570,142.715 232.297 C 145.473 229.372,146.427 229.201,159.979 229.194 C 166.700 229.191,172.412 229.053,172.672 228.887 C 173.021 228.666,173.182 223.527,173.289 209.194 C 173.433 189.836,173.435 189.797,174.360 188.000 C 175.985 184.844,178.376 182.824,181.730 181.776 C 182.956 181.392,183.134 181.252,182.400 181.247 C 181.850 181.243,180.651 181.603,179.735 182.048 M185.318 193.118 C 184.956 193.349,184.807 198.238,184.718 212.812 C 184.585 234.621,184.718 233.655,181.387 236.987 C 178.232 240.141,178.057 240.176,164.332 240.400 C 157.585 240.510,151.961 240.704,151.834 240.832 C 151.706 240.960,152.568 241.860,153.748 242.832 C 155.767 244.496,168.368 255.525,168.800 256.007 C 168.910 256.129,171.880 258.737,175.400 261.802 C 178.920 264.867,181.995 267.561,182.233 267.788 C 183.691 269.176,199.704 283.020,199.958 283.111 C 200.129 283.173,204.220 279.753,209.050 275.511 C 226.389 260.285,237.421 250.597,238.600 249.563 C 239.260 248.984,241.060 247.379,242.600 245.997 C 244.140 244.615,246.075 242.940,246.900 242.275 C 249.003 240.580,249.252 240.621,235.668 240.400 C 221.943 240.176,221.768 240.141,218.613 236.987 C 215.282 233.655,215.415 234.621,215.282 212.812 C 215.193 198.238,215.044 193.349,214.682 193.118 C 214.417 192.950,207.810 192.812,200.000 192.812 C 192.190 192.812,185.583 192.950,185.318 193.118 M117.487 208.476 C 116.020 213.356,115.246 216.802,114.359 222.400 C 113.753 226.222,113.764 241.773,114.375 245.200 C 114.630 246.630,115.030 248.880,115.264 250.200 C 115.497 251.520,115.843 253.140,116.030 253.800 C 116.218 254.460,116.477 255.516,116.606 256.147 C 116.734 256.778,116.916 257.217,117.011 257.122 C 117.106 257.028,116.626 254.351,115.945 251.175 C 113.129 238.037,113.992 221.371,118.198 207.661 C 118.559 206.484,118.771 205.438,118.670 205.337 C 118.569 205.235,118.036 206.648,117.487 208.476 M297.734 234.000 C 297.734 235.650,297.805 236.325,297.891 235.500 C 297.978 234.675,297.978 233.325,297.891 232.500 C 297.805 231.675,297.734 232.350,297.734 234.000 M117.200 257.963 C 117.200 264.657,128.864 284.434,138.595 294.239 C 142.340 298.012,144.171 299.646,148.809 303.350 C 153.829 307.360,169.813 315.600,172.571 315.600 C 173.306 315.600,172.222 314.970,170.600 314.455 C 166.942 313.294,161.134 310.600,157.200 308.241 C 148.686 303.135,143.605 299.045,136.991 291.975 C 130.248 284.768,123.754 274.744,120.811 267.000 C 120.644 266.560,120.311 265.750,120.070 265.200 C 119.830 264.650,119.163 262.762,118.587 261.004 C 117.533 257.781,117.200 257.053,117.200 257.963 M280.573 263.443 C 280.438 263.859,280.140 264.650,279.910 265.200 C 279.681 265.750,279.356 266.560,279.189 267.000 C 277.663 271.019,273.883 277.883,270.487 282.798 C 267.380 287.297,266.948 289.154,268.364 291.929 C 268.833 292.848,269.420 293.600,269.670 293.600 C 269.959 293.600,269.911 293.345,269.539 292.900 C 267.333 290.259,267.540 287.730,270.256 284.123 C 274.236 278.836,281.911 263.777,281.059 262.926 C 280.927 262.794,280.708 263.026,280.573 263.443 M247.734 305.102 C 245.130 306.808,242.460 308.473,241.800 308.801 C 241.140 309.130,240.510 309.497,240.400 309.618 C 239.706 310.380,229.108 314.834,225.670 315.809 C 225.158 315.954,224.836 316.169,224.953 316.287 C 225.344 316.678,232.535 313.951,237.400 311.568 C 242.879 308.883,243.972 308.259,249.144 304.860 C 251.635 303.223,253.290 302.400,254.089 302.400 C 255.316 302.400,258.400 303.883,258.400 304.474 C 258.400 304.653,258.608 304.800,258.862 304.800 C 259.516 304.800,258.013 303.227,256.721 302.559 C 254.358 301.337,252.812 301.774,247.734 305.102 M132.000 304.125 C 132.000 304.194,132.585 304.779,133.300 305.425 L 134.600 306.600 133.425 305.300 C 132.330 304.088,132.000 303.816,132.000 304.125 M173.600 316.000 C 173.930 316.213,174.470 316.388,174.800 316.388 C 175.333 316.388,175.333 316.345,174.800 316.000 C 174.470 315.787,173.930 315.612,173.600 315.612 C 173.067 315.612,173.067 315.655,173.600 316.000 M177.800 317.239 C 179.120 317.660,180.560 317.956,181.000 317.897 C 181.440 317.837,180.540 317.476,179.000 317.093 C 175.366 316.191,174.750 316.265,177.800 317.239 M221.800 316.835 C 213.863 319.260,199.419 320.168,188.400 318.935 C 187.190 318.800,186.318 318.817,186.462 318.973 C 187.728 320.346,205.249 320.474,213.000 319.168 C 218.143 318.301,223.944 316.989,224.327 316.606 C 224.644 316.289,223.141 316.426,221.800 316.835 M182.600 318.400 C 183.040 318.589,183.940 318.738,184.600 318.732 C 185.770 318.721,185.775 318.712,184.800 318.400 C 183.333 317.930,181.506 317.930,182.600 318.400 " stroke="none" fill="#73cb8b" fill-rule="evenodd"></path></g></svg>