<?xml version="1.0" encoding="UTF-8" standalone="no"?>
<!-- Creator: CorelDRAW X6 -->
<svg xmlns:dc="http://purl.org/dc/elements/1.1/" xmlns:cc="http://creativecommons.org/ns#" xmlns:rdf="http://www.w3.org/1999/02/22-rdf-syntax-ns#" xmlns:svg="http://www.w3.org/2000/svg" xmlns="http://www.w3.org/2000/svg" xmlns:sodipodi="http://sodipodi.sourceforge.net/DTD/sodipodi-0.dtd" xmlns:inkscape="http://www.inkscape.org/namespaces/inkscape" xml:space="preserve" width="687.72687" height="602.5835" version="1.1" style="clip-rule:evenodd;fill-rule:evenodd;image-rendering:optimizeQuality;shape-rendering:geometricPrecision;text-rendering:geometricPrecision" viewBox="0 0 7641.1072 6695.1069" id="svg2" inkscape:version="0.91 r13725" sodipodi:docname="forest-fire-pdv.svg" inkscape:export-filename="F:\_GRAFIKA\Publicdomainq\forest-fire-pdv\forest-fire-pdv.png" inkscape:export-xdpi="156.97409" inkscape:export-ydpi="156.97409"><title id="title3447">Forest fire</title><metadata id="metadata108"><rdf:RDF><cc:Work rdf:about=""><dc:format>image/svg+xml</dc:format><dc:type rdf:resource="http://purl.org/dc/dcmitype/StillImage"/><dc:title>Forest fire</dc:title><dc:description>Forest fire clipart adapted from https://publicdomainvectors.org</dc:description><dc:subject><rdf:Bag><rdf:li>forest</rdf:li><rdf:li>wood</rdf:li><rdf:li>fire</rdf:li><rdf:li>flame</rdf:li><rdf:li>burn</rdf:li><rdf:li>disaster</rdf:li><rdf:li>tree</rdf:li></rdf:Bag></dc:subject></cc:Work></rdf:RDF></metadata><sodipodi:namedview pagecolor="#ffffff" bordercolor="#666666" borderopacity="1" objecttolerance="10" gridtolerance="10" guidetolerance="10" inkscape:pageopacity="0" inkscape:pageshadow="2" inkscape:window-width="2560" inkscape:window-height="1369" id="namedview106" showgrid="false" fit-margin-left="5" fit-margin-top="5" fit-margin-bottom="5" fit-margin-right="5" units="px" inkscape:zoom="0.89001207" inkscape:cx="566.80016" inkscape:cy="150.56878" inkscape:window-x="-9" inkscape:window-y="-9" inkscape:window-maximized="1" inkscape:current-layer="_384621696"/><defs id="defs4"><style type="text/css" id="style6"><![CDATA[
    .fil6 {fill:#434330}
    .fil5 {fill:#585835}
    .fil1 {fill:#696A3B}
    .fil2 {fill:#F26D46}
    .fil4 {fill:#FCE564}
    .fil3 {fill:#FFCF28}
    .fil0 {fill:#373435;fill-rule:nonzero;fill-opacity:0.400000}
   ]]></style></defs><g id="publicdomainvectors.org" transform="translate(-349.44664,-603.44664)"><metadata id="CorelCorpID_0Corel-Layer"/><g id="_384621696"><g id="g3436"><path id="path88" d="m 4170,7243 c 2074,0 3765,-418 3765,-930 0,-512 -1691,-930 -3765,-930 -2074,0 -3765,418 -3765,930 0,512 1691,930 3765,930 z" class="fil1" inkscape:connector-curvature="0" style="fill:#696a3b"/><path id="path90" d="M 964,4398 C 683,3907 749,3558 768,3030 l 225,270 C 666,2725 691,2251 740,1632 c 207,259 434,664 726,774 15,-924 110,-1120 804,-1654 27,318 24,834 290,1037 l 79,61 4,100 c 5,111 4,220 2,330 l 159,-703 245,703 c 34,97 70,193 110,288 l 28,-3 c 8,-1 15,-2 23,-2 42,-522 -30,-611 -200,-1078 194,82 469,177 639,295 131,-392 -38,-748 -152,-1121 442,270 765,395 974,916 l 277,-203 9,76 98,-686 c 71,486 112,1499 410,1852 33,-17 67,-31 101,-45 l -91,-373 404,191 c 3,1 5,2 8,3 13,-623 270,-830 666,-1224 59,396 88,855 375,1159 175,-57 442,-38 629,-38 -111,184 -278,392 -274,611 3,129 35,268 49,397 5,42 8,83 10,124 l 441,-200 c -98,229 -269,532 -263,778 3,108 20,217 32,325 l 357,-189 c -70,253 -146,482 -178,743 -30,243 -65,481 -240,667 -247,263 -643,373 -996,363 -37,-1 -73,-5 -109,-11 -165,-29 -309,-105 -454,-185 -112,-62 -272,-158 -403,-152 -36,2 -69,13 -101,28 -55,27 -107,66 -157,101 -141,100 -271,179 -449,192 -60,4 -143,43 -198,68 -168,74 -332,141 -518,91 -172,-46 -316,-159 -452,-268 -76,-61 -266,-228 -372,-207 -120,24 -245,116 -342,186 -206,148 -406,294 -671,296 C 894,6054 709,4971 554,4076 l 412,326 z" class="fil2" inkscape:connector-curvature="0" style="fill:#f26d46"/><path id="path92" d="m 6300,5844 c 295,8 633,-80 835,-296 200,-213 157,-562 235,-843 -132,70 -208,185 -270,313 154,-463 -106,-817 70,-1226 -101,46 -197,113 -287,209 165,-619 -175,-899 96,-1348 -118,0 -215,26 -287,78 -272,-212 -424,-544 -487,-965 -262,261 -335,609 -296,1009 -107,-14 -204,12 -322,-43 77,316 -3,545 165,896 -287,-230 -372,-466 -357,-687 -69,29 -128,72 -174,130 -122,-220 -311,-288 -365,-661 -43,306 17,655 26,983 -217,-583 -232,-862 -304,-1478 -95,70 -154,176 -191,304 -82,-454 -254,-767 -522,-930 111,362 31,693 -148,1009 -84,-118 -197,-209 -339,-270 125,342 23,632 35,948 -59,-43 -127,-52 -200,-43 180,191 200,386 165,583 -244,-292 -402,-641 -530,-1009 -51,225 -59,462 0,722 -550,-375 -389,-415 -417,-1113 -221,-169 -310,-457 -339,-800 -469,361 -402,1046 -417,1583 -255,-188 -541,-112 -765,-565 28,463 137,899 443,1270 -25,281 -268,295 -391,148 -14,394 168,716 409,1017 -171,-9 -320,126 -513,-26 113,650 466,1249 1209,1243 362,-3 619,-408 974,-478 325,-65 602,391 922,478 207,56 430,-149 644,-165 282,-21 429,-309 712,-322 347,-16 635,338 983,348 z" class="fil3" inkscape:connector-curvature="0" style="fill:#ffcf28"/><path id="path94" d="m 6936,5525 -226,-92 93,-279 c 42,-128 39,-264 25,-401 l -198,211 3,7 -6,-5 -366,389 150,-563 -854,-686 c -121,-97 -226,-207 -306,-329 l -47,59 42,1586 c 19,-2 38,-4 58,-5 57,-3 113,1 169,10 189,30 348,116 513,207 86,47 223,128 323,131 197,6 457,-48 597,-197 10,-11 19,-23 26,-36 1,-2 3,-5 4,-8 z m -477,-917 0,0 -423,-883 c -66,-137 -81,-249 -90,-395 l 315,43 -39,-395 c -2,-21 -4,-41 -5,-62 78,110 171,210 282,296 l 57,45 c 1,293 116,552 24,897 l -121,454 z m -1240,817 0,0 c -174,27 -305,112 -453,217 -37,26 -76,54 -116,75 -21,11 -43,20 -67,22 -134,10 -250,57 -371,111 -32,14 -135,62 -172,63 -78,-24 -194,-120 -256,-170 -185,-148 -374,-299 -620,-322 -62,-6 -124,-3 -185,10 -209,42 -378,153 -548,275 -86,62 -217,164 -319,190 -16,4 -32,6 -48,7 -411,3 -650,-249 -784,-575 20,-5 40,-10 60,-13 4,-1 10,-2 14,-1 l 698,35 -437,-545 c -112,-139 -214,-288 -277,-452 197,-80 308,-274 327,-489 l 12,-129 -83,-100 c -78,-94 -141,-195 -191,-299 30,13 59,29 84,48 l 484,357 17,-601 c 6,-213 -10,-510 29,-780 31,46 65,89 103,130 1,101 -2,201 -4,304 -2,131 1,257 44,382 85,246 305,405 511,546 l 639,436 259,311 118,-664 c 0,-1 0,-1 0,-2 l 63,46 -24,-650 c -1,-37 -1,-74 1,-111 l 20,28 243,-428 c 32,-57 62,-115 88,-173 l 237,1308 141,-483 c 38,134 82,266 132,398 l 630,1689 z" class="fil4" inkscape:connector-curvature="0" style="fill:#fce564"/><path id="path96" d="m 5258,3342 c 8,62 16,123 23,185 68,96 146,172 263,165 -81,14 -165,-8 -254,-92 7,58 13,116 20,174 91,83 191,141 308,150 -103,11 -204,-12 -303,-105 8,85 17,170 25,255 78,101 181,176 346,184 -116,25 -244,2 -339,-95 6,80 11,159 17,239 117,126 243,212 462,206 -215,53 -333,-36 -453,-100 6,111 9,165 16,276 141,113 314,197 535,236 -190,6 -369,-20 -533,-162 4,151 7,274 12,424 160,219 373,341 660,332 -279,47 -491,-54 -660,-212 0,59 -1,77 0,135 2,138 69,206 155,292 44,45 99,78 149,117 -188,-108 -350,-123 -468,27 -29,-142 -163,-138 -359,-48 32,-28 63,-56 95,-85 75,-67 126,-151 134,-275 6,-89 14,-130 24,-219 -237,189 -471,230 -729,215 286,-28 541,-118 740,-314 12,-132 25,-265 37,-397 -156,169 -326,245 -516,192 177,21 350,-64 521,-251 8,-114 15,-200 23,-314 -110,143 -270,202 -448,200 175,-24 333,-101 455,-292 5,-83 8,-145 13,-228 -97,88 -225,147 -369,164 132,-46 261,-108 373,-234 5,-111 9,-222 14,-333 -106,124 -239,147 -372,165 139,-27 269,-86 375,-238 1,-34 2,-68 3,-102 -96,75 -160,56 -228,51 78,-6 156,-23 230,-103 1,-62 3,-124 4,-185 z" class="fil5" inkscape:connector-curvature="0" style="fill:#585835"/><path id="path98" d="m 4057,2153 c 14,106 27,213 41,319 118,166 253,297 455,286 -140,24 -285,-14 -440,-159 11,100 23,200 34,300 157,143 329,244 533,260 -177,20 -353,-20 -524,-181 15,147 29,294 44,440 135,175 313,304 599,317 -201,43 -422,4 -586,-165 11,139 19,275 30,414 202,218 420,366 798,356 -372,91 -576,-62 -783,-172 11,192 16,285 27,477 244,195 542,341 925,408 -329,10 -638,-34 -921,-280 7,260 13,473 20,733 276,378 644,590 1141,574 -482,82 -848,-93 -1140,-366 0,101 -2,133 0,234 4,238 120,355 267,505 77,78 172,134 257,201 -325,-187 -606,-213 -809,47 -50,-245 -281,-239 -621,-83 55,-49 109,-97 164,-146 129,-117 218,-261 232,-476 10,-154 25,-225 42,-379 -409,326 -814,398 -1260,372 495,-49 934,-204 1279,-543 21,-229 43,-457 64,-686 -270,292 -564,423 -891,332 306,36 606,-111 900,-434 14,-197 25,-346 40,-543 -190,246 -466,350 -775,346 303,-41 576,-174 786,-505 8,-144 14,-251 22,-394 -167,152 -389,254 -639,284 229,-79 451,-186 645,-405 8,-192 16,-383 24,-575 -184,214 -413,253 -643,286 240,-48 466,-148 648,-411 2,-59 4,-118 5,-176 -166,129 -277,97 -395,87 136,-11 270,-40 397,-179 2,-107 5,-214 7,-320 z" class="fil6" inkscape:connector-curvature="0" style="fill:#434330"/><path id="path100" d="m 3105,3336 c 8,62 16,123 23,185 68,96 146,172 263,165 -81,14 -165,-8 -254,-92 7,58 13,116 20,174 91,83 191,141 308,150 -103,11 -204,-12 -303,-105 8,85 17,170 25,255 78,101 181,176 346,184 -116,25 -244,2 -339,-95 6,80 11,159 17,239 117,126 243,212 462,206 -215,53 -333,-36 -453,-100 6,111 9,165 16,276 141,113 314,197 535,236 -190,6 -369,-20 -533,-162 4,151 7,274 12,424 160,219 373,341 660,332 -279,47 -491,-54 -660,-212 0,59 -1,77 0,135 2,138 69,206 155,292 44,45 99,78 149,117 -188,-108 -350,-123 -468,27 -29,-142 -163,-138 -359,-48 32,-28 63,-56 95,-85 75,-67 126,-151 134,-275 6,-89 14,-130 24,-219 -237,189 -471,230 -729,215 286,-28 541,-118 740,-314 12,-132 25,-265 37,-397 -156,169 -326,245 -516,192 177,21 350,-64 521,-251 8,-114 15,-200 23,-314 -110,143 -270,203 -448,200 175,-24 333,-101 455,-292 5,-83 8,-145 13,-228 -97,88 -225,147 -369,164 132,-46 261,-108 373,-234 5,-111 9,-222 14,-333 -106,124 -239,147 -372,165 139,-27 269,-86 375,-238 1,-34 2,-68 3,-102 -96,75 -160,56 -228,51 79,-6 156,-23 230,-103 1,-62 3,-124 4,-185 z" class="fil5" inkscape:connector-curvature="0" style="fill:#585835"/><path id="path102" d="m 2023,2706 c 49,237 91,521 124,761 102,-36 170,-162 245,-237 -54,133 -109,264 -227,356 22,186 40,373 53,561 160,-8 285,-118 387,-290 -36,209 -150,377 -375,487 8,144 13,289 16,434 197,24 312,-107 394,-304 -18,232 -146,424 -390,569 0,140 -1,280 -5,420 212,14 386,-91 534,-280 -71,292 -244,464 -541,489 -4,101 -9,203 -14,304 -11,198 63,372 211,503 35,30 69,61 104,91 -250,-132 -431,-336 -502,82 -83,-433 -232,-263 -545,-129 46,-31 91,-61 137,-92 149,-100 240,-243 268,-421 11,-70 21,-139 31,-209 -344,-75 -547,-304 -635,-658 142,264 344,449 660,481 37,-279 67,-559 89,-839 -321,-56 -443,-295 -462,-629 91,273 236,435 478,395 20,-328 27,-657 20,-986 -220,-65 -311,-222 -371,-400 81,135 176,256 368,278 -8,-245 -24,-491 -50,-737 z" class="fil6" inkscape:connector-curvature="0" style="fill:#434330"/><path id="path104" d="m 6180,2663 c 49,237 91,521 124,761 102,-36 170,-162 245,-237 -54,133 -109,264 -227,356 22,186 40,373 53,561 160,-7 285,-118 387,-290 -36,209 -150,377 -375,487 8,144 13,289 16,434 197,24 312,-107 394,-304 -18,232 -146,424 -390,569 0,140 -1,280 -5,420 212,14 386,-91 534,-280 -71,292 -244,464 -541,489 -4,101 -8,203 -14,304 -11,198 63,372 211,503 35,30 69,61 104,91 -250,-132 -431,-336 -502,82 -83,-433 -232,-263 -545,-129 46,-31 91,-61 137,-92 149,-100 240,-243 268,-421 11,-70 21,-139 31,-209 -344,-75 -547,-304 -635,-658 142,264 344,449 660,481 37,-279 67,-559 89,-839 -321,-56 -443,-295 -462,-629 91,273 236,435 478,395 20,-328 27,-657 20,-986 -220,-66 -311,-222 -371,-400 81,135 176,256 368,278 -8,-245 -24,-491 -50,-737 z" class="fil6" inkscape:connector-curvature="0" style="fill:#434330"/></g></g></g></svg>