<svg id="svg" version="1.1" xmlns="http://www.w3.org/2000/svg" xmlns:xlink="http://www.w3.org/1999/xlink" width="400" height="400" viewBox="0, 0, 400,400"><g id="svgg"><path id="path0" d="M112.292 157.651 C 94.742 175.223,80.297 189.600,80.192 189.600 C 80.086 189.600,80.000 188.880,80.000 188.000 C 80.000 187.120,79.820 186.400,79.600 186.400 C 79.380 186.400,79.200 185.770,79.200 185.000 C 79.200 184.230,79.020 183.600,78.800 183.600 C 78.580 183.600,78.400 183.150,78.400 182.600 C 78.400 182.050,78.220 181.600,78.000 181.600 C 77.780 181.600,77.600 181.366,77.600 181.080 C 77.600 180.344,76.659 178.407,76.300 178.403 C 76.135 178.401,76.000 178.040,76.000 177.600 C 76.000 177.160,75.832 176.800,75.627 176.800 C 75.422 176.800,75.128 176.403,74.974 175.918 C 74.820 175.432,74.036 174.397,73.233 173.618 C 72.429 172.838,71.262 171.525,70.638 170.700 C 70.015 169.875,69.345 169.200,69.149 169.200 C 68.953 169.200,68.228 168.660,67.537 168.000 C 66.846 167.340,66.121 166.800,65.924 166.800 C 65.727 166.800,65.180 166.440,64.708 166.000 C 64.236 165.560,63.433 165.200,62.925 165.200 C 62.416 165.200,62.000 165.020,62.000 164.800 C 62.000 164.580,61.640 164.400,61.200 164.400 C 60.760 164.400,60.400 164.220,60.400 164.000 C 60.400 163.780,60.040 163.600,59.600 163.600 C 59.160 163.600,58.800 163.420,58.800 163.200 C 58.800 162.980,58.181 162.800,57.424 162.800 C 56.667 162.800,55.936 162.620,55.800 162.400 C 55.664 162.180,54.879 162.000,54.056 162.000 C 53.233 162.000,52.368 161.808,52.134 161.574 C 51.407 160.847,39.492 161.610,38.620 162.439 C 38.411 162.637,37.646 162.800,36.920 162.800 C 36.194 162.800,35.600 162.980,35.600 163.200 C 35.600 163.420,35.240 163.600,34.800 163.600 C 34.360 163.600,34.000 163.780,34.000 164.000 C 34.000 164.220,33.657 164.400,33.238 164.400 C 32.331 164.400,29.200 166.008,29.200 166.474 C 29.200 166.653,28.957 166.800,28.659 166.800 C 28.362 166.800,27.554 167.340,26.863 168.000 C 26.172 168.660,25.510 169.200,25.390 169.200 C 24.978 169.200,22.400 171.975,22.400 172.418 C 22.400 172.663,21.680 173.554,20.800 174.400 C 19.920 175.246,19.200 176.131,19.200 176.369 C 19.200 176.606,19.020 176.800,18.800 176.800 C 18.580 176.800,18.400 177.160,18.400 177.600 C 18.400 178.040,18.253 178.400,18.074 178.400 C 17.608 178.400,16.000 181.531,16.000 182.438 C 16.000 182.857,15.820 183.200,15.600 183.200 C 15.380 183.200,15.200 183.740,15.200 184.400 C 15.200 185.060,15.037 185.600,14.837 185.600 C 14.050 185.600,13.232 200.192,13.977 200.937 C 14.210 201.170,14.400 201.864,14.400 202.480 C 14.400 203.096,14.580 203.600,14.800 203.600 C 15.020 203.600,15.200 204.219,15.200 204.976 C 15.200 205.733,15.380 206.464,15.600 206.600 C 15.820 206.736,16.000 207.197,16.000 207.624 C 16.000 208.051,16.180 208.400,16.400 208.400 C 16.620 208.400,16.800 208.670,16.800 209.000 C 16.800 209.330,16.980 209.600,17.200 209.600 C 17.420 209.600,17.600 209.960,17.600 210.400 C 17.600 210.840,17.780 211.200,18.000 211.200 C 18.220 211.200,18.400 211.560,18.400 212.000 C 18.400 212.440,18.580 212.800,18.800 212.800 C 19.020 212.800,19.200 213.084,19.200 213.431 C 19.200 213.779,19.920 214.754,20.800 215.600 C 21.680 216.446,22.400 217.340,22.400 217.587 C 22.400 218.110,24.204 220.000,24.703 220.000 C 24.890 220.000,25.663 220.644,26.422 221.431 C 27.180 222.217,28.554 223.207,29.476 223.630 C 30.397 224.052,31.263 224.578,31.399 224.799 C 31.536 225.020,32.177 225.200,32.824 225.200 C 33.471 225.200,34.000 225.380,34.000 225.600 C 34.000 225.820,34.360 226.000,34.800 226.000 C 35.240 226.000,35.600 226.180,35.600 226.400 C 35.600 226.620,36.140 226.800,36.800 226.800 C 37.460 226.800,38.000 226.980,38.000 227.200 C 38.000 227.420,38.900 227.600,40.000 227.600 C 41.100 227.600,42.000 227.687,42.000 227.793 C 42.000 227.899,32.550 237.431,21.000 248.975 L 0.000 269.965 0.000 273.758 L 0.000 277.551 4.786 282.476 C 7.418 285.184,10.253 288.078,11.086 288.907 C 11.919 289.736,15.390 293.183,18.800 296.567 C 22.210 299.951,25.926 303.683,27.058 304.860 C 28.190 306.037,31.034 308.844,33.377 311.099 L 37.639 315.197 40.558 315.273 C 43.600 315.351,46.400 313.693,46.400 311.813 C 46.400 311.476,46.580 311.200,46.800 311.200 C 47.020 311.200,47.200 310.840,47.200 310.400 C 47.200 309.960,47.380 309.600,47.600 309.600 C 47.820 309.600,48.000 309.330,48.000 309.000 C 48.000 308.670,48.180 308.400,48.400 308.400 C 48.620 308.400,48.800 308.175,48.800 307.900 C 48.801 307.625,49.206 306.920,49.700 306.334 C 51.735 303.922,52.000 303.582,52.000 303.385 C 52.000 302.996,55.579 299.600,55.989 299.600 C 56.215 299.600,56.400 299.450,56.400 299.268 C 56.400 299.085,56.847 298.696,57.393 298.404 C 57.940 298.111,58.492 297.541,58.620 297.136 C 58.749 296.731,59.202 296.400,59.627 296.400 C 60.052 296.400,60.400 296.220,60.400 296.000 C 60.400 295.780,60.760 295.600,61.200 295.600 C 61.640 295.600,62.000 295.420,62.000 295.200 C 62.000 294.980,62.360 294.800,62.800 294.800 C 63.240 294.800,63.600 294.620,63.600 294.400 C 63.600 294.180,64.140 294.000,64.800 294.000 C 65.460 294.000,66.000 293.820,66.000 293.600 C 66.000 293.380,66.540 293.200,67.200 293.200 C 67.860 293.200,68.400 293.020,68.400 292.800 C 68.400 292.580,69.199 292.400,70.176 292.400 C 71.153 292.400,72.064 292.220,72.200 292.000 C 72.336 291.779,74.130 291.600,76.200 291.600 C 78.270 291.600,80.064 291.779,80.200 292.000 C 80.336 292.220,81.247 292.400,82.224 292.400 C 83.201 292.400,84.000 292.580,84.000 292.800 C 84.000 293.020,84.540 293.200,85.200 293.200 C 85.860 293.200,86.400 293.380,86.400 293.600 C 86.400 293.820,86.940 294.000,87.600 294.000 C 88.260 294.000,88.800 294.180,88.800 294.400 C 88.800 294.620,89.160 294.800,89.600 294.800 C 90.040 294.800,90.400 294.980,90.400 295.200 C 90.400 295.420,90.760 295.600,91.200 295.600 C 91.640 295.600,92.000 295.780,92.000 296.000 C 92.000 296.220,92.182 296.400,92.404 296.400 C 92.626 296.400,93.372 296.940,94.063 297.600 C 94.754 298.260,95.475 298.800,95.667 298.800 C 96.121 298.800,101.200 303.879,101.200 304.333 C 101.200 304.525,101.740 305.246,102.400 305.937 C 103.060 306.628,103.600 307.464,103.600 307.796 C 103.600 308.128,103.780 308.400,104.000 308.400 C 104.220 308.400,104.400 308.670,104.400 309.000 C 104.400 309.330,104.580 309.600,104.800 309.600 C 105.020 309.600,105.200 309.960,105.200 310.400 C 105.200 310.840,105.380 311.200,105.600 311.200 C 105.820 311.200,106.000 311.740,106.000 312.400 C 106.000 313.060,106.180 313.600,106.400 313.600 C 106.620 313.600,106.800 314.140,106.800 314.800 C 106.800 315.460,106.980 316.000,107.200 316.000 C 107.420 316.000,107.600 316.810,107.600 317.800 C 107.600 318.790,107.780 319.600,108.000 319.600 C 108.532 319.600,108.532 327.871,108.000 328.200 C 107.780 328.336,107.600 329.157,107.600 330.024 C 107.600 330.891,107.420 331.600,107.200 331.600 C 106.980 331.600,106.800 332.140,106.800 332.800 C 106.800 333.460,106.620 334.000,106.400 334.000 C 106.180 334.000,106.000 334.540,106.000 335.200 C 106.000 335.860,105.820 336.400,105.600 336.400 C 105.380 336.400,105.200 336.760,105.200 337.200 C 105.200 337.640,105.020 338.000,104.800 338.000 C 104.580 338.000,104.400 338.360,104.400 338.800 C 104.400 339.240,104.220 339.600,104.000 339.600 C 103.780 339.600,103.600 339.867,103.600 340.193 C 103.600 341.261,95.518 349.600,94.484 349.600 C 94.315 349.600,93.917 349.960,93.600 350.400 C 93.283 350.840,92.793 351.200,92.512 351.200 C 92.230 351.200,92.000 351.380,92.000 351.600 C 92.000 351.820,91.640 352.000,91.200 352.000 C 90.760 352.000,90.400 352.180,90.400 352.400 C 90.400 352.620,90.040 352.800,89.600 352.800 C 89.160 352.800,88.800 352.980,88.800 353.200 C 88.800 353.420,88.524 353.600,88.187 353.600 C 86.352 353.600,84.800 356.247,84.800 359.378 L 84.800 362.382 88.987 366.691 C 91.290 369.061,93.900 371.720,94.786 372.600 C 97.018 374.817,109.265 387.066,111.098 388.914 C 111.924 389.747,114.816 392.582,117.524 395.214 L 122.449 400.000 126.238 400.000 L 130.028 400.000 151.114 378.914 L 172.200 357.829 172.323 359.514 C 172.391 360.441,172.616 361.200,172.823 361.200 C 173.030 361.200,173.200 361.920,173.200 362.800 C 173.200 363.680,173.380 364.400,173.600 364.400 C 173.820 364.400,174.000 364.760,174.000 365.200 C 174.000 365.640,174.180 366.000,174.400 366.000 C 174.620 366.000,174.800 366.518,174.800 367.151 C 174.800 367.784,175.070 368.526,175.400 368.800 C 175.730 369.074,176.000 369.468,176.000 369.677 C 176.000 370.173,178.033 373.073,179.468 374.622 C 180.091 375.295,181.050 376.418,181.600 377.119 C 182.150 377.819,182.843 378.394,183.140 378.396 C 183.436 378.398,184.183 378.940,184.800 379.600 C 185.417 380.260,186.169 380.800,186.472 380.800 C 186.775 380.800,187.283 381.160,187.600 381.600 C 187.917 382.040,188.486 382.400,188.865 382.400 C 189.243 382.400,189.664 382.580,189.800 382.800 C 189.936 383.020,190.487 383.200,191.024 383.200 C 191.561 383.200,192.001 383.335,192.003 383.500 C 192.008 383.943,194.021 384.800,195.056 384.800 C 195.549 384.800,196.064 384.980,196.200 385.200 C 196.336 385.420,197.157 385.600,198.024 385.600 C 198.891 385.600,199.600 385.780,199.600 386.000 C 199.600 386.247,201.667 386.400,205.000 386.400 C 208.333 386.400,210.400 386.247,210.400 386.000 C 210.400 385.780,211.199 385.600,212.176 385.600 C 213.153 385.600,214.064 385.420,214.200 385.200 C 214.336 384.980,214.977 384.800,215.624 384.800 C 216.271 384.800,216.800 384.620,216.800 384.400 C 216.800 384.180,217.135 384.000,217.544 384.000 C 218.456 384.000,223.200 381.595,223.200 381.133 C 223.200 380.950,223.430 380.800,223.712 380.800 C 223.993 380.800,224.483 380.440,224.800 380.000 C 225.117 379.560,225.619 379.200,225.914 379.200 C 226.780 379.200,233.200 372.242,233.200 371.304 C 233.200 371.027,233.380 370.800,233.600 370.800 C 233.820 370.800,234.000 370.480,234.000 370.088 C 234.000 369.697,234.360 369.117,234.800 368.800 C 235.240 368.483,235.600 367.914,235.600 367.535 C 235.600 367.157,235.780 366.736,236.000 366.600 C 236.220 366.464,236.400 365.924,236.400 365.400 C 236.400 364.876,236.580 364.336,236.800 364.200 C 237.020 364.064,237.200 363.513,237.200 362.976 C 237.200 362.439,237.380 362.000,237.600 362.000 C 237.822 362.000,238.000 360.933,238.000 359.600 C 238.000 358.267,238.178 357.200,238.400 357.200 C 238.644 357.200,238.800 355.341,238.800 352.424 C 238.800 349.671,238.631 347.542,238.400 347.400 C 238.180 347.264,238.000 346.544,238.000 345.800 C 238.000 345.056,237.820 344.336,237.600 344.200 C 237.380 344.064,237.200 343.333,237.200 342.576 C 237.200 341.819,237.020 341.200,236.800 341.200 C 236.580 341.200,236.400 340.840,236.400 340.400 C 236.400 339.960,236.220 339.600,236.000 339.600 C 235.780 339.600,235.600 339.240,235.600 338.800 C 235.600 338.360,235.420 338.000,235.200 338.000 C 234.980 338.000,234.800 337.640,234.800 337.200 C 234.800 336.760,234.620 336.400,234.400 336.400 C 234.180 336.400,234.000 336.040,234.000 335.600 C 234.000 335.160,233.820 334.800,233.600 334.800 C 233.380 334.800,233.200 334.516,233.200 334.169 C 233.200 333.821,232.480 332.846,231.600 332.000 C 230.720 331.154,230.000 330.269,230.000 330.031 C 230.000 329.794,229.820 329.600,229.600 329.600 C 229.380 329.600,229.200 329.342,229.200 329.027 C 229.200 328.712,228.855 328.344,228.432 328.210 C 228.010 328.076,226.885 327.254,225.932 326.383 C 224.980 325.512,223.975 324.800,223.700 324.800 C 223.425 324.800,223.200 324.620,223.200 324.400 C 223.200 324.180,222.840 324.000,222.400 324.000 C 221.960 324.000,221.600 323.820,221.600 323.600 C 221.600 323.380,221.330 323.200,221.000 323.200 C 220.670 323.200,220.400 323.020,220.400 322.800 C 220.400 322.580,219.950 322.400,219.400 322.400 C 218.850 322.400,218.400 322.220,218.400 322.000 C 218.400 321.780,217.950 321.600,217.400 321.600 C 216.850 321.600,216.400 321.420,216.400 321.200 C 216.400 320.980,215.770 320.800,215.000 320.800 C 214.230 320.800,213.600 320.620,213.600 320.400 C 213.600 320.180,212.880 320.000,212.000 320.000 C 211.120 320.000,210.400 319.917,210.400 319.816 C 210.400 319.625,270.292 259.761,273.168 257.077 C 275.001 255.368,275.032 255.309,274.211 255.129 C 273.886 255.058,264.931 246.338,254.311 235.751 C 243.690 225.163,234.424 216.208,233.720 215.851 C 231.216 214.578,227.969 215.188,226.200 217.262 C 225.422 218.174,225.208 218.517,223.523 221.555 C 218.365 230.853,209.386 236.453,197.104 238.032 C 194.552 238.360,193.268 238.362,192.345 238.041 C 191.649 237.798,190.364 237.600,189.488 237.600 C 183.535 237.600,173.236 231.345,168.415 224.800 C 162.341 216.555,160.626 207.320,163.104 196.200 C 164.556 189.686,171.338 180.477,176.906 177.462 C 183.769 173.746,185.025 172.322,184.717 168.610 C 184.481 165.759,185.070 166.415,163.122 144.551 L 144.200 125.701 112.292 157.651 " stroke="none" fill="#fb5a5a" fill-rule="evenodd"></path><path id="path1" d="M251.183 18.792 L 232.400 37.584 232.400 40.605 C 232.400 43.754,233.947 46.400,235.787 46.400 C 236.124 46.400,236.400 46.580,236.400 46.800 C 236.400 47.020,236.760 47.200,237.200 47.200 C 237.640 47.200,238.000 47.380,238.000 47.600 C 238.000 47.820,238.360 48.000,238.800 48.000 C 239.240 48.000,239.600 48.180,239.600 48.400 C 239.600 48.620,239.876 48.800,240.213 48.800 C 240.551 48.800,241.439 49.385,242.188 50.100 C 242.936 50.815,244.727 52.480,246.167 53.800 C 247.607 55.120,248.789 56.361,248.793 56.557 C 248.797 56.753,249.340 57.429,250.000 58.060 C 250.660 58.691,251.200 59.475,251.200 59.803 C 251.200 60.132,251.380 60.400,251.600 60.400 C 251.820 60.400,252.000 60.760,252.000 61.200 C 252.000 61.640,252.180 62.000,252.400 62.000 C 252.620 62.000,252.800 62.360,252.800 62.800 C 252.800 63.240,252.980 63.600,253.200 63.600 C 253.420 63.600,253.600 64.039,253.600 64.576 C 253.600 65.113,253.780 65.664,254.000 65.800 C 254.220 65.936,254.400 66.577,254.400 67.224 C 254.400 67.871,254.580 68.400,254.800 68.400 C 255.020 68.400,255.200 69.120,255.200 70.000 C 255.200 70.880,255.380 71.600,255.600 71.600 C 255.843 71.600,256.000 73.400,256.000 76.200 C 256.000 79.000,255.843 80.800,255.600 80.800 C 255.380 80.800,255.200 81.520,255.200 82.400 C 255.200 83.280,255.020 84.000,254.800 84.000 C 254.580 84.000,254.400 84.529,254.400 85.176 C 254.400 85.823,254.220 86.464,254.000 86.600 C 253.780 86.736,253.600 87.287,253.600 87.824 C 253.600 88.361,253.420 88.800,253.200 88.800 C 252.980 88.800,252.800 89.160,252.800 89.600 C 252.800 90.040,252.620 90.400,252.400 90.400 C 252.180 90.400,252.000 90.760,252.000 91.200 C 252.000 91.640,251.820 92.000,251.600 92.000 C 251.380 92.000,251.200 92.190,251.200 92.422 C 251.200 92.654,250.661 93.419,250.002 94.122 C 249.343 94.825,248.803 95.538,248.802 95.707 C 248.800 96.072,243.726 101.200,243.368 101.200 C 243.232 101.200,242.617 101.740,242.000 102.400 C 241.383 103.060,240.591 103.600,240.240 103.600 C 239.888 103.600,239.600 103.780,239.600 104.000 C 239.600 104.220,239.240 104.400,238.800 104.400 C 238.360 104.400,238.000 104.580,238.000 104.800 C 238.000 105.020,237.640 105.200,237.200 105.200 C 236.760 105.200,236.400 105.380,236.400 105.600 C 236.400 105.820,235.860 106.000,235.200 106.000 C 234.540 106.000,234.000 106.180,234.000 106.400 C 234.000 106.620,233.460 106.800,232.800 106.800 C 232.140 106.800,231.600 106.980,231.600 107.200 C 231.600 107.420,230.790 107.600,229.800 107.600 C 228.810 107.600,228.000 107.780,228.000 108.000 C 228.000 108.240,226.400 108.400,224.000 108.400 C 221.600 108.400,220.000 108.240,220.000 108.000 C 220.000 107.780,219.100 107.600,218.000 107.600 C 216.900 107.600,216.000 107.420,216.000 107.200 C 216.000 106.980,215.460 106.800,214.800 106.800 C 214.140 106.800,213.600 106.620,213.600 106.400 C 213.600 106.180,213.060 106.000,212.400 106.000 C 211.740 106.000,211.200 105.820,211.200 105.600 C 211.200 105.380,210.840 105.200,210.400 105.200 C 209.960 105.200,209.600 105.020,209.600 104.800 C 209.600 104.580,209.330 104.400,209.000 104.400 C 208.670 104.400,208.400 104.220,208.400 104.000 C 208.400 103.780,208.168 103.600,207.884 103.600 C 207.600 103.600,206.572 102.880,205.600 102.000 C 204.628 101.120,203.685 100.400,203.505 100.400 C 203.065 100.400,199.600 96.913,199.600 96.470 C 199.600 96.277,199.060 95.554,198.400 94.863 C 197.740 94.172,197.200 93.465,197.200 93.292 C 197.200 93.119,196.840 92.717,196.400 92.400 C 195.960 92.083,195.600 91.503,195.600 91.112 C 195.600 90.720,195.420 90.400,195.200 90.400 C 194.980 90.400,194.800 90.040,194.800 89.600 C 194.800 89.160,194.620 88.800,194.400 88.800 C 194.180 88.800,194.000 88.524,194.000 88.187 C 194.000 87.434,191.429 84.800,190.693 84.800 C 190.400 84.800,189.964 84.604,189.725 84.365 C 189.412 84.052,189.215 84.052,189.022 84.365 C 188.874 84.604,187.946 84.800,186.960 84.800 L 185.167 84.800 176.761 93.202 C 171.854 98.106,168.469 101.788,168.629 102.047 C 168.790 102.307,164.036 107.361,157.154 114.246 L 145.404 126.001 164.888 145.501 C 178.312 158.935,184.563 165.463,184.986 166.487 C 186.475 170.094,184.988 173.737,181.239 175.664 C 180.668 175.958,180.110 176.289,180.000 176.399 C 179.757 176.643,178.177 177.557,176.757 178.275 C 172.667 180.342,165.348 189.854,164.291 194.475 C 164.175 194.984,163.777 196.480,163.406 197.800 C 161.732 203.767,162.777 213.174,165.784 219.204 C 172.904 233.477,188.621 240.504,203.815 236.207 C 208.689 234.828,212.030 233.015,216.354 229.400 C 218.352 227.730,222.253 222.777,223.559 220.252 C 225.238 217.005,226.060 216.106,228.217 215.151 C 229.835 214.436,230.440 214.424,233.600 215.051 C 234.247 215.179,241.553 222.192,254.301 234.921 L 274.003 254.592 285.756 242.844 C 292.778 235.825,297.690 231.209,297.960 231.375 C 298.229 231.542,302.679 227.373,309.007 221.027 C 321.017 208.981,320.000 209.779,320.000 212.400 C 320.000 213.500,320.180 214.400,320.400 214.400 C 320.620 214.400,320.800 214.940,320.800 215.600 C 320.800 216.260,320.980 216.800,321.200 216.800 C 321.420 216.800,321.600 217.160,321.600 217.600 C 321.600 218.040,321.780 218.400,322.000 218.400 C 322.220 218.400,322.400 218.816,322.400 219.325 C 322.400 219.833,322.721 220.598,323.113 221.025 C 323.505 221.451,324.124 222.430,324.488 223.200 C 324.852 223.970,325.783 225.289,326.558 226.132 C 327.333 226.974,328.076 228.009,328.210 228.432 C 328.344 228.854,328.712 229.200,329.027 229.200 C 329.342 229.200,329.600 229.380,329.600 229.600 C 329.600 229.820,329.780 230.000,330.000 230.000 C 330.219 230.000,331.141 230.720,332.048 231.600 C 332.955 232.480,333.945 233.200,334.248 233.200 C 334.552 233.200,334.800 233.380,334.800 233.600 C 334.800 233.820,335.160 234.000,335.600 234.000 C 336.040 234.000,336.400 234.180,336.400 234.400 C 336.400 234.620,336.760 234.800,337.200 234.800 C 337.640 234.800,338.000 234.980,338.000 235.200 C 338.000 235.420,338.360 235.600,338.800 235.600 C 339.240 235.600,339.600 235.780,339.600 236.000 C 339.600 236.220,339.949 236.400,340.376 236.400 C 340.803 236.400,341.264 236.580,341.400 236.800 C 341.536 237.020,342.166 237.200,342.800 237.200 C 343.434 237.200,344.064 237.380,344.200 237.600 C 344.336 237.820,345.211 238.000,346.144 238.000 C 347.077 238.000,348.032 238.192,348.268 238.428 C 348.957 239.117,360.554 238.352,361.380 237.563 C 361.589 237.363,362.174 237.200,362.680 237.200 C 363.186 237.200,363.600 237.020,363.600 236.800 C 363.600 236.580,364.140 236.400,364.800 236.400 C 365.460 236.400,366.000 236.220,366.000 236.000 C 366.000 235.780,366.234 235.600,366.520 235.600 C 367.256 235.600,369.193 234.659,369.197 234.300 C 369.199 234.135,369.560 234.000,370.000 234.000 C 370.440 234.000,370.800 233.850,370.800 233.668 C 370.800 233.485,371.295 233.080,371.900 232.768 C 373.031 232.184,374.552 230.731,375.588 229.244 C 375.912 228.780,376.420 228.400,376.717 228.400 C 377.381 228.400,378.400 227.425,378.400 226.789 C 378.400 226.532,378.940 225.817,379.600 225.200 C 380.260 224.583,380.800 223.881,380.800 223.640 C 380.800 223.398,380.980 223.200,381.200 223.200 C 381.420 223.200,381.600 222.930,381.600 222.600 C 381.600 222.270,381.780 222.000,382.000 222.000 C 382.220 222.000,382.400 221.550,382.400 221.000 C 382.400 220.450,382.580 220.000,382.800 220.000 C 383.020 220.000,383.200 219.640,383.200 219.200 C 383.200 218.760,383.380 218.400,383.600 218.400 C 383.820 218.400,384.000 218.040,384.000 217.600 C 384.000 217.160,384.180 216.800,384.400 216.800 C 384.620 216.800,384.800 216.080,384.800 215.200 C 384.800 214.320,384.980 213.600,385.200 213.600 C 385.420 213.600,385.600 212.700,385.600 211.600 C 385.600 210.500,385.780 209.600,386.000 209.600 C 386.243 209.600,386.400 207.800,386.400 205.000 C 386.400 202.200,386.243 200.400,386.000 200.400 C 385.780 200.400,385.600 199.500,385.600 198.400 C 385.600 197.300,385.420 196.400,385.200 196.400 C 384.980 196.400,384.800 195.858,384.800 195.195 C 384.800 194.130,384.208 192.577,383.583 192.000 C 383.464 191.890,383.112 190.990,382.800 190.000 C 382.489 189.010,381.911 187.909,381.517 187.553 C 381.123 187.197,380.800 186.684,380.800 186.414 C 380.800 186.143,380.260 185.417,379.600 184.800 C 378.940 184.183,378.398 183.436,378.396 183.140 C 378.394 182.843,377.899 182.209,377.296 181.730 C 376.693 181.252,375.570 180.289,374.800 179.592 C 373.065 178.019,370.184 176.000,369.677 176.000 C 369.468 176.000,369.074 175.730,368.800 175.400 C 368.526 175.070,367.784 174.800,367.151 174.800 C 366.518 174.800,366.000 174.620,366.000 174.400 C 366.000 174.180,365.640 174.000,365.200 174.000 C 364.760 174.000,364.400 173.820,364.400 173.600 C 364.400 173.380,363.860 173.200,363.200 173.200 C 362.540 173.200,362.000 173.020,362.000 172.800 C 362.000 172.580,361.190 172.400,360.200 172.400 C 359.210 172.400,358.400 172.227,358.400 172.015 C 358.400 171.804,367.760 162.271,379.200 150.831 L 400.000 130.031 400.000 126.240 L 400.000 122.449 395.214 117.524 C 392.582 114.816,389.698 111.880,388.805 111.000 C 387.912 110.120,384.219 106.430,380.597 102.800 C 371.502 93.682,371.780 93.959,364.400 86.696 L 357.801 80.200 359.500 80.077 C 360.435 80.009,361.200 79.784,361.200 79.577 C 361.200 79.370,361.819 79.200,362.576 79.200 C 363.333 79.200,364.064 79.020,364.200 78.800 C 364.336 78.580,364.797 78.400,365.224 78.400 C 365.651 78.400,366.000 78.220,366.000 78.000 C 366.000 77.780,366.450 77.600,367.000 77.600 C 367.550 77.600,368.000 77.420,368.000 77.200 C 368.000 76.980,368.270 76.800,368.600 76.800 C 368.930 76.800,369.200 76.620,369.200 76.400 C 369.200 76.180,369.560 76.000,370.000 76.000 C 370.440 76.000,370.800 75.823,370.800 75.608 C 370.800 75.392,371.236 75.106,371.768 74.972 C 372.300 74.839,373.454 73.980,374.332 73.065 C 375.210 72.149,376.484 70.975,377.164 70.455 C 377.844 69.935,378.400 69.349,378.400 69.151 C 378.400 68.954,378.940 68.228,379.600 67.537 C 380.260 66.846,380.800 66.104,380.800 65.888 C 380.800 65.671,381.130 65.203,381.533 64.847 C 381.935 64.491,382.515 63.345,382.820 62.300 C 383.125 61.255,383.515 60.400,383.687 60.400 C 383.859 60.400,384.000 60.040,384.000 59.600 C 384.000 59.160,384.180 58.800,384.400 58.800 C 384.620 58.800,384.800 58.170,384.800 57.400 C 384.800 56.630,384.980 56.000,385.200 56.000 C 385.420 56.000,385.600 55.291,385.600 54.424 C 385.600 53.557,385.780 52.736,386.000 52.600 C 386.233 52.456,386.400 50.196,386.400 47.176 C 386.400 43.992,386.246 42.000,386.000 42.000 C 385.780 42.000,385.600 41.100,385.600 40.000 C 385.600 38.900,385.420 38.000,385.200 38.000 C 384.980 38.000,384.800 37.460,384.800 36.800 C 384.800 36.140,384.620 35.600,384.400 35.600 C 384.180 35.600,384.000 35.245,384.000 34.812 C 384.000 34.379,383.640 33.383,383.200 32.600 C 382.760 31.817,382.400 30.951,382.400 30.676 C 382.400 30.401,382.040 29.917,381.600 29.600 C 381.160 29.283,380.800 28.743,380.800 28.400 C 380.800 28.057,380.440 27.517,380.000 27.200 C 379.560 26.883,379.200 26.479,379.200 26.303 C 379.200 25.929,374.937 21.600,374.569 21.600 C 374.433 21.600,373.817 21.060,373.200 20.400 C 372.583 19.740,371.791 19.200,371.440 19.200 C 371.088 19.200,370.800 19.020,370.800 18.800 C 370.800 18.580,370.530 18.400,370.200 18.400 C 369.870 18.400,369.600 18.220,369.600 18.000 C 369.600 17.780,369.330 17.600,369.000 17.600 C 368.670 17.600,368.400 17.420,368.400 17.200 C 368.400 16.980,368.040 16.800,367.600 16.800 C 367.160 16.800,366.800 16.620,366.800 16.400 C 366.800 16.180,366.260 16.000,365.600 16.000 C 364.940 16.000,364.400 15.820,364.400 15.600 C 364.400 15.380,363.860 15.200,363.200 15.200 C 362.540 15.200,362.000 15.020,362.000 14.800 C 362.000 14.580,361.111 14.400,360.024 14.400 C 358.937 14.400,357.936 14.220,357.800 14.000 C 357.471 13.468,346.929 13.468,346.600 14.000 C 346.464 14.220,345.823 14.400,345.176 14.400 C 344.529 14.400,344.000 14.580,344.000 14.800 C 344.000 15.020,343.370 15.200,342.600 15.200 C 341.830 15.200,341.200 15.380,341.200 15.600 C 341.200 15.820,340.840 16.000,340.400 16.000 C 339.960 16.000,339.600 16.180,339.600 16.400 C 339.600 16.620,339.240 16.800,338.800 16.800 C 338.360 16.800,338.000 16.980,338.000 17.200 C 338.000 17.420,337.640 17.600,337.200 17.600 C 336.760 17.600,336.400 17.780,336.400 18.000 C 336.400 18.220,336.040 18.400,335.600 18.400 C 335.160 18.400,334.800 18.580,334.800 18.800 C 334.800 19.020,334.516 19.200,334.169 19.200 C 333.821 19.200,332.876 19.875,332.069 20.700 C 331.261 21.525,330.135 22.439,329.568 22.731 C 329.000 23.024,328.244 23.744,327.887 24.331 C 327.530 24.919,326.689 25.975,326.019 26.678 C 325.349 27.381,324.800 28.236,324.800 28.578 C 324.800 28.920,324.620 29.200,324.400 29.200 C 324.180 29.200,324.000 29.478,324.000 29.817 C 324.000 30.156,323.640 30.820,323.200 31.292 C 322.760 31.764,322.400 32.567,322.400 33.075 C 322.400 33.584,322.220 34.000,322.000 34.000 C 321.780 34.000,321.600 34.349,321.600 34.776 C 321.600 35.203,321.420 35.664,321.200 35.800 C 320.980 35.936,320.800 36.476,320.800 37.000 C 320.800 37.524,320.620 38.064,320.400 38.200 C 320.180 38.336,320.000 39.247,320.000 40.224 C 320.000 42.592,320.388 42.861,313.193 35.500 C 309.699 31.925,306.134 28.302,305.271 27.449 C 303.486 25.685,291.178 13.381,288.902 11.086 C 288.076 10.253,285.184 7.418,282.476 4.786 L 277.551 0.000 273.758 0.000 L 269.966 0.000 251.183 18.792 " stroke="none" fill="#44c4f3" fill-rule="evenodd"></path><path id="path2" d="M285.933 243.200 C 279.625 249.542,274.556 254.823,274.667 254.934 C 274.868 255.135,298.000 232.213,298.000 231.812 C 298.000 231.164,296.390 232.684,285.933 243.200 " stroke="none" fill="#9a8ca4" fill-rule="evenodd"></path><path id="path3" d="M166.400 103.817 C 165.630 104.738,164.861 105.412,164.690 105.316 C 164.520 105.219,164.430 105.364,164.490 105.638 C 164.551 105.911,164.150 106.372,163.600 106.661 C 163.050 106.951,162.748 107.191,162.929 107.194 C 163.321 107.201,162.180 108.400,161.782 108.400 C 161.630 108.400,160.807 109.099,159.953 109.953 C 159.099 110.807,158.400 111.630,158.400 111.782 C 158.400 112.180,157.201 113.321,157.194 112.929 C 157.191 112.748,156.951 113.050,156.661 113.600 C 156.372 114.150,155.879 114.540,155.567 114.467 C 155.255 114.393,155.124 114.457,155.276 114.609 C 155.427 114.760,154.763 115.566,153.800 116.400 C 152.837 117.234,152.158 118.025,152.291 118.158 C 152.424 118.291,152.341 118.400,152.107 118.400 C 151.592 118.400,148.931 121.008,148.364 122.067 C 148.142 122.482,147.761 122.700,147.518 122.549 C 147.252 122.385,147.190 122.460,147.362 122.738 C 147.519 122.992,147.502 123.207,147.324 123.216 C 147.146 123.225,146.370 123.789,145.600 124.469 C 144.830 125.149,144.425 125.581,144.700 125.429 C 144.985 125.272,145.200 125.376,145.200 125.671 C 145.200 125.956,153.898 134.922,164.529 145.595 C 175.160 156.268,184.165 165.450,184.541 166.000 L 185.223 167.000 184.770 166.000 C 184.521 165.450,175.561 156.225,164.860 145.501 L 145.404 126.001 157.102 114.298 C 163.536 107.861,168.800 102.491,168.800 102.364 C 168.800 101.645,167.617 102.361,166.400 103.817 M185.309 169.200 C 185.309 170.190,185.387 170.595,185.482 170.100 C 185.578 169.605,185.578 168.795,185.482 168.300 C 185.387 167.805,185.309 168.210,185.309 169.200 M184.311 172.426 C 183.940 173.072,183.780 173.600,183.954 173.600 C 184.283 173.600,185.324 171.591,185.107 171.374 C 185.040 171.307,184.682 171.780,184.311 172.426 M177.400 177.600 C 176.740 178.037,176.380 178.392,176.600 178.388 C 177.001 178.382,179.176 176.823,178.800 176.812 C 178.690 176.808,178.060 177.163,177.400 177.600 M172.694 181.300 C 169.859 184.072,169.845 184.095,172.364 181.827 C 173.814 180.522,175.264 179.217,175.586 178.927 C 175.908 178.637,176.056 178.400,175.916 178.400 C 175.776 178.400,174.326 179.705,172.694 181.300 M167.536 187.300 C 167.008 188.015,166.142 189.500,165.610 190.600 C 165.079 191.700,164.579 192.735,164.498 192.900 C 164.418 193.065,164.440 193.200,164.547 193.200 C 164.654 193.200,165.240 192.165,165.849 190.900 C 166.458 189.635,167.393 188.015,167.926 187.300 C 168.459 186.585,168.805 186.000,168.695 186.000 C 168.585 186.000,168.063 186.585,167.536 187.300 M164.046 194.067 C 164.021 194.434,163.896 195.064,163.770 195.467 C 163.552 196.162,163.563 196.163,163.997 195.487 C 164.248 195.096,164.373 194.466,164.273 194.087 C 164.111 193.468,164.088 193.466,164.046 194.067 M163.050 197.650 C 162.717 199.317,163.040 199.640,163.400 198.000 C 163.552 197.309,163.593 196.659,163.491 196.558 C 163.389 196.456,163.191 196.947,163.050 197.650 M162.524 201.800 C 162.526 203.120,162.601 203.612,162.690 202.893 C 162.779 202.174,162.777 201.094,162.686 200.493 C 162.595 199.892,162.522 200.480,162.524 201.800 M162.528 208.400 C 162.528 209.830,162.601 210.415,162.689 209.700 C 162.778 208.985,162.778 207.815,162.689 207.100 C 162.601 206.385,162.528 206.970,162.528 208.400 M234.000 215.459 C 234.550 215.835,243.732 224.840,254.405 235.471 C 265.078 246.102,273.941 254.800,274.101 254.800 C 274.260 254.800,279.706 249.490,286.203 243.000 C 292.700 236.510,297.879 231.200,297.711 231.200 C 297.543 231.200,292.139 236.464,285.702 242.898 L 273.999 254.596 254.499 235.140 C 243.775 224.439,234.550 215.479,234.000 215.230 L 233.000 214.777 234.000 215.459 M224.895 217.823 C 224.403 218.574,224.000 219.323,224.000 219.487 C 224.000 219.651,224.466 219.100,225.036 218.262 C 225.605 217.424,226.008 216.675,225.931 216.598 C 225.854 216.520,225.388 217.072,224.895 217.823 M164.800 217.747 C 164.800 218.180,166.788 222.000,167.013 222.000 C 167.123 222.000,166.739 221.055,166.159 219.900 C 165.043 217.679,164.800 217.294,164.800 217.747 M221.902 223.134 C 221.534 223.758,220.010 225.558,218.516 227.134 C 215.899 229.895,215.317 230.726,217.006 229.287 C 218.136 228.324,222.800 222.721,222.800 222.326 C 222.800 221.774,222.599 221.955,221.902 223.134 M172.034 228.300 C 172.052 228.465,172.817 229.222,173.734 229.982 L 175.400 231.363 173.819 229.682 C 172.193 227.952,171.976 227.784,172.034 228.300 M213.600 231.649 C 212.206 232.871,212.205 232.872,213.488 232.019 C 214.196 231.548,214.882 230.991,215.012 230.781 C 215.397 230.157,215.077 230.354,213.600 231.649 M178.000 232.979 C 178.000 233.089,178.540 233.459,179.200 233.800 C 179.860 234.141,180.400 234.331,180.400 234.221 C 180.400 234.111,179.860 233.741,179.200 233.400 C 178.540 233.059,178.000 232.869,178.000 232.979 M190.305 237.483 C 190.802 237.579,191.522 237.575,191.905 237.475 C 192.287 237.375,191.880 237.296,191.000 237.301 C 190.120 237.305,189.807 237.387,190.305 237.483 M197.507 237.490 C 198.226 237.579,199.306 237.577,199.907 237.486 C 200.508 237.395,199.920 237.322,198.600 237.324 C 197.280 237.326,196.788 237.401,197.507 237.490 " stroke="none" fill="#8e94ae" fill-rule="evenodd"></path><path id="path4" d="M147.210 128.650 C 148.855 130.327,150.982 132.500,151.939 133.478 C 152.895 134.456,153.739 135.194,153.815 135.118 C 153.980 134.954,144.770 125.600,144.444 125.600 C 144.321 125.600,145.566 126.972,147.210 128.650 M154.433 135.767 C 154.525 135.858,158.046 139.413,162.257 143.667 C 166.469 147.920,171.059 152.478,172.457 153.795 C 173.856 155.113,170.411 151.558,164.803 145.895 C 159.195 140.233,154.530 135.600,154.436 135.600 C 154.343 135.600,154.342 135.675,154.433 135.767 M179.397 160.800 C 181.807 163.330,183.947 165.580,184.154 165.800 C 184.360 166.020,184.153 165.660,183.693 165.000 C 183.233 164.340,181.093 162.090,178.936 160.000 L 175.015 156.200 179.397 160.800 M184.600 168.998 C 184.600 170.385,184.735 171.438,184.900 171.337 C 185.285 171.100,185.281 167.546,184.894 166.937 C 184.732 166.683,184.600 167.610,184.600 168.998 M179.700 175.826 C 178.765 176.387,178.000 176.940,178.000 177.055 C 178.000 177.271,180.699 175.738,181.380 175.136 C 182.067 174.528,181.427 174.791,179.700 175.826 M173.951 179.631 L 172.200 181.262 174.100 179.746 C 175.145 178.913,176.000 178.179,176.000 178.115 C 176.000 177.807,175.563 178.130,173.951 179.631 M169.955 183.500 C 168.681 184.908,167.856 186.000,168.066 186.000 C 168.157 186.000,168.908 185.190,169.735 184.200 C 171.387 182.224,171.535 181.753,169.955 183.500 M161.840 203.900 C 161.711 204.945,161.754 206.430,161.935 207.200 C 162.196 208.310,162.268 207.918,162.280 205.300 C 162.297 201.545,162.178 201.166,161.840 203.900 M231.024 215.160 C 232.136 215.296,233.531 215.725,234.124 216.113 C 234.716 216.501,235.200 216.722,235.200 216.603 C 235.200 215.915,232.412 214.809,230.800 214.858 L 229.000 214.913 231.024 215.160 M226.175 216.900 L 225.000 218.200 226.398 217.000 C 227.167 216.340,227.872 215.755,227.965 215.700 C 228.057 215.645,227.957 215.600,227.742 215.600 C 227.526 215.600,226.821 216.185,226.175 216.900 M235.600 216.828 C 235.600 217.361,273.683 255.009,274.308 255.093 C 274.827 255.163,274.850 255.127,274.400 254.950 C 274.070 254.820,265.205 246.138,254.700 235.658 C 244.195 225.178,235.600 216.704,235.600 216.828 M166.360 221.800 C 166.847 222.680,167.784 224.030,168.444 224.800 C 169.158 225.633,168.888 225.066,167.778 223.400 C 165.570 220.086,165.148 219.610,166.360 221.800 M220.155 225.881 C 219.307 226.916,218.822 227.634,219.077 227.476 C 219.621 227.140,222.155 224.000,221.882 224.000 C 221.780 224.000,221.003 224.847,220.155 225.881 M170.800 227.800 C 171.546 228.570,172.247 229.200,172.357 229.200 C 172.467 229.200,171.946 228.570,171.200 227.800 C 170.454 227.030,169.753 226.400,169.643 226.400 C 169.533 226.400,170.054 227.030,170.800 227.800 M215.384 230.521 C 214.274 231.444,212.924 232.520,212.384 232.912 C 211.747 233.372,211.682 233.492,212.200 233.251 C 213.230 232.772,218.215 228.793,217.751 228.821 C 217.558 228.832,216.493 229.597,215.384 230.521 M173.200 229.725 C 173.200 229.794,173.785 230.379,174.500 231.025 L 175.800 232.200 174.625 230.900 C 173.530 229.688,173.200 229.416,173.200 229.725 M176.000 232.179 C 176.000 232.289,176.540 232.659,177.200 233.000 C 177.860 233.341,178.400 233.531,178.400 233.421 C 178.400 233.311,177.860 232.941,177.200 232.600 C 176.540 232.259,176.000 232.069,176.000 232.179 M204.400 236.400 C 203.867 236.745,203.867 236.788,204.400 236.788 C 204.730 236.788,205.270 236.613,205.600 236.400 C 206.133 236.055,206.133 236.012,205.600 236.012 C 205.270 236.012,204.730 236.187,204.400 236.400 M186.800 237.182 C 187.130 237.405,187.745 237.591,188.167 237.594 C 189.190 237.602,188.871 237.373,187.400 237.044 C 186.524 236.848,186.362 236.885,186.800 237.182 M192.592 238.131 C 193.161 238.320,194.704 238.305,196.103 238.096 L 198.600 237.722 195.088 237.757 C 192.602 237.782,191.873 237.891,192.592 238.131 " stroke="none" fill="#a48494" fill-rule="evenodd"></path></g></svg>