<svg id="svg" version="1.1" xmlns="http://www.w3.org/2000/svg" xmlns:xlink="http://www.w3.org/1999/xlink" width="400" height="400" viewBox="0, 0, 400,400"><g id="svgg"><path id="path0" d="M162.007 0.275 C 160.627 0.865,158.400 3.678,158.400 4.833 C 158.400 5.475,158.220 6.000,158.000 6.000 C 157.743 6.000,157.600 9.867,157.600 16.800 C 157.600 22.832,157.757 27.600,157.955 27.600 C 158.151 27.600,158.427 28.218,158.569 28.973 C 158.862 30.537,161.286 33.200,162.416 33.200 C 162.821 33.200,163.264 33.380,163.400 33.600 C 163.536 33.820,165.077 34.000,166.824 34.000 C 168.675 34.000,170.000 33.833,170.000 33.600 C 170.000 33.380,170.360 33.200,170.800 33.200 C 171.240 33.200,171.600 33.020,171.600 32.800 C 171.600 32.580,171.788 32.400,172.018 32.400 C 172.546 32.400,174.154 30.807,174.749 29.696 C 175.299 28.667,175.385 5.339,174.844 3.915 C 174.648 3.400,173.904 2.353,173.190 1.589 L 171.892 0.200 167.246 0.111 C 164.691 0.062,162.333 0.136,162.007 0.275 M98.200 17.200 C 98.064 17.420,97.423 17.600,96.776 17.600 C 96.129 17.600,95.600 17.736,95.600 17.902 C 95.600 18.069,95.078 18.436,94.439 18.719 C 91.270 20.121,89.996 30.317,92.731 32.396 C 92.879 32.508,93.374 33.320,93.830 34.200 C 94.906 36.273,95.749 37.749,96.001 38.000 C 96.111 38.110,96.471 38.740,96.801 39.400 C 97.130 40.060,97.715 40.949,98.100 41.375 C 98.485 41.802,98.800 42.387,98.800 42.675 C 98.800 42.964,98.980 43.200,99.200 43.200 C 99.420 43.200,99.600 43.560,99.600 44.000 C 99.600 44.440,99.780 44.800,100.000 44.800 C 100.220 44.800,100.400 45.025,100.400 45.300 C 100.401 46.075,102.216 48.000,102.947 48.000 C 103.306 48.000,103.600 48.180,103.600 48.400 C 103.600 48.620,103.960 48.800,104.400 48.800 C 104.840 48.800,105.200 48.980,105.200 49.200 C 105.200 49.435,106.600 49.600,108.600 49.600 C 110.600 49.600,112.000 49.435,112.000 49.200 C 112.000 48.980,112.276 48.800,112.613 48.800 C 113.755 48.800,116.800 45.167,116.800 43.805 C 116.800 43.472,116.980 43.200,117.200 43.200 C 117.426 43.200,117.600 42.067,117.600 40.600 C 117.600 39.133,117.426 38.000,117.200 38.000 C 116.980 38.000,116.800 37.766,116.800 37.480 C 116.800 36.744,115.859 34.807,115.500 34.803 C 115.335 34.801,115.200 34.440,115.200 34.000 C 115.200 33.560,115.020 33.200,114.800 33.200 C 114.580 33.200,114.400 32.922,114.400 32.583 C 114.400 32.244,114.040 31.580,113.600 31.108 C 113.160 30.636,112.800 30.013,112.800 29.725 C 112.800 29.436,112.620 29.200,112.400 29.200 C 112.180 29.200,112.000 28.840,112.000 28.400 C 112.000 27.960,111.820 27.600,111.600 27.600 C 111.380 27.600,111.200 27.412,111.200 27.183 C 111.200 26.954,110.840 26.380,110.400 25.908 C 109.960 25.436,109.600 24.813,109.600 24.525 C 109.600 24.236,109.442 24.000,109.250 24.000 C 109.058 24.000,108.800 23.505,108.678 22.900 C 108.414 21.594,105.781 18.400,104.969 18.400 C 104.656 18.400,104.400 18.220,104.400 18.000 C 104.400 17.780,103.871 17.600,103.224 17.600 C 102.577 17.600,101.936 17.420,101.800 17.200 C 101.664 16.980,100.854 16.800,100.000 16.800 C 99.146 16.800,98.336 16.980,98.200 17.200 M231.600 17.200 C 231.600 17.420,231.060 17.600,230.400 17.600 C 229.740 17.600,229.200 17.780,229.200 18.000 C 229.200 18.220,228.912 18.400,228.560 18.400 C 227.740 18.400,225.858 20.410,225.207 21.983 C 224.930 22.652,224.545 23.200,224.351 23.200 C 224.158 23.200,224.000 23.560,224.000 24.000 C 224.000 24.440,223.820 24.800,223.600 24.800 C 223.380 24.800,223.200 25.055,223.200 25.367 C 223.200 25.678,223.065 25.993,222.900 26.067 C 222.524 26.234,221.225 28.364,220.929 29.300 C 220.807 29.685,220.548 30.000,220.353 30.000 C 220.159 30.000,220.000 30.278,220.000 30.617 C 220.000 30.956,219.640 31.620,219.200 32.092 C 218.760 32.564,218.400 33.187,218.400 33.475 C 218.400 33.764,218.220 34.000,218.000 34.000 C 217.780 34.000,217.600 34.360,217.600 34.800 C 217.600 35.240,217.420 35.600,217.200 35.600 C 216.980 35.600,216.800 35.960,216.800 36.400 C 216.800 36.840,216.620 37.200,216.400 37.200 C 216.165 37.200,216.000 38.600,216.000 40.600 C 216.000 42.600,216.165 44.000,216.400 44.000 C 216.620 44.000,216.800 44.275,216.800 44.611 C 216.800 45.404,220.196 48.800,220.989 48.800 C 221.325 48.800,221.600 48.980,221.600 49.200 C 221.600 49.435,223.000 49.600,225.000 49.600 C 227.000 49.600,228.400 49.435,228.400 49.200 C 228.400 48.980,228.675 48.800,229.011 48.800 C 229.755 48.800,233.200 45.427,233.200 44.699 C 233.200 44.412,233.560 43.917,234.000 43.600 C 234.440 43.283,234.800 42.703,234.800 42.312 C 234.800 41.920,234.946 41.600,235.125 41.600 C 235.304 41.600,235.698 40.970,236.000 40.200 C 236.302 39.430,236.667 38.800,236.812 38.800 C 236.956 38.800,237.505 37.945,238.032 36.900 C 238.558 35.855,239.083 34.910,239.198 34.800 C 239.888 34.137,241.600 30.323,241.600 29.446 C 241.600 28.871,241.780 28.400,242.000 28.400 C 242.220 28.400,242.400 27.410,242.400 26.200 C 242.400 24.990,242.220 24.000,242.000 24.000 C 241.780 24.000,241.600 23.488,241.600 22.861 C 241.600 22.235,241.240 21.307,240.800 20.800 C 240.360 20.293,240.000 19.725,240.000 19.539 C 240.000 19.352,239.812 19.200,239.583 19.200 C 239.354 19.200,238.780 18.840,238.308 18.400 C 237.836 17.960,236.954 17.600,236.348 17.600 C 235.743 17.600,235.136 17.420,235.000 17.200 C 234.864 16.980,234.043 16.800,233.176 16.800 C 232.309 16.800,231.600 16.980,231.600 17.200 M154.400 49.989 C 154.400 50.225,153.377 50.400,152.000 50.400 C 150.667 50.400,149.600 50.578,149.600 50.800 C 149.600 51.020,148.700 51.200,147.600 51.200 C 146.500 51.200,145.600 51.380,145.600 51.600 C 145.600 51.820,144.981 52.000,144.224 52.000 C 143.467 52.000,142.736 52.180,142.600 52.400 C 142.464 52.620,141.733 52.800,140.976 52.800 C 140.219 52.800,139.600 52.980,139.600 53.200 C 139.600 53.420,139.060 53.600,138.400 53.600 C 137.740 53.600,137.200 53.780,137.200 54.000 C 137.200 54.220,136.660 54.400,136.000 54.400 C 135.340 54.400,134.800 54.580,134.800 54.800 C 134.800 55.020,134.361 55.200,133.824 55.200 C 133.287 55.200,132.736 55.380,132.600 55.600 C 132.464 55.820,132.003 56.000,131.576 56.000 C 131.149 56.000,130.800 56.180,130.800 56.400 C 130.800 56.620,130.440 56.800,130.000 56.800 C 129.560 56.800,129.200 56.980,129.200 57.200 C 129.200 57.420,128.750 57.600,128.200 57.600 C 127.650 57.600,127.200 57.780,127.200 58.000 C 127.200 58.220,126.924 58.400,126.587 58.400 C 125.819 58.400,121.847 60.379,121.667 60.851 C 121.593 61.043,121.188 61.200,120.767 61.200 C 120.345 61.200,120.000 61.380,120.000 61.600 C 120.000 61.820,119.722 62.000,119.383 62.000 C 119.044 62.000,118.380 62.360,117.908 62.800 C 117.436 63.240,116.813 63.600,116.525 63.600 C 116.236 63.600,116.000 63.780,116.000 64.000 C 116.000 64.220,115.757 64.400,115.459 64.400 C 115.162 64.400,114.354 64.940,113.663 65.600 C 112.972 66.260,112.252 66.800,112.063 66.800 C 111.874 66.800,111.154 67.340,110.463 68.000 C 109.772 68.660,109.104 69.200,108.978 69.200 C 108.851 69.200,107.871 70.100,106.800 71.200 C 105.729 72.300,104.688 73.200,104.488 73.200 C 103.867 73.200,94.000 83.421,94.000 84.065 C 94.000 84.269,93.550 84.886,93.000 85.436 C 92.450 85.986,92.000 86.671,92.000 86.959 C 92.000 87.246,91.460 88.046,90.800 88.737 C 90.140 89.428,89.600 90.264,89.600 90.596 C 89.600 90.928,89.420 91.200,89.200 91.200 C 88.980 91.200,88.800 91.388,88.800 91.617 C 88.800 91.846,88.440 92.420,88.000 92.892 C 87.560 93.364,87.200 93.987,87.200 94.275 C 87.200 94.564,87.020 94.800,86.800 94.800 C 86.580 94.800,86.400 95.160,86.400 95.600 C 86.400 96.040,86.248 96.400,86.063 96.400 C 85.877 96.400,85.292 97.255,84.763 98.300 C 84.233 99.345,83.665 100.260,83.500 100.333 C 83.335 100.407,83.200 100.801,83.200 101.210 C 83.200 101.618,83.020 102.064,82.800 102.200 C 82.580 102.336,82.400 102.887,82.400 103.424 C 82.400 103.961,82.220 104.400,82.000 104.400 C 81.780 104.400,81.600 104.760,81.600 105.200 C 81.600 105.640,81.420 106.000,81.200 106.000 C 80.980 106.000,80.800 106.279,80.800 106.619 C 80.800 106.960,80.440 107.984,80.000 108.894 C 79.560 109.805,79.200 110.866,79.200 111.252 C 79.200 111.637,79.020 112.064,78.800 112.200 C 78.580 112.336,78.400 112.876,78.400 113.400 C 78.400 113.924,78.220 114.464,78.000 114.600 C 77.780 114.736,77.600 115.467,77.600 116.224 C 77.600 116.981,77.420 117.600,77.200 117.600 C 76.980 117.600,76.800 118.309,76.800 119.176 C 76.800 120.043,76.643 120.850,76.452 120.968 C 76.260 121.086,75.990 122.042,75.852 123.092 C 75.714 124.141,75.436 126.080,75.234 127.400 C 74.740 130.632,74.727 152.341,75.217 155.600 C 75.432 157.030,75.795 159.190,76.024 160.400 C 76.253 161.610,76.541 163.276,76.663 164.103 C 76.785 164.929,77.045 165.705,77.242 165.826 C 77.439 165.948,77.600 166.566,77.600 167.200 C 77.600 167.834,77.780 168.464,78.000 168.600 C 78.220 168.736,78.400 169.276,78.400 169.800 C 78.400 170.324,78.580 170.864,78.800 171.000 C 79.020 171.136,79.200 171.676,79.200 172.200 C 79.200 172.724,79.380 173.264,79.600 173.400 C 79.820 173.536,80.000 173.997,80.000 174.424 C 80.000 174.851,80.180 175.200,80.400 175.200 C 80.620 175.200,80.800 175.740,80.800 176.400 C 80.800 177.060,80.980 177.600,81.200 177.600 C 81.420 177.600,81.600 177.960,81.600 178.400 C 81.600 178.840,81.780 179.200,82.000 179.200 C 82.220 179.200,82.400 179.560,82.400 180.000 C 82.400 180.440,82.580 180.800,82.800 180.800 C 83.020 180.800,83.200 181.160,83.200 181.600 C 83.200 182.040,83.380 182.400,83.600 182.400 C 83.820 182.400,84.000 182.760,84.000 183.200 C 84.000 183.640,84.180 184.000,84.400 184.000 C 84.620 184.000,84.800 184.360,84.800 184.800 C 84.800 185.240,84.980 185.600,85.200 185.600 C 85.420 185.600,85.600 185.960,85.600 186.400 C 85.600 186.840,85.746 187.200,85.925 187.200 C 86.104 187.200,86.498 187.830,86.800 188.600 C 87.102 189.370,87.496 190.000,87.675 190.000 C 87.854 190.000,88.000 190.270,88.000 190.600 C 88.000 190.930,88.180 191.200,88.400 191.200 C 88.620 191.200,88.800 191.430,88.800 191.712 C 88.800 191.993,89.160 192.483,89.600 192.800 C 90.040 193.117,90.400 193.631,90.400 193.941 C 90.400 194.252,90.733 194.797,91.141 195.153 C 91.548 195.509,92.197 196.412,92.582 197.159 C 92.967 197.906,93.713 198.950,94.241 199.477 C 94.768 200.005,95.200 200.590,95.200 200.778 C 95.200 200.966,96.906 202.802,98.990 204.860 C 108.208 213.956,108.130 213.912,108.539 210.333 C 108.852 207.593,109.411 204.625,109.994 202.600 C 110.248 201.720,110.557 200.550,110.682 200.000 C 110.806 199.450,111.031 198.820,111.182 198.600 C 111.332 198.380,111.708 197.390,112.017 196.400 C 112.548 194.697,114.365 190.948,116.378 187.400 C 121.261 178.797,131.438 169.505,140.728 165.167 L 143.656 163.800 143.349 161.600 C 142.868 158.147,142.976 148.487,143.530 145.400 C 143.806 143.860,144.135 142.013,144.260 141.296 C 144.386 140.579,144.649 139.894,144.844 139.773 C 145.040 139.652,145.200 139.124,145.200 138.600 C 145.200 138.076,145.380 137.536,145.600 137.400 C 145.820 137.264,146.000 136.847,146.000 136.474 C 146.000 135.507,149.811 127.864,151.502 125.439 C 154.824 120.676,159.527 115.758,163.200 113.210 C 163.970 112.676,164.690 112.132,164.800 112.001 C 164.910 111.871,165.720 111.337,166.600 110.815 C 176.903 104.699,186.671 102.302,197.460 103.239 L 202.044 103.637 206.922 98.662 C 214.854 90.572,229.856 80.400,233.856 80.400 C 235.327 80.400,234.815 78.715,232.787 76.880 C 231.643 75.846,229.562 73.875,228.161 72.500 C 226.761 71.125,225.446 70.000,225.241 70.000 C 225.035 70.000,224.807 69.858,224.733 69.685 C 224.660 69.512,223.796 68.747,222.814 67.985 C 221.832 67.223,220.673 66.285,220.238 65.900 C 219.804 65.515,219.213 65.200,218.925 65.200 C 218.636 65.200,218.400 65.050,218.400 64.868 C 218.400 64.685,217.905 64.280,217.300 63.968 C 216.695 63.656,216.110 63.311,216.000 63.201 C 215.606 62.805,213.387 61.546,212.700 61.329 C 212.315 61.207,212.000 60.948,212.000 60.753 C 212.000 60.559,211.640 60.400,211.200 60.400 C 210.760 60.400,210.400 60.220,210.400 60.000 C 210.400 59.780,210.040 59.600,209.600 59.600 C 209.160 59.600,208.800 59.428,208.800 59.218 C 208.800 59.008,208.170 58.718,207.400 58.574 C 206.630 58.429,206.000 58.151,206.000 57.955 C 206.000 57.760,205.640 57.600,205.200 57.600 C 204.760 57.600,204.400 57.420,204.400 57.200 C 204.400 56.980,204.040 56.800,203.600 56.800 C 203.160 56.800,202.800 56.620,202.800 56.400 C 202.800 56.180,202.260 56.000,201.600 56.000 C 200.940 56.000,200.400 55.820,200.400 55.600 C 200.400 55.380,200.051 55.200,199.624 55.200 C 199.197 55.200,198.736 55.020,198.600 54.800 C 198.464 54.580,197.924 54.400,197.400 54.400 C 196.876 54.400,196.336 54.220,196.200 54.000 C 196.064 53.780,195.524 53.600,195.000 53.600 C 194.476 53.600,193.936 53.420,193.800 53.200 C 193.664 52.980,192.933 52.800,192.176 52.800 C 191.419 52.800,190.800 52.620,190.800 52.400 C 190.800 52.180,190.181 52.000,189.424 52.000 C 188.667 52.000,187.936 51.820,187.800 51.600 C 187.664 51.380,186.753 51.200,185.776 51.200 C 184.799 51.200,184.000 51.035,184.000 50.834 C 184.000 50.236,179.313 49.948,166.500 49.757 C 158.361 49.636,154.400 49.712,154.400 49.989 M48.000 66.400 C 48.000 66.620,47.640 66.800,47.200 66.800 C 46.760 66.800,46.400 66.980,46.400 67.200 C 46.400 67.420,46.117 67.600,45.771 67.600 C 42.815 67.600,40.990 76.039,43.143 79.750 C 44.238 81.637,44.970 82.400,45.683 82.400 C 45.980 82.400,46.483 82.760,46.800 83.200 C 47.117 83.640,47.697 84.000,48.088 84.000 C 48.480 84.000,48.800 84.180,48.800 84.400 C 48.800 84.620,49.078 84.800,49.417 84.800 C 49.756 84.800,50.420 85.160,50.892 85.600 C 51.364 86.040,51.987 86.400,52.275 86.400 C 52.564 86.400,52.800 86.580,52.800 86.800 C 52.800 87.020,53.160 87.200,53.600 87.200 C 54.040 87.200,54.400 87.359,54.400 87.553 C 54.400 87.748,54.715 88.007,55.100 88.129 C 55.826 88.359,58.050 89.634,58.400 90.021 C 58.788 90.449,61.529 91.600,62.160 91.600 C 62.512 91.600,62.800 91.780,62.800 92.000 C 62.800 92.229,64.000 92.400,65.600 92.400 C 67.140 92.400,68.400 92.240,68.400 92.045 C 68.400 91.849,68.997 91.577,69.726 91.440 C 76.580 90.154,75.919 74.800,69.009 74.800 C 68.674 74.800,68.400 74.620,68.400 74.400 C 68.400 74.180,68.164 74.000,67.875 74.000 C 67.587 74.000,66.964 73.640,66.492 73.200 C 66.020 72.760,65.356 72.400,65.017 72.400 C 64.678 72.400,64.400 72.220,64.400 72.000 C 64.400 71.780,64.122 71.600,63.783 71.600 C 63.444 71.600,62.780 71.240,62.308 70.800 C 61.836 70.360,61.213 70.000,60.925 70.000 C 60.636 70.000,60.400 69.820,60.400 69.600 C 60.400 69.380,60.040 69.200,59.600 69.200 C 59.160 69.200,58.800 69.020,58.800 68.800 C 58.800 68.580,58.530 68.400,58.200 68.400 C 57.870 68.400,57.600 68.220,57.600 68.000 C 57.600 67.780,57.330 67.600,57.000 67.600 C 56.670 67.600,56.400 67.420,56.400 67.200 C 56.400 66.980,56.051 66.800,55.624 66.800 C 55.197 66.800,54.736 66.620,54.600 66.400 C 54.464 66.180,52.923 66.000,51.176 66.000 C 49.325 66.000,48.000 66.167,48.000 66.400 M30.800 132.800 C 30.800 133.020,30.372 133.200,29.848 133.200 C 28.745 133.200,25.767 135.908,25.185 137.441 C 23.585 141.647,25.807 149.600,28.582 149.600 C 28.922 149.600,29.200 149.780,29.200 150.000 C 29.200 150.258,33.543 150.400,41.428 150.400 L 53.656 150.400 55.428 149.181 C 56.403 148.510,57.200 147.803,57.200 147.609 C 57.200 147.416,57.508 146.949,57.884 146.573 C 58.871 145.586,59.145 139.013,58.268 137.367 C 57.338 135.620,55.791 134.000,55.053 134.000 C 54.694 134.000,54.400 133.820,54.400 133.600 C 54.400 133.380,54.051 133.200,53.624 133.200 C 53.197 133.200,52.736 133.020,52.600 132.800 C 52.445 132.549,48.329 132.400,41.576 132.400 C 34.659 132.400,30.800 132.543,30.800 132.800 M62.000 191.600 C 62.000 191.820,61.717 192.000,61.371 192.000 C 60.677 192.000,57.078 193.985,56.867 194.485 C 56.793 194.658,56.388 194.800,55.967 194.800 C 55.545 194.800,55.200 194.959,55.200 195.153 C 55.200 195.348,54.885 195.607,54.500 195.729 C 53.564 196.025,51.434 197.324,51.267 197.700 C 51.193 197.865,50.788 198.000,50.367 198.000 C 49.945 198.000,49.600 198.180,49.600 198.400 C 49.600 198.620,49.364 198.800,49.075 198.800 C 48.787 198.800,48.164 199.160,47.692 199.600 C 47.220 200.040,46.640 200.400,46.403 200.400 C 45.763 200.400,43.200 203.083,43.200 203.753 C 43.200 204.072,42.988 204.404,42.730 204.490 C 41.573 204.876,42.427 213.600,43.622 213.600 C 43.800 213.600,44.060 213.960,44.200 214.400 C 44.340 214.840,44.672 215.200,44.939 215.200 C 45.205 215.200,45.683 215.560,46.000 216.000 C 46.339 216.470,47.035 216.800,47.688 216.800 C 48.300 216.800,48.800 216.980,48.800 217.200 C 48.800 217.422,49.867 217.600,51.200 217.600 C 52.533 217.600,53.600 217.422,53.600 217.200 C 53.600 216.980,54.140 216.800,54.800 216.800 C 55.460 216.800,56.000 216.620,56.000 216.400 C 56.000 216.180,56.270 216.000,56.600 216.000 C 56.930 216.000,57.200 215.820,57.200 215.600 C 57.200 215.380,57.436 215.200,57.725 215.200 C 58.013 215.200,58.636 214.840,59.108 214.400 C 59.580 213.960,60.244 213.600,60.583 213.600 C 60.922 213.600,61.200 213.420,61.200 213.200 C 61.200 212.980,61.478 212.800,61.817 212.800 C 62.156 212.800,62.820 212.440,63.292 212.000 C 63.764 211.560,64.387 211.200,64.675 211.200 C 64.964 211.200,65.200 211.020,65.200 210.800 C 65.200 210.580,65.560 210.400,66.000 210.400 C 66.440 210.400,66.800 210.220,66.800 210.000 C 66.800 209.780,67.160 209.600,67.600 209.600 C 68.040 209.600,68.400 209.438,68.400 209.239 C 68.400 209.041,68.895 208.702,69.500 208.487 C 73.578 207.035,76.053 200.691,74.235 196.349 C 73.524 194.650,70.903 192.000,69.933 192.000 C 69.530 192.000,69.200 191.820,69.200 191.600 C 69.200 191.363,67.733 191.200,65.600 191.200 C 63.467 191.200,62.000 191.363,62.000 191.600 " stroke="none" fill="#fbcb34" fill-rule="evenodd"></path><path id="path1" d="M251.200 75.232 C 251.200 75.503,250.755 75.566,250.001 75.400 C 249.342 75.256,248.217 75.321,247.501 75.547 C 246.231 75.947,244.732 76.261,242.096 76.681 C 241.379 76.795,240.694 77.049,240.573 77.244 C 240.452 77.440,239.823 77.600,239.176 77.600 C 238.529 77.600,238.000 77.780,238.000 78.000 C 238.000 78.220,237.478 78.400,236.839 78.400 C 235.925 78.400,235.595 78.640,235.284 79.531 C 234.995 80.360,234.262 80.961,232.545 81.777 C 226.885 84.469,224.316 85.893,220.004 88.731 C 217.476 90.395,215.032 92.126,214.573 92.578 C 214.114 93.030,213.138 93.850,212.403 94.400 C 210.623 95.734,207.901 98.429,205.130 101.601 L 202.861 104.200 194.330 104.200 C 183.772 104.200,179.867 105.014,171.600 108.935 C 170.610 109.405,169.710 109.882,169.600 109.995 C 169.490 110.109,168.860 110.471,168.200 110.801 C 167.540 111.130,166.651 111.715,166.225 112.100 C 165.798 112.485,165.279 112.800,165.071 112.800 C 164.864 112.800,164.403 113.124,164.047 113.519 C 163.691 113.914,162.770 114.677,162.000 115.214 C 159.277 117.114,156.346 120.354,151.699 126.602 C 150.997 127.547,148.228 132.939,147.490 134.800 C 147.271 135.350,146.916 136.250,146.700 136.800 C 146.484 137.350,146.148 138.113,145.953 138.495 C 145.759 138.877,145.600 139.631,145.600 140.171 C 145.600 140.711,145.420 141.264,145.200 141.400 C 144.980 141.536,144.800 142.321,144.800 143.144 C 144.800 143.967,144.599 144.841,144.353 145.087 C 143.649 145.791,143.733 161.579,144.447 162.738 C 145.059 163.731,143.798 165.172,142.300 165.191 C 141.915 165.196,141.600 165.380,141.600 165.600 C 141.600 165.820,141.285 166.004,140.900 166.009 C 140.515 166.014,139.750 166.370,139.200 166.800 C 138.650 167.230,138.063 167.586,137.895 167.591 C 137.531 167.602,132.030 171.182,131.265 171.906 C 130.971 172.184,130.075 172.904,129.274 173.506 C 125.911 176.030,120.925 181.799,117.782 186.800 C 116.131 189.428,113.600 194.424,113.600 195.055 C 113.600 195.355,113.420 195.600,113.200 195.600 C 112.980 195.600,112.800 196.039,112.800 196.576 C 112.800 197.113,112.620 197.664,112.400 197.800 C 112.180 197.936,112.000 198.487,112.000 199.024 C 112.000 199.561,111.820 200.000,111.600 200.000 C 111.380 200.000,111.200 200.529,111.200 201.176 C 111.200 201.823,111.020 202.464,110.800 202.600 C 110.580 202.736,110.400 203.546,110.400 204.400 C 110.400 205.254,110.220 206.064,110.000 206.200 C 109.780 206.336,109.600 207.279,109.600 208.295 C 109.600 210.499,108.844 212.800,108.120 212.800 C 107.721 212.800,107.600 213.966,107.600 217.800 C 107.600 220.550,107.761 222.800,107.958 222.800 C 108.251 222.800,108.691 226.602,108.811 230.182 C 108.826 230.611,109.004 231.163,109.207 231.408 C 109.410 231.653,109.621 232.440,109.675 233.157 C 109.730 233.874,109.915 234.548,110.087 234.654 C 110.259 234.760,110.400 235.276,110.400 235.800 C 110.400 236.324,110.580 236.864,110.800 237.000 C 111.020 237.136,111.200 237.571,111.200 237.967 C 111.200 238.752,113.613 243.717,114.100 243.933 C 114.265 244.007,114.400 244.412,114.400 244.833 C 114.400 245.255,114.580 245.600,114.800 245.600 C 115.020 245.600,115.200 245.960,115.200 246.400 C 115.200 246.840,115.380 247.200,115.600 247.200 C 115.820 247.200,116.000 247.436,116.000 247.725 C 116.000 248.013,116.360 248.636,116.800 249.108 C 117.240 249.580,117.600 250.172,117.600 250.423 C 117.600 250.674,118.140 251.383,118.800 252.000 C 119.460 252.617,120.000 253.304,120.000 253.528 C 120.000 254.067,128.652 262.800,129.186 262.800 C 129.414 262.800,129.600 262.980,129.600 263.200 C 129.600 263.420,129.830 263.600,130.112 263.600 C 130.393 263.600,130.883 263.960,131.200 264.400 C 131.517 264.840,132.031 265.200,132.341 265.200 C 132.652 265.200,133.197 265.516,133.553 265.903 C 133.909 266.289,134.695 266.860,135.300 267.170 C 135.905 267.481,136.400 267.885,136.400 268.068 C 136.400 268.250,136.760 268.400,137.200 268.400 C 137.640 268.400,138.000 268.580,138.000 268.800 C 138.000 269.020,138.360 269.200,138.800 269.200 C 139.240 269.200,139.600 269.380,139.600 269.600 C 139.600 269.820,139.960 270.000,140.400 270.000 C 140.840 270.000,141.200 270.180,141.200 270.400 C 141.200 270.620,141.472 270.800,141.805 270.800 C 142.393 270.800,142.818 270.967,144.695 271.938 C 145.187 272.192,145.941 272.400,146.371 272.400 C 146.801 272.400,147.264 272.580,147.400 272.800 C 147.536 273.020,148.076 273.200,148.600 273.200 C 149.124 273.200,149.664 273.380,149.800 273.600 C 149.936 273.820,150.631 274.000,151.344 274.000 C 152.057 274.000,152.865 274.225,153.140 274.500 C 153.537 274.897,171.165 275.000,238.600 275.000 C 306.035 275.000,323.663 274.897,324.060 274.500 C 324.335 274.225,325.244 274.000,326.080 274.000 C 326.916 274.000,327.600 273.820,327.600 273.600 C 327.600 273.380,327.981 273.200,328.447 273.200 C 329.497 273.200,334.551 271.512,334.733 271.101 C 334.807 270.935,335.124 270.800,335.439 270.800 C 335.753 270.800,336.323 270.632,336.705 270.426 C 337.087 270.221,337.985 269.817,338.700 269.529 C 339.415 269.240,340.000 268.869,340.000 268.702 C 340.000 268.536,340.360 268.400,340.800 268.400 C 341.240 268.400,341.600 268.220,341.600 268.000 C 341.600 267.780,341.836 267.600,342.125 267.600 C 342.413 267.600,343.036 267.240,343.508 266.800 C 343.980 266.360,344.604 266.000,344.895 266.000 C 345.186 266.000,345.683 265.640,346.000 265.200 C 346.317 264.760,346.857 264.400,347.200 264.400 C 347.543 264.400,348.083 264.040,348.400 263.600 C 348.717 263.160,349.189 262.800,349.448 262.800 C 349.707 262.800,350.838 261.900,351.961 260.800 C 353.085 259.700,354.144 258.800,354.316 258.800 C 354.721 258.800,358.800 254.672,358.800 254.261 C 358.800 254.089,359.700 253.071,360.800 252.000 C 361.900 250.929,362.800 249.810,362.800 249.514 C 362.800 249.219,363.160 248.717,363.600 248.400 C 364.040 248.083,364.400 247.543,364.400 247.200 C 364.400 246.857,364.760 246.317,365.200 246.000 C 365.640 245.683,366.000 245.103,366.000 244.712 C 366.000 244.320,366.180 244.000,366.400 244.000 C 366.620 244.000,366.800 243.764,366.800 243.475 C 366.800 243.187,367.160 242.564,367.600 242.092 C 368.040 241.620,368.400 240.956,368.400 240.617 C 368.400 240.278,368.536 240.000,368.702 240.000 C 368.869 240.000,369.240 239.415,369.529 238.700 C 369.817 237.985,370.221 237.087,370.426 236.705 C 370.632 236.323,370.800 235.738,370.800 235.405 C 370.800 235.072,370.980 234.800,371.200 234.800 C 371.420 234.800,371.600 234.260,371.600 233.600 C 371.600 232.940,371.736 232.400,371.903 232.400 C 372.269 232.400,373.200 229.533,373.200 228.406 C 373.200 227.963,373.380 227.600,373.600 227.600 C 373.820 227.600,374.000 226.916,374.000 226.080 C 374.000 225.244,374.225 224.335,374.500 224.060 C 375.158 223.403,375.438 203.007,374.845 199.000 C 374.205 194.677,373.973 193.466,373.618 192.600 C 373.438 192.160,373.073 190.990,372.807 190.000 C 372.540 189.010,372.160 187.887,371.961 187.505 C 371.762 187.123,371.600 186.538,371.600 186.205 C 371.600 185.872,371.420 185.600,371.200 185.600 C 370.980 185.600,370.800 185.161,370.800 184.624 C 370.800 184.087,370.620 183.536,370.400 183.400 C 370.180 183.264,370.000 182.803,370.000 182.376 C 370.000 181.949,369.865 181.599,369.700 181.599 C 369.535 181.598,368.950 180.608,368.400 179.400 C 367.850 178.192,367.265 177.202,367.100 177.201 C 366.935 177.201,366.800 176.930,366.800 176.600 C 366.800 176.270,366.620 176.000,366.400 176.000 C 366.180 176.000,366.000 175.730,366.000 175.400 C 366.000 175.070,365.820 174.800,365.600 174.800 C 365.380 174.800,365.200 174.557,365.200 174.259 C 365.200 173.962,364.660 173.154,364.000 172.463 C 363.340 171.772,362.800 171.012,362.800 170.772 C 362.800 170.533,362.080 169.646,361.200 168.800 C 360.320 167.954,359.600 167.088,359.600 166.874 C 359.600 166.367,354.649 161.342,352.629 159.800 C 351.765 159.140,350.833 158.375,350.558 158.100 C 350.282 157.825,349.814 157.600,349.517 157.600 C 349.220 157.600,348.717 157.240,348.400 156.800 C 348.083 156.360,347.543 156.000,347.200 156.000 C 346.857 156.000,346.317 155.640,346.000 155.200 C 345.683 154.760,345.143 154.400,344.800 154.400 C 344.457 154.400,343.917 154.040,343.600 153.600 C 343.283 153.160,342.707 152.800,342.319 152.800 C 341.512 152.800,341.302 152.084,341.029 148.400 C 340.519 141.525,340.285 139.600,339.956 139.600 C 339.760 139.600,339.600 138.700,339.600 137.600 C 339.600 136.500,339.420 135.600,339.200 135.600 C 338.980 135.600,338.800 134.880,338.800 134.000 C 338.800 133.120,338.620 132.400,338.400 132.400 C 338.180 132.400,338.000 131.781,338.000 131.024 C 338.000 130.267,337.820 129.536,337.600 129.400 C 337.380 129.264,337.200 128.713,337.200 128.176 C 337.200 127.639,337.020 127.200,336.800 127.200 C 336.580 127.200,336.400 126.761,336.400 126.224 C 336.400 125.687,336.220 125.136,336.000 125.000 C 335.780 124.864,335.600 124.403,335.600 123.976 C 335.600 123.549,335.420 123.200,335.200 123.200 C 334.980 123.200,334.800 122.840,334.800 122.400 C 334.800 121.960,334.620 121.600,334.400 121.600 C 334.180 121.600,334.000 121.060,334.000 120.400 C 334.000 119.740,333.820 119.200,333.600 119.200 C 333.380 119.200,333.200 118.840,333.200 118.400 C 333.200 117.960,333.020 117.600,332.800 117.600 C 332.580 117.600,332.400 117.240,332.400 116.800 C 332.400 116.360,332.220 116.000,332.000 116.000 C 331.780 116.000,331.600 115.764,331.600 115.475 C 331.600 115.187,331.240 114.564,330.800 114.092 C 330.360 113.620,330.000 112.956,330.000 112.617 C 330.000 112.278,329.820 112.000,329.600 112.000 C 329.380 112.000,329.200 111.730,329.200 111.400 C 329.200 111.070,329.020 110.800,328.800 110.800 C 328.580 110.800,328.400 110.519,328.400 110.176 C 328.400 109.833,328.220 109.664,328.000 109.800 C 327.780 109.936,327.600 109.749,327.600 109.384 C 327.600 109.019,327.060 108.217,326.400 107.600 C 325.740 106.983,325.200 106.210,325.200 105.882 C 325.200 105.553,324.660 104.707,324.000 104.000 C 323.340 103.293,322.800 102.564,322.800 102.379 C 322.800 101.913,313.647 92.800,313.179 92.800 C 312.970 92.800,312.703 92.807,312.584 92.816 C 312.465 92.824,311.669 92.104,310.815 91.216 C 309.961 90.327,309.069 89.600,308.831 89.600 C 308.594 89.600,308.400 89.450,308.400 89.268 C 308.400 89.085,307.905 88.681,307.300 88.370 C 306.695 88.060,305.909 87.489,305.553 87.103 C 305.197 86.716,304.695 86.400,304.436 86.400 C 304.178 86.400,303.580 86.040,303.108 85.600 C 302.636 85.160,302.013 84.800,301.725 84.800 C 301.436 84.800,301.200 84.620,301.200 84.400 C 301.200 84.180,300.840 84.000,300.400 84.000 C 299.960 84.000,299.600 83.820,299.600 83.600 C 299.600 83.380,299.240 83.200,298.800 83.200 C 298.360 83.200,298.000 83.020,298.000 82.800 C 298.000 82.580,297.640 82.400,297.200 82.400 C 296.760 82.400,296.400 82.220,296.400 82.000 C 296.400 81.780,296.040 81.600,295.600 81.600 C 295.160 81.600,294.800 81.420,294.800 81.200 C 294.800 80.980,294.440 80.800,294.000 80.800 C 293.560 80.800,293.200 80.620,293.200 80.400 C 293.200 80.180,292.761 80.000,292.224 80.000 C 291.687 80.000,291.136 79.820,291.000 79.600 C 290.864 79.380,290.403 79.200,289.976 79.200 C 289.549 79.200,289.200 79.020,289.200 78.800 C 289.200 78.580,288.761 78.400,288.224 78.400 C 287.687 78.400,287.136 78.220,287.000 78.000 C 286.864 77.780,286.133 77.600,285.376 77.600 C 284.594 77.600,284.000 77.398,284.000 77.133 C 284.000 76.877,283.896 76.770,283.770 76.897 C 283.643 77.023,282.968 76.950,282.270 76.733 C 281.571 76.517,280.370 76.254,279.600 76.149 C 278.830 76.043,277.717 75.770,277.126 75.541 C 276.536 75.312,275.518 75.242,274.864 75.386 C 274.174 75.537,273.566 75.469,273.414 75.223 C 273.046 74.627,251.200 74.635,251.200 75.232 M71.000 291.724 C 70.560 291.986,70.068 292.380,69.906 292.600 C 69.744 292.820,69.609 292.880,69.606 292.733 C 69.593 292.172,66.800 295.217,66.800 295.793 C 66.800 296.127,66.620 296.400,66.400 296.400 C 66.165 296.400,66.000 297.792,66.000 299.776 C 66.000 301.633,66.180 303.264,66.400 303.400 C 66.620 303.536,66.800 303.921,66.800 304.255 C 66.800 305.015,69.815 307.949,71.097 308.437 C 72.439 308.947,110.218 308.902,112.069 308.388 C 113.737 307.924,116.000 305.997,116.000 305.040 C 116.000 304.688,116.180 304.400,116.400 304.400 C 116.620 304.400,116.800 304.051,116.800 303.624 C 116.800 303.197,116.980 302.736,117.200 302.600 C 117.420 302.464,117.600 301.294,117.600 300.000 C 117.600 298.706,117.420 297.536,117.200 297.400 C 116.980 297.264,116.800 296.803,116.800 296.376 C 116.800 295.949,116.620 295.600,116.400 295.600 C 116.180 295.600,116.000 295.309,116.000 294.953 C 116.000 294.132,113.628 292.015,112.700 292.006 C 112.315 292.003,112.000 291.820,112.000 291.600 C 112.000 290.985,72.039 291.105,71.000 291.724 M138.000 291.600 C 138.000 291.820,137.685 292.003,137.300 292.006 C 136.372 292.015,134.000 294.132,134.000 294.953 C 134.000 295.309,133.820 295.600,133.600 295.600 C 133.380 295.600,133.200 296.050,133.200 296.600 C 133.200 297.150,133.020 297.600,132.800 297.600 C 132.578 297.600,132.400 298.659,132.400 299.976 C 132.400 301.283,132.580 302.464,132.800 302.600 C 133.020 302.736,133.200 303.197,133.200 303.624 C 133.200 304.051,133.380 304.400,133.600 304.400 C 133.820 304.400,134.000 304.683,134.000 305.029 C 134.000 305.783,134.601 306.417,136.604 307.777 L 138.112 308.800 251.656 308.800 C 327.085 308.800,365.200 308.934,365.200 309.200 C 365.200 309.420,365.920 309.600,366.800 309.600 C 367.680 309.600,368.400 309.780,368.400 310.000 C 368.400 310.220,368.743 310.400,369.162 310.400 C 370.069 310.400,373.200 312.008,373.200 312.474 C 373.200 312.653,373.560 312.800,374.000 312.800 C 374.440 312.800,374.800 312.948,374.800 313.128 C 374.800 313.309,375.565 314.261,376.500 315.243 C 377.435 316.225,378.455 317.517,378.768 318.114 C 379.080 318.711,379.485 319.200,379.668 319.200 C 379.850 319.200,380.000 319.560,380.000 320.000 C 380.000 320.440,380.180 320.800,380.400 320.800 C 380.620 320.800,380.800 321.160,380.800 321.600 C 380.800 322.040,380.980 322.400,381.200 322.400 C 381.420 322.400,381.600 323.030,381.600 323.800 C 381.600 324.570,381.780 325.200,382.000 325.200 C 382.240 325.200,382.400 326.800,382.400 329.200 C 382.400 331.600,382.240 333.200,382.000 333.200 C 381.780 333.200,381.600 333.740,381.600 334.400 C 381.600 335.060,381.420 335.600,381.200 335.600 C 380.980 335.600,380.800 336.140,380.800 336.800 C 380.800 337.460,380.620 338.000,380.400 338.000 C 380.180 338.000,379.997 338.225,379.993 338.500 C 379.973 339.851,373.525 346.400,372.214 346.400 C 371.876 346.400,371.600 346.580,371.600 346.800 C 371.600 347.020,371.240 347.200,370.800 347.200 C 370.360 347.200,370.000 347.380,370.000 347.600 C 370.000 347.820,369.460 348.000,368.800 348.000 C 368.140 348.000,367.600 348.180,367.600 348.400 C 367.600 348.642,365.867 348.800,363.200 348.800 C 360.533 348.800,358.800 348.642,358.800 348.400 C 358.800 348.180,358.440 348.000,358.000 348.000 C 357.560 348.000,357.200 347.820,357.200 347.600 C 357.200 347.380,356.996 347.200,356.747 347.200 C 356.158 347.200,352.800 343.842,352.800 343.253 C 352.800 343.004,352.620 342.800,352.400 342.800 C 352.180 342.800,352.000 342.440,352.000 342.000 C 352.000 341.560,351.820 341.200,351.600 341.200 C 351.380 341.200,351.200 340.401,351.200 339.424 C 351.200 338.447,351.020 337.536,350.800 337.400 C 350.577 337.262,350.400 335.396,350.400 333.176 C 350.400 330.792,350.240 329.200,350.000 329.200 C 349.780 329.200,349.600 328.922,349.600 328.582 C 349.600 325.826,341.652 323.583,337.491 325.166 C 335.997 325.733,333.200 328.796,333.200 329.864 C 333.200 330.379,333.020 330.800,332.800 330.800 C 332.553 330.800,332.400 332.867,332.400 336.200 C 332.400 339.533,332.553 341.600,332.800 341.600 C 333.020 341.600,333.200 342.500,333.200 343.600 C 333.200 344.700,333.380 345.600,333.600 345.600 C 333.820 345.600,334.000 346.140,334.000 346.800 C 334.000 347.460,334.180 348.000,334.400 348.000 C 334.620 348.000,334.800 348.540,334.800 349.200 C 334.800 349.860,334.980 350.400,335.200 350.400 C 335.420 350.400,335.600 350.678,335.600 351.017 C 335.600 351.356,335.960 352.020,336.400 352.492 C 336.840 352.964,337.200 353.587,337.200 353.875 C 337.200 354.164,337.341 354.400,337.514 354.400 C 337.686 354.400,338.149 354.945,338.543 355.611 C 339.374 357.018,341.077 358.800,341.591 358.800 C 341.786 358.800,342.047 359.116,342.169 359.503 C 342.292 359.890,343.114 360.653,343.996 361.198 C 344.878 361.743,345.600 362.326,345.600 362.494 C 345.600 362.662,345.836 362.800,346.125 362.800 C 346.413 362.800,347.036 363.160,347.508 363.600 C 347.980 364.040,348.633 364.400,348.960 364.400 C 349.286 364.400,349.664 364.580,349.800 364.800 C 349.936 365.020,350.487 365.200,351.024 365.200 C 351.561 365.200,352.000 365.380,352.000 365.600 C 352.000 365.820,352.540 366.000,353.200 366.000 C 353.860 366.000,354.400 366.180,354.400 366.400 C 354.400 366.620,355.300 366.800,356.400 366.800 C 357.500 366.800,358.400 366.980,358.400 367.200 C 358.400 367.442,360.125 367.600,362.776 367.600 C 365.263 367.600,367.260 367.427,367.400 367.200 C 367.536 366.980,368.537 366.800,369.624 366.800 C 370.711 366.800,371.600 366.620,371.600 366.400 C 371.600 366.180,372.219 366.000,372.976 366.000 C 373.733 366.000,374.464 365.820,374.600 365.600 C 374.736 365.380,375.287 365.200,375.824 365.200 C 376.361 365.200,376.800 365.020,376.800 364.800 C 376.800 364.580,377.160 364.400,377.600 364.400 C 378.040 364.400,378.400 364.220,378.400 364.000 C 378.400 363.780,378.760 363.600,379.200 363.600 C 379.640 363.600,380.000 363.420,380.000 363.200 C 380.000 362.980,380.360 362.800,380.800 362.800 C 381.240 362.800,381.600 362.620,381.600 362.400 C 381.600 362.180,381.920 362.000,382.312 362.000 C 382.703 362.000,383.283 361.640,383.600 361.200 C 383.917 360.760,384.413 360.400,384.703 360.400 C 385.274 360.400,386.121 359.692,389.314 356.541 C 392.178 353.715,394.000 351.527,394.000 350.914 C 394.000 350.631,394.180 350.400,394.400 350.400 C 394.620 350.400,394.800 350.080,394.800 349.688 C 394.800 349.297,395.160 348.717,395.600 348.400 C 396.040 348.083,396.400 347.503,396.400 347.112 C 396.400 346.720,396.580 346.400,396.800 346.400 C 397.020 346.400,397.200 346.040,397.200 345.600 C 397.200 345.160,397.380 344.800,397.600 344.800 C 397.820 344.800,398.000 344.260,398.000 343.600 C 398.000 342.940,398.180 342.400,398.400 342.400 C 398.620 342.400,398.800 341.986,398.800 341.480 C 398.800 340.974,399.025 340.335,399.300 340.060 C 399.675 339.685,399.800 336.915,399.800 329.000 C 399.800 321.085,399.675 318.315,399.300 317.940 C 399.025 317.665,398.800 317.037,398.800 316.544 C 398.800 316.051,398.620 315.536,398.400 315.400 C 398.180 315.264,398.000 314.803,398.000 314.376 C 398.000 313.949,397.820 313.600,397.600 313.600 C 397.380 313.600,397.200 313.240,397.200 312.800 C 397.200 312.360,397.020 312.000,396.800 312.000 C 396.580 312.000,396.400 311.640,396.400 311.200 C 396.400 310.760,396.220 310.400,396.000 310.400 C 395.780 310.400,395.600 310.170,395.600 309.888 C 395.600 309.607,395.240 309.117,394.800 308.800 C 394.360 308.483,394.000 307.943,394.000 307.600 C 394.000 307.257,393.640 306.717,393.200 306.400 C 392.760 306.083,392.400 305.588,392.400 305.301 C 392.400 304.480,387.864 299.600,387.101 299.600 C 386.892 299.600,386.217 299.060,385.600 298.400 C 384.983 297.740,384.274 297.200,384.023 297.200 C 383.772 297.200,383.180 296.840,382.708 296.400 C 382.236 295.960,381.613 295.600,381.325 295.600 C 381.036 295.600,380.800 295.420,380.800 295.200 C 380.800 294.980,380.440 294.800,380.000 294.800 C 379.560 294.800,379.200 294.643,379.200 294.450 C 379.200 294.257,378.646 293.989,377.968 293.854 C 377.291 293.718,376.166 293.352,375.468 293.040 C 371.174 291.119,376.547 291.200,253.151 291.200 C 176.650 291.200,138.000 291.334,138.000 291.600 M37.142 325.357 C 35.511 326.208,33.200 328.862,33.200 329.883 C 33.200 330.388,33.020 330.800,32.800 330.800 C 32.578 330.800,32.400 331.867,32.400 333.200 C 32.400 334.533,32.578 335.600,32.800 335.600 C 33.020 335.600,33.200 336.140,33.200 336.800 C 33.200 337.460,33.380 338.000,33.600 338.000 C 33.820 338.000,34.000 338.206,34.000 338.457 C 34.000 339.216,36.293 341.161,37.484 341.413 C 38.098 341.542,38.913 341.817,39.295 342.024 C 39.717 342.252,58.281 342.400,86.595 342.400 C 117.398 342.400,133.200 342.536,133.200 342.800 C 133.200 343.020,133.740 343.200,134.400 343.200 C 135.060 343.200,135.600 343.380,135.600 343.600 C 135.600 343.820,136.140 344.000,136.800 344.000 C 137.460 344.000,138.000 344.150,138.000 344.332 C 138.000 344.515,138.495 344.919,139.100 345.230 C 139.705 345.540,140.491 346.111,140.847 346.497 C 141.203 346.884,141.614 347.200,141.760 347.200 C 142.222 347.200,144.575 349.758,145.168 350.903 C 145.480 351.506,145.885 352.000,146.068 352.000 C 146.250 352.000,146.400 352.360,146.400 352.800 C 146.400 353.240,146.580 353.600,146.800 353.600 C 147.020 353.600,147.200 353.960,147.200 354.400 C 147.200 354.840,147.380 355.200,147.600 355.200 C 147.820 355.200,148.000 355.639,148.000 356.176 C 148.000 356.713,148.180 357.264,148.400 357.400 C 148.632 357.543,148.800 359.737,148.800 362.624 C 148.800 365.675,148.645 367.600,148.400 367.600 C 148.180 367.600,148.000 368.140,148.000 368.800 C 148.000 369.460,147.820 370.000,147.600 370.000 C 147.380 370.000,147.200 370.360,147.200 370.800 C 147.200 371.240,147.020 371.600,146.800 371.600 C 146.580 371.600,146.400 371.876,146.400 372.214 C 146.400 374.178,138.678 380.800,136.388 380.800 C 135.955 380.800,135.600 380.980,135.600 381.200 C 135.600 381.420,135.060 381.600,134.400 381.600 C 133.740 381.600,133.200 381.780,133.200 382.000 C 133.200 382.237,131.733 382.400,129.600 382.400 C 127.467 382.400,126.000 382.237,126.000 382.000 C 126.000 381.780,125.640 381.600,125.200 381.600 C 124.760 381.600,124.400 381.420,124.400 381.200 C 124.400 380.980,124.164 380.800,123.875 380.800 C 123.587 380.800,122.964 380.440,122.492 380.000 C 122.020 379.560,121.446 379.200,121.217 379.200 C 120.988 379.200,120.800 379.012,120.800 378.783 C 120.800 378.553,120.341 377.878,119.779 377.283 C 119.218 376.687,118.656 375.705,118.529 375.100 C 118.403 374.495,118.142 374.000,117.950 374.000 C 117.758 374.000,117.600 371.840,117.600 369.200 C 117.600 366.267,117.444 364.400,117.200 364.400 C 116.980 364.400,116.800 363.860,116.800 363.200 C 116.800 362.540,116.620 362.000,116.400 362.000 C 116.180 362.000,116.000 361.794,116.000 361.543 C 116.000 360.863,113.635 358.731,113.187 359.008 C 112.974 359.140,112.800 359.057,112.800 358.824 C 112.800 358.591,112.361 358.400,111.824 358.400 C 111.287 358.400,110.736 358.220,110.600 358.000 C 110.464 357.780,109.373 357.600,108.176 357.600 C 106.979 357.600,106.000 357.780,106.000 358.000 C 106.000 358.220,105.475 358.400,104.833 358.400 C 103.532 358.400,100.400 361.063,100.400 362.169 C 100.400 362.516,100.220 362.800,100.000 362.800 C 99.748 362.800,99.600 365.533,99.600 370.200 C 99.600 374.867,99.748 377.600,100.000 377.600 C 100.220 377.600,100.400 378.320,100.400 379.200 C 100.400 380.080,100.580 380.800,100.800 380.800 C 101.020 380.800,101.200 381.239,101.200 381.776 C 101.200 382.313,101.380 382.864,101.600 383.000 C 101.820 383.136,102.000 383.597,102.000 384.024 C 102.000 384.451,102.180 384.800,102.400 384.800 C 102.620 384.800,102.800 385.036,102.800 385.325 C 102.800 385.613,103.160 386.236,103.600 386.708 C 104.040 387.180,104.400 387.719,104.400 387.905 C 104.400 388.346,106.679 390.780,108.154 391.913 C 108.789 392.401,109.171 392.800,109.004 392.800 C 108.836 392.800,109.387 393.430,110.228 394.200 C 111.069 394.970,111.909 395.600,112.095 395.600 C 112.281 395.600,112.820 395.960,113.292 396.400 C 113.764 396.840,114.387 397.200,114.675 397.200 C 114.964 397.200,115.200 397.380,115.200 397.600 C 115.200 397.820,115.549 398.000,115.976 398.000 C 116.403 398.000,116.864 398.180,117.000 398.400 C 117.136 398.620,117.672 398.800,118.190 398.800 C 118.709 398.800,119.208 399.025,119.300 399.300 C 119.427 399.682,121.831 399.800,129.513 399.800 C 137.017 399.800,139.686 399.673,140.060 399.300 C 140.335 399.025,140.974 398.800,141.480 398.800 C 141.986 398.800,142.400 398.620,142.400 398.400 C 142.400 398.180,142.940 398.000,143.600 398.000 C 144.260 398.000,144.800 397.820,144.800 397.600 C 144.800 397.380,145.160 397.200,145.600 397.200 C 146.040 397.200,146.400 397.020,146.400 396.800 C 146.400 396.580,146.720 396.400,147.112 396.400 C 147.503 396.400,148.083 396.040,148.400 395.600 C 148.717 395.160,149.297 394.800,149.688 394.800 C 150.080 394.800,150.400 394.620,150.400 394.400 C 150.400 394.180,150.631 394.000,150.914 394.000 C 152.137 394.000,160.400 385.877,160.400 384.675 C 160.400 384.401,160.760 383.917,161.200 383.600 C 161.640 383.283,162.000 382.703,162.000 382.312 C 162.000 381.920,162.180 381.600,162.400 381.600 C 162.620 381.600,162.800 381.240,162.800 380.800 C 162.800 380.360,162.980 380.000,163.200 380.000 C 163.420 380.000,163.600 379.640,163.600 379.200 C 163.600 378.760,163.780 378.400,164.000 378.400 C 164.220 378.400,164.400 378.040,164.400 377.600 C 164.400 377.160,164.580 376.800,164.800 376.800 C 165.020 376.800,165.200 376.361,165.200 375.824 C 165.200 375.287,165.380 374.736,165.600 374.600 C 165.820 374.464,166.000 373.733,166.000 372.976 C 166.000 372.219,166.180 371.600,166.400 371.600 C 166.620 371.600,166.800 370.711,166.800 369.624 C 166.800 368.537,166.980 367.536,167.200 367.400 C 167.429 367.259,167.600 365.204,167.600 362.600 C 167.600 359.996,167.429 357.941,167.200 357.800 C 166.980 357.664,166.800 356.663,166.800 355.576 C 166.800 354.489,166.620 353.600,166.400 353.600 C 166.180 353.600,166.000 352.880,166.000 352.000 C 166.000 351.120,165.820 350.400,165.600 350.400 C 165.380 350.400,165.200 349.860,165.200 349.200 C 165.200 348.540,165.020 348.000,164.800 348.000 C 164.580 348.000,164.400 347.640,164.400 347.200 C 164.400 346.760,164.220 346.400,164.000 346.400 C 163.780 346.400,163.600 346.040,163.600 345.600 C 163.600 345.160,163.420 344.800,163.200 344.800 C 162.980 344.800,162.800 344.429,162.800 343.976 C 162.800 343.523,162.620 343.264,162.400 343.400 C 162.180 343.536,162.000 343.316,162.000 342.912 C 162.000 342.507,161.640 341.917,161.200 341.600 C 160.760 341.283,160.400 340.787,160.400 340.497 C 160.400 340.208,160.036 339.573,159.591 339.086 C 157.207 336.474,156.400 335.480,156.400 335.158 C 156.400 334.961,156.221 334.800,156.002 334.800 C 155.783 334.800,154.685 333.900,153.561 332.800 C 152.438 331.700,151.267 330.800,150.959 330.800 C 150.652 330.800,150.400 330.642,150.400 330.449 C 150.400 330.255,149.860 329.873,149.200 329.600 C 148.540 329.327,148.000 328.945,148.000 328.751 C 148.000 328.558,147.640 328.400,147.200 328.400 C 146.760 328.400,146.400 328.220,146.400 328.000 C 146.400 327.780,146.051 327.600,145.624 327.600 C 145.197 327.600,144.736 327.420,144.600 327.200 C 144.464 326.980,143.913 326.800,143.376 326.800 C 142.839 326.800,142.400 326.663,142.400 326.495 C 142.400 326.063,138.499 325.187,137.789 325.460 C 137.465 325.584,137.200 325.486,137.200 325.243 C 137.200 324.516,38.538 324.628,37.142 325.357 M178.503 325.375 C 175.200 327.201,173.365 334.171,175.256 337.704 C 176.284 339.625,178.519 341.600,179.664 341.600 C 180.289 341.600,180.800 341.780,180.800 342.000 C 180.800 342.265,199.600 342.400,236.400 342.400 C 273.200 342.400,292.000 342.535,292.000 342.800 C 292.000 343.020,292.450 343.200,293.000 343.200 C 293.550 343.200,294.000 343.380,294.000 343.600 C 294.000 343.820,294.360 344.000,294.800 344.000 C 295.240 344.000,295.600 344.180,295.600 344.400 C 295.600 344.620,295.960 344.800,296.400 344.800 C 296.840 344.800,297.200 344.980,297.200 345.200 C 297.200 345.420,297.473 345.600,297.806 345.600 C 298.597 345.600,304.400 351.403,304.400 352.194 C 304.400 352.527,304.580 352.800,304.800 352.800 C 305.020 352.800,305.200 353.160,305.200 353.600 C 305.200 354.040,305.380 354.400,305.600 354.400 C 305.820 354.400,306.000 354.760,306.000 355.200 C 306.000 355.640,306.180 356.000,306.400 356.000 C 306.620 356.000,306.800 356.540,306.800 357.200 C 306.800 357.860,306.980 358.400,307.200 358.400 C 307.440 358.400,307.600 359.992,307.600 362.376 C 307.600 364.596,307.423 366.462,307.200 366.600 C 306.980 366.736,306.800 367.377,306.800 368.024 C 306.800 368.671,306.620 369.200,306.400 369.200 C 306.180 369.200,306.000 369.560,306.000 370.000 C 306.000 370.440,305.820 370.800,305.600 370.800 C 305.380 370.800,305.200 371.160,305.200 371.600 C 305.200 372.040,305.020 372.400,304.800 372.400 C 304.580 372.400,304.400 372.684,304.400 373.031 C 304.400 373.931,298.779 379.200,297.820 379.200 C 297.516 379.200,297.207 379.335,297.133 379.500 C 296.915 379.991,293.584 381.600,292.786 381.600 C 292.380 381.600,291.936 381.780,291.800 382.000 C 291.664 382.220,290.044 382.400,288.200 382.400 C 286.356 382.400,284.736 382.220,284.600 382.000 C 284.464 381.780,283.913 381.600,283.376 381.600 C 282.839 381.600,282.400 381.432,282.400 381.227 C 282.400 381.022,282.023 380.734,281.562 380.588 C 280.455 380.236,277.780 377.456,277.125 375.975 C 276.839 375.329,276.469 374.800,276.302 374.800 C 276.136 374.800,276.000 373.936,276.000 372.880 C 276.000 371.824,275.835 370.789,275.634 370.580 C 275.432 370.371,275.207 368.362,275.134 366.116 L 275.000 362.032 273.217 360.216 C 271.945 358.921,271.113 358.400,270.317 358.400 C 269.703 358.400,269.200 358.220,269.200 358.000 C 269.200 357.777,268.125 357.600,266.776 357.600 C 265.263 357.600,264.446 357.750,264.600 358.000 C 264.747 358.238,264.279 358.400,263.447 358.400 C 261.402 358.400,258.400 361.387,258.400 363.421 C 258.400 364.270,258.238 364.747,258.000 364.600 C 257.741 364.440,257.600 366.263,257.600 369.776 C 257.600 373.125,257.753 375.200,258.000 375.200 C 258.220 375.200,258.400 376.089,258.400 377.176 C 258.400 378.263,258.583 379.266,258.807 379.404 C 259.030 379.542,259.113 379.818,258.990 380.016 C 258.868 380.214,259.037 380.899,259.368 381.538 C 259.698 382.176,259.855 382.811,259.717 382.949 C 259.579 383.087,259.677 383.200,259.933 383.200 C 260.190 383.200,260.400 383.560,260.400 384.000 C 260.400 384.440,260.580 384.800,260.800 384.800 C 261.020 384.800,261.200 385.160,261.200 385.600 C 261.200 386.040,261.380 386.400,261.600 386.400 C 261.820 386.400,262.000 386.643,262.000 386.941 C 262.000 387.238,262.540 388.046,263.200 388.737 C 263.860 389.428,264.400 390.089,264.400 390.207 C 264.400 390.624,267.986 394.000,268.429 394.000 C 268.677 394.000,269.383 394.540,270.000 395.200 C 270.617 395.860,271.409 396.400,271.760 396.400 C 272.112 396.400,272.400 396.580,272.400 396.800 C 272.400 397.020,272.760 397.200,273.200 397.200 C 273.640 397.200,274.000 397.380,274.000 397.600 C 274.000 397.820,274.360 398.000,274.800 398.000 C 275.240 398.000,275.600 398.180,275.600 398.400 C 275.600 398.620,276.035 398.800,276.567 398.800 C 277.098 398.800,277.608 399.025,277.700 399.300 C 277.828 399.683,280.289 399.800,288.200 399.800 C 296.111 399.800,298.573 399.683,298.700 399.300 C 298.792 399.025,299.392 398.800,300.033 398.800 C 300.675 398.800,301.200 398.620,301.200 398.400 C 301.200 398.180,301.549 398.000,301.976 398.000 C 302.403 398.000,302.864 397.820,303.000 397.600 C 303.136 397.380,303.597 397.200,304.024 397.200 C 304.451 397.200,304.800 397.020,304.800 396.800 C 304.800 396.580,305.160 396.400,305.600 396.400 C 306.040 396.400,306.400 396.220,306.400 396.000 C 306.400 395.780,306.670 395.600,307.000 395.600 C 307.330 395.600,307.600 395.420,307.600 395.200 C 307.600 394.980,307.830 394.800,308.112 394.800 C 308.393 394.800,308.883 394.440,309.200 394.000 C 309.517 393.560,310.013 393.200,310.303 393.200 C 310.896 393.200,311.650 392.557,315.615 388.669 C 317.147 387.168,318.400 385.722,318.400 385.458 C 318.400 385.193,318.760 384.717,319.200 384.400 C 319.640 384.083,320.000 383.503,320.000 383.112 C 320.000 382.720,320.148 382.400,320.329 382.400 C 320.664 382.400,322.703 378.150,323.592 375.600 C 323.861 374.830,324.288 373.768,324.540 373.240 C 326.153 369.872,324.551 347.214,322.700 347.202 C 322.535 347.201,322.400 346.935,322.400 346.612 C 322.400 346.289,322.057 345.414,321.638 344.667 C 321.218 343.920,320.633 342.882,320.338 342.359 C 320.042 341.836,319.485 341.116,319.100 340.757 C 318.715 340.399,318.400 339.917,318.400 339.686 C 318.400 339.100,310.952 331.600,310.369 331.600 C 310.108 331.600,309.601 331.285,309.243 330.900 C 308.884 330.515,308.164 329.958,307.641 329.662 C 307.118 329.367,306.080 328.782,305.333 328.362 C 304.586 327.943,303.726 327.600,303.421 327.600 C 303.116 327.600,302.807 327.455,302.733 327.279 C 302.511 326.743,296.964 325.162,296.258 325.433 C 295.892 325.574,295.600 325.489,295.600 325.243 C 295.600 324.565,179.731 324.695,178.503 325.375 M6.000 358.000 C 6.000 358.220,5.475 358.400,4.833 358.400 C 4.007 358.400,3.158 358.888,1.933 360.065 L 0.200 361.731 0.200 366.820 L 0.200 371.910 1.773 373.350 C 3.950 375.344,1.383 375.243,46.883 375.116 L 87.966 375.000 89.783 373.217 C 91.079 371.945,91.600 371.113,91.600 370.317 C 91.600 369.703,91.780 369.200,92.000 369.200 C 92.523 369.200,92.523 364.523,92.000 364.200 C 91.780 364.064,91.600 363.512,91.600 362.974 C 91.600 361.673,88.308 358.400,87.000 358.400 C 86.476 358.400,85.936 358.220,85.800 358.000 C 85.458 357.447,6.000 357.447,6.000 358.000 M180.800 358.000 C 180.800 358.220,180.289 358.400,179.664 358.400 C 178.519 358.400,176.284 360.375,175.256 362.296 C 174.634 363.457,174.667 370.173,175.300 371.305 C 176.118 372.770,177.330 374.040,178.480 374.638 C 179.741 375.294,244.383 375.491,246.085 374.844 C 247.392 374.347,249.600 372.209,249.600 371.440 C 249.600 371.088,249.780 370.800,250.000 370.800 C 250.240 370.800,250.400 369.200,250.400 366.800 C 250.400 364.400,250.240 362.800,250.000 362.800 C 249.780 362.800,249.600 362.516,249.600 362.169 C 249.600 361.063,246.468 358.400,245.167 358.400 C 244.525 358.400,244.000 358.220,244.000 358.000 C 244.000 357.737,233.200 357.600,212.400 357.600 C 191.600 357.600,180.800 357.737,180.800 358.000 " stroke="none" fill="#4393fc" fill-rule="evenodd"></path><path id="path2" d="M229.800 82.059 C 224.843 84.613,221.567 86.501,221.761 86.694 C 221.882 86.815,222.240 86.699,222.557 86.436 C 222.874 86.173,225.173 84.891,227.667 83.588 C 230.160 82.285,232.020 81.223,231.800 81.227 C 231.580 81.232,230.680 81.606,229.800 82.059 M220.000 87.600 C 219.450 88.030,219.197 88.386,219.438 88.391 C 219.679 88.396,220.202 88.040,220.600 87.600 C 221.512 86.592,221.288 86.592,220.000 87.600 M215.096 91.115 C 213.188 92.592,211.621 93.931,211.614 94.092 C 211.606 94.252,213.016 93.240,214.747 91.843 C 216.478 90.445,218.143 89.214,218.447 89.106 C 218.751 88.998,218.902 88.802,218.782 88.670 C 218.662 88.539,217.003 89.639,215.096 91.115 M206.475 99.028 L 202.080 103.656 199.140 103.448 C 196.753 103.278,196.538 103.305,198.000 103.590 C 201.923 104.355,201.797 104.419,206.730 99.196 C 209.221 96.558,211.172 94.400,211.065 94.400 C 210.957 94.400,208.892 96.483,206.475 99.028 M192.305 103.083 C 192.802 103.179,193.522 103.175,193.905 103.075 C 194.287 102.975,193.880 102.896,193.000 102.901 C 192.120 102.905,191.807 102.987,192.305 103.083 M185.800 103.600 C 184.453 103.841,184.390 103.891,185.400 103.914 C 186.060 103.929,187.410 103.797,188.400 103.620 C 190.015 103.333,190.056 103.301,188.800 103.307 C 188.030 103.311,186.680 103.442,185.800 103.600 M181.600 104.400 L 180.600 104.720 181.600 104.732 C 182.150 104.738,182.960 104.589,183.400 104.400 L 184.200 104.056 183.400 104.068 C 182.960 104.074,182.150 104.224,181.600 104.400 M177.516 105.601 C 174.850 106.478,170.000 108.672,170.000 109.001 C 170.000 109.126,170.315 109.064,170.700 108.863 C 172.579 107.882,176.034 106.467,178.100 105.832 C 179.365 105.444,180.400 105.052,180.400 104.963 C 180.400 104.702,179.941 104.804,177.516 105.601 M168.000 110.036 C 167.336 110.579,167.269 110.715,167.800 110.440 C 169.105 109.766,169.828 109.212,169.400 109.215 C 169.180 109.217,168.550 109.586,168.000 110.036 M165.700 111.288 C 165.205 111.527,164.800 111.879,164.800 112.070 C 164.800 112.262,165.250 112.124,165.800 111.763 C 167.267 110.802,167.216 110.557,165.700 111.288 M162.905 113.325 C 162.193 113.806,161.608 114.344,161.605 114.520 C 161.602 114.697,162.230 114.360,163.000 113.773 C 163.770 113.186,164.400 112.636,164.400 112.553 C 164.400 112.327,164.319 112.369,162.905 113.325 M157.691 118.100 C 155.907 119.915,154.104 121.850,153.685 122.400 C 151.830 124.837,149.956 127.689,150.109 127.842 C 150.201 127.934,151.136 126.717,152.187 125.137 C 153.237 123.557,155.721 120.585,157.707 118.532 C 159.693 116.479,161.232 114.800,161.127 114.800 C 161.022 114.800,159.476 116.285,157.691 118.100 M149.000 129.600 C 148.659 130.260,148.469 130.800,148.579 130.800 C 148.689 130.800,149.059 130.260,149.400 129.600 C 149.741 128.940,149.931 128.400,149.821 128.400 C 149.711 128.400,149.341 128.940,149.000 129.600 M147.472 132.619 C 146.532 134.589,146.664 134.924,147.647 133.062 C 148.093 132.216,148.387 131.454,148.301 131.367 C 148.214 131.281,147.841 131.844,147.472 132.619 M145.467 137.467 C 145.320 137.613,145.211 138.108,145.225 138.567 C 145.249 139.333,145.282 139.323,145.634 138.442 C 146.026 137.463,145.944 136.989,145.467 137.467 M144.667 139.867 C 144.520 140.013,144.411 140.508,144.425 140.967 C 144.449 141.733,144.482 141.723,144.834 140.842 C 145.226 139.863,145.144 139.389,144.667 139.867 M143.849 143.015 C 143.712 143.373,143.618 144.146,143.640 144.733 C 143.673 145.591,143.752 145.495,144.046 144.240 C 144.422 142.639,144.295 141.853,143.849 143.015 M143.050 148.050 C 142.729 149.653,142.798 158.710,143.140 159.924 C 143.283 160.432,143.400 157.687,143.400 153.824 C 143.400 149.961,143.378 146.800,143.350 146.800 C 143.322 146.800,143.188 147.363,143.050 148.050 M133.196 169.472 C 127.745 173.118,115.420 186.354,116.485 187.418 C 116.577 187.510,117.630 186.107,118.826 184.300 C 121.621 180.077,128.893 172.749,133.000 170.019 C 134.760 168.848,136.371 167.735,136.580 167.545 C 137.503 166.706,136.347 167.364,133.196 169.472 M115.414 189.035 C 115.041 189.604,114.827 190.161,114.939 190.272 C 115.050 190.383,115.429 189.918,115.781 189.237 C 116.559 187.733,116.344 187.615,115.414 189.035 M110.249 201.415 C 110.112 201.773,110.015 202.366,110.034 202.733 C 110.053 203.100,110.227 202.869,110.421 202.220 C 110.798 200.958,110.665 200.333,110.249 201.415 M109.449 204.215 C 109.312 204.573,109.218 205.346,109.240 205.933 C 109.273 206.791,109.352 206.695,109.646 205.440 C 110.022 203.839,109.895 203.053,109.449 204.215 M108.656 208.484 C 108.521 208.988,108.430 210.030,108.452 210.800 C 108.486 211.934,108.562 211.789,108.852 210.039 C 109.220 207.825,109.096 206.843,108.656 208.484 " stroke="none" fill="#a4b49c" fill-rule="evenodd"></path><path id="path3" d="M207.991 97.900 L 204.600 101.400 208.100 98.009 C 210.025 96.144,211.600 94.569,211.600 94.509 C 211.600 94.218,211.141 94.649,207.991 97.900 M191.500 103.493 C 192.435 103.577,193.965 103.577,194.900 103.493 C 195.835 103.409,195.070 103.340,193.200 103.340 C 191.330 103.340,190.565 103.409,191.500 103.493 M160.175 116.100 L 159.000 117.400 160.300 116.225 C 161.512 115.130,161.784 114.800,161.475 114.800 C 161.406 114.800,160.821 115.385,160.175 116.100 M143.693 146.800 C 143.693 147.570,143.775 147.885,143.876 147.500 C 143.976 147.115,143.976 146.485,143.876 146.100 C 143.775 145.715,143.693 146.030,143.693 146.800 M143.693 160.800 C 143.693 161.570,143.775 161.885,143.876 161.500 C 143.976 161.115,143.976 160.485,143.876 160.100 C 143.775 159.715,143.693 160.030,143.693 160.800 M125.389 176.500 L 122.600 179.400 125.500 176.611 C 128.194 174.020,128.583 173.600,128.289 173.600 C 128.228 173.600,126.923 174.905,125.389 176.500 " stroke="none" fill="#84acb4" fill-rule="evenodd"></path><path id="path4" d="M230.600 82.378 C 229.720 82.795,229.113 83.150,229.251 83.168 C 229.640 83.218,232.400 82.014,232.400 81.795 C 232.400 81.527,232.399 81.527,230.600 82.378 M226.200 84.550 C 221.165 87.343,220.407 87.809,220.403 88.112 C 220.401 88.284,221.384 87.795,222.587 87.026 C 223.789 86.256,225.679 85.168,226.787 84.607 C 227.894 84.046,228.800 83.500,228.800 83.393 C 228.800 83.108,228.797 83.109,226.200 84.550 M218.562 89.262 L 217.800 90.124 218.900 89.416 C 220.034 88.686,220.249 88.400,219.662 88.400 C 219.476 88.400,218.981 88.788,218.562 89.262 M204.818 101.500 C 202.933 103.620,202.609 103.818,200.686 104.035 L 198.600 104.270 200.651 104.335 C 202.701 104.400,202.704 104.398,204.985 101.800 C 206.240 100.370,207.177 99.200,207.066 99.200 C 206.955 99.200,205.943 100.235,204.818 101.500 M191.315 103.896 C 192.588 103.976,194.568 103.975,195.715 103.894 C 196.862 103.814,195.820 103.749,193.400 103.750 C 190.980 103.751,190.042 103.816,191.315 103.896 M184.200 104.403 C 183.685 104.626,184.113 104.667,185.400 104.518 C 186.500 104.391,187.475 104.223,187.567 104.144 C 187.914 103.845,184.964 104.072,184.200 104.403 M180.800 105.206 C 180.378 105.482,180.615 105.523,181.600 105.342 C 183.325 105.025,183.651 104.798,182.367 104.806 C 181.835 104.809,181.130 104.989,180.800 105.206 M161.985 114.818 L 160.600 116.035 162.095 115.118 C 162.917 114.613,163.592 114.065,163.595 113.900 C 163.603 113.437,163.469 113.513,161.985 114.818 M154.698 122.100 C 152.280 125.133,151.600 126.101,151.600 126.510 C 151.600 126.731,152.070 126.212,152.646 125.356 C 153.221 124.500,154.313 123.035,155.072 122.100 C 155.832 121.165,156.364 120.400,156.254 120.400 C 156.144 120.400,155.444 121.165,154.698 122.100 M149.840 129.198 C 149.240 130.299,148.836 131.200,148.941 131.200 C 149.208 131.200,151.243 127.510,151.071 127.337 C 150.993 127.260,150.439 128.097,149.840 129.198 M144.446 143.467 C 144.421 143.724,144.284 144.264,144.141 144.667 C 143.940 145.236,143.994 145.297,144.379 144.942 C 144.652 144.691,144.789 144.151,144.684 143.742 C 144.579 143.334,144.472 143.210,144.446 143.467 M143.383 151.040 C 143.227 152.712,143.258 155.367,143.453 156.940 C 143.778 159.559,143.811 159.303,143.842 153.900 C 143.880 147.231,143.792 146.681,143.383 151.040 M144.000 163.154 C 144.000 163.594,143.600 164.235,143.111 164.577 C 141.933 165.402,142.550 165.382,143.814 164.554 C 144.836 163.884,145.093 163.028,144.400 162.600 C 144.180 162.464,144.000 162.713,144.000 163.154 M138.600 166.800 C 137.940 167.237,137.580 167.592,137.800 167.588 C 138.201 167.582,140.376 166.023,140.000 166.012 C 139.890 166.008,139.260 166.363,138.600 166.800 M134.795 169.054 C 132.412 170.631,131.049 171.810,133.000 170.606 C 136.275 168.583,137.615 167.600,137.095 167.600 C 137.037 167.600,136.002 168.254,134.795 169.054 M130.254 172.255 C 129.623 172.797,129.173 173.306,129.254 173.386 C 129.334 173.466,129.916 173.088,130.546 172.545 C 131.177 172.003,131.627 171.494,131.546 171.414 C 131.466 171.334,130.884 171.712,130.254 172.255 M121.926 180.500 C 120.371 182.429,118.454 185.205,119.094 184.600 C 119.738 183.992,123.645 178.800,123.459 178.800 C 123.370 178.800,122.680 179.565,121.926 180.500 M117.477 186.700 C 116.043 189.004,115.939 189.200,116.142 189.200 C 116.246 189.200,116.885 188.300,117.562 187.200 C 118.239 186.100,118.707 185.200,118.601 185.200 C 118.496 185.200,117.990 185.875,117.477 186.700 M110.046 204.667 C 110.021 204.924,109.884 205.464,109.741 205.867 C 109.540 206.436,109.594 206.497,109.979 206.142 C 110.252 205.891,110.389 205.351,110.284 204.942 C 110.179 204.534,110.072 204.410,110.046 204.667 M109.249 209.200 C 109.216 209.530,109.089 210.250,108.967 210.800 C 108.775 211.664,108.807 211.703,109.199 211.088 C 109.448 210.697,109.575 209.977,109.481 209.488 C 109.386 209.000,109.282 208.870,109.249 209.200 " stroke="none" fill="#5c9ce4" fill-rule="evenodd"></path></g></svg>